<?xml version="1.0" standalone="no"?>
<!DOCTYPE svg PUBLIC "-//W3C//DTD SVG 1.1//EN" "http://www.w3.org/Graphics/SVG/1.1/DTD/svg11.dtd" >
<svg xmlns="http://www.w3.org/2000/svg" xmlns:xlink="http://www.w3.org/1999/xlink" version="1.1">
<metadata>
Created by FontForge 20150824 at Thu Nov 10 00:47:47 2016
 By Everything Fonts
Copyright (c) 2010 by DA. All rights reserved.
</metadata>
<defs>
<font id="RussiaMediumItalic" horiz-adv-x="568" >
  <font-face 
    font-family="RussiaMediumItalic"
    font-weight="500"
    font-style="italic"
    font-stretch="normal"
    units-per-em="1000"
    panose-1="2 11 6 3 0 0 0 9 0 4"
    ascent="760"
    descent="-240"
    x-height="519"
    cap-height="676"
    bbox="-82 -228 1182.48 914"
    underline-thickness="20"
    underline-position="-153"
    slope="-10"
    unicode-range="U+0020-FB04"
  />
<missing-glyph horiz-adv-x="500" 
d="M24 0v764h418v-764h-418zM90 63h286v638h-286v-638z" />
    <glyph glyph-name="f_f" unicode="ff" horiz-adv-x="651" 
d="M445 -211h-115l115 649h-212l-115 -649h-115l115 649h-68l14 81h68l12 68q13 75 68.5 116.5t123.5 41.5q40 0 83 -15l-31 -97q-29 9 -59 9q-61 0 -71 -62l-11 -61h211l12 68q13 75 69 116.5t123 41.5q41 0 84 -15l-31 -97q-30 9 -59 9q-59 0 -71 -62l-12 -61h123l-36 -81
h-100z" />
    <glyph glyph-name="fi" unicode="fi" horiz-adv-x="581" 
d="M118 -211h-115l115 649h-68l14 81h68l12 68q13 75 68.5 116.5t123.5 41.5q40 0 83 -15l-31 -97q-29 9 -59 9q-61 0 -71 -62l-11 -61h122l-35 -81h-101zM593 658q0 -28 -20.5 -48t-48.5 -20q-29 0 -49.5 20t-20.5 48t21 47.5t49 19.5t48.5 -19.5t20.5 -47.5zM466 0h-115
l92 519h115z" />
    <glyph glyph-name="fl" unicode="fl" horiz-adv-x="583" 
d="M466 0h-115l127 725l119 20zM118 -211h-115l115 649h-68l14 81h68l12 68q13 75 68.5 116.5t123.5 41.5q40 0 83 -15l-31 -97q-29 9 -59 9q-61 0 -71 -62l-11 -61h122l-35 -81h-101z" />
    <glyph glyph-name="f_f_i" unicode="ffi" horiz-adv-x="908" 
d="M445 -211h-115l115 649h-212l-115 -649h-115l115 649h-68l14 81h68l12 68q13 75 68.5 116.5t123.5 41.5q40 0 83 -15l-31 -97q-29 9 -59 9q-61 0 -71 -62l-11 -61h211l12 68q13 75 69 116.5t123 41.5q41 0 84 -15l-31 -97q-30 9 -59 9q-59 0 -71 -62l-12 -61h123l-36 -81
h-100zM920 658q0 -28 -20.5 -48t-48.5 -20q-29 0 -50 20t-21 48t21 47.5t50 19.5q28 0 48.5 -19.5t20.5 -47.5zM793 0h-115l91 519h115z" />
    <glyph glyph-name="f_f_l" unicode="ffl" horiz-adv-x="909" 
d="M793 0h-115l127 725l119 20zM445 -211h-115l115 649h-212l-115 -649h-115l115 649h-68l14 81h68l12 68q13 75 68.5 116.5t123.5 41.5q40 0 83 -15l-31 -97q-29 9 -59 9q-61 0 -71 -62l-11 -61h211l12 68q13 75 69 116.5t123 41.5q41 0 84 -15l-31 -97q-30 9 -59 9
q-59 0 -71 -62l-12 -61h123l-36 -81h-100z" />
    <glyph glyph-name="f_t" unicode="ft" horiz-adv-x="644" 
d="M490 0h-115l77 438h-219l-115 -649h-115l115 649h-68l14 81h68l12 68q13 75 68.5 116.5t123.5 41.5q40 0 83 -15l-31 -97q-29 9 -59 9q-61 0 -71 -62l-11 -61h220l25 144l118 19l-28 -163h91l-15 -81h-91z" />
    <glyph glyph-name="t_t" unicode="tt" horiz-adv-x="633" 
d="M479 0h-115l77 438h-201l-76 -438h-115l77 438h-66l-4 81h84l26 144l117 19l-28 -163h201l25 144l118 19l-29 -163h91l-14 -81h-91z" />
    <glyph glyph-name="f_y" unicode="fy" horiz-adv-x="814" 
d="M379 184l10 254h-156l-115 -649h-115l115 649h-68l14 81h68l12 68q13 75 68.5 116.5t123.5 41.5q40 0 83 -15l-31 -97q-29 9 -59 9q-61 0 -71 -62l-11 -61h260l-13 -325q-2 -47 12 -70t47 -23h36l125 418h115l-224 -730h-113l67 211h-27q-160 0 -153 184z" />
    <glyph glyph-name="t_y" unicode="ty" horiz-adv-x="808" 
d="M374 184l10 254h-144l-77 -438h-115l77 438h-66l-4 81h85l25 144l118 19l-28 -163h247l-13 -325q-2 -47 12 -70t47 -23h36l125 418h115l-224 -730h-113l67 211h-27q-160 0 -153 184z" />
    <glyph glyph-name=".notdef" horiz-adv-x="500" 
d="M24 0v764h418v-764h-418zM90 63h286v638h-286v-638z" />
    <glyph glyph-name=".null" horiz-adv-x="0" 
 />
    <glyph glyph-name="nonmarkingreturn" horiz-adv-x="333" 
 />
    <glyph glyph-name="space" unicode=" " horiz-adv-x="230" 
 />
    <glyph glyph-name="exclam" unicode="!" horiz-adv-x="249" 
d="M173 215h-107l73 451l124 20zM94 -8q-29 0 -50 21t-21 50q0 30 21 50t50 20t50 -20t21 -50q0 -29 -21 -50t-50 -21z" />
    <glyph glyph-name="quotedbl" unicode="&#x22;" horiz-adv-x="405" 
d="M367 488h-93l33 244h112zM199 488h-92l33 244h111z" />
    <glyph glyph-name="numbersign" unicode="#" horiz-adv-x="592" 
d="M378 0h-101l51 189h-116l-51 -189h-101l51 189h-69l18 102h80l35 128h-69l18 102h79l52 188h100l-51 -188h116l52 188h100l-52 -188h69l-18 -102h-79l-35 -128h68l-18 -102h-79zM356 291l35 128h-116l-35 -128h116z" />
    <glyph glyph-name="dollar" unicode="$" horiz-adv-x="486" 
d="M220 -124h-87l19 113q-72 4 -159 37l33 102q99 -37 177 -37q47 0 82 29.5t35 77.5q0 31 -25 52.5t-60 36t-70.5 31.5t-60.5 49.5t-25 79.5q0 90 56 149t145 70l20 114h86l-21 -115q58 -8 124 -35l-34 -98q-78 33 -141 33q-54 0 -83.5 -24.5t-29.5 -67.5q0 -29 25 -48.5
t60.5 -33.5t70.5 -31t60 -51t25 -83q0 -97 -58.5 -158t-144.5 -76z" />
    <glyph glyph-name="percent" unicode="%" horiz-adv-x="874" 
d="M407 528l-11 -67q-12 -72 -63.5 -116.5t-118.5 -44.5q-68 0 -103.5 44.5t-22.5 116.5l12 67q13 73 63.5 117t118.5 44q67 0 102.5 -44t22.5 -117zM280 0h-94l432 676h92zM310 463l11 63q14 84 -53 84q-31 0 -53 -21t-29 -63l-11 -63q-14 -82 53 -82q31 0 53 20t29 62z
M809 215l-11 -67q-12 -72 -63.5 -116.5t-118.5 -44.5q-68 0 -103.5 44.5t-22.5 116.5l12 67q13 73 63.5 117t118.5 44q67 0 102.5 -44t22.5 -117zM712 150l11 63q14 83 -53 83q-31 0 -53 -20.5t-29 -62.5l-11 -63q-14 -82 53 -82q31 0 53 20t29 62z" />
    <glyph glyph-name="ampersand" unicode="&#x26;" horiz-adv-x="561" 
d="M552 305h-52l-19 -115q-15 -88 -81.5 -145.5t-167.5 -57.5q-88 0 -137.5 46t-49.5 119q0 61 30.5 114t83.5 85q-51 39 -51 110q0 97 68.5 162.5t173.5 65.5q66 0 145 -32l-42 -95q-54 24 -109 24q-56 0 -87.5 -32.5t-31.5 -78.5q0 -33 20.5 -54t60.5 -21h50l-18 -96h-53
q-52 0 -87 -42t-35 -93q0 -36 23 -57.5t64 -21.5q48 0 80.5 28t40.5 72l37 210h161z" />
    <glyph glyph-name="quotesingle" unicode="'" horiz-adv-x="238" 
d="M218 489h-92l33 243h112z" />
    <glyph glyph-name="parenleft" unicode="(" horiz-adv-x="328" 
d="M252 -127l-17 -101q-230 0 -193 213l105 601q38 213 269 213l-18 -101q-64 0 -97 -26.5t-43 -88.5l-105 -595q-11 -62 12 -88.5t87 -26.5z" />
    <glyph glyph-name="parenright" unicode=")" horiz-adv-x="327" 
d="M-55 -228l18 101q63 0 95.5 26.5t43.5 88.5l105 595q11 62 -12.5 88.5t-86.5 26.5l17 101q230 0 193 -213l-106 -601q-37 -213 -267 -213z" />
    <glyph glyph-name="asterisk" unicode="*" horiz-adv-x="484" 
d="M404 408l-82 61l-14 -114h-95l25 114l-105 -61l-32 83l109 52l-90 53l61 83l83 -61l16 114h95l-26 -114l103 61l34 -83l-109 -53l90 -52z" />
    <glyph glyph-name="plus" unicode="+" horiz-adv-x="575" 
d="M512 228h-173v-173h-99v173h-174v99h174v173h99v-173h173v-99z" />
    <glyph glyph-name="comma" unicode="," horiz-adv-x="267" 
d="M62 -143l-77 14l90 255h110z" />
    <glyph glyph-name="hyphen" unicode="-" horiz-adv-x="497" 
d="M419 223h-334l18 99h333z" />
    <glyph glyph-name="period" unicode="." horiz-adv-x="263" 
d="M106 -11q-29 0 -50 21.5t-21 50.5q0 30 21 50t50 20q28 0 49 -20.5t21 -49.5t-21 -50.5t-49 -21.5z" />
    <glyph glyph-name="slash" unicode="/" horiz-adv-x="373" 
d="M101 -63h-101l324 795h102z" />
    <glyph glyph-name="zero" unicode="0" horiz-adv-x="579" 
d="M555 415l-27 -153q-24 -136 -102 -205.5t-181 -69.5t-157.5 69.5t-30.5 205.5l26 153q24 136 102.5 205t182.5 69t157.5 -69t29.5 -205zM413 262l27 153q30 173 -90 173q-121 0 -151 -173l-27 -153q-30 -174 91 -174q120 0 150 174z" />
    <glyph glyph-name="one" unicode="1" horiz-adv-x="386" 
d="M265 0h-116l100 570l-154 -26l18 102l272 42z" />
    <glyph glyph-name="two" unicode="2" horiz-adv-x="514" 
d="M415 0h-415l12 71q9 54 35 99.5t59.5 76.5t72 57.5t75 49t66.5 45t48.5 50t18.5 59.5q0 34 -22.5 57t-63.5 23q-67 0 -156 -41l-24 91q104 51 202 51q83 0 132.5 -43.5t49.5 -116.5q0 -53 -25 -99.5t-63 -78t-83 -63.5t-85 -58t-70.5 -60.5t-36.5 -71.5h290z" />
    <glyph glyph-name="three" unicode="3" horiz-adv-x="483" 
d="M-15 21l32 95q86 -28 138 -28q66 0 112 39t46 104q0 36 -24.5 58t-77.5 22h-79v93l201 174h-243v98h382l-8 -98l-201 -174q73 -2 121 -45.5t48 -114.5q0 -115 -81.5 -186t-192.5 -71q-83 0 -173 34z" />
    <glyph glyph-name="four" unicode="4" horiz-adv-x="547" 
d="M374 1l-113 -10l27 151h-248v93l210 441h108l-200 -431h148l37 209l114 18l-40 -227h93l-19 -103h-92z" />
    <glyph glyph-name="five" unicode="5" horiz-adv-x="500" 
d="M-11 19l34 98q89 -29 158 -29q62 0 108.5 39.5t46.5 117.5q0 86 -121 86h-140l73 345h363l-37 -97h-241l-33 -152h43q99 0 155 -42.5t56 -122.5q0 -125 -84.5 -200t-196.5 -75q-90 0 -184 32z" />
    <glyph glyph-name="six" unicode="6" horiz-adv-x="550" 
d="M48 214l39 223q19 108 94 180t187 72q68 0 152 -28l-40 -97q-66 24 -129 24q-55 0 -94 -39t-52 -101l-6 -29q63 40 131 40q80 0 128.5 -46.5t48.5 -131.5q0 -128 -80.5 -211t-192.5 -83q-96 0 -150 64t-36 163zM183 327l-20 -114q-9 -49 13.5 -87t74.5 -38q63 0 100 54.5
t37 127.5q0 97 -89 97q-61 0 -116 -40z" />
    <glyph glyph-name="seven" unicode="7" horiz-adv-x="495" 
d="M245 0h-119q61 353 268 575h-307l9 101h444l-18 -97q-117 -119 -179 -246.5t-98 -332.5z" />
    <glyph glyph-name="eight" unicode="8" horiz-adv-x="561" 
d="M413 358q91 -58 91 -142q0 -69 -42 -123t-102.5 -80t-124.5 -26q-82 0 -141.5 43t-59.5 118q0 72 40.5 118t111.5 82q-74 51 -74 126q0 85 69 150t177 65q78 0 131 -42t53 -110q0 -112 -129 -179zM319 407q50 23 77.5 49.5t27.5 65.5q0 29 -23 47.5t-61 18.5
q-46 0 -78 -26.5t-32 -65.5q0 -29 22.5 -49t66.5 -40zM278 296q-61 -27 -93 -57t-32 -75q0 -33 28 -54.5t72 -21.5q52 0 92 30t40 75q0 33 -27 55.5t-80 47.5z" />
    <glyph glyph-name="nine" unicode="9" horiz-adv-x="547" 
d="M374 228l4 29q-63 -40 -129 -40q-81 0 -129.5 47t-48.5 132q0 127 81.5 210t193.5 83q98 0 150 -64.5t35 -162.5l-39 -223q-19 -109 -91 -180.5t-183 -71.5q-71 0 -153 28l37 99q70 -25 128 -25q56 0 95 38.5t49 100.5zM396 349l20 114q8 49 -13.5 87t-73.5 38
q-63 0 -101 -53.5t-38 -126.5q0 -46 22.5 -72.5t67.5 -26.5q61 0 116 40z" />
    <glyph glyph-name="colon" unicode=":" horiz-adv-x="260" 
d="M166 309q-29 0 -50 21.5t-21 50.5q0 30 20.5 50t50.5 20q28 0 49 -20.5t21 -49.5t-21 -50.5t-49 -21.5zM110 -11q-29 0 -50 21.5t-21 50.5q0 30 20.5 50t50.5 20q28 0 49 -20.5t21 -49.5t-21 -50.5t-49 -21.5z" />
    <glyph glyph-name="semicolon" unicode=";" horiz-adv-x="267" 
d="M160 314q-29 0 -50 21t-21 50q0 30 21 50t50 20t50 -20t21 -50q0 -29 -21.5 -50t-49.5 -21zM52 -159l-77 14l90 255h110z" />
    <glyph glyph-name="less" unicode="&#x3c;" horiz-adv-x="528" 
d="M386 -6l-342 286l342 286l64 -75l-251 -211l251 -210z" />
    <glyph glyph-name="equal" unicode="=" horiz-adv-x="567" 
d="M511 334h-446v99h446v-99zM511 126h-446v98h446v-98z" />
    <glyph glyph-name="greater" unicode="&#x3e;" horiz-adv-x="528" 
d="M502 280l-342 -286l-64 76l251 210l-251 211l64 75z" />
    <glyph glyph-name="question" unicode="?" horiz-adv-x="440" 
d="M269 199l-106 20l9 51q6 33 25.5 64.5t42 55.5t45 46.5t37.5 47.5t15 49q0 26 -17 41t-48 15q-50 0 -119 -43l-33 84q91 59 171 59q68 0 113 -36.5t45 -101.5q0 -37 -16 -71t-39 -60t-47 -49.5t-43 -49t-23 -49.5zM190 -11q-30 0 -51 21t-21 50q0 30 21.5 50t50.5 20
q28 0 49 -20.5t21 -49.5t-20.5 -50t-49.5 -21z" />
    <glyph glyph-name="at" unicode="@" horiz-adv-x="867" 
d="M634 -16l36 -73q-120 -84 -264 -84q-162 0 -257.5 103t-95.5 258q0 122 50.5 224t149 165.5t226.5 63.5q153 0 246 -102t93 -263q0 -42 -4 -63h-210l-8 -65q-8 -63 -61 -105.5t-125 -42.5q-67 0 -110 37t-43 96q0 72 51.5 111t133.5 39h71l2 19q3 33 -11.5 55.5
t-48.5 22.5q-53 0 -123 -21l-12 81q81 27 145 27q74 0 118 -46.5t33 -118.5l-3 -19h118q0 121 -73 199t-191 78q-146 0 -237 -107t-91 -258q0 -128 74 -207.5t199 -79.5q110 0 222 76zM496 148l8 65h-71q-34 0 -54 -17.5t-20 -51.5q0 -25 16 -41t45 -16q31 0 52 18t24 43z
" />
    <glyph glyph-name="A" unicode="A" horiz-adv-x="595" 
d="M-22 0l324 676h136l86 -676h-118l-19 173h-208l-79 -173h-122zM224 272h153l-20 168q-5 40 -7 115q-31 -80 -47 -115z" />
    <glyph glyph-name="B" unicode="B" horiz-adv-x="563" 
d="M242 0h-210l119 676h209q88 0 138 -41t50 -109q0 -119 -112 -171q85 -34 85 -122q0 -96 -74.5 -164.5t-204.5 -68.5zM220 397h81q56 0 90 29.5t34 76.5q0 69 -86 69h-88zM168 104h91q63 0 101.5 31t38.5 86q0 76 -98 76h-99z" />
    <glyph glyph-name="C" unicode="C" horiz-adv-x="550" 
d="M466 119l4 -101q-107 -31 -194 -31q-118 0 -178.5 70.5t-37.5 204.5l26 152q23 135 104.5 205t202.5 70q88 0 184 -31l-35 -101q-86 28 -161 28q-146 0 -177 -180l-24 -134q-32 -180 114 -180q76 0 172 28z" />
    <glyph glyph-name="D" unicode="D" horiz-adv-x="622" 
d="M275 0h-243l111 633q159 56 253 56q102 0 160 -67.5t37 -185.5l-33 -190q-21 -121 -95 -183.5t-190 -62.5zM443 253l30 174q14 77 -12.5 117.5t-83.5 40.5q-59 0 -128 -24l-81 -457h124q66 0 101.5 34t49.5 115z" />
    <glyph glyph-name="E" unicode="E" horiz-adv-x="519" 
d="M32 0l119 676h379l-19 -104h-260l-32 -181h220l-23 -100h-215l-33 -187h270l-18 -104h-388z" />
    <glyph glyph-name="F" unicode="F" horiz-adv-x="506" 
d="M32 0l119 676h378l-19 -104h-259l-32 -181h212l-24 -100h-206l-51 -291h-118z" />
    <glyph glyph-name="G" unicode="G" horiz-adv-x="596" 
d="M60 262l26 152q23 135 107 205t206 70q90 0 177 -31l-35 -100q-77 26 -160 26q-146 0 -177 -178l-24 -135q-32 -179 114 -179q50 0 109 13l30 175h-70l15 88h181l-60 -345q-111 -36 -223 -36q-118 0 -178.5 70.5t-37.5 204.5z" />
    <glyph glyph-name="H" unicode="H" horiz-adv-x="625" 
d="M32 0l119 676h118l-50 -281h239l50 281h118l-119 -676h-118l51 293h-238l-52 -293h-118z" />
    <glyph glyph-name="I" unicode="I" horiz-adv-x="268" 
d="M32 0l119 676h118l-119 -676h-118z" />
    <glyph glyph-name="J" unicode="J" horiz-adv-x="459" 
d="M-19 21l33 98q76 -28 132 -28q101 0 125 136l79 449l117 -7l-79 -445q-20 -112 -82 -174.5t-162 -62.5q-80 0 -163 34z" />
    <glyph glyph-name="K" unicode="K" horiz-adv-x="588" 
d="M32 0l119 676h118l-52 -292l256 292h137l-269 -303l176 -373h-130l-129 280l-73 -82l-35 -198h-118z" />
    <glyph glyph-name="L" unicode="L" horiz-adv-x="500" 
d="M32 0l119 676h118l-101 -572h274l-24 -104h-386z" />
    <glyph glyph-name="M" unicode="M" horiz-adv-x="804" 
d="M-3 0l194 676h136l63 -350q6 -35 11 -87q16 44 39 87l189 350h136l-45 -676h-117l31 401q3 45 13 114q-29 -66 -54 -113l-150 -281h-127l-52 281q-8 45 -14 113q-14 -71 -26 -114l-110 -401h-117z" />
    <glyph glyph-name="N" unicode="N" horiz-adv-x="619" 
d="M32 0l119 676h95l180 -440q4 38 15 101l60 339h118l-119 -676h-97l-180 436q-9 -72 -15 -104l-58 -332h-118z" />
    <glyph glyph-name="O" unicode="O" horiz-adv-x="623" 
d="M266 -13q-111 0 -170 71t-36 204l26 150q23 134 106 205.5t197 71.5q110 0 168.5 -72t35.5 -205l-26 -150q-23 -134 -105 -204.5t-196 -70.5zM284 91q134 0 166 180l23 134q16 93 -12 136.5t-90 43.5q-63 0 -107 -43.5t-61 -136.5l-23 -134q-30 -180 104 -180z" />
    <glyph glyph-name="P" unicode="P" horiz-adv-x="543" 
d="M32 0l119 676h228q81 0 128 -48.5t47 -121.5q0 -99 -72.5 -174t-176.5 -75h-110l-45 -257h-118zM213 359h106q48 0 81 38t33 94q0 37 -20 59t-56 22h-106z" />
    <glyph glyph-name="Q" unicode="Q" horiz-adv-x="623" 
d="M266 -13q-111 0 -170 71t-36 204l26 150q23 134 106 205.5t197 71.5q110 0 168.5 -72t35.5 -205l-26 -150q-16 -93 -62 -156t-113 -93l26 -137l-99 -55l-32 167q-7 -1 -21 -1zM284 91q134 0 166 180l23 134q16 93 -12 136.5t-90 43.5q-63 0 -107 -43.5t-61 -136.5
l-23 -134q-30 -180 104 -180z" />
    <glyph glyph-name="R" unicode="R" horiz-adv-x="554" 
d="M32 0l119 676h228q82 0 128.5 -48t46.5 -122q0 -76 -44 -139t-116 -89l79 -278h-124l-68 262h-85l-46 -262h-118zM213 359h105q48 0 82 37.5t34 93.5q0 37 -21 59.5t-57 22.5h-105z" />
    <glyph glyph-name="S" unicode="S" horiz-adv-x="492" 
d="M0 26l33 102q92 -37 175 -37q48 0 82.5 30t34.5 78q0 31 -24.5 54.5t-59 40.5t-69.5 36.5t-59.5 54t-24.5 81.5q0 99 71 161t174 62q75 0 173 -39l-40 -97q-85 32 -144 32q-51 0 -80 -25.5t-29 -66.5q0 -29 24.5 -52t59.5 -41t69.5 -39t59 -57t24.5 -85
q0 -112 -74.5 -172t-178.5 -60q-96 0 -197 39z" />
    <glyph glyph-name="T" unicode="T" horiz-adv-x="513" 
d="M153 0l101 572h-169l18 104h456l-18 -104h-170l-100 -572h-118z" />
    <glyph glyph-name="U" unicode="U" horiz-adv-x="622" 
d="M66 222l80 454h118l-78 -445q-11 -64 15.5 -102t81.5 -38q56 0 96.5 38t51.5 102l78 445h118l-79 -454q-18 -103 -100 -169t-182 -66q-102 0 -160 66t-40 169z" />
    <glyph glyph-name="V" unicode="V" horiz-adv-x="592" 
d="M182 0l-86 676h119l47 -440q6 -57 7 -117q39 100 47 117l204 440h122l-324 -676h-136z" />
    <glyph glyph-name="W" unicode="W" horiz-adv-x="828" 
d="M107 0l6 676h121l-14 -399q-1 -47 -12 -131q50 125 53 130l141 293h129l38 -293q4 -33 8 -128q21 87 34 129l127 399h121l-232 -676h-133l-44 353q-5 43 -5 92q-24 -63 -37 -92l-168 -353h-133z" />
    <glyph glyph-name="X" unicode="X" horiz-adv-x="576" 
d="M-24 0l261 352l-121 324h126l79 -218l153 218h127l-229 -319l138 -357h-131l-90 250l-183 -250h-130z" />
    <glyph glyph-name="Y" unicode="Y" horiz-adv-x="558" 
d="M174 0l45 258l-127 418h123l80 -297l190 297h127l-275 -418l-45 -258h-118z" />
    <glyph glyph-name="Z" unicode="Z" horiz-adv-x="547" 
d="M1 0l14 84l376 488h-284l18 104h434l-14 -83l-378 -489h313l-30 -104h-449z" />
    <glyph glyph-name="bracketleft" unicode="[" horiz-adv-x="286" 
d="M201 -227h-187l181 1026h188l-17 -96h-78l-147 -834h77z" />
    <glyph glyph-name="backslash" unicode="\" horiz-adv-x="373" 
d="M280 -63h-102l-42 795h101z" />
    <glyph glyph-name="bracketright" unicode="]" horiz-adv-x="286" 
d="M145 -227h-188l17 96h78l147 834h-78l17 96h188z" />
    <glyph glyph-name="asciicircum" unicode="^" horiz-adv-x="605" 
d="M578 427l-104 -45l-87 254l-177 -254l-88 45l230 305h105z" />
    <glyph glyph-name="underscore" unicode="_" horiz-adv-x="518" 
d="M474 -181h-496v99h496v-99z" />
    <glyph glyph-name="grave" unicode="`" horiz-adv-x="391" 
d="M336 579l-194 79l42 77l189 -91z" />
    <glyph glyph-name="a" unicode="a" horiz-adv-x="522" 
d="M192 -13q-75 0 -121 57t-28 161l19 110q18 103 83 160t161 57q82 0 135 -59.5t36 -157.5l-56 -315h-102l4 48q-53 -61 -131 -61zM225 88q54 0 108 65l28 157q10 59 -10.5 90t-61.5 31q-40 0 -71.5 -31t-41.5 -90l-17 -100q-22 -122 66 -122z" />
    <glyph glyph-name="b" unicode="b" horiz-adv-x="521" 
d="M42 204l93 522l118 19l-46 -264q53 51 120 51q75 0 121 -57t28 -161l-20 -110q-18 -103 -82.5 -160t-161.5 -57q-82 0 -134.5 59.5t-35.5 157.5zM230 88q40 0 71 31t41 90l18 100q22 122 -66 122q-52 0 -108 -64l-28 -158q-10 -59 10.5 -90t61.5 -31z" />
    <glyph glyph-name="c" unicode="c" horiz-adv-x="457" 
d="M44 214l16 91q39 227 252 227q66 0 142 -24l-34 -97q-62 20 -119 20q-53 0 -83 -29.5t-43 -98.5l-16 -86q-12 -69 8.5 -99t74.5 -30q43 0 125 21l7 -98q-86 -24 -151 -24q-97 0 -148 57t-31 170z" />
    <glyph glyph-name="d" unicode="d" horiz-adv-x="517" 
d="M212 -13q-87 0 -136 60t-32 162l18 102q20 111 82 166t156 55q50 0 96 -28l40 228h115l-92 -523q-18 -104 -86 -163t-161 -59zM228 88q42 0 74 32t42 91l34 192q-44 28 -88 28q-91 0 -113 -122l-17 -98q-11 -59 8.5 -91t59.5 -32z" />
    <glyph glyph-name="e" unicode="e" horiz-adv-x="494" 
d="M43 214l18 102q18 102 83.5 159t155.5 57q69 0 116 -40.5t47 -104.5q0 -35 -13.5 -63t-39 -45.5t-53 -29.5t-66 -18.5t-67.5 -9.5t-66 -5l-3 -17q-19 -111 87 -111q60 0 144 28l5 -99q-90 -30 -166 -30q-101 0 -150.5 61t-31.5 166zM172 295q175 9 175 81q0 26 -17 40.5
t-46 14.5q-40 0 -69.5 -28.5t-38.5 -84.5z" />
    <glyph glyph-name="f" unicode="f" horiz-adv-x="325" 
d="M3 -211l115 649h-68l14 81h68l12 68q13 75 68.5 116.5t123.5 41.5q40 0 83 -15l-31 -97q-27 10 -59 10q-28 0 -47 -16t-24 -47l-11 -61h122l-35 -81h-101l-115 -649h-115z" />
    <glyph glyph-name="g" unicode="g" horiz-adv-x="521" 
d="M63 -99q66 -25 116 -25q59 0 90.5 39.5t41.5 96.5l7 40q-50 -52 -124 -52q-75 0 -121.5 57t-28.5 161l17 97q18 103 83 160t162 57q82 0 134.5 -59.5t35.5 -157.5l-57 -323q-17 -100 -80.5 -158t-170.5 -58q-63 0 -135 30zM226 101q58 0 108 63l26 146q10 59 -10.5 90
t-61.5 31q-40 0 -71 -31t-42 -90l-15 -87q-20 -122 66 -122z" />
    <glyph glyph-name="h" unicode="h" horiz-adv-x="538" 
d="M22 0l129 732h115l-44 -251q53 51 120 51q76 0 118 -53.5t22 -164.5l-55 -314h-115l54 309q12 65 -2.5 93.5t-54.5 28.5q-51 0 -107 -64l-65 -367h-115z" />
    <glyph glyph-name="i" unicode="i" horiz-adv-x="253" 
d="M195 597q-28 0 -48.5 20t-20.5 48q0 29 20.5 48.5t48.5 19.5q29 0 49.5 -19.5t20.5 -48.5q0 -28 -20.5 -48t-49.5 -20zM23 0l92 519h115l-92 -519h-115z" />
    <glyph glyph-name="j" unicode="j" horiz-adv-x="252" 
d="M195 597q-29 0 -49.5 20t-20.5 48q0 29 20.5 48.5t49.5 19.5q28 0 49 -19.5t21 -48.5q0 -28 -20.5 -48t-49.5 -20zM-16 -219l130 738h115l-127 -718z" />
    <glyph glyph-name="k" unicode="k" horiz-adv-x="481" 
d="M24 0l129 732h115l-75 -421l73 24q33 12 53 59l54 125h112l-65 -150q-20 -45 -39 -70.5t-50 -39.5l87 -259h-121l-67 221l-56 -19l-35 -202h-115z" />
    <glyph glyph-name="l" unicode="l" horiz-adv-x="256" 
d="M24 0l127 725l119 20l-131 -745h-115z" />
    <glyph glyph-name="m" unicode="m" horiz-adv-x="785" 
d="M19 0l57 323q17 100 81 154.5t147 54.5q91 0 121 -82q61 82 149 82q84 0 128 -54t27 -155l-56 -323h-115l54 313q21 118 -56 118q-78 0 -101 -135l-51 -296h-115l51 296q11 66 -3 100.5t-51 34.5q-76 0 -97 -118l-55 -313h-115z" />
    <glyph glyph-name="n" unicode="n" horiz-adv-x="535" 
d="M19 0l55 318q18 103 83 158.5t158 55.5q81 0 131 -57t33 -157l-56 -318h-115l55 313q10 57 -8.5 87.5t-57.5 30.5q-41 0 -69.5 -30.5t-38.5 -87.5l-55 -313h-115z" />
    <glyph glyph-name="o" unicode="o" horiz-adv-x="527" 
d="M215 -13q-88 0 -139 61t-33 167l16 90q20 111 84 169t168 58q89 0 139.5 -61t31.5 -167l-16 -89q-20 -111 -83.5 -169.5t-167.5 -58.5zM233 88q95 0 119 132l14 79q22 132 -74 132q-97 0 -119 -132l-14 -79q-22 -132 74 -132z" />
    <glyph glyph-name="p" unicode="p" horiz-adv-x="524" 
d="M127 12l-39 -223h-115l92 521q19 105 84 163.5t162 58.5q87 0 136 -60t32 -162l-18 -102q-20 -111 -82.5 -166t-157.5 -55q-42 0 -94 25zM146 116q46 -28 87 -28q91 0 113 122l17 98q11 59 -8.5 91t-59.5 32q-42 0 -73.5 -32t-41.5 -91z" />
    <glyph glyph-name="q" unicode="q" horiz-adv-x="525" 
d="M192 -13q-75 0 -121 57t-28 161l19 110q18 103 83 160t161 57q82 0 135 -59.5t36 -157.5l-90 -506l-118 -20l44 249q-53 -51 -121 -51zM225 88q57 0 108 64l28 158q10 59 -10.5 90t-61.5 31q-40 0 -71 -31t-42 -90l-17 -100q-22 -122 66 -122z" />
    <glyph glyph-name="r" unicode="r" horiz-adv-x="349" 
d="M19 0l59 335q16 91 75.5 144t150.5 53q43 0 78 -11l-28 -99q-30 9 -59 9q-39 0 -66.5 -26.5t-35.5 -69.5l-59 -335h-115z" />
    <glyph glyph-name="s" unicode="s" horiz-adv-x="402" 
d="M-10 16l31 96q70 -24 128 -24q38 0 63 18.5t25 46.5q0 24 -28.5 43t-62 31.5t-62 43.5t-28.5 77q0 80 55 132t146 52q68 0 131 -24l-32 -98q-61 21 -110 21q-34 0 -53 -16.5t-19 -41.5q0 -20 18.5 -35.5t45 -28.5t53.5 -28.5t45.5 -43.5t18.5 -66q0 -76 -54 -130
t-161 -54q-75 0 -150 29z" />
    <glyph glyph-name="t" unicode="t" horiz-adv-x="318" 
d="M49 0l77 438h-66l-4 81h84l26 144l118 19l-29 -163h91l-14 -81h-91l-77 -438h-115z" />
    <glyph glyph-name="u" unicode="u" horiz-adv-x="535" 
d="M53 201l56 318h115l-55 -313q-10 -57 8 -87.5t58 -30.5t69 30.5t39 87.5l55 313h115l-56 -318q-18 -103 -83 -158.5t-157 -55.5q-88 0 -135 56.5t-29 157.5z" />
    <glyph glyph-name="v" unicode="v" horiz-adv-x="487" 
d="M132 0l-71 519h118l30 -252q5 -51 9 -144q44 113 59 144l120 252h119l-255 -519h-129z" />
    <glyph glyph-name="w" unicode="w" horiz-adv-x="772" 
d="M51 176l37 343h114l-36 -335q-5 -43 9.5 -68.5t48.5 -25.5q33 0 57 27t32 69l53 298h113l-53 -298q-8 -42 7 -69t49 -27q33 0 57 25.5t35 68.5l83 335h114l-87 -343q-22 -88 -81 -138.5t-139 -50.5q-84 0 -118 71q-55 -71 -142 -71q-79 0 -120.5 51t-32.5 138z" />
    <glyph glyph-name="x" unicode="x" horiz-adv-x="486" 
d="M-30 0l206 268l-102 251h126l59 -154l114 154h126l-188 -248l112 -271h-129l-66 172l-130 -172h-128z" />
    <glyph glyph-name="y" unicode="y" horiz-adv-x="490" 
d="M55 184l13 335h115l-13 -325q-2 -47 12 -70t47 -23h36l125 418h115l-224 -730h-113l67 211h-27q-160 0 -153 184z" />
    <glyph glyph-name="z" unicode="z" horiz-adv-x="472" 
d="M3 0l14 85l283 336h-216l17 98h354l-15 -84l-279 -337h231l-27 -98h-362z" />
    <glyph glyph-name="braceleft" unicode="{" horiz-adv-x="405" 
d="M351 -125l-17 -100q-111 0 -162.5 49t-33.5 151l27 155q11 60 -10 86t-84 26l15 87q63 0 93 26t41 86l28 159q35 200 266 200l-17 -101q-66 0 -98 -22.5t-42 -79.5l-27 -156q-10 -56 -35 -93t-73 -63q72 -47 53 -155l-27 -153q-10 -56 14 -79t89 -23z" />
    <glyph glyph-name="bar" unicode="|" horiz-adv-x="260" 
d="M212 -200h-113v932h113v-932z" />
    <glyph glyph-name="braceright" unicode="}" horiz-adv-x="408" 
d="M-47 -225l18 100q64 0 95.5 23t41.5 79l28 153q18 106 107 155q-73 48 -53 156l28 156q10 57 -14 79.5t-89 22.5l18 101q111 0 162 -49t33 -151l-28 -159q-11 -60 10.5 -86t84.5 -26l-16 -87q-63 0 -92.5 -26t-40.5 -86l-28 -155q-35 -200 -265 -200z" />
    <glyph glyph-name="asciitilde" unicode="~" horiz-adv-x="591" 
d="M462 349l58 -63q-80 -97 -153 -97q-33 0 -60.5 19.5t-49 39t-39.5 19.5q-34 0 -75 -50l-58 64q80 97 154 97q33 0 60 -20t48.5 -39.5t39.5 -19.5q32 0 75 50z" />
    <glyph glyph-name="uni00A0" unicode="&#xa0;" horiz-adv-x="230" 
 />
    <glyph glyph-name="exclamdown" unicode="&#xa1;" horiz-adv-x="249" 
d="M257 515q0 -30 -21 -50t-50 -20t-50 20t-21 50q0 29 21 50t50 21t50 -21t21 -50zM141 -88l-125 -20l91 471h106z" />
    <glyph glyph-name="cent" unicode="&#xa2;" horiz-adv-x="466" 
d="M249 -124h-87l20 115q-77 13 -114.5 68.5t-19.5 154.5l16 91q34 204 213 225l20 113h87l-21 -114q38 -4 95 -21l-34 -98q-69 21 -118 21q-54 0 -85.5 -30t-42.5 -98l-14 -86q-12 -69 8 -99t74 -30q43 0 125 21l8 -98q-63 -17 -111 -22z" />
    <glyph glyph-name="sterling" unicode="&#xa3;" horiz-adv-x="483" 
d="M401 0h-383l15 86q82 86 95 181h-66l12 73h56q-6 93 -6 94q0 122 64 188.5t163 66.5q74 0 151 -36l-31 -93q-57 26 -113 26q-116 0 -116 -157q0 -17 5 -89h163l-13 -73h-153q-15 -106 -88 -172h261z" />
    <glyph glyph-name="currency" unicode="&#xa4;" horiz-adv-x="583" 
d="M448 56l-61 61q-42 -20 -83 -20q-46 0 -83 20l-61 -61l-81 79l62 62q-20 38 -20 83q0 44 20 82l-62 62l81 80l61 -62q38 20 83 20q44 0 82 -20l62 62l80 -80l-62 -61q21 -40 21 -83q0 -41 -20 -83l61 -62zM387 280q0 34 -24.5 58.5t-58.5 24.5t-58.5 -24.5t-24.5 -58.5
t24.5 -58.5t58.5 -24.5t58.5 24.5t24.5 58.5z" />
    <glyph glyph-name="yen" unicode="&#xa5;" horiz-adv-x="542" 
d="M427 101h-127l-17 -101h-117l17 101h-123l13 73h123l12 70h-123l13 73h94l-107 359h120l83 -310l193 310h118l-234 -359h99l-13 -73h-126l-12 -70h126z" />
    <glyph glyph-name="brokenbar" unicode="&#xa6;" horiz-adv-x="260" 
d="M212 382h-113v350h113v-350zM212 -200h-113v346h113v-346z" />
    <glyph glyph-name="section" unicode="&#xa7;" horiz-adv-x="573" 
d="M26 -98l25 101q81 -32 150 -32q45 0 75 22t30 66q0 28 -21 47.5t-51 34t-60.5 31t-51.5 47t-21 73.5q0 98 76 156q-4 15 -4 35q0 92 60.5 149t154.5 57q76 0 161 -35l-31 -98q-70 29 -127 29q-43 0 -67.5 -19.5t-24.5 -55.5q0 -24 21 -43.5t51 -34.5t60 -33.5t51 -50.5
t21 -75q0 -97 -77 -159q4 -13 4 -33q0 -101 -69 -158t-162 -57q-75 0 -173 36zM243 365q-17 -17 -17 -46q0 -26 20.5 -44t59 -38t57.5 -35q16 21 16 48q0 29 -19 47t-60 37.5t-57 30.5z" />
    <glyph glyph-name="dieresis" unicode="&#xa8;" horiz-adv-x="444" 
d="M457 662q0 -24 -17.5 -40.5t-41.5 -16.5t-41 16.5t-17 40.5q0 25 17 42.5t41 17.5t41.5 -17.5t17.5 -42.5zM269 662q0 -24 -17 -40.5t-42 -16.5q-24 0 -41 16.5t-17 40.5q0 25 17.5 42.5t40.5 17.5q25 0 42 -17.5t17 -42.5z" />
    <glyph glyph-name="copyright" unicode="&#xa9;" horiz-adv-x="749" 
d="M384 -13q-144 0 -229.5 95.5t-85.5 239.5t85.5 239.5t229.5 95.5q145 0 231 -95.5t86 -239.5t-86 -239.5t-231 -95.5zM384 56q113 0 177.5 74.5t64.5 191.5t-64.5 191.5t-177.5 74.5q-111 0 -176 -75t-65 -191t65 -191t176 -75zM470 219l15 -61q-57 -17 -104 -17
q-62 0 -103 38.5t-41 104.5v76q0 66 41 104.5t103 38.5q50 0 104 -17l-15 -60q-45 13 -88 13q-70 0 -70 -86v-63q0 -85 70 -85q40 0 88 14z" />
    <glyph glyph-name="ordfeminine" unicode="&#xaa;" horiz-adv-x="382" 
d="M351 301h-79l1 33q-34 -42 -88 -42q-52 0 -84.5 41t-19.5 113l13 77q13 73 59 113t116 40q59 0 96 -42t25 -111zM281 414l19 106q6 38 -6.5 57.5t-38.5 19.5q-25 0 -44.5 -19.5t-25.5 -57.5l-12 -70q-14 -79 39 -79q35 0 69 43z" />
    <glyph glyph-name="guillemotleft" unicode="&#xab;" horiz-adv-x="520" 
d="M444 141l-76 -51l-109 190l177 191l64 -58l-130 -137zM258 141l-76 -51l-109 190l177 191l64 -58l-130 -137z" />
    <glyph glyph-name="logicalnot" unicode="&#xac;" horiz-adv-x="567" 
d="M512 55h-98v168h-347v99h445v-267z" />
    <glyph glyph-name="uni00AD" unicode="&#xad;" horiz-adv-x="497" 
d="M419 223h-334l18 99h333z" />
    <glyph glyph-name="registered" unicode="&#xae;" horiz-adv-x="749" 
d="M384 -13q-144 0 -229.5 95.5t-85.5 239.5t85.5 239.5t229.5 95.5q145 0 231 -95.5t86 -239.5t-86 -239.5t-231 -95.5zM384 56q113 0 177.5 74.5t64.5 191.5t-64.5 191.5t-177.5 74.5q-111 0 -176 -75t-65 -191t65 -191t176 -75zM519 148h-80l-56 124h-39v-124h-75v350
h123q53 0 84.5 -32.5t31.5 -80.5q0 -73 -56 -100zM344 336h44q22 0 34 13.5t12 35.5q0 21 -12 35t-35 14h-43v-98z" />
    <glyph glyph-name="macron" unicode="&#xaf;" horiz-adv-x="413" 
d="M413 621h-248l14 81h249z" />
    <glyph glyph-name="degree" unicode="&#xb0;" horiz-adv-x="375" 
d="M257 489q-53 0 -89.5 37t-36.5 91q0 51 37.5 88t88.5 37t89 -38t38 -89q0 -52 -38 -89t-89 -37zM258 565q20 0 34.5 15t14.5 36q0 20 -14.5 34.5t-35.5 14.5q-20 0 -35 -14.5t-15 -34.5q0 -21 15 -36t36 -15z" />
    <glyph glyph-name="plusminus" unicode="&#xb1;" horiz-adv-x="558" 
d="M497 223h-169v-158h-98v158h-169v99h169v157h98v-157h169v-99zM497 -80h-436v98h436v-98z" />
    <glyph glyph-name="acute" unicode="&#xb4;" horiz-adv-x="387" 
d="M393 652l-218 -73l-17 72l217 85z" />
    <glyph glyph-name="mu" unicode="&#xb5;" horiz-adv-x="528" 
d="M87 -211h-114l129 730h114l-55 -313q-10 -57 8 -87.5t59 -30.5q40 0 69 30.5t39 87.5l55 313h115l-56 -318q-18 -103 -83 -158.5t-157 -55.5q-50 0 -84 21z" />
    <glyph glyph-name="paragraph" unicode="&#xb6;" horiz-adv-x="614" 
d="M489 -119h-110l121 688h-76l-121 -688h-110l71 399h-26q-65 0 -106 45.5t-41 114.5q0 93 67 164.5t158 71.5h313z" />
    <glyph glyph-name="periodcentered" unicode="&#xb7;" horiz-adv-x="282" 
d="M221 280q0 -26 -19 -44t-45 -18q-25 0 -44 18t-19 44q0 27 19 45.5t44 18.5q27 0 45.5 -18.5t18.5 -45.5z" />
    <glyph glyph-name="cedilla" unicode="&#xb8;" horiz-adv-x="338" 
d="M78 -83l16 83h91l-17 -94q-11 -60 -50 -88.5t-88 -28.5q-37 0 -72 11l20 83q29 -8 53 -8q41 0 47 42z" />
    <glyph glyph-name="ordmasculine" unicode="&#xba;" horiz-adv-x="385" 
d="M391 515l-9 -62q-12 -77 -58 -119t-120 -42q-63 0 -99.5 43.5t-23.5 117.5l11 63q13 77 58.5 118.5t120.5 41.5q61 0 96 -43.5t24 -117.5zM292 456l9 56q14 85 -45 85q-58 0 -74 -85l-10 -56q-16 -85 45 -85t75 85z" />
    <glyph glyph-name="guillemotright" unicode="&#xbb;" horiz-adv-x="519" 
d="M311 90l-65 58l130 137l-74 135l76 51l109 -190zM125 90l-65 58l130 137l-74 135l76 51l109 -190z" />
    <glyph glyph-name="questiondown" unicode="&#xbf;" horiz-adv-x="442" 
d="M375 513q0 -30 -21.5 -50t-50.5 -20q-28 0 -49 20.5t-21 49.5t20.5 50t49.5 21q30 0 51 -21t21 -50zM340 27l33 -84q-91 -59 -171 -59q-68 0 -113 36.5t-45 101.5q0 37 16 71t39 60t47 49.5t43 49t23 49.5l12 73l106 -20l-9 -51q-6 -33 -25.5 -64.5t-42 -55.5t-45 -46.5
t-37.5 -47.5t-15 -49q0 -26 17 -41t48 -15q50 0 119 43z" />
    <glyph glyph-name="Agrave" unicode="&#xc0;" horiz-adv-x="595" 
d="M465 721l-194 79l43 77l188 -91zM-22 0l324 676h136l86 -676h-118l-19 173h-208l-79 -173h-122zM224 272h153l-20 168q-5 40 -7 115q-31 -80 -47 -115z" />
    <glyph glyph-name="Aacute" unicode="&#xc1;" horiz-adv-x="595" 
d="M495 794l-219 -73l-17 72l218 85zM-22 0l324 676h136l86 -676h-118l-19 173h-208l-79 -173h-122zM224 272h153l-20 168q-5 40 -7 115q-31 -80 -47 -115z" />
    <glyph glyph-name="Acircumflex" unicode="&#xc2;" horiz-adv-x="595" 
d="M473 725l-83 63l-109 -63l-34 71l156 83l126 -83zM-22 0l324 676h136l86 -676h-118l-19 173h-208l-79 -173h-122zM224 272h153l-20 168q-5 40 -7 115q-31 -80 -47 -115z" />
    <glyph glyph-name="Atilde" unicode="&#xc3;" horiz-adv-x="595" 
d="M489 851l36 -53q-14 -24 -41 -42.5t-60 -18.5q-26 0 -56 23t-46 23q-29 0 -52 -29l-36 52q14 25 41.5 43.5t61.5 18.5q26 0 55.5 -23t45.5 -23q28 0 51 29zM-22 0l324 676h136l86 -676h-118l-19 173h-208l-79 -173h-122zM224 272h153l-20 168q-5 40 -7 115
q-31 -80 -47 -115z" />
    <glyph glyph-name="Adieresis" unicode="&#xc4;" horiz-adv-x="595" 
d="M535 804q0 -24 -17.5 -40.5t-41.5 -16.5t-41 16.5t-17 40.5q0 25 17.5 42.5t40.5 17.5q25 0 42 -17.5t17 -42.5zM347 804q0 -24 -17 -40.5t-41 -16.5t-41.5 16.5t-17.5 40.5t18 42t41 18q24 0 41 -17.5t17 -42.5zM-22 0l324 676h136l86 -676h-118l-19 173h-208l-79 -173
h-122zM224 272h153l-20 168q-5 40 -7 115q-31 -80 -47 -115z" />
    <glyph glyph-name="Aring" unicode="&#xc5;" horiz-adv-x="595" 
d="M384 721q-40 0 -69 28.5t-29 68.5q0 39 29 67.5t69 28.5q39 0 67.5 -28.5t28.5 -67.5q0 -40 -28.5 -68.5t-67.5 -28.5zM384 786q13 0 22.5 9.5t9.5 22.5q0 14 -9 23t-23 9t-23 -9t-9 -23q0 -13 9.5 -22.5t22.5 -9.5zM-22 0l324 676h136l86 -676h-118l-19 173h-208
l-79 -173h-122zM224 272h153l-20 168q-5 40 -7 115q-31 -80 -47 -115z" />
    <glyph glyph-name="AE" unicode="&#xc6;" horiz-adv-x="890" 
d="M812 0h-376l18 173h-216l-126 -173h-134l506 675h393l-12 -104h-257l-17 -180h230l-30 -100h-211l-20 -187h262zM489 516l-178 -244h153z" />
    <glyph glyph-name="Ccedilla" unicode="&#xc7;" horiz-adv-x="550" 
d="M216 -83l14 73q-97 13 -144 82.5t-26 189.5l26 152q23 135 104.5 205t202.5 70q88 0 184 -31l-35 -101q-86 28 -161 28q-146 0 -177 -180l-24 -134q-32 -180 114 -180q76 0 172 28l4 -101q-87 -25 -149 -29l-15 -83q-11 -60 -50 -88.5t-88 -28.5q-37 0 -72 11l20 83
q29 -8 53 -8q41 0 47 42z" />
    <glyph glyph-name="Egrave" unicode="&#xc8;" horiz-adv-x="519" 
d="M434 721l-194 79l43 77l188 -91zM32 0l119 676h379l-19 -104h-260l-32 -181h220l-23 -100h-215l-33 -187h270l-18 -104h-388z" />
    <glyph glyph-name="Eacute" unicode="&#xc9;" horiz-adv-x="519" 
d="M466 794l-219 -73l-17 72l218 85zM32 0l119 676h379l-19 -104h-260l-32 -181h220l-23 -100h-215l-33 -187h270l-18 -104h-388z" />
    <glyph glyph-name="Ecircumflex" unicode="&#xca;" horiz-adv-x="519" 
d="M434 725l-83 63l-109 -63l-34 71l156 83l126 -83zM32 0l119 676h379l-19 -104h-260l-32 -181h220l-23 -100h-215l-33 -187h270l-18 -104h-388z" />
    <glyph glyph-name="Edieresis" unicode="&#xcb;" horiz-adv-x="519" 
d="M506 804q0 -24 -17.5 -40.5t-41.5 -16.5t-41 16.5t-17 40.5q0 25 17 42.5t41 17.5t41.5 -17.5t17.5 -42.5zM318 804q0 -24 -17 -40.5t-42 -16.5q-24 0 -41 16.5t-17 40.5q0 25 17.5 42.5t40.5 17.5q25 0 42 -17.5t17 -42.5zM32 0l119 676h379l-19 -104h-260l-32 -181h220
l-23 -100h-215l-33 -187h270l-18 -104h-388z" />
    <glyph glyph-name="Igrave" unicode="&#xcc;" horiz-adv-x="268" 
d="M310 721l-194 79l42 77l189 -91zM32 0l119 676h118l-119 -676h-118z" />
    <glyph glyph-name="Iacute" unicode="&#xcd;" horiz-adv-x="268" 
d="M333 794l-218 -73l-17 72l217 85zM32 0l119 676h118l-119 -676h-118z" />
    <glyph glyph-name="Icircumflex" unicode="&#xce;" horiz-adv-x="268" 
d="M311 725l-83 63l-109 -63l-34 71l157 83l125 -83zM32 0l119 676h118l-119 -676h-118z" />
    <glyph glyph-name="Idieresis" unicode="&#xcf;" horiz-adv-x="268" 
d="M376 804q0 -24 -17.5 -40.5t-41.5 -16.5q-23 0 -40.5 16.5t-17.5 40.5q0 25 17.5 42.5t40.5 17.5q25 0 42 -17.5t17 -42.5zM189 804q0 -24 -17.5 -40.5t-41.5 -16.5t-41.5 16.5t-17.5 40.5t17.5 42t41.5 18t41.5 -17.5t17.5 -42.5zM32 0l119 676h118l-119 -676h-118z" />
    <glyph glyph-name="Eth" unicode="&#xd0;" horiz-adv-x="621" 
d="M275 0h-243l52 298h-62l14 81h62l45 254q159 56 253 56q102 0 160 -67.5t37 -185.5l-34 -190q-22 -121 -95.5 -183.5t-188.5 -62.5zM443 253l30 174q14 77 -12.5 117.5t-83.5 40.5q-59 0 -128 -24l-33 -182h125l-14 -81h-125l-34 -194h124q66 0 101.5 34t49.5 115z" />
    <glyph glyph-name="Ntilde" unicode="&#xd1;" horiz-adv-x="619" 
d="M498 851l36 -53q-14 -24 -41 -42.5t-61 -18.5q-26 0 -56 23t-46 23q-28 0 -51 -29l-36 52q14 24 41 43t61 19q26 0 56 -23t46 -23q26 0 51 29zM32 0l119 676h95l180 -440q4 38 15 101l60 339h118l-119 -676h-97l-180 436q-9 -72 -15 -104l-58 -332h-118z" />
    <glyph glyph-name="Ograve" unicode="&#xd2;" horiz-adv-x="623" 
d="M493 721l-194 79l43 77l188 -91zM266 -13q-111 0 -170 71t-36 204l26 150q23 134 106 205.5t197 71.5q110 0 168.5 -72t35.5 -205l-26 -150q-23 -134 -105 -204.5t-196 -70.5zM284 91q134 0 166 180l23 134q16 93 -12 136.5t-90 43.5q-63 0 -107 -43.5t-61 -136.5
l-23 -134q-30 -180 104 -180z" />
    <glyph glyph-name="Oacute" unicode="&#xd3;" horiz-adv-x="623" 
d="M505 794l-218 -73l-17 72l217 85zM266 -13q-111 0 -170 71t-36 204l26 150q23 134 106 205.5t197 71.5q110 0 168.5 -72t35.5 -205l-26 -150q-23 -134 -105 -204.5t-196 -70.5zM284 91q134 0 166 180l23 134q16 93 -12 136.5t-90 43.5q-63 0 -107 -43.5t-61 -136.5
l-23 -134q-30 -180 104 -180z" />
    <glyph glyph-name="Ocircumflex" unicode="&#xd4;" horiz-adv-x="623" 
d="M495 725l-83 63l-109 -63l-34 71l156 83l126 -83zM266 -13q-111 0 -170 71t-36 204l26 150q23 134 106 205.5t197 71.5q110 0 168.5 -72t35.5 -205l-26 -150q-23 -134 -105 -204.5t-196 -70.5zM284 91q134 0 166 180l23 134q16 93 -12 136.5t-90 43.5q-63 0 -107 -43.5
t-61 -136.5l-23 -134q-30 -180 104 -180z" />
    <glyph glyph-name="Otilde" unicode="&#xd5;" horiz-adv-x="623" 
d="M522 851l36 -53q-14 -24 -41 -42.5t-60 -18.5q-26 0 -56 23t-46 23q-29 0 -52 -29l-36 52q14 25 41.5 43.5t61.5 18.5q26 0 55.5 -23t45.5 -23q28 0 51 29zM266 -13q-111 0 -170 71t-36 204l26 150q23 134 106 205.5t197 71.5q110 0 168.5 -72t35.5 -205l-26 -150
q-23 -134 -105 -204.5t-196 -70.5zM284 91q134 0 166 180l23 134q16 93 -12 136.5t-90 43.5q-63 0 -107 -43.5t-61 -136.5l-23 -134q-30 -180 104 -180z" />
    <glyph glyph-name="Odieresis" unicode="&#xd6;" horiz-adv-x="623" 
d="M558 804q0 -24 -17.5 -40.5t-41.5 -16.5t-41 16.5t-17 40.5q0 25 17.5 42.5t40.5 17.5q25 0 42 -17.5t17 -42.5zM370 804q0 -24 -17 -40.5t-41 -16.5t-41.5 16.5t-17.5 40.5t17.5 42t41.5 18t41 -17.5t17 -42.5zM266 -13q-111 0 -170 71t-36 204l26 150q23 134 106 205.5
t197 71.5q110 0 168.5 -72t35.5 -205l-26 -150q-23 -134 -105 -204.5t-196 -70.5zM284 91q134 0 166 180l23 134q16 93 -12 136.5t-90 43.5q-63 0 -107 -43.5t-61 -136.5l-23 -134q-30 -180 104 -180z" />
    <glyph glyph-name="multiply" unicode="&#xd7;" horiz-adv-x="507" 
d="M389 81l-122 122l-123 -123l-70 71l123 123l-122 123l69 69l123 -123l122 123l69 -69l-122 -123l123 -123z" />
    <glyph glyph-name="Oslash" unicode="&#xd8;" horiz-adv-x="623" 
d="M593 412l-26 -150q-23 -134 -105 -204.5t-196 -70.5q-65 0 -114 26l-47 -69l-66 36l55 81q-56 73 -34 201l26 150q23 134 106 205.5t197 71.5q63 0 112 -26l46 69l66 -36l-55 -81q58 -74 35 -203zM178 185l258 382q-29 18 -65 18q-64 0 -108 -44t-60 -136l-23 -134
q-9 -52 -2 -86zM450 271l23 134q9 50 1 85l-258 -382q26 -17 68 -17q134 0 166 180z" />
    <glyph glyph-name="Ugrave" unicode="&#xd9;" horiz-adv-x="622" 
d="M484 721l-194 79l43 77l189 -91zM66 222l80 454h118l-78 -445q-11 -64 15.5 -102t81.5 -38q56 0 96.5 38t51.5 102l78 445h118l-79 -454q-18 -103 -100 -169t-182 -66q-102 0 -160 66t-40 169z" />
    <glyph glyph-name="Uacute" unicode="&#xda;" horiz-adv-x="622" 
d="M506 794l-218 -73l-17 72l217 85zM66 222l80 454h118l-78 -445q-11 -64 15.5 -102t81.5 -38q56 0 96.5 38t51.5 102l78 445h118l-79 -454q-18 -103 -100 -169t-182 -66q-102 0 -160 66t-40 169z" />
    <glyph glyph-name="Ucircumflex" unicode="&#xdb;" horiz-adv-x="622" 
d="M486 725l-83 63l-109 -63l-34 71l156 83l126 -83zM66 222l80 454h118l-78 -445q-11 -64 15.5 -102t81.5 -38q56 0 96.5 38t51.5 102l78 445h118l-79 -454q-18 -103 -100 -169t-182 -66q-102 0 -160 66t-40 169z" />
    <glyph glyph-name="Udieresis" unicode="&#xdc;" horiz-adv-x="622" 
d="M553 804q0 -24 -17.5 -40.5t-41.5 -16.5q-23 0 -40.5 16.5t-17.5 40.5q0 25 17.5 42.5t40.5 17.5q25 0 42 -17.5t17 -42.5zM366 804q0 -24 -17.5 -40.5t-41.5 -16.5t-41.5 16.5t-17.5 40.5t18 42t41 18q24 0 41.5 -17.5t17.5 -42.5zM66 222l80 454h118l-78 -445
q-11 -64 15.5 -102t81.5 -38q56 0 96.5 38t51.5 102l78 445h118l-79 -454q-18 -103 -100 -169t-182 -66q-102 0 -160 66t-40 169z" />
    <glyph glyph-name="Yacute" unicode="&#xdd;" horiz-adv-x="558" 
d="M472 794l-219 -73l-17 72l218 85zM174 0l45 258l-127 418h123l80 -297l190 297h127l-275 -418l-45 -258h-118z" />
    <glyph glyph-name="Thorn" unicode="&#xde;" horiz-adv-x="543" 
d="M280 125h-108l-22 -125h-118l119 676h119l-24 -132h108q82 0 128.5 -48t46.5 -122q0 -98 -72.5 -173.5t-176.5 -75.5zM190 228h104q48 0 81 37.5t33 93.5q0 37 -19.5 59t-55.5 22h-105z" />
    <glyph glyph-name="germandbls" unicode="&#xdf;" horiz-adv-x="602" 
d="M119 -211h-116l115 649h-68l14 81h68l10 60q14 79 68 122t127 43q72 0 119.5 -33.5t47.5 -97.5q0 -39 -12.5 -71t-31 -53.5t-36.5 -40.5t-30.5 -39t-12.5 -40q0 -19 18 -34t43.5 -27t51 -27.5t43.5 -44t18 -68.5q0 -73 -56 -127t-160 -54q-74 0 -146 29l33 95
q63 -23 126 -23q37 0 62.5 20.5t25.5 47.5q0 21 -17.5 35.5t-42.5 25.5t-50 24.5t-42.5 39.5t-17.5 63q0 44 19 82.5t41.5 61t41.5 50t19 52.5q0 52 -62 52q-61 0 -73 -69z" />
    <glyph glyph-name="agrave" unicode="&#xe0;" horiz-adv-x="522" 
d="M403 579l-194 79l43 77l189 -91zM192 -13q-75 0 -121 57t-28 161l19 110q18 103 83 160t161 57q82 0 135 -59.5t36 -157.5l-56 -315h-102l4 48q-53 -61 -131 -61zM225 88q54 0 108 65l28 157q10 59 -10.5 90t-61.5 31q-40 0 -71.5 -31t-41.5 -90l-17 -100
q-22 -122 66 -122z" />
    <glyph glyph-name="aacute" unicode="&#xe1;" horiz-adv-x="522" 
d="M433 652l-218 -73l-17 72l217 85zM192 -13q-75 0 -121 57t-28 161l19 110q18 103 83 160t161 57q82 0 135 -59.5t36 -157.5l-56 -315h-102l4 48q-53 -61 -131 -61zM225 88q54 0 108 65l28 157q10 59 -10.5 90t-61.5 31q-40 0 -71.5 -31t-41.5 -90l-17 -100
q-22 -122 66 -122z" />
    <glyph glyph-name="acircumflex" unicode="&#xe2;" horiz-adv-x="522" 
d="M406 583l-83 63l-109 -63l-34 71l156 83l126 -83zM192 -13q-75 0 -121 57t-28 161l19 110q18 103 83 160t161 57q82 0 135 -59.5t36 -157.5l-56 -315h-102l4 48q-53 -61 -131 -61zM225 88q54 0 108 65l28 157q10 59 -10.5 90t-61.5 31q-40 0 -71.5 -31t-41.5 -90
l-17 -100q-22 -122 66 -122z" />
    <glyph glyph-name="atilde" unicode="&#xe3;" horiz-adv-x="522" 
d="M428 709l36 -53q-14 -24 -41 -42.5t-61 -18.5q-26 0 -56 23t-46 23q-28 0 -51 -29l-36 52q14 24 41 43t61 19q26 0 56 -23t46 -23q26 0 51 29zM192 -13q-75 0 -121 57t-28 161l19 110q18 103 83 160t161 57q82 0 135 -59.5t36 -157.5l-56 -315h-102l4 48
q-53 -61 -131 -61zM225 88q54 0 108 65l28 157q10 59 -10.5 90t-61.5 31q-40 0 -71.5 -31t-41.5 -90l-17 -100q-22 -122 66 -122z" />
    <glyph glyph-name="adieresis" unicode="&#xe4;" horiz-adv-x="522" 
d="M478 662q0 -24 -17.5 -40.5t-41.5 -16.5t-41 16.5t-17 40.5q0 25 17 42.5t41 17.5t41.5 -17.5t17.5 -42.5zM290 662q0 -24 -17 -40.5t-42 -16.5q-24 0 -41 16.5t-17 40.5q0 25 17.5 42.5t40.5 17.5q25 0 42 -17.5t17 -42.5zM192 -13q-75 0 -121 57t-28 161l19 110
q18 103 83 160t161 57q82 0 135 -59.5t36 -157.5l-56 -315h-102l4 48q-53 -61 -131 -61zM225 88q54 0 108 65l28 157q10 59 -10.5 90t-61.5 31q-40 0 -71.5 -31t-41.5 -90l-17 -100q-22 -122 66 -122z" />
    <glyph glyph-name="aring" unicode="&#xe5;" horiz-adv-x="522" 
d="M329 579q-40 0 -69 28.5t-29 68.5q0 39 29 67.5t69 28.5q39 0 67 -28.5t28 -67.5q0 -40 -28 -68.5t-67 -28.5zM329 644q13 0 22 9.5t9 22.5t-9 22.5t-22 9.5q-14 0 -23.5 -9.5t-9.5 -22.5t10 -22.5t23 -9.5zM192 -13q-75 0 -121 57t-28 161l19 110q18 103 83 160t161 57
q82 0 135 -59.5t36 -157.5l-56 -315h-102l4 48q-53 -61 -131 -61zM225 88q54 0 108 65l28 157q10 59 -10.5 90t-61.5 31q-40 0 -71.5 -31t-41.5 -90l-17 -100q-22 -122 66 -122z" />
    <glyph glyph-name="ae" unicode="&#xe6;" horiz-adv-x="757" 
d="M649 115l5 -98q-90 -30 -166 -30q-103 0 -150 62q-65 -62 -150 -62q-74 0 -119.5 40.5t-45.5 107.5q0 89 63 136.5t158 47.5h80l3 19q6 40 -8 66.5t-55 26.5q-61 0 -141 -25l-9 95q104 31 167 31q86 0 129 -57q65 57 153 57q69 0 116 -40.5t47 -104.5q0 -35 -13.5 -63
t-39 -45.5t-53 -29.5t-66 -18.5t-67.5 -9.5t-66 -5l-3 -17q-19 -111 87 -111q57 0 144 27zM439 318l-4 -23q175 9 175 81q0 26 -17 40.5t-46 14.5q-40 0 -69 -28.5t-39 -84.5zM306 214l3 18h-82q-40 0 -62.5 -23t-22.5 -58q0 -29 17 -46t49 -17q58 0 95 49q-4 35 3 77z" />
    <glyph glyph-name="ccedilla" unicode="&#xe7;" horiz-adv-x="457" 
d="M162 -83l13 74q-75 13 -111.5 68.5t-19.5 154.5l16 91q39 227 252 227q66 0 142 -24l-34 -97q-62 20 -119 20q-53 0 -83 -29.5t-43 -98.5l-16 -86q-12 -69 8.5 -99t74.5 -30q43 0 125 21l7 -98q-60 -17 -108 -22l-15 -83q-10 -61 -49 -89t-89 -28q-36 0 -72 11l20 83
q29 -8 53 -8q40 0 48 42z" />
    <glyph glyph-name="egrave" unicode="&#xe8;" horiz-adv-x="494" 
d="M391 579l-194 79l42 77l189 -91zM43 214l18 102q18 102 83.5 159t155.5 57q69 0 116 -40.5t47 -104.5q0 -35 -13.5 -63t-39 -45.5t-53 -29.5t-66 -18.5t-67.5 -9.5t-66 -5l-3 -17q-19 -111 87 -111q60 0 144 28l5 -99q-90 -30 -166 -30q-101 0 -150.5 61t-31.5 166z
M172 295q175 9 175 81q0 26 -17 40.5t-46 14.5q-40 0 -69.5 -28.5t-38.5 -84.5z" />
    <glyph glyph-name="eacute" unicode="&#xe9;" horiz-adv-x="494" 
d="M418 652l-218 -73l-17 72l217 85zM43 214l18 102q18 102 83.5 159t155.5 57q69 0 116 -40.5t47 -104.5q0 -35 -13.5 -63t-39 -45.5t-53 -29.5t-66 -18.5t-67.5 -9.5t-66 -5l-3 -17q-19 -111 87 -111q60 0 144 28l5 -99q-90 -30 -166 -30q-101 0 -150.5 61t-31.5 166z
M172 295q175 9 175 81q0 26 -17 40.5t-46 14.5q-40 0 -69.5 -28.5t-38.5 -84.5z" />
    <glyph glyph-name="ecircumflex" unicode="&#xea;" horiz-adv-x="494" 
d="M394 583l-83 63l-109 -63l-34 71l156 83l126 -83zM43 214l18 102q18 102 83.5 159t155.5 57q69 0 116 -40.5t47 -104.5q0 -35 -13.5 -63t-39 -45.5t-53 -29.5t-66 -18.5t-67.5 -9.5t-66 -5l-3 -17q-19 -111 87 -111q60 0 144 28l5 -99q-90 -30 -166 -30q-101 0 -150.5 61
t-31.5 166zM172 295q175 9 175 81q0 26 -17 40.5t-46 14.5q-40 0 -69.5 -28.5t-38.5 -84.5z" />
    <glyph glyph-name="edieresis" unicode="&#xeb;" horiz-adv-x="494" 
d="M462 662q0 -24 -17.5 -40.5t-41.5 -16.5t-41 16.5t-17 40.5q0 25 17.5 42.5t40.5 17.5q25 0 42 -17.5t17 -42.5zM274 662q0 -24 -17 -40.5t-41 -16.5t-41.5 16.5t-17.5 40.5t17.5 42t41.5 18t41 -17.5t17 -42.5zM43 214l18 102q18 102 83.5 159t155.5 57q69 0 116 -40.5
t47 -104.5q0 -35 -13.5 -63t-39 -45.5t-53 -29.5t-66 -18.5t-67.5 -9.5t-66 -5l-3 -17q-19 -111 87 -111q60 0 144 28l5 -99q-90 -30 -166 -30q-101 0 -150.5 61t-31.5 166zM172 295q175 9 175 81q0 26 -17 40.5t-46 14.5q-40 0 -69.5 -28.5t-38.5 -84.5z" />
    <glyph glyph-name="igrave" unicode="&#xec;" horiz-adv-x="253" 
d="M273 579l-194 79l43 77l189 -91zM138 0h-115l92 519h115z" />
    <glyph glyph-name="iacute" unicode="&#xed;" horiz-adv-x="253" 
d="M305 652l-218 -73l-17 72l217 85zM138 0h-115l92 519h115z" />
    <glyph glyph-name="icircumflex" unicode="&#xee;" horiz-adv-x="253" 
d="M280 583l-84 63l-108 -63l-34 71l156 83l125 -83zM138 0h-115l92 519h115z" />
    <glyph glyph-name="idieresis" unicode="&#xef;" horiz-adv-x="253" 
d="M346 662q0 -24 -17.5 -40.5t-41.5 -16.5q-23 0 -40.5 16.5t-17.5 40.5q0 25 17.5 42.5t40.5 17.5q25 0 42 -17.5t17 -42.5zM159 662q0 -24 -17.5 -40.5t-41.5 -16.5t-41.5 16.5t-17.5 40.5t17.5 42t41.5 18t41.5 -17.5t17.5 -42.5zM138 0h-115l92 519h115z" />
    <glyph glyph-name="eth" unicode="&#xf0;" horiz-adv-x="523" 
d="M521 515l-55 -307q-18 -104 -86.5 -162.5t-158.5 -58.5q-91 0 -144 59t-34 162l13 69q20 108 85.5 164.5t150.5 56.5q73 0 111 -29l8 46q19 108 -49 124l-47 -92l-68 25l36 69q-44 -4 -97 -19l-4 89q96 27 151 29l43 84l68 -25l-35 -67q67 -16 97.5 -70.5t14.5 -146.5z
M352 213l28 158q-40 26 -92 26q-96 0 -118 -125l-11 -59q-12 -63 9.5 -94t64.5 -31q44 0 76 31t43 94z" />
    <glyph glyph-name="ntilde" unicode="&#xf1;" horiz-adv-x="535" 
d="M430 709l36 -53q-14 -24 -41 -42.5t-61 -18.5q-26 0 -56 23t-46 23q-28 0 -51 -29l-36 52q14 24 41 43t61 19q26 0 56 -23t46 -23q26 0 51 29zM19 0l55 318q18 103 83 158.5t158 55.5q81 0 131 -57t33 -157l-56 -318h-115l55 313q10 57 -8.5 87.5t-57.5 30.5
q-41 0 -69.5 -30.5t-38.5 -87.5l-55 -313h-115z" />
    <glyph glyph-name="ograve" unicode="&#xf2;" horiz-adv-x="527" 
d="M411 579l-194 79l43 77l189 -91zM215 -13q-88 0 -139 61t-33 167l16 90q20 111 84 169t168 58q89 0 139.5 -61t31.5 -167l-16 -89q-20 -111 -83.5 -169.5t-167.5 -58.5zM233 88q95 0 119 132l14 79q22 132 -74 132q-97 0 -119 -132l-14 -79q-22 -132 74 -132z" />
    <glyph glyph-name="oacute" unicode="&#xf3;" horiz-adv-x="527" 
d="M429 652l-218 -73l-17 72l217 85zM215 -13q-88 0 -139 61t-33 167l16 90q20 111 84 169t168 58q89 0 139.5 -61t31.5 -167l-16 -89q-20 -111 -83.5 -169.5t-167.5 -58.5zM233 88q95 0 119 132l14 79q22 132 -74 132q-97 0 -119 -132l-14 -79q-22 -132 74 -132z" />
    <glyph glyph-name="ocircumflex" unicode="&#xf4;" horiz-adv-x="527" 
d="M411 583l-83 63l-109 -63l-34 71l156 83l126 -83zM215 -13q-88 0 -139 61t-33 167l16 90q20 111 84 169t168 58q89 0 139.5 -61t31.5 -167l-16 -89q-20 -111 -83.5 -169.5t-167.5 -58.5zM233 88q95 0 119 132l14 79q22 132 -74 132q-97 0 -119 -132l-14 -79
q-22 -132 74 -132z" />
    <glyph glyph-name="otilde" unicode="&#xf5;" horiz-adv-x="527" 
d="M438 709l36 -53q-14 -24 -41 -42.5t-60 -18.5q-26 0 -56 23t-46 23q-29 0 -52 -29l-36 52q14 25 41.5 43.5t61.5 18.5q26 0 55.5 -23t45.5 -23q28 0 51 29zM215 -13q-88 0 -139 61t-33 167l16 90q20 111 84 169t168 58q89 0 139.5 -61t31.5 -167l-16 -89
q-20 -111 -83.5 -169.5t-167.5 -58.5zM233 88q95 0 119 132l14 79q22 132 -74 132q-97 0 -119 -132l-14 -79q-22 -132 74 -132z" />
    <glyph glyph-name="odieresis" unicode="&#xf6;" horiz-adv-x="527" 
d="M476 662q0 -24 -17.5 -40.5t-41.5 -16.5q-23 0 -40.5 16.5t-17.5 40.5q0 25 17.5 42.5t40.5 17.5q25 0 42 -17.5t17 -42.5zM289 662q0 -24 -17.5 -40.5t-41.5 -16.5t-41.5 16.5t-17.5 40.5t17.5 42t41.5 18t41.5 -17.5t17.5 -42.5zM215 -13q-88 0 -139 61t-33 167l16 90
q20 111 84 169t168 58q89 0 139.5 -61t31.5 -167l-16 -89q-20 -111 -83.5 -169.5t-167.5 -58.5zM233 88q95 0 119 132l14 79q22 132 -74 132q-97 0 -119 -132l-14 -79q-22 -132 74 -132z" />
    <glyph glyph-name="oslash" unicode="&#xf8;" horiz-adv-x="526" 
d="M481 304l-15 -89q-20 -111 -83.5 -169.5t-167.5 -58.5q-46 0 -83 17l-44 -66l-62 33l50 76q-52 63 -33 168l16 90q20 111 83.5 169t167.5 58q44 0 83 -17l46 69l63 -33l-54 -79q51 -65 33 -168zM159 168l172 256q-19 7 -39 7q-97 0 -119 -132l-14 -79q-6 -33 0 -52z
M351 220l14 79q6 32 0 50l-171 -254q14 -7 38 -7q97 0 119 132z" />
    <glyph glyph-name="ugrave" unicode="&#xf9;" horiz-adv-x="535" 
d="M408 579l-194 79l43 77l188 -91zM53 201l56 318h115l-55 -313q-10 -57 8 -87.5t58 -30.5t69 30.5t39 87.5l55 313h115l-56 -318q-18 -103 -83 -158.5t-157 -55.5q-88 0 -135 56.5t-29 157.5z" />
    <glyph glyph-name="uacute" unicode="&#xfa;" horiz-adv-x="535" 
d="M440 652l-218 -73l-17 72l217 85zM53 201l56 318h115l-55 -313q-10 -57 8 -87.5t58 -30.5t69 30.5t39 87.5l55 313h115l-56 -318q-18 -103 -83 -158.5t-157 -55.5q-88 0 -135 56.5t-29 157.5z" />
    <glyph glyph-name="ucircumflex" unicode="&#xfb;" horiz-adv-x="535" 
d="M414 583l-84 63l-108 -63l-34 71l156 83l125 -83zM53 201l56 318h115l-55 -313q-10 -57 8 -87.5t58 -30.5t69 30.5t39 87.5l55 313h115l-56 -318q-18 -103 -83 -158.5t-157 -55.5q-88 0 -135 56.5t-29 157.5z" />
    <glyph glyph-name="udieresis" unicode="&#xfc;" horiz-adv-x="535" 
d="M486 662q0 -24 -17.5 -40.5t-41.5 -16.5t-41 16.5t-17 40.5q0 25 17 42.5t41 17.5t41.5 -17.5t17.5 -42.5zM298 662q0 -24 -17 -40.5t-42 -16.5q-24 0 -41 16.5t-17 40.5q0 25 17.5 42.5t40.5 17.5q25 0 42 -17.5t17 -42.5zM53 201l56 318h115l-55 -313q-10 -57 8 -87.5
t58 -30.5t69 30.5t39 87.5l55 313h115l-56 -318q-18 -103 -83 -158.5t-157 -55.5q-88 0 -135 56.5t-29 157.5z" />
    <glyph glyph-name="yacute" unicode="&#xfd;" horiz-adv-x="490" 
d="M419 652l-218 -73l-17 72l217 85zM55 184l13 335h115l-13 -325q-2 -47 12 -70t47 -23h36l125 418h115l-224 -730h-113l67 211h-27q-160 0 -153 184z" />
    <glyph glyph-name="thorn" unicode="&#xfe;" horiz-adv-x="522" 
d="M89 -211h-115l166 943h115l-39 -222q46 22 95 22q87 0 136 -60t32 -162l-17 -102q-18 -109 -83 -165t-158 -56q-43 0 -93 25zM347 210l17 98q10 60 -9.5 91.5t-59.5 31.5q-41 0 -73 -32t-42 -91l-34 -192q49 -28 87 -28q92 0 114 122z" />
    <glyph glyph-name="ydieresis" unicode="&#xff;" horiz-adv-x="490" 
d="M457 662q0 -24 -17.5 -40.5t-41.5 -16.5q-23 0 -40.5 16.5t-17.5 40.5q0 25 17.5 42.5t40.5 17.5q25 0 42 -17.5t17 -42.5zM270 662q0 -24 -17.5 -40.5t-41.5 -16.5t-41.5 16.5t-17.5 40.5t18 42t41 18q24 0 41.5 -17.5t17.5 -42.5zM55 184l13 335h115l-13 -325
q-2 -47 12 -70t47 -23h36l125 418h115l-224 -730h-113l67 211h-27q-160 0 -153 184z" />
    <glyph glyph-name="Amacron" unicode="&#x100;" horiz-adv-x="595" 
d="M506 763h-249l15 81h248zM-22 0l324 676h136l86 -676h-118l-19 173h-208l-79 -173h-122zM224 272h153l-20 168q-5 40 -7 115q-31 -80 -47 -115z" />
    <glyph glyph-name="amacron" unicode="&#x101;" horiz-adv-x="522" 
d="M441 621h-249l15 81h248zM192 -13q-75 0 -121 57t-28 161l19 110q18 103 83 160t161 57q82 0 135 -59.5t36 -157.5l-56 -315h-102l4 48q-53 -61 -131 -61zM225 88q54 0 108 65l28 157q10 59 -10.5 90t-61.5 31q-40 0 -71.5 -31t-41.5 -90l-17 -100q-22 -122 66 -122z" />
    <glyph glyph-name="Abreve" unicode="&#x102;" horiz-adv-x="595" 
d="M446 870h77q-12 -60 -51.5 -97.5t-98.5 -37.5q-53 0 -82 39t-19 96h77q-4 -25 6.5 -42.5t30.5 -17.5q21 0 38.5 17.5t21.5 42.5zM-22 0l324 676h136l86 -676h-118l-19 173h-208l-79 -173h-122zM224 272h153l-20 168q-5 40 -7 115q-31 -80 -47 -115z" />
    <glyph glyph-name="abreve" unicode="&#x103;" horiz-adv-x="522" 
d="M373 728h77q-12 -60 -51.5 -97.5t-98.5 -37.5q-53 0 -82 39t-19 96h77q-4 -25 6.5 -42.5t30.5 -17.5q21 0 38.5 17t21.5 43zM192 -13q-75 0 -121 57t-28 161l19 110q18 103 83 160t161 57q82 0 135 -59.5t36 -157.5l-56 -315h-102l4 48q-53 -61 -131 -61zM225 88
q54 0 108 65l28 157q10 59 -10.5 90t-61.5 31q-40 0 -71.5 -31t-41.5 -90l-17 -100q-22 -122 66 -122z" />
    <glyph glyph-name="Aogonek" unicode="&#x104;" horiz-adv-x="595" 
d="M-22 0l324 676h136l86 -676q-100 -67 -100 -123q0 -23 27 -23q18 0 35 6v-73q-25 -11 -59 -11q-46 0 -70 20.5t-24 56.5q0 82 97 147h-24l-19 173h-208l-79 -173h-122zM224 272h153l-20 168q-5 40 -7 115q-31 -80 -47 -115z" />
    <glyph glyph-name="aogonek" unicode="&#x105;" horiz-adv-x="522" 
d="M383 -140v-73q-25 -11 -59 -11q-46 0 -70 20.5t-24 56.5q0 82 97 147h-8l4 48q-53 -61 -131 -61q-75 0 -121 57t-28 161l19 110q18 103 83 160t161 57q82 0 135 -59.5t36 -157.5l-56 -315q-100 -67 -100 -123q0 -23 27 -23q18 0 35 6zM225 88q54 0 108 65l28 157
q10 59 -10.5 90t-61.5 31q-40 0 -71.5 -31t-41.5 -90l-17 -100q-22 -122 66 -122z" />
    <glyph glyph-name="Cacute" unicode="&#x106;" horiz-adv-x="550" 
d="M505 794l-218 -73l-17 72l217 85zM466 119l4 -101q-107 -31 -194 -31q-118 0 -178.5 70.5t-37.5 204.5l26 152q23 135 104.5 205t202.5 70q88 0 184 -31l-35 -101q-86 28 -161 28q-146 0 -177 -180l-24 -134q-32 -180 114 -180q76 0 172 28z" />
    <glyph glyph-name="cacute" unicode="&#x107;" horiz-adv-x="457" 
d="M425 657l-219 -73l-17 72l218 85zM44 214l16 91q39 227 252 227q66 0 142 -24l-34 -97q-62 20 -119 20q-53 0 -83 -29.5t-43 -98.5l-16 -86q-12 -69 8.5 -99t74.5 -30q43 0 125 21l7 -98q-86 -24 -151 -24q-97 0 -148 57t-31 170z" />
    <glyph glyph-name="Ccircumflex" unicode="&#x108;" horiz-adv-x="550" 
d="M481 725l-83 63l-109 -63l-34 71l157 83l125 -83zM466 119l4 -101q-107 -31 -194 -31q-118 0 -178.5 70.5t-37.5 204.5l26 152q23 135 104.5 205t202.5 70q88 0 184 -31l-35 -101q-86 28 -161 28q-146 0 -177 -180l-24 -134q-32 -180 114 -180q76 0 172 28z" />
    <glyph glyph-name="ccircumflex" unicode="&#x109;" horiz-adv-x="457" 
d="M393 583l-84 63l-108 -63l-34 71l156 83l125 -83zM44 214l16 91q39 227 252 227q66 0 142 -24l-34 -97q-62 20 -119 20q-53 0 -83 -29.5t-43 -98.5l-16 -86q-12 -69 8.5 -99t74.5 -30q43 0 125 21l7 -98q-86 -24 -151 -24q-97 0 -148 57t-31 170z" />
    <glyph glyph-name="Cdotaccent" unicode="&#x10a;" horiz-adv-x="550" 
d="M450 793q0 -24 -17.5 -41t-41.5 -17q-23 0 -40.5 17t-17.5 41q0 25 17.5 42.5t40.5 17.5q25 0 42 -17.5t17 -42.5zM466 119l4 -101q-107 -31 -194 -31q-118 0 -178.5 70.5t-37.5 204.5l26 152q23 135 104.5 205t202.5 70q88 0 184 -31l-35 -101q-86 28 -161 28
q-146 0 -177 -180l-24 -134q-32 -180 114 -180q76 0 172 28z" />
    <glyph glyph-name="cdotaccent" unicode="&#x10b;" horiz-adv-x="457" 
d="M365 661q0 -24 -17.5 -41t-41.5 -17q-23 0 -40.5 17t-17.5 41q0 25 17.5 42.5t40.5 17.5q25 0 42 -17.5t17 -42.5zM44 214l16 91q39 227 252 227q66 0 142 -24l-34 -97q-62 20 -119 20q-53 0 -83 -29.5t-43 -98.5l-16 -86q-12 -69 8.5 -99t74.5 -30q43 0 125 21l7 -98
q-86 -24 -151 -24q-97 0 -148 57t-31 170z" />
    <glyph glyph-name="Ccaron" unicode="&#x10c;" horiz-adv-x="550" 
d="M532 808l-157 -83l-124 83l55 71l83 -63l109 63zM466 119l4 -101q-107 -31 -194 -31q-118 0 -178.5 70.5t-37.5 204.5l26 152q23 135 104.5 205t202.5 70q88 0 184 -31l-35 -101q-86 28 -161 28q-146 0 -177 -180l-24 -134q-32 -180 114 -180q76 0 172 28z" />
    <glyph glyph-name="ccaron" unicode="&#x10d;" horiz-adv-x="457" 
d="M449 666l-157 -83l-124 83l55 71l83 -63l109 63zM44 214l16 91q39 227 252 227q66 0 142 -24l-34 -97q-62 20 -119 20q-53 0 -83 -29.5t-43 -98.5l-16 -86q-12 -69 8.5 -99t74.5 -30q43 0 125 21l7 -98q-86 -24 -151 -24q-97 0 -148 57t-31 170z" />
    <glyph glyph-name="Dcaron" unicode="&#x10e;" horiz-adv-x="622" 
d="M522 808l-157 -83l-124 83l55 71l83 -63l109 63zM275 0h-243l111 633q159 56 253 56q102 0 160 -67.5t37 -185.5l-33 -190q-21 -121 -95 -183.5t-190 -62.5zM443 253l30 174q14 77 -12.5 117.5t-83.5 40.5q-59 0 -128 -24l-81 -457h124q66 0 101.5 34t49.5 115z" />
    <glyph glyph-name="dcaron" unicode="&#x10f;" horiz-adv-x="517" 
d="M654 551h-74l32 181l102 12zM44 209l18 102q20 111 82 166t156 55q50 0 96 -28l40 228h115l-92 -523q-18 -104 -86 -163t-161 -59q-87 0 -136 60t-32 162zM177 309l-17 -98q-11 -59 8.5 -91t59.5 -32q42 0 74 32t42 91l34 192q-44 28 -88 28q-91 0 -113 -122z" />
    <glyph glyph-name="Dcroat" unicode="&#x110;" horiz-adv-x="621" 
d="M275 0h-243l52 298h-62l14 81h62l45 254q159 56 253 56q102 0 159.5 -67t37.5 -185l-34 -191q-21 -121 -94.5 -183.5t-189.5 -62.5zM442 253l31 174q14 77 -12.5 117t-83.5 40q-60 0 -128 -22l-32 -183h124l-14 -81h-124l-34 -194h123q65 0 100.5 34t49.5 115z" />
    <glyph glyph-name="dcroat" unicode="&#x111;" horiz-adv-x="517" 
d="M44 209l18 102q20 111 82 166t156 55q50 0 96 -28l15 91h-91l14 81h91l11 56h115l-10 -56h39l-15 -81h-39l-67 -386q-18 -104 -86 -163t-161 -59q-87 0 -136 60t-32 162zM177 309l-17 -98q-11 -59 8.5 -91t59.5 -32q42 0 74 32t42 91l34 192q-44 28 -88 28
q-91 0 -113 -122z" />
    <glyph glyph-name="Emacron" unicode="&#x112;" horiz-adv-x="519" 
d="M474 763h-248l14 81h249zM32 0l119 676h379l-19 -104h-260l-32 -181h220l-23 -100h-215l-33 -187h270l-18 -104h-388z" />
    <glyph glyph-name="emacron" unicode="&#x113;" horiz-adv-x="494" 
d="M428 621h-249l14 81h249zM43 214l18 102q18 102 83.5 159t155.5 57q69 0 116 -40.5t47 -104.5q0 -35 -13.5 -63t-39 -45.5t-53 -29.5t-66 -18.5t-67.5 -9.5t-66 -5l-3 -17q-19 -111 87 -111q60 0 144 28l5 -99q-90 -30 -166 -30q-101 0 -150.5 61t-31.5 166zM172 295
q175 9 175 81q0 26 -17 40.5t-46 14.5q-40 0 -69.5 -28.5t-38.5 -84.5z" />
    <glyph glyph-name="Ebreve" unicode="&#x114;" horiz-adv-x="519" 
d="M414 870h78q-12 -60 -51.5 -97.5t-98.5 -37.5q-53 0 -82.5 38.5t-19.5 96.5h77q-4 -26 7 -43t31 -17t37.5 17.5t21.5 42.5zM32 0l119 676h379l-19 -104h-260l-32 -181h220l-23 -100h-215l-33 -187h270l-18 -104h-388z" />
    <glyph glyph-name="ebreve" unicode="&#x115;" horiz-adv-x="494" 
d="M363 728h78q-13 -60 -52.5 -97.5t-98.5 -37.5q-52 0 -81.5 39t-19.5 96h77q-4 -26 7 -43t31 -17t37.5 17.5t21.5 42.5zM43 214l18 102q18 102 83.5 159t155.5 57q69 0 116 -40.5t47 -104.5q0 -35 -13.5 -63t-39 -45.5t-53 -29.5t-66 -18.5t-67.5 -9.5t-66 -5l-3 -17
q-19 -111 87 -111q60 0 144 28l5 -99q-90 -30 -166 -30q-101 0 -150.5 61t-31.5 166zM172 295q175 9 175 81q0 26 -17 40.5t-46 14.5q-40 0 -69.5 -28.5t-38.5 -84.5z" />
    <glyph glyph-name="Edotaccent" unicode="&#x116;" horiz-adv-x="519" 
d="M409 803q0 -24 -17.5 -41t-41.5 -17q-23 0 -40.5 17t-17.5 41q0 25 17.5 42.5t40.5 17.5q25 0 42 -17.5t17 -42.5zM32 0l119 676h379l-19 -104h-260l-32 -181h220l-23 -100h-215l-33 -187h270l-18 -104h-388z" />
    <glyph glyph-name="edotaccent" unicode="&#x117;" horiz-adv-x="494" 
d="M367 661q0 -24 -17.5 -41t-41.5 -17q-23 0 -40.5 17t-17.5 41q0 25 17 42.5t41 17.5t41.5 -17.5t17.5 -42.5zM43 214l18 102q18 102 83.5 159t155.5 57q69 0 116 -40.5t47 -104.5q0 -35 -13.5 -63t-39 -45.5t-53 -29.5t-66 -18.5t-67.5 -9.5t-66 -5l-3 -17
q-19 -111 87 -111q60 0 144 28l5 -99q-90 -30 -166 -30q-101 0 -150.5 61t-31.5 166zM172 295q175 9 175 81q0 26 -17 40.5t-46 14.5q-40 0 -69.5 -28.5t-38.5 -84.5z" />
    <glyph glyph-name="Eogonek" unicode="&#x118;" horiz-adv-x="519" 
d="M32 0l119 676h379l-19 -104h-260l-32 -181h220l-23 -100h-215l-33 -187h270l-18 -104q-100 -67 -100 -123q0 -23 27 -23q19 0 35 6v-73q-25 -11 -59 -11q-46 0 -70 20.5t-24 56.5q0 82 97 147h-294z" />
    <glyph glyph-name="eogonek" unicode="&#x119;" horiz-adv-x="494" 
d="M352 -140l1 -73q-25 -11 -59 -11q-46 0 -70 22t-24 58q0 69 64 133q-24 -2 -39 -2q-101 0 -150.5 61t-31.5 166l18 102q18 102 83.5 159t155.5 57q69 0 116 -40.5t47 -104.5q0 -35 -13.5 -63t-39 -45.5t-53 -29.5t-66 -18.5t-67.5 -9.5t-66 -5l-3 -17q-19 -111 87 -111
q60 0 144 28l5 -99q-40 -27 -70 -66.5t-30 -69.5q0 -12 7.5 -19.5t20.5 -7.5q18 0 33 6zM176 318l-4 -23q175 9 175 81q0 26 -17 40.5t-46 14.5q-40 0 -69 -28.5t-39 -84.5z" />
    <glyph glyph-name="Ecaron" unicode="&#x11a;" horiz-adv-x="519" 
d="M493 808l-157 -83l-124 83l55 71l83 -63l109 63zM32 0l119 676h379l-19 -104h-260l-32 -181h220l-23 -100h-215l-33 -187h270l-18 -104h-388z" />
    <glyph glyph-name="ecaron" unicode="&#x11b;" horiz-adv-x="494" 
d="M449 666l-157 -83l-124 83l55 71l83 -63l109 63zM43 214l18 102q18 102 83.5 159t155.5 57q69 0 116 -40.5t47 -104.5q0 -35 -13.5 -63t-39 -45.5t-53 -29.5t-66 -18.5t-67.5 -9.5t-66 -5l-3 -17q-19 -111 87 -111q60 0 144 28l5 -99q-90 -30 -166 -30q-101 0 -150.5 61
t-31.5 166zM172 295q175 9 175 81q0 26 -17 40.5t-46 14.5q-40 0 -69.5 -28.5t-38.5 -84.5z" />
    <glyph glyph-name="Gcircumflex" unicode="&#x11c;" horiz-adv-x="596" 
d="M483 725l-83 63l-109 -63l-34 71l157 83l125 -83zM60 262l26 152q23 135 107 205t206 70q90 0 177 -31l-35 -100q-77 26 -160 26q-146 0 -177 -178l-24 -135q-32 -179 114 -179q50 0 109 13l30 175h-70l15 88h181l-60 -345q-111 -36 -223 -36q-118 0 -178.5 70.5
t-37.5 204.5z" />
    <glyph glyph-name="gcircumflex" unicode="&#x11d;" horiz-adv-x="521" 
d="M404 583l-84 63l-108 -63l-34 71l156 83l125 -83zM63 -99q66 -25 116 -25q59 0 90.5 39.5t41.5 96.5l7 40q-50 -52 -124 -52q-75 0 -121.5 57t-28.5 161l17 97q18 103 83 160t162 57q82 0 134.5 -59.5t35.5 -157.5l-57 -323q-17 -100 -80.5 -158t-170.5 -58
q-63 0 -135 30zM226 101q58 0 108 63l26 146q10 59 -10.5 90t-61.5 31q-40 0 -71 -31t-42 -90l-15 -87q-20 -122 66 -122z" />
    <glyph glyph-name="Gbreve" unicode="&#x11e;" horiz-adv-x="596" 
d="M447 870h78q-13 -60 -52.5 -97.5t-98.5 -37.5q-52 0 -81.5 39t-19.5 96h77q-4 -26 7 -43t31 -17t37.5 17.5t21.5 42.5zM60 262l26 152q23 135 107 205t206 70q90 0 177 -31l-35 -100q-77 26 -160 26q-146 0 -177 -178l-24 -135q-32 -179 114 -179q50 0 109 13l30 175h-70
l15 88h181l-60 -345q-111 -36 -223 -36q-118 0 -178.5 70.5t-37.5 204.5z" />
    <glyph glyph-name="gbreve" unicode="&#x11f;" horiz-adv-x="521" 
d="M382 728h77q-12 -60 -51.5 -97.5t-98.5 -37.5q-53 0 -82 39t-19 96h77q-4 -25 6.5 -42.5t30.5 -17.5q21 0 38.5 17t21.5 43zM63 -99q66 -25 116 -25q59 0 90.5 39.5t41.5 96.5l7 40q-50 -52 -124 -52q-75 0 -121.5 57t-28.5 161l17 97q18 103 83 160t162 57
q82 0 134.5 -59.5t35.5 -157.5l-57 -323q-17 -100 -80.5 -158t-170.5 -58q-63 0 -135 30zM226 101q58 0 108 63l26 146q10 59 -10.5 90t-61.5 31q-40 0 -71 -31t-42 -90l-15 -87q-20 -122 66 -122z" />
    <glyph glyph-name="Gdotaccent" unicode="&#x120;" horiz-adv-x="596" 
d="M454 803q0 -24 -17.5 -41t-41.5 -17q-23 0 -40.5 17t-17.5 41q0 25 17 42.5t41 17.5t41.5 -17.5t17.5 -42.5zM60 262l26 152q23 135 107 205t206 70q90 0 177 -31l-35 -100q-77 26 -160 26q-146 0 -177 -178l-24 -135q-32 -179 114 -179q50 0 109 13l30 175h-70l15 88
h181l-60 -345q-111 -36 -223 -36q-118 0 -178.5 70.5t-37.5 204.5z" />
    <glyph glyph-name="gdotaccent" unicode="&#x121;" horiz-adv-x="521" 
d="M377 661q0 -24 -17.5 -41t-41.5 -17q-23 0 -40.5 17t-17.5 41q0 25 17.5 42.5t40.5 17.5q25 0 42 -17.5t17 -42.5zM63 -99q66 -25 116 -25q59 0 90.5 39.5t41.5 96.5l7 40q-50 -52 -124 -52q-75 0 -121.5 57t-28.5 161l17 97q18 103 83 160t162 57q82 0 134.5 -59.5
t35.5 -157.5l-57 -323q-17 -100 -80.5 -158t-170.5 -58q-63 0 -135 30zM226 101q58 0 108 63l26 146q10 59 -10.5 90t-61.5 31q-40 0 -71 -31t-42 -90l-15 -87q-20 -122 66 -122z" />
    <glyph glyph-name="Gcommaaccent" unicode="&#x122;" horiz-adv-x="596" 
d="M60 262l26 152q23 135 107 205t206 70q90 0 177 -31l-35 -100q-77 26 -160 26q-146 0 -177 -178l-24 -135q-32 -179 114 -179q50 0 109 13l30 175h-70l15 88h181l-60 -345q-111 -36 -223 -36q-118 0 -178.5 70.5t-37.5 204.5zM245 -224h-77l56 161h103z" />
    <glyph glyph-name="gcommaaccent" unicode="&#x123;" horiz-adv-x="521" 
d="M353 581h-77l56 161h103zM63 -99q66 -25 116 -25q59 0 90.5 39.5t41.5 96.5l7 40q-50 -52 -124 -52q-75 0 -121.5 57t-28.5 161l17 97q18 103 83 160t162 57q82 0 134.5 -59.5t35.5 -157.5l-57 -323q-17 -100 -80.5 -158t-170.5 -58q-63 0 -135 30zM226 101q58 0 108 63
l26 146q10 59 -10.5 90t-61.5 31q-40 0 -71 -31t-42 -90l-15 -87q-20 -122 66 -122z" />
    <glyph glyph-name="Hcircumflex" unicode="&#x124;" horiz-adv-x="625" 
d="M488 725l-84 63l-108 -63l-34 71l156 83l125 -83zM32 0l119 676h118l-50 -281h239l50 281h118l-119 -676h-118l51 293h-238l-52 -293h-118z" />
    <glyph glyph-name="hcircumflex" unicode="&#x125;" horiz-adv-x="538" 
d="M306 748l-83 61l-109 -61l-34 71l156 81l126 -81zM427 0h-115l54 309q12 65 -2.5 93.5t-54.5 28.5q-51 0 -107 -64l-65 -367h-115l129 732h115l-44 -251q53 51 120 51q76 0 118 -53.5t22 -164.5z" />
    <glyph glyph-name="Hbar" unicode="&#x126;" horiz-adv-x="625" 
d="M507 0h-118l51 293h-238l-52 -293h-118l84 481h-38l15 81h37l21 114h118l-20 -114h238l21 114h118l-20 -114h39l-14 -81h-39zM458 396l15 85h-238l-15 -85h238z" />
    <glyph glyph-name="hbar" unicode="&#x127;" horiz-adv-x="538" 
d="M427 0h-115l54 309q12 65 -2.5 93.5t-54.5 28.5q-51 0 -107 -64l-65 -367h-115l105 595h-39l14 81h39l10 56h115l-10 -56h92l-15 -81h-91l-20 -114q53 51 120 51q76 0 118 -53.5t22 -164.5z" />
    <glyph glyph-name="Itilde" unicode="&#x128;" horiz-adv-x="268" 
d="M340 851l36 -53q-14 -24 -41 -42.5t-60 -18.5q-26 0 -56 23t-46 23q-29 0 -52 -29l-36 52q14 25 41.5 43.5t61.5 18.5q26 0 55.5 -23t45.5 -23q28 0 51 29zM32 0l119 676h118l-119 -676h-118z" />
    <glyph glyph-name="itilde" unicode="&#x129;" horiz-adv-x="253" 
d="M299 709l36 -53q-13 -24 -40 -42.5t-61 -18.5q-26 0 -56 23t-46 23q-27 0 -52 -29l-36 52q15 25 42 43.5t61 18.5q26 0 56 -23t46 -23q27 0 50 29zM138 0h-115l92 519h115z" />
    <glyph glyph-name="Imacron" unicode="&#x12a;" horiz-adv-x="268" 
d="M343 763h-249l14 81h249zM32 0l119 676h118l-119 -676h-118z" />
    <glyph glyph-name="imacron" unicode="&#x12b;" horiz-adv-x="253" 
d="M311 621h-249l14 81h249zM138 0h-115l92 519h115z" />
    <glyph glyph-name="Ibreve" unicode="&#x12c;" horiz-adv-x="268" 
d="M288 885h78q-13 -60 -52.5 -97.5t-98.5 -37.5q-52 0 -81.5 39t-19.5 96h77q-4 -26 7 -43t31 -17t37.5 17.5t21.5 42.5zM32 0l119 676h118l-119 -676h-118z" />
    <glyph glyph-name="ibreve" unicode="&#x12d;" horiz-adv-x="253" 
d="M261 728h78q-13 -60 -52.5 -97.5t-98.5 -37.5q-52 0 -81.5 39t-19.5 96h77q-4 -26 7 -43t31 -17t37.5 17.5t21.5 42.5zM138 0h-115l92 519h115z" />
    <glyph glyph-name="Iogonek" unicode="&#x12e;" horiz-adv-x="268" 
d="M32 0l119 676h118l-119 -676q-100 -67 -100 -123q0 -23 27 -23q19 0 35 6v-73q-25 -11 -59 -11q-46 0 -70 20.5t-24 56.5q0 82 97 147h-24z" />
    <glyph glyph-name="iogonek" unicode="&#x12f;" horiz-adv-x="253" 
d="M195 597q-28 0 -48.5 20t-20.5 48q0 29 20.5 48.5t48.5 19.5q29 0 49.5 -19.5t20.5 -48.5q0 -28 -20.5 -48t-49.5 -20zM23 0l92 519h115l-92 -519q-100 -67 -100 -123q0 -23 28 -23q18 0 34 6v-73q-25 -11 -59 -11q-46 0 -70 20.5t-24 56.5q0 83 98 147h-22z" />
    <glyph glyph-name="Idotaccent" unicode="&#x130;" horiz-adv-x="268" 
d="M289 793q0 -24 -17.5 -41t-41.5 -17q-23 0 -40.5 17t-17.5 41q0 25 17.5 42.5t40.5 17.5q25 0 42 -17.5t17 -42.5zM32 0l119 676h118l-119 -676h-118z" />
    <glyph glyph-name="dotlessi" unicode="&#x131;" horiz-adv-x="253" 
d="M138 0h-115l92 519h115z" />
    <glyph glyph-name="IJ" unicode="&#x132;" horiz-adv-x="728" 
d="M539 227l79 449l118 -7l-79 -445q-20 -112 -82 -174.5t-162 -62.5q-80 0 -163 34l32 98q77 -28 132 -28q101 0 125 136zM150 0h-118l119 676h118z" />
    <glyph glyph-name="ij" unicode="&#x133;" horiz-adv-x="506" 
d="M518 665q0 -28 -20.5 -48t-49.5 -20t-49.5 20t-20.5 48q0 29 20.5 48.5t49.5 19.5q28 0 49 -19.5t21 -48.5zM265 665q0 -28 -20.5 -48t-49.5 -20q-28 0 -48.5 20t-20.5 48q0 29 20.5 48.5t48.5 19.5q29 0 49.5 -19.5t20.5 -48.5zM355 -199l-118 -20l130 738h115zM138 0
h-115l92 519h115z" />
    <glyph glyph-name="Jcircumflex" unicode="&#x134;" horiz-adv-x="459" 
d="M510 725l-83 63l-109 -63l-34 71l157 83l125 -83zM-19 21l33 98q76 -28 132 -28q101 0 125 136l79 449l117 -7l-79 -445q-20 -112 -82 -174.5t-162 -62.5q-80 0 -163 34z" />
    <glyph glyph-name="jcircumflex" unicode="&#x135;" horiz-adv-x="252" 
d="M269 579l-83 71l-109 -70l-32 71l156 90l126 -90zM102 -199l-118 -20l130 738h115z" />
    <glyph glyph-name="Kcommaaccent" unicode="&#x136;" horiz-adv-x="588" 
d="M32 0l119 676h118l-52 -292l256 292h137l-269 -303l176 -373h-130l-129 280l-73 -82l-35 -198h-118zM217 -224h-77l56 161h103z" />
    <glyph glyph-name="kcommaaccent" unicode="&#x137;" horiz-adv-x="481" 
d="M24 0l129 732h115l-74 -421l72 25q32 10 52 58l54 125h113l-65 -150q-19 -44 -38.5 -70t-49.5 -39l86 -260h-123l-67 222l-53 -20l-36 -202h-115zM180 -224h-77l56 161h103z" />
    <glyph glyph-name="Lacute" unicode="&#x139;" horiz-adv-x="500" 
d="M344 794l-218 -73l-17 72l217 85zM32 0l119 676h118l-101 -572h274l-24 -104h-386z" />
    <glyph glyph-name="lacute" unicode="&#x13a;" horiz-adv-x="256" 
d="M330 816l-222 -79l-17 72l221 91zM139 0h-115l127 725l119 20z" />
    <glyph glyph-name="Lcommaaccent" unicode="&#x13b;" horiz-adv-x="500" 
d="M32 0l119 676h118l-101 -572h274l-24 -104h-386zM195 -224h-77l56 161h103z" />
    <glyph glyph-name="lcommaaccent" unicode="&#x13c;" horiz-adv-x="256" 
d="M24 0l127 725l119 20l-131 -745h-115zM41 -224h-76l56 161h102z" />
    <glyph glyph-name="Lcaron" unicode="&#x13d;" horiz-adv-x="501" 
d="M433 495h-74l32 181l102 12zM419 0h-387l119 676h118l-100 -572h274z" />
    <glyph glyph-name="lcaron" unicode="&#x13e;" horiz-adv-x="256" 
d="M24 0l127 725l119 20l-131 -745h-115zM379 551h-74l32 181l102 12z" />
    <glyph glyph-name="Ldot" unicode="&#x13f;" horiz-adv-x="500" 
d="M418 0h-386l119 676h118l-101 -572h274zM406 280q0 -26 -19 -44t-45 -18q-25 0 -43.5 18t-18.5 44q0 27 18.5 45.5t43.5 18.5q27 0 45.5 -18.5t18.5 -45.5z" />
    <glyph glyph-name="ldot" unicode="&#x140;" horiz-adv-x="360" 
d="M139 0h-115l127 725l119 20zM369 280q0 -26 -19 -44t-45 -18q-25 0 -43.5 18t-18.5 44q0 27 18.5 45.5t43.5 18.5q27 0 45.5 -18.5t18.5 -45.5z" />
    <glyph glyph-name="Lslash" unicode="&#x141;" horiz-adv-x="501" 
d="M420 0h-387l47 272l-48 -16l-12 65l73 26l59 329h118l-50 -286l85 30l12 -65l-110 -39l-37 -212h274z" />
    <glyph glyph-name="lslash" unicode="&#x142;" horiz-adv-x="256" 
d="M139 0h-115l49 279l-49 -16l-13 65l75 26l65 371l119 20l-62 -349l49 17l13 -65l-75 -26z" />
    <glyph glyph-name="Nacute" unicode="&#x143;" horiz-adv-x="619" 
d="M506 794l-218 -73l-17 72l217 85zM32 0l119 676h95l180 -440q4 38 15 101l60 339h118l-119 -676h-97l-180 436q-9 -72 -15 -104l-58 -332h-118z" />
    <glyph glyph-name="nacute" unicode="&#x144;" horiz-adv-x="535" 
d="M428 652l-219 -73l-17 72l218 85zM19 0l55 318q18 103 83 158.5t158 55.5q81 0 131 -57t33 -157l-56 -318h-115l55 313q10 57 -8.5 87.5t-57.5 30.5q-41 0 -69.5 -30.5t-38.5 -87.5l-55 -313h-115z" />
    <glyph glyph-name="Ncommaaccent" unicode="&#x145;" horiz-adv-x="619" 
d="M32 0l119 676h95l180 -440q4 38 15 101l60 339h118l-119 -676h-97l-180 436q-9 -72 -15 -104l-58 -332h-118zM243 -224h-77l56 161h103z" />
    <glyph glyph-name="ncommaaccent" unicode="&#x146;" horiz-adv-x="535" 
d="M19 0l55 318q18 103 83 158.5t158 55.5q81 0 131 -57t33 -157l-56 -318h-115l55 313q10 57 -8.5 87.5t-57.5 30.5q-41 0 -69.5 -30.5t-38.5 -87.5l-55 -313h-115zM185 -224h-77l56 161h103z" />
    <glyph glyph-name="Ncaron" unicode="&#x147;" horiz-adv-x="619" 
d="M531 808l-157 -83l-125 83l55 71l83 -63l109 63zM32 0l119 676h95l180 -440q4 38 15 101l60 339h118l-119 -676h-97l-180 436q-9 -72 -15 -104l-58 -332h-118z" />
    <glyph glyph-name="ncaron" unicode="&#x148;" horiz-adv-x="535" 
d="M472 666l-157 -83l-125 83l55 71l83 -63l109 63zM19 0l55 318q18 103 83 158.5t158 55.5q81 0 131 -57t33 -157l-56 -318h-115l55 313q10 57 -8.5 87.5t-57.5 30.5q-41 0 -69.5 -30.5t-38.5 -87.5l-55 -313h-115z" />
    <glyph glyph-name="Eng" unicode="&#x14a;" horiz-adv-x="619" 
d="M465 -199l-119 -20l44 249l-167 405q-13 -96 -14 -104l-59 -331h-118l119 676h95l180 -439q4 39 15 101l60 338h119z" />
    <glyph glyph-name="eng" unicode="&#x14b;" horiz-adv-x="535" 
d="M387 -199l-118 -20l94 532q10 57 -8.5 87.5t-57.5 30.5q-41 0 -69.5 -30.5t-38.5 -87.5l-55 -313h-115l55 318q18 103 83 158.5t158 55.5q82 0 132 -57.5t32 -156.5z" />
    <glyph glyph-name="Omacron" unicode="&#x14c;" horiz-adv-x="623" 
d="M527 763h-248l14 81h249zM266 -13q-111 0 -170 71t-36 204l26 150q23 134 106 205.5t197 71.5q110 0 168.5 -72t35.5 -205l-26 -150q-23 -134 -105 -204.5t-196 -70.5zM284 91q134 0 166 180l23 134q16 93 -12 136.5t-90 43.5q-63 0 -107 -43.5t-61 -136.5l-23 -134
q-30 -180 104 -180z" />
    <glyph glyph-name="omacron" unicode="&#x14d;" horiz-adv-x="527" 
d="M447 621h-248l14 81h249zM215 -13q-88 0 -139 61t-33 167l16 90q20 111 84 169t168 58q89 0 139.5 -61t31.5 -167l-16 -89q-20 -111 -83.5 -169.5t-167.5 -58.5zM233 88q95 0 119 132l14 79q22 132 -74 132q-97 0 -119 -132l-14 -79q-22 -132 74 -132z" />
    <glyph glyph-name="Obreve" unicode="&#x14e;" horiz-adv-x="623" 
d="M464 870h78q-12 -60 -51.5 -97.5t-98.5 -37.5q-53 0 -82.5 38.5t-19.5 96.5h77q-4 -26 7 -43t31 -17t37.5 17.5t21.5 42.5zM266 -13q-111 0 -170 71t-36 204l26 150q23 134 106 205.5t197 71.5q110 0 168.5 -72t35.5 -205l-26 -150q-23 -134 -105 -204.5t-196 -70.5z
M284 91q134 0 166 180l23 134q16 93 -12 136.5t-90 43.5q-63 0 -107 -43.5t-61 -136.5l-23 -134q-30 -180 104 -180z" />
    <glyph glyph-name="obreve" unicode="&#x14f;" horiz-adv-x="527" 
d="M383 728h78q-13 -60 -52.5 -97.5t-98.5 -37.5q-52 0 -81.5 39t-19.5 96h77q-4 -26 7 -43t31 -17t37.5 17.5t21.5 42.5zM215 -13q-88 0 -139 61t-33 167l16 90q20 111 84 169t168 58q89 0 139.5 -61t31.5 -167l-16 -89q-20 -111 -83.5 -169.5t-167.5 -58.5zM233 88
q95 0 119 132l14 79q22 132 -74 132q-97 0 -119 -132l-14 -79q-22 -132 74 -132z" />
    <glyph glyph-name="Ohungarumlaut" unicode="&#x150;" horiz-adv-x="623" 
d="M676 814l-183 -98l-30 69l180 108zM453 814l-183 -99l-30 70l180 107zM266 -13q-111 0 -170 71t-36 204l26 150q23 134 106 205.5t197 71.5q110 0 168.5 -72t35.5 -205l-26 -150q-23 -134 -105 -204.5t-196 -70.5zM284 91q134 0 166 180l23 134q16 93 -12 136.5t-90 43.5
q-63 0 -107 -43.5t-61 -136.5l-23 -134q-30 -180 104 -180z" />
    <glyph glyph-name="ohungarumlaut" unicode="&#x151;" horiz-adv-x="527" 
d="M605 672l-184 -98l-29 69l180 108zM382 672l-184 -99l-30 70l180 107zM215 -13q-88 0 -139 61t-33 167l16 90q20 111 84 169t168 58q89 0 139.5 -61t31.5 -167l-16 -89q-20 -111 -83.5 -169.5t-167.5 -58.5zM233 88q95 0 119 132l14 79q22 132 -74 132q-97 0 -119 -132
l-14 -79q-22 -132 74 -132z" />
    <glyph glyph-name="OE" unicode="&#x152;" horiz-adv-x="879" 
d="M780 0h-423q-47 -13 -91 -13q-111 0 -170 71t-36 204l26 150q23 134 106 205.5t197 71.5q42 0 83 -13h418l-19 -104h-290q28 -64 12 -160l-4 -21h210l-23 -100h-204l-5 -29q-16 -93 -66 -158h297zM450 271l23 134q16 93 -12 136.5t-90 43.5q-64 0 -108 -44t-60 -136
l-23 -134q-32 -180 104 -180q134 0 166 180z" />
    <glyph glyph-name="oe" unicode="&#x153;" horiz-adv-x="804" 
d="M695 115l6 -98q-90 -30 -167 -30q-101 0 -149 62q-64 -62 -170 -62q-88 0 -139 61t-33 167l16 90q20 111 84 169t168 58q91 0 138 -63q65 63 161 63q69 0 115.5 -40.5t46.5 -104.5q0 -35 -13.5 -63t-39 -45.5t-53 -29.5t-66 -18.5t-67 -9.5t-65.5 -5l-3 -17
q-20 -111 87 -111q56 0 143 27zM486 318l-5 -23q176 9 176 81q0 27 -17 41t-47 14q-39 0 -68 -28.5t-39 -84.5zM352 220l14 79q22 132 -74 132q-97 0 -119 -132l-14 -79q-22 -132 74 -132q95 0 119 132z" />
    <glyph glyph-name="Racute" unicode="&#x154;" horiz-adv-x="554" 
d="M477 794l-218 -73l-17 72l217 85zM32 0l119 676h228q82 0 128.5 -48t46.5 -122q0 -76 -44 -139t-116 -89l79 -278h-124l-68 262h-85l-46 -262h-118zM213 359h105q48 0 82 37.5t34 93.5q0 37 -21 59.5t-57 22.5h-105z" />
    <glyph glyph-name="racute" unicode="&#x155;" horiz-adv-x="349" 
d="M370 652l-218 -73l-17 72l217 85zM19 0l59 335q16 91 75.5 144t150.5 53q43 0 78 -11l-28 -99q-30 9 -59 9q-39 0 -66.5 -26.5t-35.5 -69.5l-59 -335h-115z" />
    <glyph glyph-name="Rcommaaccent" unicode="&#x156;" horiz-adv-x="554" 
d="M32 0l119 676h228q82 0 128.5 -48t46.5 -122q0 -76 -44 -139t-116 -89l79 -278h-124l-68 262h-85l-46 -262h-118zM213 359h105q48 0 82 37.5t34 93.5q0 37 -21 59.5t-57 22.5h-105zM210 -224h-76l56 161h102z" />
    <glyph glyph-name="rcommaaccent" unicode="&#x157;" horiz-adv-x="349" 
d="M19 0l59 335q16 91 75.5 144t150.5 53q43 0 78 -11l-28 -99q-30 9 -59 9q-39 0 -66.5 -26.5t-35.5 -69.5l-59 -335h-115zM38 -224h-77l56 161h103z" />
    <glyph glyph-name="Rcaron" unicode="&#x158;" horiz-adv-x="554" 
d="M504 808l-157 -83l-125 83l55 71l84 -63l108 63zM32 0l119 676h228q82 0 128.5 -48t46.5 -122q0 -76 -44 -139t-116 -89l79 -278h-124l-68 262h-85l-46 -262h-118zM213 359h105q48 0 82 37.5t34 93.5q0 37 -21 59.5t-57 22.5h-105z" />
    <glyph glyph-name="rcaron" unicode="&#x159;" horiz-adv-x="349" 
d="M400 666l-157 -83l-124 83l55 71l83 -63l109 63zM19 0l59 335q16 91 75.5 144t150.5 53q43 0 78 -11l-28 -99q-30 9 -59 9q-39 0 -66.5 -26.5t-35.5 -69.5l-59 -335h-115z" />
    <glyph glyph-name="Sacute" unicode="&#x15a;" horiz-adv-x="492" 
d="M450 794l-218 -73l-17 72l217 85zM0 26l33 102q92 -37 175 -37q48 0 82.5 30t34.5 78q0 31 -24.5 54.5t-59 40.5t-69.5 36.5t-59.5 54t-24.5 81.5q0 99 71 161t174 62q75 0 173 -39l-40 -97q-85 32 -144 32q-51 0 -80 -25.5t-29 -66.5q0 -29 24.5 -52t59.5 -41t69.5 -39
t59 -57t24.5 -85q0 -112 -74.5 -172t-178.5 -60q-96 0 -197 39z" />
    <glyph glyph-name="sacute" unicode="&#x15b;" horiz-adv-x="402" 
d="M368 652l-219 -73l-17 72l218 85zM-10 16l31 96q70 -24 128 -24q38 0 63 18.5t25 46.5q0 24 -28.5 43t-62 31.5t-62 43.5t-28.5 77q0 80 55 132t146 52q68 0 131 -24l-32 -98q-61 21 -110 21q-34 0 -53 -16.5t-19 -41.5q0 -20 18.5 -35.5t45 -28.5t53.5 -28.5t45.5 -43.5
t18.5 -66q0 -76 -54 -130t-161 -54q-75 0 -150 29z" />
    <glyph glyph-name="Scircumflex" unicode="&#x15c;" horiz-adv-x="492" 
d="M427 725l-83 63l-109 -63l-34 71l157 83l125 -83zM0 26l33 102q92 -37 175 -37q48 0 82.5 30t34.5 78q0 31 -24.5 54.5t-59 40.5t-69.5 36.5t-59.5 54t-24.5 81.5q0 99 71 161t174 62q75 0 173 -39l-40 -97q-85 32 -144 32q-51 0 -80 -25.5t-29 -66.5q0 -29 24.5 -52
t59.5 -41t69.5 -39t59 -57t24.5 -85q0 -112 -74.5 -172t-178.5 -60q-96 0 -197 39z" />
    <glyph glyph-name="scircumflex" unicode="&#x15d;" horiz-adv-x="402" 
d="M349 583l-84 63l-108 -63l-34 71l156 83l125 -83zM-10 16l31 96q70 -24 128 -24q38 0 63 18.5t25 46.5q0 24 -28.5 43t-62 31.5t-62 43.5t-28.5 77q0 80 55 132t146 52q68 0 131 -24l-32 -98q-61 21 -110 21q-34 0 -53 -16.5t-19 -41.5q0 -20 18.5 -35.5t45 -28.5
t53.5 -28.5t45.5 -43.5t18.5 -66q0 -76 -54 -130t-161 -54q-75 0 -150 29z" />
    <glyph glyph-name="Scedilla" unicode="&#x15e;" horiz-adv-x="492" 
d="M146 -83l13 72q-79 6 -159 37l33 102q92 -37 175 -37q48 0 82.5 30t34.5 78q0 31 -24.5 54.5t-59 40.5t-69.5 36.5t-59.5 54t-24.5 81.5q0 99 71 161t174 62q75 0 173 -39l-40 -97q-85 32 -144 32q-51 0 -80 -25.5t-29 -66.5q0 -29 24.5 -52t59.5 -41t69.5 -39t59 -57
t24.5 -85q0 -96 -56.5 -154t-142.5 -73l-15 -86q-11 -60 -50 -88.5t-88 -28.5q-37 0 -72 11l20 83q29 -8 53 -8q41 0 47 42z" />
    <glyph glyph-name="scedilla" unicode="&#x15f;" horiz-adv-x="403" 
d="M101 -83l13 71q-65 5 -123 28l31 96q70 -24 128 -24q37 0 62 18.5t25 46.5q0 24 -28.5 43t-62 31.5t-62 43.5t-28.5 77q0 80 55.5 132t146.5 52q66 0 131 -24l-33 -98q-61 21 -109 21q-35 0 -53.5 -16.5t-18.5 -41.5q0 -20 18.5 -35.5t45 -28.5t53 -28.5t45 -43.5
t18.5 -66q0 -63 -37 -112t-111 -65l-16 -88q-11 -60 -50 -88.5t-88 -28.5q-37 0 -72 11l20 83q29 -8 53 -8q41 0 47 42z" />
    <glyph glyph-name="Scaron" unicode="&#x160;" horiz-adv-x="492" 
d="M473 808l-157 -83l-125 83l55 71l83 -63l109 63zM0 26l33 102q92 -37 175 -37q48 0 82.5 30t34.5 78q0 31 -24.5 54.5t-59 40.5t-69.5 36.5t-59.5 54t-24.5 81.5q0 99 71 161t174 62q75 0 173 -39l-40 -97q-85 32 -144 32q-51 0 -80 -25.5t-29 -66.5q0 -29 24.5 -52
t59.5 -41t69.5 -39t59 -57t24.5 -85q0 -112 -74.5 -172t-178.5 -60q-96 0 -197 39z" />
    <glyph glyph-name="scaron" unicode="&#x161;" horiz-adv-x="402" 
d="M397 666l-157 -83l-125 83l55 71l84 -63l108 63zM-10 16l31 96q70 -24 128 -24q38 0 63 18.5t25 46.5q0 24 -28.5 43t-62 31.5t-62 43.5t-28.5 77q0 80 55 132t146 52q68 0 131 -24l-32 -98q-61 21 -110 21q-34 0 -53 -16.5t-19 -41.5q0 -20 18.5 -35.5t45 -28.5
t53.5 -28.5t45.5 -43.5t18.5 -66q0 -76 -54 -130t-161 -54q-75 0 -150 29z" />
    <glyph glyph-name="Tcommaaccent" unicode="&#x162;" horiz-adv-x="513" 
d="M153 0l101 572h-169l18 104h456l-18 -104h-170l-100 -572h-118zM170 -224h-77l56 161h103z" />
    <glyph glyph-name="tcommaaccent" unicode="&#x163;" horiz-adv-x="318" 
d="M49 0l77 438h-66l-4 81h84l26 144l118 19l-29 -163h91l-14 -81h-91l-77 -438h-115zM68 -224h-77l56 161h103z" />
    <glyph glyph-name="Tcaron" unicode="&#x164;" horiz-adv-x="513" 
d="M499 808l-157 -83l-125 83l55 71l83 -63l109 63zM153 0l101 572h-169l18 104h456l-18 -104h-170l-100 -572h-118z" />
    <glyph glyph-name="tcaron" unicode="&#x165;" horiz-adv-x="318" 
d="M412 580h-74l32 181l102 12zM164 0h-115l77 438h-66l-4 81h84l26 144l118 19l-29 -163h91l-14 -81h-91z" />
    <glyph glyph-name="Tbar" unicode="&#x166;" horiz-adv-x="513" 
d="M272 0h-119l55 313h-87l15 81h86l32 177h-169l19 105h455l-18 -105h-169l-31 -177h87l-14 -81h-88z" />
    <glyph glyph-name="tbar" unicode="&#x167;" horiz-adv-x="318" 
d="M165 0h-115l42 243h-63l14 81h64l20 114h-66l-4 81h84l26 144l118 19l-29 -163h91l-14 -81h-91l-20 -114h91l-14 -81h-92z" />
    <glyph glyph-name="Utilde" unicode="&#x168;" horiz-adv-x="622" 
d="M509 851l36 -53q-14 -24 -41 -42.5t-60 -18.5q-26 0 -56 23t-46 23q-29 0 -52 -29l-36 52q14 25 41.5 43.5t61.5 18.5q26 0 55.5 -23t45.5 -23q28 0 51 29zM66 222l80 454h118l-78 -445q-11 -64 15.5 -102t81.5 -38q56 0 96.5 38t51.5 102l78 445h118l-79 -454
q-18 -103 -100 -169t-182 -66q-102 0 -160 66t-40 169z" />
    <glyph glyph-name="utilde" unicode="&#x169;" horiz-adv-x="535" 
d="M433 709l36 -53q-14 -24 -41 -42.5t-60 -18.5q-26 0 -56 23t-46 23q-29 0 -52 -29l-36 52q14 25 41.5 43.5t61.5 18.5q26 0 55.5 -23t45.5 -23q28 0 51 29zM53 201l56 318h115l-55 -313q-10 -57 8 -87.5t58 -30.5t69 30.5t39 87.5l55 313h115l-56 -318
q-18 -103 -83 -158.5t-157 -55.5q-88 0 -135 56.5t-29 157.5z" />
    <glyph glyph-name="Umacron" unicode="&#x16a;" horiz-adv-x="622" 
d="M522 763h-249l15 81h248zM66 222l80 454h118l-78 -445q-11 -64 15.5 -102t81.5 -38q56 0 96.5 38t51.5 102l78 445h118l-79 -454q-18 -103 -100 -169t-182 -66q-102 0 -160 66t-40 169z" />
    <glyph glyph-name="umacron" unicode="&#x16b;" horiz-adv-x="535" 
d="M450 621h-248l14 81h249zM53 201l56 318h115l-55 -313q-10 -57 8 -87.5t58 -30.5t69 30.5t39 87.5l55 313h115l-56 -318q-18 -103 -83 -158.5t-157 -55.5q-88 0 -135 56.5t-29 157.5z" />
    <glyph glyph-name="Ubreve" unicode="&#x16c;" horiz-adv-x="622" 
d="M457 870h78q-12 -60 -51.5 -97.5t-98.5 -37.5q-53 0 -82.5 38.5t-19.5 96.5h77q-4 -26 7 -43t31 -17t37.5 17.5t21.5 42.5zM66 222l80 454h118l-78 -445q-11 -64 15.5 -102t81.5 -38q56 0 96.5 38t51.5 102l78 445h118l-79 -454q-18 -103 -100 -169t-182 -66
q-102 0 -160 66t-40 169z" />
    <glyph glyph-name="ubreve" unicode="&#x16d;" horiz-adv-x="535" 
d="M388 728h77q-12 -60 -51.5 -97.5t-98.5 -37.5q-53 0 -82 39t-19 96h77q-4 -25 6.5 -42.5t30.5 -17.5q21 0 38.5 17t21.5 43zM53 201l56 318h115l-55 -313q-10 -57 8 -87.5t58 -30.5t69 30.5t39 87.5l55 313h115l-56 -318q-18 -103 -83 -158.5t-157 -55.5q-88 0 -135 56.5
t-29 157.5z" />
    <glyph glyph-name="Uring" unicode="&#x16e;" horiz-adv-x="622" 
d="M400 721q-40 0 -68.5 28.5t-28.5 68.5q0 39 28.5 67.5t68.5 28.5q39 0 67.5 -28.5t28.5 -67.5q0 -40 -28.5 -68.5t-67.5 -28.5zM400 786q13 0 22.5 9.5t9.5 22.5q0 14 -9 23t-23 9t-23 -9t-9 -23q0 -13 9.5 -22.5t22.5 -9.5zM66 222l80 454h118l-78 -445
q-11 -64 15.5 -102t81.5 -38q56 0 96.5 38t51.5 102l78 445h118l-79 -454q-18 -103 -100 -169t-182 -66q-102 0 -160 66t-40 169z" />
    <glyph glyph-name="uring" unicode="&#x16f;" horiz-adv-x="535" 
d="M328 579q-40 0 -69 28.5t-29 68.5q0 39 29 67.5t69 28.5q39 0 67.5 -28.5t28.5 -67.5q0 -40 -28.5 -68.5t-67.5 -28.5zM328 644q13 0 22.5 9.5t9.5 22.5q0 14 -9 23t-23 9t-23 -9t-9 -23q0 -13 9.5 -22.5t22.5 -9.5zM53 201l56 318h115l-55 -313q-10 -57 8 -87.5
t58 -30.5t69 30.5t39 87.5l55 313h115l-56 -318q-18 -103 -83 -158.5t-157 -55.5q-88 0 -135 56.5t-29 157.5z" />
    <glyph glyph-name="Uhungarumlaut" unicode="&#x170;" horiz-adv-x="622" 
d="M661 814l-183 -98l-30 69l180 108zM438 814l-183 -99l-30 70l180 107zM66 222l80 454h118l-78 -445q-11 -64 15.5 -102t81.5 -38q56 0 96.5 38t51.5 102l78 445h118l-79 -454q-18 -103 -100 -169t-182 -66q-102 0 -160 66t-40 169z" />
    <glyph glyph-name="uhungarumlaut" unicode="&#x171;" horiz-adv-x="535" 
d="M591 672l-183 -98l-30 69l180 108zM368 672l-183 -99l-30 70l180 107zM53 201l56 318h115l-55 -313q-10 -57 8 -87.5t58 -30.5t69 30.5t39 87.5l55 313h115l-56 -318q-18 -103 -83 -158.5t-157 -55.5q-88 0 -135 56.5t-29 157.5z" />
    <glyph glyph-name="Uogonek" unicode="&#x172;" horiz-adv-x="622" 
d="M283 -140l-1 -73q-25 -11 -59 -11q-46 0 -70 20.5t-24 56.5q0 77 86 139q-81 16 -123 78.5t-26 151.5l80 454h118l-78 -445q-11 -64 15.5 -102t81.5 -38q56 0 96.5 38t51.5 102l78 445h118l-79 -454q-16 -92 -84.5 -155.5t-157.5 -76.5q-86 -62 -86 -113q0 -23 28 -23
q17 0 35 6z" />
    <glyph glyph-name="uogonek" unicode="&#x173;" horiz-adv-x="535" 
d="M242 -140v-73q-26 -11 -59 -11q-46 0 -70 20.5t-24 56.5q0 75 84 138q-68 13 -102 67.5t-18 142.5l56 318h115l-55 -313q-10 -57 8 -87.5t58 -30.5t69 30.5t39 87.5l55 313h115l-56 -318q-15 -88 -65.5 -142t-124.5 -67q-88 -62 -88 -115q0 -23 28 -23q17 0 35 6z" />
    <glyph glyph-name="Wcircumflex" unicode="&#x174;" horiz-adv-x="828" 
d="M582 725l-83 63l-109 -63l-34 71l156 83l126 -83zM107 0l6 676h121l-14 -399q-1 -47 -12 -131q50 125 53 130l141 293h129l38 -293q4 -33 8 -128q21 87 34 129l127 399h121l-232 -676h-133l-44 353q-5 43 -5 92q-24 -63 -37 -92l-168 -353h-133z" />
    <glyph glyph-name="wcircumflex" unicode="&#x175;" horiz-adv-x="772" 
d="M533 583l-83 63l-109 -63l-34 71l157 83l125 -83zM51 176l37 343h114l-36 -335q-5 -43 9.5 -68.5t48.5 -25.5q33 0 57 27t32 69l53 298h113l-53 -298q-8 -42 7 -69t49 -27q33 0 57 25.5t35 68.5l83 335h114l-87 -343q-22 -88 -81 -138.5t-139 -50.5q-84 0 -118 71
q-55 -71 -142 -71q-79 0 -120.5 51t-32.5 138z" />
    <glyph glyph-name="Ycircumflex" unicode="&#x176;" horiz-adv-x="558" 
d="M446 725l-83 63l-109 -63l-34 71l156 83l126 -83zM174 0l45 258l-127 418h123l80 -297l190 297h127l-275 -418l-45 -258h-118z" />
    <glyph glyph-name="ycircumflex" unicode="&#x177;" horiz-adv-x="490" 
d="M391 583l-83 63l-109 -63l-34 71l157 83l125 -83zM55 184l13 335h115l-13 -325q-2 -47 12 -70t47 -23h36l125 418h115l-224 -730h-113l67 211h-27q-160 0 -153 184z" />
    <glyph glyph-name="Ydieresis" unicode="&#x178;" horiz-adv-x="558" 
d="M514 804q0 -24 -17.5 -40.5t-41.5 -16.5t-41 16.5t-17 40.5q0 25 17 42.5t41 17.5t41.5 -17.5t17.5 -42.5zM326 804q0 -24 -17 -40.5t-42 -16.5q-24 0 -41 16.5t-17 40.5q0 25 17.5 42.5t40.5 17.5q25 0 42 -17.5t17 -42.5zM174 0l45 258l-127 418h123l80 -297l190 297
h127l-275 -418l-45 -258h-118z" />
    <glyph glyph-name="Zacute" unicode="&#x179;" horiz-adv-x="547" 
d="M469 794l-218 -73l-17 72l217 85zM1 0l14 84l378 492h-285l17 100h434l-15 -83l-379 -492h314l-29 -101h-449z" />
    <glyph glyph-name="zacute" unicode="&#x17a;" horiz-adv-x="472" 
d="M412 652l-218 -73l-17 72l217 85zM366 0h-363l15 86l280 335h-214l17 98h354l-15 -84l-278 -337h230z" />
    <glyph glyph-name="Zdotaccent" unicode="&#x17b;" horiz-adv-x="547" 
d="M409 803q0 -24 -17.5 -41t-41.5 -17q-23 0 -40.5 17t-17.5 41q0 25 17.5 42.5t40.5 17.5q25 0 42 -17.5t17 -42.5zM1 0l14 84l378 492h-285l17 100h434l-15 -83l-379 -492h314l-29 -101h-449z" />
    <glyph glyph-name="zdotaccent" unicode="&#x17c;" horiz-adv-x="472" 
d="M357 661q0 -24 -17.5 -41t-41.5 -17q-23 0 -40.5 17t-17.5 41q0 25 17 42.5t41 17.5t41.5 -17.5t17.5 -42.5zM366 0h-363l15 86l280 335h-214l17 98h354l-15 -84l-278 -337h230z" />
    <glyph glyph-name="Zcaron" unicode="&#x17d;" horiz-adv-x="547" 
d="M495 808l-157 -83l-124 83l55 71l83 -63l109 63zM1 0l14 84l378 492h-285l17 100h434l-15 -83l-379 -492h314l-29 -101h-449z" />
    <glyph glyph-name="zcaron" unicode="&#x17e;" horiz-adv-x="472" 
d="M443 666l-157 -83l-125 83l55 71l83 -63l109 63zM366 0h-363l15 86l280 335h-214l17 98h354l-15 -84l-278 -337h230z" />
    <glyph glyph-name="florin" unicode="&#x192;" horiz-adv-x="511" 
d="M90 -50l134 428h-85l14 80h97l39 125q24 78 74 117.5t113 39.5q49 0 88 -17l-29 -97q-33 11 -60 11q-62 0 -83 -66l-36 -113h124l-34 -80h-115l-138 -440q-24 -78 -74 -117.5t-113 -39.5q-48 0 -88 17l29 97q31 -11 60 -11q62 0 83 66z" />
    <glyph glyph-name="Scommaaccent" unicode="&#x218;" horiz-adv-x="492" 
d="M0 26l33 102q92 -37 175 -37q48 0 82.5 30t34.5 78q0 31 -24.5 54.5t-59 40.5t-69.5 36.5t-59.5 54t-24.5 81.5q0 99 71 161t174 62q75 0 173 -39l-40 -97q-85 32 -144 32q-51 0 -80 -25.5t-29 -66.5q0 -29 24.5 -52t59.5 -41t69.5 -39t59 -57t24.5 -85
q0 -112 -74.5 -172t-178.5 -60q-96 0 -197 39zM156 -224h-77l56 161h103z" />
    <glyph glyph-name="scommaaccent" unicode="&#x219;" horiz-adv-x="402" 
d="M-10 16l31 96q70 -24 128 -24q38 0 63 18.5t25 46.5q0 24 -28.5 43t-62 31.5t-62 43.5t-28.5 77q0 80 55 132t146 52q68 0 131 -24l-32 -98q-61 21 -110 21q-34 0 -53 -16.5t-19 -41.5q0 -20 18.5 -35.5t45 -28.5t53.5 -28.5t45.5 -43.5t18.5 -66q0 -76 -54 -130
t-161 -54q-75 0 -150 29zM128 -224h-76l56 161h102z" />
    <glyph glyph-name="circumflex" unicode="&#x2c6;" horiz-adv-x="464" 
d="M397 583l-84 63l-108 -63l-34 71l156 83l125 -83z" />
    <glyph glyph-name="caron" unicode="&#x2c7;" horiz-adv-x="464" 
d="M457 666l-157 -83l-125 83l55 71l83 -63l109 63z" />
    <glyph glyph-name="breve" unicode="&#x2d8;" horiz-adv-x="406" 
d="M351 728h78q-13 -60 -52.5 -97.5t-98.5 -37.5q-52 0 -81.5 39t-19.5 96h77q-4 -26 7 -43t31 -17t37.5 17.5t21.5 42.5z" />
    <glyph glyph-name="dotaccent" unicode="&#x2d9;" horiz-adv-x="266" 
d="M275 661q0 -24 -17.5 -41t-41.5 -17q-23 0 -40.5 17t-17.5 41q0 25 17.5 42.5t40.5 17.5q25 0 42 -17.5t17 -42.5z" />
    <glyph glyph-name="ring" unicode="&#x2da;" horiz-adv-x="342" 
d="M254 579q-40 0 -69 28.5t-29 68.5q0 39 29 67.5t69 28.5q39 0 67.5 -28.5t28.5 -67.5q0 -40 -28.5 -68.5t-67.5 -28.5zM254 644q13 0 22.5 9.5t9.5 22.5q0 14 -9 23t-23 9t-23 -9t-9 -23q0 -13 9.5 -22.5t22.5 -9.5z" />
    <glyph glyph-name="ogonek" unicode="&#x2db;" horiz-adv-x="300" 
d="M163 -140v-73q-26 -11 -59 -11q-46 0 -70 20.5t-24 56.5q0 82 97 147h94q-101 -66 -101 -123q0 -23 28 -23q17 0 35 6z" />
    <glyph glyph-name="tilde" unicode="&#x2dc;" horiz-adv-x="445" 
d="M417 709l36 -53q-14 -24 -41 -42.5t-61 -18.5q-26 0 -56 23t-46 23q-28 0 -51 -29l-36 52q14 24 41 43t61 19q26 0 56 -23t46 -23q26 0 51 29z" />
    <glyph glyph-name="hungarumlaut" unicode="&#x2dd;" horiz-adv-x="586" 
d="M613 672l-184 -98l-29 69l180 108zM390 672l-184 -99l-30 70l180 107z" />
    <glyph glyph-name="Omega" unicode="&#x3a9;" horiz-adv-x="681" 
d="M585 0h-224l38 221q57 24 95.5 71t47.5 97l8 42q14 70 -24 129t-123 59q-86 0 -141.5 -57.5t-69.5 -130.5l-8 -42q-9 -51 12.5 -98.5t71.5 -70.5l-38 -220h-225l15 87h122l12 66q-52 38 -73 98t-9 130l10 59q21 118 114 199t225 81q131 0 196 -82.5t45 -197.5l-11 -59
q-13 -73 -55 -132.5t-107 -96.5l-12 -65h122z" />
    <glyph glyph-name="pi" unicode="&#x3c0;" horiz-adv-x="709" 
d="M541 0h-110l74 422h-223l-74 -422h-110l74 422h-79l17 100h602l-17 -100h-80z" />
    <glyph glyph-name="afii10023" unicode="&#x401;" horiz-adv-x="518" 
d="M503 803q0 -24 -17.5 -40.5t-41.5 -16.5t-41 16.5t-17 40.5q0 25 17 42.5t41 17.5t41.5 -17.5t17.5 -42.5zM315 803q0 -24 -17 -40.5t-42 -16.5q-24 0 -41 16.5t-17 40.5q0 25 17.5 42.5t40.5 17.5q25 0 42 -17.5t17 -42.5zM32 0l119 676h379l-19 -104h-260l-32 -181h220
l-23 -100h-215l-33 -187h270l-18 -104h-388z" />
    <glyph glyph-name="afii10051" unicode="&#x402;" horiz-adv-x="710" 
d="M429 -12q-51 0 -98 9l18 101q35 -7 56 -7q102 0 120 98l8 44q7 36 -17 58.5t-66 22.5q-68 0 -130 -27l-50 -287h-117l100 572h-168l18 104h454l-18 -104h-168l-32 -181q92 27 155 27q84 0 126.5 -55.5t28.5 -140.5l-12 -70q-15 -85 -71.5 -124.5t-136.5 -39.5z" />
    <glyph glyph-name="afii10052" unicode="&#x403;" horiz-adv-x="469" 
d="M466 790l-218 -73l-17 72l217 85zM32 0l119 676h365l-19 -104h-246l-101 -572h-118z" />
    <glyph glyph-name="afii10053" unicode="&#x404;" horiz-adv-x="562" 
d="M274 -13q-104 0 -162 57t-58 158q0 31 6 67l26 152q23 133 106 200.5t197 67.5q93 0 192 -32l-37 -99q-83 27 -163 27q-147 0 -178 -174l-3 -17h226l-27 -102h-218l-3 -19q-6 -42 -6 -57q0 -127 121 -127q82 0 174 28l5 -100q-107 -30 -198 -30z" />
    <glyph glyph-name="afii10054" unicode="&#x405;" horiz-adv-x="492" 
d="M0 26l33 102q92 -37 175 -37q48 0 82.5 30t34.5 78q0 31 -24.5 54.5t-59 40.5t-69.5 36.5t-59.5 54t-24.5 81.5q0 99 71 161t174 62q75 0 173 -39l-40 -97q-85 32 -144 32q-51 0 -80 -25.5t-29 -66.5q0 -29 24.5 -52t59.5 -41t69.5 -39t59 -57t24.5 -85
q0 -112 -74.5 -172t-178.5 -60q-96 0 -197 39z" />
    <glyph glyph-name="afii10055" unicode="&#x406;" horiz-adv-x="268" 
d="M32 0l119 676h118l-119 -676h-118z" />
    <glyph glyph-name="afii10056" unicode="&#x407;" horiz-adv-x="268" 
d="M378 803q0 -24 -17.5 -40.5t-41.5 -16.5t-41 16.5t-17 40.5q0 25 17 42.5t41 17.5t41.5 -17.5t17.5 -42.5zM190 803q0 -24 -17 -40.5t-42 -16.5q-24 0 -41 16.5t-17 40.5q0 25 17.5 42.5t40.5 17.5q25 0 42 -17.5t17 -42.5zM32 0l119 676h118l-119 -676h-118z" />
    <glyph glyph-name="afii10057" unicode="&#x408;" horiz-adv-x="459" 
d="M-19 21l33 98q76 -28 132 -28q101 0 125 136l79 449h119l-81 -452q-20 -112 -82 -174.5t-162 -62.5q-80 0 -163 34z" />
    <glyph glyph-name="afii10058" unicode="&#x409;" horiz-adv-x="940" 
d="M654 676l-46 -263h118q81 0 130 -54.5t49 -129.5q0 -99 -70.5 -164t-178.5 -65h-239l101 573h-172q-27 -153 -58 -258.5t-61.5 -167t-74 -95.5t-83.5 -45.5t-101 -14.5l14 103q33 6 53.5 14t46 29.5t44 59.5t40 100t42 155.5t43.5 222.5h403zM553 102h120q50 0 81 32.5
t31 90.5q0 36 -20.5 61t-54.5 25h-120q-15 -82 -37 -209z" />
    <glyph glyph-name="afii10059" unicode="&#x40a;" horiz-adv-x="912" 
d="M625 676l-46 -270h118q84 0 132 -52t48 -128q0 -99 -70.5 -162.5t-179.5 -63.5h-239l54 304h-239l-54 -304h-118l119 676h118l-47 -270h238l48 270h118zM524 102h120q50 0 81 31t31 89q0 38 -19.5 60t-55.5 22h-120z" />
    <glyph glyph-name="afii10060" unicode="&#x40b;" horiz-adv-x="714" 
d="M153 0l101 572h-169l19 104h454l-18 -104h-169l-32 -180q92 27 164 27q76 0 116.5 -51.5t25.5 -139.5l-40 -228h-117l39 220q8 46 -13 70.5t-66 24.5q-67 0 -127 -27l-50 -288h-118z" />
    <glyph glyph-name="afii10061" unicode="&#x40c;" horiz-adv-x="582" 
d="M508 793l-218 -73l-17 72l217 85zM32 0l119 676h118l-52 -292l108 35q34 11 53.5 29t34.5 50l79 178h119l-92 -210q-41 -93 -114 -121l116 -345h-132l-95 304l-97 -34l-47 -270h-118z" />
    <glyph glyph-name="afii10062" unicode="&#x40e;" horiz-adv-x="564" 
d="M372 809q46 0 64 58l79 -11q-16 -58 -54.5 -90t-92.5 -32q-52 0 -84.5 27t-35.5 75v20l80 11q0 -58 44 -58zM90 0v102h126q34 0 53.5 18.5t34.5 61.5l15 43h-54q-84 0 -120 47.5t-36 135.5v268h115v-258q0 -92 65 -92h66l124 350h121l-189 -528q-28 -79 -70.5 -113.5
t-122.5 -34.5h-128z" />
    <glyph glyph-name="afii10145" unicode="&#x40f;" horiz-adv-x="633" 
d="M191 -139l25 139h-184l119 676h117l-101 -574h240l101 574h118l-119 -676h-181l-22 -121z" />
    <glyph glyph-name="afii10017" unicode="&#x410;" horiz-adv-x="595" 
d="M-22 0l324 676h136l86 -676h-118l-19 173h-208l-79 -173h-122zM224 272h153l-20 168q-5 40 -7 115q-31 -80 -47 -115z" />
    <glyph glyph-name="afii10018" unicode="&#x411;" horiz-adv-x="563" 
d="M32 0l119 676h391l-19 -102h-272l-29 -162h122q83 0 129.5 -54t46.5 -132q0 -98 -68.5 -162t-174.5 -64h-245zM168 102h121q50 0 82 33t32 89q0 38 -20.5 62t-57.5 24h-121z" />
    <glyph glyph-name="afii10019" unicode="&#x412;" horiz-adv-x="563" 
d="M242 0h-210l119 676h209q88 0 138 -41t50 -109q0 -119 -112 -171q85 -34 85 -122q0 -96 -74.5 -164.5t-204.5 -68.5zM220 397h81q56 0 90 29.5t34 76.5q0 69 -86 69h-88zM168 104h91q63 0 101.5 31t38.5 86q0 76 -98 76h-99z" />
    <glyph glyph-name="afii10020" unicode="&#x413;" horiz-adv-x="469" 
d="M32 0l119 676h365l-19 -104h-246l-101 -572h-118z" />
    <glyph glyph-name="afii10021" unicode="&#x414;" horiz-adv-x="670" 
d="M-58 -139l42 241h66q62 69 123.5 236.5t92.5 337.5h395l-101 -574h76l-40 -223l-112 -18l25 139h-433l-22 -121zM179 102h262l83 472h-169q-33 -152 -83 -282.5t-93 -189.5z" />
    <glyph glyph-name="afii10022" unicode="&#x415;" horiz-adv-x="519" 
d="M32 0l119 676h379l-19 -104h-260l-32 -181h220l-23 -100h-215l-33 -187h270l-18 -104h-388z" />
    <glyph glyph-name="afii10024" unicode="&#x416;" horiz-adv-x="853" 
d="M-26 0l218 345q-32 17 -46.5 43.5t-17.5 74.5l-14 213h116l12 -181q2 -32 17 -50.5t49 -31.5l79 -29l52 292h118l-52 -292l90 29q38 12 58 30.5t33 51.5l77 181h119l-90 -213q-21 -51 -46 -77.5t-65 -44.5l97 -341h-131l-78 300l-83 -30l-48 -270h-118l47 270l-72 30
l-180 -300h-141z" />
    <glyph glyph-name="afii10025" unicode="&#x417;" horiz-adv-x="522" 
d="M205 -13q-49 0 -108 10.5t-93 25.5l34 101q89 -34 162 -34q66 0 105.5 35t39.5 95q0 76 -98 76h-79l11 100h67q59 0 95 33.5t36 82.5q0 32 -23 53t-67 21q-66 0 -158 -33l-12 97q107 39 204 39q88 0 133 -43t45 -120q0 -52 -30.5 -100t-83.5 -68q40 -16 61.5 -53.5
t21.5 -86.5q0 -105 -73.5 -166.5t-189.5 -64.5z" />
    <glyph glyph-name="afii10026" unicode="&#x418;" horiz-adv-x="634" 
d="M32 0l119 676h118l-62 -348q-12 -67 -20 -100l353 448h95l-119 -676h-118l59 341q8 45 23 103l-351 -444h-97z" />
    <glyph glyph-name="afii10027" unicode="&#x419;" horiz-adv-x="640" 
d="M410 809q46 0 64 58l79 -11q-16 -58 -54.5 -90t-92.5 -32q-52 0 -84.5 27t-35.5 75v20l80 11q0 -58 44 -58zM32 0l119 676h118l-62 -348q-12 -67 -20 -100l353 448h95l-119 -676h-118l59 341q8 45 23 103l-351 -444h-97z" />
    <glyph glyph-name="afii10028" unicode="&#x41a;" horiz-adv-x="582" 
d="M32 0l119 676h118l-52 -292l108 35q34 11 53.5 29t34.5 50l79 178h119l-92 -210q-41 -93 -114 -121l116 -345h-132l-95 304l-97 -34l-47 -270h-118z" />
    <glyph glyph-name="afii10029" unicode="&#x41b;" horiz-adv-x="654" 
d="M-32 -9l14 105q33 5 54 13.5t46 29.5t43.5 59t40 100.5t42 155.5t43.5 222h404l-119 -676h-118l101 574h-172q-27 -153 -58 -258.5t-62 -167t-74.5 -96t-83.5 -46t-101 -15.5z" />
    <glyph glyph-name="afii10030" unicode="&#x41c;" horiz-adv-x="804" 
d="M-3 0l194 676h136l63 -350q6 -35 11 -87q16 44 39 87l189 350h136l-45 -676h-117l31 401q3 45 13 114q-29 -66 -54 -113l-150 -281h-127l-52 281q-8 45 -14 113q-14 -71 -26 -114l-110 -401h-117z" />
    <glyph glyph-name="afii10031" unicode="&#x41d;" horiz-adv-x="625" 
d="M32 0l119 676h118l-50 -281h239l50 281h118l-119 -676h-118l51 293h-238l-52 -293h-118z" />
    <glyph glyph-name="afii10032" unicode="&#x41e;" horiz-adv-x="623" 
d="M266 -13q-111 0 -170 71t-36 204l26 150q23 134 106 205.5t197 71.5q110 0 168.5 -72t35.5 -205l-26 -150q-23 -134 -105 -204.5t-196 -70.5zM284 91q134 0 166 180l23 134q16 93 -12 136.5t-90 43.5q-63 0 -107 -43.5t-61 -136.5l-23 -134q-30 -180 104 -180z" />
    <glyph glyph-name="afii10033" unicode="&#x41f;" horiz-adv-x="625" 
d="M32 0l119 676h475l-119 -676h-119l101 574h-238l-101 -574h-118z" />
    <glyph glyph-name="afii10034" unicode="&#x420;" horiz-adv-x="543" 
d="M32 0l119 676h228q81 0 128 -48.5t47 -121.5q0 -99 -72.5 -174t-176.5 -75h-110l-45 -257h-118zM213 359h106q48 0 81 38t33 94q0 37 -20 59t-56 22h-106z" />
    <glyph glyph-name="afii10035" unicode="&#x421;" horiz-adv-x="550" 
d="M466 119l4 -101q-107 -31 -194 -31q-118 0 -178.5 70.5t-37.5 204.5l26 152q23 135 104.5 205t202.5 70q88 0 184 -31l-35 -101q-86 28 -161 28q-146 0 -177 -180l-24 -134q-32 -180 114 -180q76 0 172 28z" />
    <glyph glyph-name="afii10036" unicode="&#x422;" horiz-adv-x="513" 
d="M153 0l101 572h-169l18 104h456l-18 -104h-170l-100 -572h-118z" />
    <glyph glyph-name="afii10037" unicode="&#x423;" horiz-adv-x="564" 
d="M90 0v102h126q34 0 53.5 18.5t34.5 61.5l15 43h-54q-84 0 -120 47.5t-36 135.5v268h115v-258q0 -92 65 -92h66l124 350h121l-189 -528q-28 -79 -70.5 -113.5t-122.5 -34.5h-128z" />
    <glyph glyph-name="afii10038" unicode="&#x424;" horiz-adv-x="781" 
d="M285 -11l17 93q-115 3 -184 61t-69 161t49.5 174.5t125.5 103.5t172 35l12 72h119l-13 -72q114 -3 183 -61.5t69 -161.5q0 -151 -98.5 -229.5t-247.5 -82.5l-17 -93h-118zM319 185l59 330q-100 -3 -153.5 -59t-53.5 -145q0 -123 148 -126zM437 185q99 2 153 58.5
t54 144.5q0 124 -148 127z" />
    <glyph glyph-name="afii10039" unicode="&#x425;" horiz-adv-x="576" 
d="M-24 0l261 352l-121 324h126l79 -218l153 218h127l-229 -319l138 -357h-131l-90 250l-183 -250h-130z" />
    <glyph glyph-name="afii10040" unicode="&#x426;" horiz-adv-x="635" 
d="M448 -139l26 139h-442l119 676h118l-101 -574h238l101 574h119l-102 -574h76l-40 -223z" />
    <glyph glyph-name="afii10041" unicode="&#x427;" horiz-adv-x="583" 
d="M342 0l50 284q-92 -27 -162 -27q-76 0 -117.5 54t-25.5 144l40 221h118l-39 -220q-8 -47 12 -71t65 -24q67 0 127 27l51 288h118l-119 -676h-118z" />
    <glyph glyph-name="afii10042" unicode="&#x428;" horiz-adv-x="889" 
d="M32 0l119 676h118l-101 -574h192l101 574h118l-101 -574h192l101 574h118l-119 -676h-738z" />
    <glyph glyph-name="afii10043" unicode="&#x429;" horiz-adv-x="900" 
d="M712 -139l26 139h-706l119 676h118l-101 -574h192l101 574h118l-101 -574h192l101 574h119l-101 -574h75l-40 -223z" />
    <glyph glyph-name="afii10044" unicode="&#x42a;" horiz-adv-x="643" 
d="M121 0l100 574h-136l19 102h254l-46 -262h117q84 0 132 -53.5t48 -130.5q0 -100 -70.5 -165t-178.5 -65h-239zM257 102h119q50 0 81 33t31 91q0 38 -19.5 62t-54.5 24h-120z" />
    <glyph glyph-name="afii10045" unicode="&#x42b;" horiz-adv-x="792" 
d="M32 0l119 676h118l-46 -262h117q84 0 132 -53.5t48 -130.5q0 -100 -71 -165t-178 -65h-239zM168 102h119q50 0 81 33t31 91q0 38 -19.5 62t-54.5 24h-120zM555 0l119 676h118l-119 -676h-118z" />
    <glyph glyph-name="afii10046" unicode="&#x42c;" horiz-adv-x="554" 
d="M32 0l119 676h118l-46 -262h117q84 0 132 -53.5t48 -130.5q0 -100 -71 -165t-178 -65h-239zM168 102h119q50 0 81 33t31 91q0 38 -19.5 62t-54.5 24h-120z" />
    <glyph glyph-name="afii10047" unicode="&#x42d;" horiz-adv-x="553" 
d="M192 -13q-88 0 -188 31l35 101q76 -28 161 -28q150 0 182 188l2 12h-225l12 101h231l2 11q33 182 -117 182q-73 0 -171 -28l-5 101q105 31 196 31q127 0 183.5 -75.5t32.5 -213.5l-27 -154q-24 -133 -104 -196t-200 -63z" />
    <glyph glyph-name="afii10048" unicode="&#x42e;" horiz-adv-x="845" 
d="M513 -13q-101 0 -156.5 56t-55.5 154q0 20 11 95h-112l-51 -292h-118l119 676h118l-49 -282h111l4 21q23 132 101 203t175 71q105 0 156.5 -58.5t51.5 -159.5q0 -37 -8 -85l-24 -137q-24 -133 -97 -197.5t-176 -64.5zM518 91q122 0 154 177l19 105q10 53 10 95
q0 116 -96 116q-125 0 -155 -177l-24 -137q-7 -42 -7 -65q0 -114 99 -114z" />
    <glyph glyph-name="afii10049" unicode="&#x42f;" horiz-adv-x="560" 
d="M-5 0l179 279q-49 20 -72 63t-23 95q0 100 71.5 169.5t179.5 69.5h231l-119 -676h-118l44 257h-80l-159 -257h-134zM277 359h110l37 215h-109q-50 0 -83 -34t-33 -91q0 -39 21 -64.5t57 -25.5z" />
    <glyph glyph-name="afii10065" unicode="&#x430;" horiz-adv-x="522" 
d="M192 -13q-75 0 -121 57t-28 161l19 110q18 103 83 160t161 57q82 0 135 -59.5t36 -157.5l-56 -315h-102l4 48q-53 -61 -131 -61zM225 88q54 0 108 65l28 157q10 59 -10.5 90t-61.5 31q-40 0 -71.5 -31t-41.5 -90l-17 -100q-22 -122 66 -122z" />
    <glyph glyph-name="afii10066" unicode="&#x431;" horiz-adv-x="535" 
d="M234 -13q-88 0 -136 52.5t-48 136.5q0 26 4 53l40 229q12 67 36.5 114.5t62 74.5t76 41t92.5 23l202 32l-18 -99l-197 -33q-120 -21 -141 -139q58 44 127 44q73 0 116 -48.5t43 -127.5q0 -23 -5 -51l-15 -85q-19 -107 -83.5 -162t-155.5 -55zM242 87q98 0 120 132l11 64
q4 28 4 40q0 92 -77 92q-50 0 -79 -32.5t-42 -99.5l-12 -64q-4 -21 -4 -45q0 -87 79 -87z" />
    <glyph glyph-name="afii10067" unicode="&#x432;" horiz-adv-x="519" 
d="M21 0l92 519h208q73 0 112.5 -31t39.5 -88q0 -90 -89 -127q67 -26 67 -109q0 -80 -63.5 -122t-166.5 -42h-200zM153 94h81q45 0 70.5 22t25.5 55q0 27 -17 43.5t-53 16.5h-83zM192 315h70q45 0 70.5 19t25.5 54q0 49 -69 49h-76z" />
    <glyph glyph-name="afii10068" unicode="&#x433;" horiz-adv-x="420" 
d="M195 -13q-83 0 -125 38t-42 94q0 50 22.5 82t68.5 64l102 71q35 25 43 38q7 13 7 27q0 32 -52 32q-49 0 -119 -21l-9 96q74 24 142 24q73 0 115.5 -34.5t42.5 -85.5q0 -50 -21.5 -80t-65.5 -62l-90 -66q-37 -27 -49 -40.5t-12 -33.5t18 -31t46 -11q53 0 134 24l7 -96
q-85 -29 -163 -29z" />
    <glyph glyph-name="afii10069" unicode="&#x434;" horiz-adv-x="530" 
d="M223 -13q-95 0 -146 62.5t-33 168.5l15 82q20 106 82.5 158.5t141.5 52.5t119 -29l6 33q24 129 -91 129q-52 0 -132 -22l-5 89q102 29 157 29q102 0 150 -61t28 -175l-54 -307q-18 -103 -84.5 -156.5t-153.5 -53.5zM232 88q43 0 75 30.5t43 94.5l30 171q-42 27 -93 27
q-98 0 -119 -126l-12 -72q-11 -63 11 -94t65 -31z" />
    <glyph glyph-name="afii10070" unicode="&#x435;" horiz-adv-x="494" 
d="M43 214l18 102q18 102 83.5 159t155.5 57q69 0 116 -40.5t47 -104.5q0 -35 -13.5 -63t-39 -45.5t-53 -29.5t-66 -18.5t-67.5 -9.5t-66 -5l-3 -17q-19 -111 87 -111q60 0 144 28l5 -99q-90 -30 -166 -30q-101 0 -150.5 61t-31.5 166zM172 295q175 9 175 81q0 26 -17 40.5
t-46 14.5q-40 0 -69.5 -28.5t-38.5 -84.5z" />
    <glyph glyph-name="afii10072" unicode="&#x436;" horiz-adv-x="732" 
d="M-30 0l175 258q-41 31 -47 111l-13 150h110l9 -126q3 -47 34 -58l78 -25l38 209h114l-37 -209l83 25q34 10 54 58l55 126h114l-66 -150q-19 -43 -39 -69t-52 -44l85 -256h-123l-66 221l-64 -19l-35 -202h-115l35 202l-54 18l-141 -220h-132z" />
    <glyph glyph-name="afii10073" unicode="&#x437;" horiz-adv-x="448" 
d="M165 -13q-39 0 -91 8.5t-79 20.5l30 96q70 -27 128 -27q48 0 79 22.5t31 62.5q0 52 -69 52h-62l6 88h59q39 0 65 23t26 54q0 47 -70 47q-51 0 -127 -27l-8 91q88 34 170 34q78 0 115.5 -35t37.5 -88q0 -47 -26.5 -82t-64.5 -51q30 -11 47 -40t17 -64q0 -85 -58.5 -135
t-155.5 -50z" />
    <glyph glyph-name="afii10074" unicode="&#x438;" horiz-adv-x="534" 
d="M199 -13q-84 0 -124 55t-21 163l55 314h115l-54 -309q-22 -122 63 -122q35 0 63 25.5t43 69.5l59 336h115l-91 -519h-102l2 47q-52 -60 -123 -60z" />
    <glyph glyph-name="afii10075" unicode="&#x439;" horiz-adv-x="534" 
d="M322 671q44 0 62 56l76 -10q-13 -56 -51 -88.5t-91 -32.5q-48 0 -81.5 27.5t-35.5 73.5q0 13 1 20l79 10q0 -56 41 -56zM199 -13q-84 0 -124 55t-21 163l55 314h115l-54 -309q-22 -122 63 -122q35 0 63 25.5t43 69.5l59 336h115l-91 -519h-102l2 47q-52 -60 -123 -60z
" />
    <glyph glyph-name="afii10076" unicode="&#x43a;" horiz-adv-x="486" 
d="M23 0l90 519h115l-37 -210l80 27q33 11 54 57l55 126h112l-66 -150q-20 -47 -40 -71t-51 -38l88 -260h-120l-69 222l-62 -21l-35 -201h-114z" />
    <glyph glyph-name="afii10077" unicode="&#x43b;" horiz-adv-x="521" 
d="M-18 0l127 335q33 88 86 136t137 48h168l-92 -519h-115l74 421h-39q-66 0 -101 -95l-125 -326h-120z" />
    <glyph glyph-name="afii10078" unicode="&#x43c;" horiz-adv-x="677" 
d="M-7 0l149 519h144l46 -302l155 302h150l-36 -519h-115l28 365l-139 -272h-121l-44 272l-100 -365h-117z" />
    <glyph glyph-name="afii10079" unicode="&#x43d;" horiz-adv-x="539" 
d="M23 0l92 519h114l-35 -200h174l36 200h115l-92 -519h-115l39 220h-175l-39 -220h-114z" />
    <glyph glyph-name="afii10080" unicode="&#x43e;" horiz-adv-x="527" 
d="M215 -13q-88 0 -139 61t-33 167l16 90q20 111 84 169t168 58q89 0 139.5 -61t31.5 -167l-16 -89q-20 -111 -83.5 -169.5t-167.5 -58.5zM233 88q95 0 119 132l14 79q22 132 -74 132q-97 0 -119 -132l-14 -79q-22 -132 74 -132z" />
    <glyph glyph-name="afii10081" unicode="&#x43f;" horiz-adv-x="535" 
d="M23 0l92 519h97v-45q58 58 130 58q76 0 118 -53.5t22 -164.5l-55 -314h-115l54 309q12 65 -2.5 93.5t-53.5 28.5q-52 0 -108 -64l-65 -367h-114z" />
    <glyph glyph-name="afii10082" unicode="&#x440;" horiz-adv-x="535" 
d="M-15 -211l129 730h94l5 -47q58 60 126 60q85 0 127 -59t24 -163l-18 -102q-20 -111 -82 -166t-158 -55q-38 0 -93 25l-40 -223h-114zM244 88q91 0 113 122l18 98q11 59 -9 91t-60 32q-42 0 -73.5 -32t-41.5 -91l-34 -192q46 -28 87 -28z" />
    <glyph glyph-name="afii10083" unicode="&#x441;" horiz-adv-x="457" 
d="M44 214l16 91q39 227 252 227q66 0 142 -24l-34 -97q-62 20 -119 20q-53 0 -83 -29.5t-43 -98.5l-16 -86q-12 -69 8.5 -99t74.5 -30q43 0 125 21l7 -98q-86 -24 -151 -24q-97 0 -148 57t-31 170z" />
    <glyph glyph-name="afii10084" unicode="&#x442;" horiz-adv-x="785" 
d="M22 0l92 519h98v-45q17 21 51 39.5t65 18.5q82 0 107 -82q61 82 154 82q80 0 119.5 -58t23.5 -151l-56 -323h-115l55 313q9 51 -3.5 84.5t-53.5 33.5q-78 0 -101 -135l-51 -296h-115l51 296q23 134 -50 134q-34 0 -62 -27.5t-39 -89.5l-55 -313h-115z" />
    <glyph glyph-name="afii10085" unicode="&#x443;" horiz-adv-x="490" 
d="M55 184l13 335h115l-13 -325q-2 -47 12 -70t47 -23h36l125 418h115l-224 -730h-113l67 211h-27q-160 0 -153 184z" />
    <glyph glyph-name="afii10086" unicode="&#x444;" horiz-adv-x="773" 
d="M245 -211l40 228q-58 -30 -97 -30q-81 0 -121.5 64t-21.5 173l19 110q18 102 76.5 150t130.5 48q53 0 100 -31l39 224l119 20l-43 -244q55 31 97 31q81 0 122 -61t22 -169l-19 -110q-18 -105 -75.5 -155t-134.5 -50q-53 0 -98 30l-40 -228h-115zM216 88q31 0 87 27
l51 290q-2 1 -8.5 4.5t-9 5t-8 4t-8 3.5l-7.5 3t-8.5 2.5t-8 1.5t-9.5 1.5t-10 0.5q-41 0 -66 -28t-37 -93l-18 -100q-22 -122 60 -122zM495 88q41 0 66 28.5t37 93.5l17 100q11 65 -4 93t-56 28q-32 0 -86 -27l-51 -290q47 -26 77 -26z" />
    <glyph glyph-name="afii10087" unicode="&#x445;" horiz-adv-x="486" 
d="M-30 0l206 268l-102 251h126l59 -154l114 154h126l-188 -248l112 -271h-129l-66 172l-130 -172h-128z" />
    <glyph glyph-name="afii10088" unicode="&#x446;" horiz-adv-x="549" 
d="M384 -128l22 127q-25 6 -41 23.5t-19 37.5q-18 -29 -63 -51t-92 -22q-81 0 -118 57.5t-17 173.5l54 301h114l-55 -309q-11 -62 6.5 -92t57.5 -30q35 0 63 25.5t43 69.5l59 336h115l-57 -324q-12 -64 5.5 -89t55.5 -32l-33 -187z" />
    <glyph glyph-name="afii10089" unicode="&#x447;" horiz-adv-x="503" 
d="M276 0l35 204q-68 -21 -136 -21q-60 0 -93 40t-19 116l32 180h112l-29 -166q-12 -73 57 -73q43 0 93 21l39 218h115l-91 -519h-115z" />
    <glyph glyph-name="afii10090" unicode="&#x448;" horiz-adv-x="784" 
d="M197 -13q-76 0 -118.5 54.5t-24.5 154.5l56 323h115l-55 -313q-21 -118 56 -118q78 0 101 135l52 296h114l-51 -296q-24 -135 52 -135q78 0 99 118l56 313h115l-92 -519h-98l-1 45q-17 -21 -50.5 -39.5t-64.5 -18.5q-81 0 -107 80q-60 -80 -154 -80z" />
    <glyph glyph-name="afii10091" unicode="&#x449;" horiz-adv-x="800" 
d="M734 -112l-101 -15q5 32 23 127q-25 5 -41.5 22t-19.5 37q-20 -29 -56 -50.5t-82 -21.5q-82 0 -106 79q-59 -79 -155 -79q-66 0 -107 42t-41 116q0 20 5 50l56 324h115l-54 -314q-4 -20 -4 -42q0 -76 60 -76q37 0 63.5 35t37.5 100l51 297h115l-52 -297q-5 -25 -5 -54
q0 -81 57 -81q35 0 62 28t38 90l55 314h115l-58 -324q-4 -20 -4 -40q0 -72 66 -82z" />
    <glyph glyph-name="afii10092" unicode="&#x44a;" horiz-adv-x="540" 
d="M69 0l75 426h-106l17 93h221l-35 -193h97q73 0 114 -37t41 -101q0 -90 -58.5 -139t-148.5 -49h-217zM200 95h97q39 0 60.5 24.5t21.5 59.5q0 55 -55 55h-99z" />
    <glyph glyph-name="afii10093" unicode="&#x44b;" horiz-adv-x="703" 
d="M23 0l91 519h115l-35 -193h97q73 0 114 -37t41 -101q0 -90 -58.5 -139t-148.5 -49h-216zM153 95h97q39 0 60.5 24.5t21.5 59.5q0 55 -55 55h-99zM475 0l92 519h115l-92 -519h-115z" />
    <glyph glyph-name="afii10094" unicode="&#x44c;" horiz-adv-x="493" 
d="M23 0l91 519h115l-35 -193h97q73 0 114 -37t41 -101q0 -90 -58.5 -139t-148.5 -49h-216zM153 95h97q39 0 60.5 24.5t21.5 59.5q0 55 -55 55h-99z" />
    <glyph glyph-name="afii10095" unicode="&#x44d;" horiz-adv-x="461" 
d="M154 -13q-63 0 -148 23l34 96q61 -21 113 -21q108 0 133 124l2 10h-150l8 96h159q2 18 2 29q0 88 -93 88q-47 0 -120 -21l-7 96q85 24 150 24q103 0 151 -60t29 -170l-18 -101q-38 -213 -245 -213z" />
    <glyph glyph-name="afii10096" unicode="&#x44e;" horiz-adv-x="736" 
d="M439 -13q-94 0 -141.5 61t-36.5 155l2 16h-88l-38 -219h-115l91 519h115l-36 -201h88q25 107 85.5 160t147.5 53q86 0 133.5 -48t48.5 -129q0 -36 -5 -61l-16 -89q-20 -107 -82.5 -162t-152.5 -55zM448 87q91 0 115 132l14 80q3 29 2.5 58t-19 51t-54.5 22
q-48 0 -74.5 -31.5t-39.5 -100.5l-15 -79q-4 -20 -4 -43q0 -44 17 -66.5t58 -22.5z" />
    <glyph glyph-name="afii10097" unicode="&#x44f;" horiz-adv-x="497" 
d="M-10 0l140 211q-70 29 -70 128q0 87 60.5 133.5t153.5 46.5h203l-92 -519h-115l34 194h-64l-116 -194h-134zM235 279h84l26 148h-87q-41 0 -62 -24t-21 -63q0 -26 15 -43.5t45 -17.5z" />
    <glyph glyph-name="afii10071" unicode="&#x451;" horiz-adv-x="494" 
d="M482 662q0 -24 -17.5 -40.5t-41.5 -16.5t-41 16.5t-17 40.5q0 25 17 42.5t41 17.5t41.5 -17.5t17.5 -42.5zM294 662q0 -24 -17 -40.5t-42 -16.5q-24 0 -41 16.5t-17 40.5q0 25 17.5 42.5t40.5 17.5q25 0 42 -17.5t17 -42.5zM43 214l18 102q18 102 83.5 159t155.5 57
q69 0 116 -40.5t47 -104.5q0 -35 -13.5 -63t-39 -45.5t-53 -29.5t-66 -18.5t-67.5 -9.5t-66 -5l-3 -17q-19 -111 87 -111q60 0 144 28l5 -99q-90 -30 -166 -30q-101 0 -150.5 61t-31.5 166zM172 295q175 9 175 81q0 26 -17 40.5t-46 14.5q-40 0 -69.5 -28.5t-38.5 -84.5z
" />
    <glyph glyph-name="afii10099" unicode="&#x452;" horiz-adv-x="538" 
d="M391 -199l-118 -20l93 527q5 33 5 51q0 72 -62 72q-51 0 -108 -65l-64 -366h-115q70 396 104 595h-39l15 81h39q1 9 4.5 27t5.5 29h115l-11 -56h92l-14 -81h-92l-19 -114q54 50 120 50q63 0 104.5 -38.5t41.5 -118.5q0 -28 -6 -61z" />
    <glyph glyph-name="afii10100" unicode="&#x453;" horiz-adv-x="420" 
d="M405 652l-218 -73l-17 72l217 85zM195 -13q-83 0 -125 38t-42 94q0 50 22.5 82t68.5 64l102 71q35 25 43 38q7 13 7 27q0 32 -52 32q-49 0 -119 -21l-9 96q74 24 142 24q73 0 115.5 -34.5t42.5 -85.5q0 -50 -21.5 -80t-65.5 -62l-90 -66q-37 -27 -49 -40.5t-12 -33.5
t18 -31t46 -11q53 0 134 24l7 -96q-85 -29 -163 -29z" />
    <glyph glyph-name="afii10101" unicode="&#x454;" horiz-adv-x="464" 
d="M223 -13q-85 0 -134 46.5t-49 133.5q0 29 6 62l16 91q37 211 252 211q65 0 142 -24l-33 -95q-61 21 -116 21q-109 0 -130 -116h159l-26 -96h-151q-6 -24 -6 -51q0 -85 93 -85q47 0 123 22l7 -96q-92 -24 -153 -24z" />
    <glyph glyph-name="afii10102" unicode="&#x455;" horiz-adv-x="402" 
d="M-10 16l31 96q70 -24 128 -24q38 0 63 18.5t25 46.5q0 24 -28.5 43t-62 31.5t-62 43.5t-28.5 77q0 80 55 132t146 52q68 0 131 -24l-32 -98q-61 21 -110 21q-34 0 -53 -16.5t-19 -41.5q0 -20 18.5 -35.5t45 -28.5t53.5 -28.5t45.5 -43.5t18.5 -66q0 -76 -54 -130
t-161 -54q-75 0 -150 29z" />
    <glyph glyph-name="afii10103" unicode="&#x456;" horiz-adv-x="253" 
d="M195 597q-28 0 -48.5 20t-20.5 48q0 29 20.5 48.5t48.5 19.5q29 0 49.5 -19.5t20.5 -48.5q0 -28 -20.5 -48t-49.5 -20zM23 0l92 519h115l-92 -519h-115z" />
    <glyph glyph-name="afii10104" unicode="&#x457;" horiz-adv-x="253" 
d="M346 662q0 -24 -17.5 -40.5t-41.5 -16.5t-41 16.5t-17 40.5q0 25 17 42.5t41 17.5t41.5 -17.5t17.5 -42.5zM158 662q0 -24 -17 -40.5t-42 -16.5q-24 0 -41 16.5t-17 40.5q0 25 17.5 42.5t40.5 17.5q25 0 42 -17.5t17 -42.5zM138 0h-115l92 519h115z" />
    <glyph glyph-name="afii10105" unicode="&#x458;" horiz-adv-x="252" 
d="M195 597q-29 0 -49.5 20t-20.5 48q0 29 20.5 48.5t49.5 19.5q28 0 49 -19.5t21 -48.5q0 -28 -20.5 -48t-49.5 -20zM-16 -219l130 738h115l-127 -718z" />
    <glyph glyph-name="afii10106" unicode="&#x459;" horiz-adv-x="765" 
d="M499 519l-34 -194h96q74 0 115 -37t41 -101q0 -99 -63 -143t-156 -44h-206l75 420h-39q-40 0 -66 -34.5t-53 -104.5l-108 -281h-118l126 335q69 184 222 184h168zM424 94h97q39 0 60.5 24.5t21.5 59.5q0 55 -55 55h-99z" />
    <glyph glyph-name="afii10107" unicode="&#x45a;" horiz-adv-x="784" 
d="M518 519l-35 -194h97q73 0 114 -38t41 -100q0 -96 -60.5 -141.5t-148.5 -45.5h-215l40 226h-174l-40 -226h-115l92 519h115l-35 -194h174l35 194h115zM442 94h97q39 0 61 24.5t22 59.5q0 55 -56 55h-99z" />
    <glyph glyph-name="afii10108" unicode="&#x45b;" horiz-adv-x="538" 
d="M427 0h-115l54 309q12 65 -2.5 93.5t-54.5 28.5q-51 0 -107 -64l-65 -367h-115l105 595h-39l14 81h39l10 56h115l-10 -56h92l-15 -81h-91l-20 -114q53 51 120 51q76 0 118 -53.5t22 -164.5z" />
    <glyph glyph-name="afii10109" unicode="&#x45c;" horiz-adv-x="486" 
d="M449 652l-218 -73l-17 72l217 85zM23 0l90 519h115l-37 -210l80 27q33 11 54 57l55 126h112l-66 -150q-20 -47 -40 -71t-51 -38l88 -260h-120l-69 222l-62 -21l-35 -201h-114z" />
    <glyph glyph-name="afii10110" unicode="&#x45e;" horiz-adv-x="490" 
d="M306 671q44 0 62 56l76 -10q-13 -56 -51 -88.5t-91 -32.5q-48 0 -81.5 27.5t-35.5 73.5q0 13 1 20l79 10q0 -56 41 -56zM55 184l13 335h115l-13 -325q-2 -47 12 -70t47 -23h36l125 418h115l-224 -730h-113l67 211h-27q-160 0 -153 184z" />
    <glyph glyph-name="afii10193" unicode="&#x45f;" horiz-adv-x="547" 
d="M155 -121l22 121h-154l91 519h115l-75 -421h174l74 421h115l-91 -519h-150l-19 -106z" />
    <glyph glyph-name="afii10050" unicode="&#x490;" horiz-adv-x="469" 
d="M32 0l119 676h256l16 89l112 18l-38 -211h-246l-101 -572h-118z" />
    <glyph glyph-name="afii10098" unicode="&#x491;" horiz-adv-x="392" 
d="M23 0l91 519h209l15 84l100 15l-34 -197h-194l-74 -421h-113z" />
    <glyph glyph-name="Wgrave" unicode="&#x1e80;" horiz-adv-x="828" 
d="M578 721l-194 79l43 77l189 -91zM107 0l6 676h121l-14 -399q-1 -47 -12 -131q50 125 53 130l141 293h129l38 -293q4 -33 8 -128q21 87 34 129l127 399h121l-232 -676h-133l-44 353q-5 43 -5 92q-24 -63 -37 -92l-168 -353h-133z" />
    <glyph glyph-name="wgrave" unicode="&#x1e81;" horiz-adv-x="772" 
d="M527 579l-194 79l43 77l188 -91zM51 176l37 343h114l-36 -335q-5 -43 9.5 -68.5t48.5 -25.5q33 0 57 27t32 69l53 298h113l-53 -298q-8 -42 7 -69t49 -27q33 0 57 25.5t35 68.5l83 335h114l-87 -343q-22 -88 -81 -138.5t-139 -50.5q-84 0 -118 71q-55 -71 -142 -71
q-79 0 -120.5 51t-32.5 138z" />
    <glyph glyph-name="Wacute" unicode="&#x1e82;" horiz-adv-x="828" 
d="M614 794l-218 -73l-17 72l217 85zM107 0l6 676h121l-14 -399q-1 -47 -12 -131q50 125 53 130l141 293h129l38 -293q4 -33 8 -128q21 87 34 129l127 399h121l-232 -676h-133l-44 353q-5 43 -5 92q-24 -63 -37 -92l-168 -353h-133z" />
    <glyph glyph-name="wacute" unicode="&#x1e83;" horiz-adv-x="772" 
d="M555 652l-218 -73l-17 72l217 85zM51 176l37 343h114l-36 -335q-5 -43 9.5 -68.5t48.5 -25.5q33 0 57 27t32 69l53 298h113l-53 -298q-8 -42 7 -69t49 -27q33 0 57 25.5t35 68.5l83 335h114l-87 -343q-22 -88 -81 -138.5t-139 -50.5q-84 0 -118 71q-55 -71 -142 -71
q-79 0 -120.5 51t-32.5 138z" />
    <glyph glyph-name="Wdieresis" unicode="&#x1e84;" horiz-adv-x="828" 
d="M651 804q0 -24 -17.5 -40.5t-41.5 -16.5t-41 16.5t-17 40.5q0 25 17.5 42.5t40.5 17.5q25 0 42 -17.5t17 -42.5zM463 804q0 -24 -17 -40.5t-41 -16.5t-41.5 16.5t-17.5 40.5t18 42t41 18q24 0 41 -17.5t17 -42.5zM107 0l6 676h121l-14 -399q-1 -47 -12 -131
q50 125 53 130l141 293h129l38 -293q4 -33 8 -128q21 87 34 129l127 399h121l-232 -676h-133l-44 353q-5 43 -5 92q-24 -63 -37 -92l-168 -353h-133z" />
    <glyph glyph-name="wdieresis" unicode="&#x1e85;" horiz-adv-x="772" 
d="M606 662q0 -24 -17.5 -40.5t-41.5 -16.5t-41 16.5t-17 40.5q0 25 17.5 42.5t40.5 17.5q25 0 42 -17.5t17 -42.5zM418 662q0 -24 -17 -40.5t-41 -16.5t-41.5 16.5t-17.5 40.5t17.5 42t41.5 18t41 -17.5t17 -42.5zM51 176l37 343h114l-36 -335q-5 -43 9.5 -68.5t48.5 -25.5
q33 0 57 27t32 69l53 298h113l-53 -298q-8 -42 7 -69t49 -27q33 0 57 25.5t35 68.5l83 335h114l-87 -343q-22 -88 -81 -138.5t-139 -50.5q-84 0 -118 71q-55 -71 -142 -71q-79 0 -120.5 51t-32.5 138z" />
    <glyph glyph-name="Ygrave" unicode="&#x1ef2;" horiz-adv-x="558" 
d="M442 721l-194 79l43 77l189 -91zM174 0l45 258l-127 418h123l80 -297l190 297h127l-275 -418l-45 -258h-118z" />
    <glyph glyph-name="ygrave" unicode="&#x1ef3;" horiz-adv-x="490" 
d="M386 579l-194 79l43 77l189 -91zM55 184l13 335h115l-13 -325q-2 -47 12 -70t47 -23h36l125 418h115l-224 -730h-113l67 211h-27q-160 0 -153 184z" />
    <glyph glyph-name="endash" unicode="&#x2013;" horiz-adv-x="500" 
d="M500 224h-500v99h500v-99z" />
    <glyph glyph-name="emdash" unicode="&#x2014;" horiz-adv-x="1000" 
d="M1000 224h-1000v99h1000v-99z" />
    <glyph glyph-name="quoteleft" unicode="&#x2018;" horiz-adv-x="238" 
d="M202 490h-103l109 240l73 -13z" />
    <glyph glyph-name="quoteright" unicode="&#x2019;" horiz-adv-x="237" 
d="M178 493l-73 13l79 227h103z" />
    <glyph glyph-name="quotesinglbase" unicode="&#x201a;" horiz-adv-x="244" 
d="M59 -114l-74 13l79 227h105z" />
    <glyph glyph-name="quotedblleft" unicode="&#x201c;" horiz-adv-x="403" 
d="M370 493h-104l110 240l73 -13zM207 493h-104l109 240l74 -13z" />
    <glyph glyph-name="quotedblright" unicode="&#x201d;" horiz-adv-x="402" 
d="M355 493l-73 13l79 227h105zM193 493l-74 13l79 227h105z" />
    <glyph glyph-name="quotedblbase" unicode="&#x201e;" horiz-adv-x="401" 
d="M216 -114l-75 13l80 227h104zM58 -114l-74 13l79 227h105z" />
    <glyph glyph-name="dagger" unicode="&#x2020;" horiz-adv-x="437" 
d="M237 0h-110l71 409h-99l16 92h99l28 155h110l-28 -155h100l-16 -92h-100z" />
    <glyph glyph-name="daggerdbl" unicode="&#x2021;" horiz-adv-x="437" 
d="M239 0h-110l29 167h-100l17 92h99l25 138h-100l16 92h100l29 167h110l-29 -167h99l-16 -92h-99l-25 -138h100l-17 -92h-99z" />
    <glyph glyph-name="bullet" unicode="&#x2022;" horiz-adv-x="472" 
d="M393 280q0 -64 -45.5 -109t-109.5 -45t-109.5 45t-45.5 109t45.5 109.5t109.5 45.5t109.5 -45.5t45.5 -109.5z" />
    <glyph glyph-name="ellipsis" unicode="&#x2026;" horiz-adv-x="858" 
d="M672 -11q-29 0 -50.5 21.5t-21.5 50.5q0 30 21 50t51 20q28 0 49 -20.5t21 -49.5t-21 -50.5t-49 -21.5zM398 -11q-29 0 -50 21.5t-21 50.5q0 30 21 50t50 20t49.5 -20t20.5 -50q0 -29 -20.5 -50.5t-49.5 -21.5zM125 -11q-30 0 -51 21.5t-21 50.5q0 30 21 50t51 20
q28 0 49 -20.5t21 -49.5t-21 -50.5t-49 -21.5z" />
    <glyph glyph-name="perthousand" unicode="&#x2030;" horiz-adv-x="1244" 
d="M407 528l-11 -67q-12 -72 -63.5 -116.5t-118.5 -44.5q-68 0 -103.5 44.5t-22.5 116.5l12 67q13 73 63.5 117t118.5 44q67 0 102.5 -44t22.5 -117zM280 0h-94l432 676h92zM310 463l11 63q14 84 -53 84q-31 0 -53 -21t-29 -63l-11 -63q-14 -82 53 -82q31 0 53 20t29 62z
M1179 215l-11 -67q-12 -72 -63.5 -116.5t-118.5 -44.5q-68 0 -103.5 44.5t-22.5 116.5l12 67q13 73 63.5 117t118.5 44q67 0 102.5 -44t22.5 -117zM809 215l-11 -67q-12 -72 -63.5 -116.5t-118.5 -44.5q-68 0 -103.5 44.5t-22.5 116.5l12 67q13 73 63.5 117t118.5 44
q67 0 102.5 -44t22.5 -117zM1082 150l11 63q14 83 -53 83q-31 0 -53 -20.5t-29 -62.5l-11 -63q-14 -82 53 -82q31 0 53 20t29 62zM712 150l11 63q14 83 -53 83q-31 0 -53 -20.5t-29 -62.5l-11 -63q-14 -82 53 -82q31 0 53 20t29 62z" />
    <glyph glyph-name="guilsinglleft" unicode="&#x2039;" horiz-adv-x="330" 
d="M252 141l-77 -51l-109 190l177 191l65 -58l-131 -137z" />
    <glyph glyph-name="guilsinglright" unicode="&#x203a;" horiz-adv-x="330" 
d="M113 90l-65 58l130 137l-74 135l76 51l109 -190z" />
    <glyph glyph-name="Euro" unicode="&#x20ac;" horiz-adv-x="541" 
d="M459 108l3 -101q-83 -20 -155 -20q-104 0 -161 65t-39 176h-70l11 68h71l14 84h-69l11 68h71q22 112 97 176.5t178 64.5q73 0 148 -20l-29 -101q-70 17 -126 17t-96.5 -36.5t-53.5 -100.5h188l-24 -68h-177l-15 -84h161l-25 -68h-148q-9 -64 18.5 -100.5t84.5 -36.5
q55 0 132 17z" />
    <glyph glyph-name="afii61352" unicode="&#x2116;" horiz-adv-x="950" 
d="M32 0l119 676h94l183 -440q4 41 15 100l60 340h118l-119 -676h-97l-183 436q-6 -60 -14 -103l-58 -333h-118zM625 119l14 75h235l-14 -75h-235zM768 229q-64 0 -95.5 43t-20.5 109l10 60q10 62 53 95t100 33q64 0 96 -43t21 -109l-11 -60q-12 -64 -52 -96t-101 -32z
M779 299q24 0 43 18t25 54l9 54q11 71 -51 71q-53 0 -66 -71l-10 -54q-13 -72 50 -72z" />
    <glyph glyph-name="trademark" unicode="&#x2122;" horiz-adv-x="758" 
d="M707 373h-79l10 155l-63 -115h-71l-22 115l-45 -155h-78l92 303h80l27 -161l84 161h79zM260 373h-79l41 232h-82l13 71h245l-20 -71h-77z" />
    <glyph glyph-name="Delta" unicode="&#x2206;" horiz-adv-x="754" 
d="M686 0h-692l409 704h122zM547 99l-107 470l-273 -470h380z" />
    <glyph glyph-name="product" unicode="&#x220f;" horiz-adv-x="754" 
d="M563 -131h-110l125 708h-276l-125 -708h-112l126 708h-79l18 99h656l-18 -99h-80z" />
    <glyph glyph-name="summation" unicode="&#x2211;" horiz-adv-x="640" 
d="M526 -128h-526l17 94l316 308l-208 307l17 95h527l-18 -99h-378l204 -303l-310 -303h377z" />
    <glyph glyph-name="radical" unicode="&#x221a;" horiz-adv-x="629" 
d="M348 0h-128l-61 438h-81l-3 81h194l28 -252q6 -51 9 -134q37 89 59 134l224 465h120z" />
    <glyph glyph-name="integral" unicode="&#x222b;" horiz-adv-x="381" 
d="M85 -51l112 631q14 77 64.5 118.5t116.5 41.5q40 0 86 -17l-28 -98q-36 12 -61 12q-59 0 -70 -65l-112 -631q-14 -77 -64 -118.5t-115 -41.5q-38 0 -88 16l29 99q33 -12 61 -12q58 0 69 65z" />
    <glyph glyph-name="approxequal" unicode="&#x2248;" horiz-adv-x="577" 
d="M475 468l58 -64q-82 -97 -153 -97q-26 0 -49.5 12.5t-37 27t-30 27t-31.5 12.5q-35 0 -76 -50l-58 63q78 97 154 97q26 0 49 -12t36.5 -27t30.5 -27t32 -12q33 0 75 50zM447 244l58 -63q-80 -97 -153 -97q-33 0 -60.5 19.5t-49 39t-39.5 19.5q-34 0 -75 -50l-58 64
q78 97 154 97q26 0 48.5 -12.5t36 -27t30.5 -27t32 -12.5q33 0 76 50z" />
    <glyph glyph-name="notequal" unicode="&#x2260;" horiz-adv-x="567" 
d="M517 128h-226l-48 -134l-90 33l37 101h-118v99h154l37 104h-191v100h228l47 129l90 -31l-36 -98h116v-100h-152l-38 -104h190v-99z" />
    <glyph glyph-name="lessequal" unicode="&#x2264;" horiz-adv-x="526" 
d="M427 34l-355 200v79l355 200l49 -95l-266 -144l266 -144zM465 -94h-392v97h392v-97z" />
    <glyph glyph-name="greaterequal" unicode="&#x2265;" horiz-adv-x="526" 
d="M475 234l-355 -200l-49 96l266 144l-266 144l49 95l355 -200v-79zM474 -94h-392v97h392v-97z" />
    <glyph glyph-name="lozenge" unicode="&#x25ca;" horiz-adv-x="672" 
d="M654 330l-360 -335l-242 336l360 336zM502 330l-119 167l-178 -165l120 -168z" />
    <glyph glyph-name="apple" unicode="&#xf8ff;" horiz-adv-x="0" 
 />
    <glyph glyph-name="edieresis.smcp" horiz-adv-x="470" 
d="M470 712q0 -24 -17.5 -40.5t-41.5 -16.5t-41 16.5t-17 40.5q0 25 17 42.5t41 17.5t41.5 -17.5t17.5 -42.5zM282 712q0 -24 -17 -40.5t-42 -16.5q-24 0 -41 16.5t-17 40.5q0 25 17.5 42.5t40.5 17.5q25 0 42 -17.5t17 -42.5zM373 0h-346l101 570h338l-18 -101h-223
l-24 -134h187l-21 -96h-182l-25 -138h229z" />
    <glyph glyph-name="ecaron.smcp" horiz-adv-x="470" 
d="M464 716l-157 -83l-125 83l55 71l84 -63l108 63zM373 0h-346l101 570h338l-18 -101h-223l-24 -134h187l-21 -96h-182l-25 -138h229z" />
    <glyph glyph-name="emacron.smcp" horiz-adv-x="470" 
d="M437 671h-249l14 81h249zM373 0h-346l101 570h338l-18 -101h-223l-24 -134h187l-21 -96h-182l-25 -138h229z" />
    <glyph glyph-name="eogonek.smcp" horiz-adv-x="470" 
d="M336 -140l-1 -73q-25 -11 -59 -11q-46 0 -70 20.5t-24 56.5q0 83 98 147h-253l101 570h338l-18 -101h-223l-24 -134h187l-21 -96h-182l-25 -138h229l-16 -101q-100 -67 -100 -123q0 -23 28 -23q17 0 35 6z" />
    <glyph glyph-name="edotaccent.smcp" horiz-adv-x="470" 
d="M373 711q0 -24 -17.5 -41t-41.5 -17q-23 0 -40.5 17t-17.5 41q0 25 17.5 42.5t40.5 17.5q25 0 42 -17.5t17 -42.5zM373 0h-346l101 570h338l-18 -101h-223l-24 -134h187l-21 -96h-182l-25 -138h229z" />
    <glyph glyph-name="gcircumflex.smcp" horiz-adv-x="520" 
d="M430 633l-84 63l-108 -63l-34 71l156 83l125 -83zM348 100l23 130h-60l14 84h168l-52 -296q-98 -31 -198 -31q-105 0 -158.5 60t-33.5 175l22 126q21 116 93 175.5t181 59.5q76 0 154 -26l-33 -97q-66 22 -137 22q-119 0 -144 -143l-19 -107q-26 -144 92 -144q37 0 88 12
z" />
    <glyph glyph-name="gdotaccent.smcp" horiz-adv-x="520" 
d="M396 711q0 -24 -17.5 -41t-41.5 -17q-23 0 -40.5 17t-17.5 41q0 25 17.5 42.5t40.5 17.5q25 0 42 -17.5t17 -42.5zM348 100l23 130h-60l14 84h168l-52 -296q-98 -31 -198 -31q-105 0 -158.5 60t-33.5 175l22 126q21 116 93 175.5t181 59.5q76 0 154 -26l-33 -97
q-66 22 -137 22q-119 0 -144 -143l-19 -107q-26 -144 92 -144q37 0 88 12z" />
    <glyph glyph-name="gcommaaccent.smcp" horiz-adv-x="520" 
d="M348 100l23 130h-60l14 84h168l-52 -296q-98 -31 -198 -31q-105 0 -158.5 60t-33.5 175l22 126q21 116 93 175.5t181 59.5q76 0 154 -26l-33 -97q-66 22 -137 22q-119 0 -144 -143l-19 -107q-26 -144 92 -144q37 0 88 12zM206 -224h-77l56 161h103z" />
    <glyph glyph-name="hcircumflex.smcp" horiz-adv-x="562" 
d="M444 633l-84 63l-108 -63l-34 71l156 83l125 -83zM448 0h-115l43 241h-190l-43 -241h-116l101 570h115l-41 -231h190l42 231h115z" />
    <glyph glyph-name="hbar.smcp" horiz-adv-x="563" 
d="M449 0h-116l43 241h-191l-42 -241h-116l71 401h-33l14 77h32l17 92h115l-17 -92h191l17 92h115l-16 -92h33l-13 -77h-34zM392 339l12 62h-191l-11 -62h190z" />
    <glyph glyph-name="iacute.smcp" horiz-adv-x="256" 
d="M319 702l-218 -73l-17 72l217 85zM143 0h-116l101 570h115z" />
    <glyph glyph-name="igrave.smcp" horiz-adv-x="256" 
d="M287 629l-194 79l43 77l189 -91zM143 0h-116l101 570h115z" />
    <glyph glyph-name="icircumflex.smcp" horiz-adv-x="256" 
d="M292 633l-83 63l-109 -63l-34 71l156 83l126 -83zM143 0h-116l101 570h115z" />
    <glyph glyph-name="itilde.smcp" horiz-adv-x="256" 
d="M314 759l36 -53q-14 -24 -41 -42.5t-61 -18.5q-26 0 -56 23t-46 23q-28 0 -51 -29l-36 52q14 24 41 43t61 19q26 0 56 -23t46 -23q26 0 51 29zM143 0h-116l101 570h115z" />
    <glyph glyph-name="imacron.smcp" horiz-adv-x="256" 
d="M324 671h-248l14 81h249zM143 0h-116l101 570h115z" />
    <glyph glyph-name="ibreve.smcp" horiz-adv-x="256" 
d="M269 778h78q-13 -60 -52.5 -97.5t-98.5 -37.5q-52 0 -81.5 39t-19.5 96h77q-4 -26 7 -43t31 -17t37.5 17.5t21.5 42.5zM143 0h-116l101 570h115z" />
    <glyph glyph-name="ij.smcp" horiz-adv-x="655" 
d="M469 195l66 375l115 -6l-67 -372q-17 -96 -71 -149.5t-144 -53.5q-67 0 -145 30l32 93q67 -24 115 -24q79 0 99 107zM143 0h-116l101 570h115z" />
    <glyph glyph-name="jcircumflex.smcp" horiz-adv-x="415" 
d="M456 633l-83 63l-109 -63l-34 71l157 83l125 -83zM229 193l66 377l114 -6l-65 -373q-17 -96 -71.5 -150t-144.5 -54q-67 0 -145 30l32 95q69 -24 115 -24q80 0 99 105z" />
    <glyph glyph-name="kcommaaccent.smcp" horiz-adv-x="532" 
d="M460 0h-127l-107 226l-54 -56l-29 -170h-116l101 570h115l-40 -221l201 221h135l-233 -254zM196 -224h-77l56 161h103z" />
    <glyph glyph-name="lcaron.smcp" horiz-adv-x="451" 
d="M379 388h-74l32 181l102 12zM372 0h-345l101 570h115l-83 -469h233z" />
    <glyph glyph-name="lcommaaccent.smcp" horiz-adv-x="451" 
d="M372 0h-345l101 570h115l-83 -469h233zM166 -224h-76l56 161h102z" />
    <glyph glyph-name="ldot.smcp" horiz-adv-x="451" 
d="M372 0h-345l101 570h115l-83 -471h233zM400 269q0 -26 -18.5 -43.5t-45.5 -17.5q-25 0 -43.5 17.5t-18.5 43.5q0 27 18.5 45.5t43.5 18.5q27 0 45.5 -18.5t18.5 -45.5z" />
    <glyph glyph-name="lslash.smcp" horiz-adv-x="451" 
d="M372 0h-345l40 225l-39 -13l-11 60l62 21l49 277h115l-42 -236l69 24l11 -61l-92 -31l-29 -165h233z" />
    <glyph glyph-name="nacute.smcp" horiz-adv-x="556" 
d="M470 702l-219 -73l-17 72l218 85zM443 0h-95l-147 349q-3 -32 -12 -89l-47 -260h-115l101 570h93l146 -349q1 14 3.5 29.5t6 32.5t4.5 25l47 262h115z" />
    <glyph glyph-name="ntilde.smcp" horiz-adv-x="556" 
d="M457 759l36 -53q-14 -24 -41 -42.5t-61 -18.5q-26 0 -56 23t-46 23q-28 0 -51 -29l-36 52q14 24 41 43t61 19q26 0 56 -23t46 -23q26 0 51 29zM443 0h-95l-147 349q-3 -32 -12 -89l-47 -260h-115l101 570h93l146 -349q1 14 3.5 29.5t6 32.5t4.5 25l47 262h115z" />
    <glyph glyph-name="ncaron.smcp" horiz-adv-x="556" 
d="M495 716l-157 -83l-124 83l55 71l83 -63l109 63zM443 0h-95l-147 349q-3 -32 -12 -89l-47 -260h-115l101 570h93l146 -349q1 14 3.5 29.5t6 32.5t4.5 25l47 262h115z" />
    <glyph glyph-name="eng.smcp" horiz-adv-x="556" 
d="M413 -168l-116 -17l37 217l-132 317q-8 -63 -13 -90l-46 -259h-116l101 570h93l146 -349q1 14 3.5 29.5t6 32.5t4.5 25l47 262h115z" />
    <glyph glyph-name="oacute.smcp" horiz-adv-x="558" 
d="M463 702l-219 -73l-17 72l218 85zM522 346l-22 -123q-20 -115 -91.5 -175.5t-173.5 -60.5q-98 0 -150.5 61t-33.5 175l22 123q20 115 92 176t174 61q97 0 149.5 -61.5t33.5 -175.5zM386 231l19 108q25 143 -84 143t-134 -144l-19 -107q-25 -143 83 -143q110 0 135 143z
" />
    <glyph glyph-name="ograve.smcp" horiz-adv-x="558" 
d="M439 629l-194 79l42 77l189 -91zM522 346l-22 -123q-20 -115 -91.5 -175.5t-173.5 -60.5q-98 0 -150.5 61t-33.5 175l22 123q20 115 92 176t174 61q97 0 149.5 -61.5t33.5 -175.5zM386 231l19 108q25 143 -84 143t-134 -144l-19 -107q-25 -143 83 -143q110 0 135 143z
" />
    <glyph glyph-name="odieresis.smcp" horiz-adv-x="558" 
d="M512 712q0 -24 -17.5 -40.5t-41.5 -16.5t-41 16.5t-17 40.5q0 25 17.5 42.5t40.5 17.5q25 0 42 -17.5t17 -42.5zM324 712q0 -24 -17 -40.5t-41 -16.5t-41.5 16.5t-17.5 40.5t17.5 42t41.5 18t41 -17.5t17 -42.5zM522 346l-22 -123q-20 -115 -91.5 -175.5t-173.5 -60.5
q-98 0 -150.5 61t-33.5 175l22 123q20 115 92 176t174 61q97 0 149.5 -61.5t33.5 -175.5zM386 231l19 108q25 143 -84 143t-134 -144l-19 -107q-25 -143 83 -143q110 0 135 143z" />
    <glyph glyph-name="otilde.smcp" horiz-adv-x="558" 
d="M472 759l36 -53q-14 -24 -41 -42.5t-61 -18.5q-26 0 -56 23t-46 23q-28 0 -51 -29l-36 52q14 24 41 43t61 19q26 0 56 -23t46 -23q26 0 51 29zM522 346l-22 -123q-20 -115 -91.5 -175.5t-173.5 -60.5q-98 0 -150.5 61t-33.5 175l22 123q20 115 92 176t174 61
q97 0 149.5 -61.5t33.5 -175.5zM386 231l19 108q25 143 -84 143t-134 -144l-19 -107q-25 -143 83 -143q110 0 135 143z" />
    <glyph glyph-name="obreve.smcp" horiz-adv-x="558" 
d="M415 778h78q-13 -60 -52.5 -97.5t-98.5 -37.5q-52 0 -81.5 39t-19.5 96h77q-4 -26 7 -43t31 -17t37.5 17.5t21.5 42.5zM522 346l-22 -123q-20 -115 -91.5 -175.5t-173.5 -60.5q-98 0 -150.5 61t-33.5 175l22 123q20 115 92 176t174 61q97 0 149.5 -61.5t33.5 -175.5z
M386 231l19 108q25 143 -84 143t-134 -144l-19 -107q-25 -143 83 -143q110 0 135 143z" />
    <glyph glyph-name="ohungarumlaut.smcp" horiz-adv-x="558" 
d="M613 722l-184 -98l-29 69l180 108zM390 722l-184 -99l-30 70l180 107zM522 346l-22 -123q-20 -115 -91.5 -175.5t-173.5 -60.5q-98 0 -150.5 61t-33.5 175l22 123q20 115 92 176t174 61q97 0 149.5 -61.5t33.5 -175.5zM386 231l19 108q25 143 -84 143t-134 -144l-19 -107
q-25 -143 83 -143q110 0 135 143z" />
    <glyph glyph-name="oslash.smcp" horiz-adv-x="558" 
d="M522 346l-22 -123q-20 -115 -91.5 -175.5t-173.5 -60.5q-55 0 -98 20l-39 -57l-62 32l46 68q-50 62 -31 173l22 123q20 115 92 176t174 61q54 0 96 -21l40 58l62 -32l-47 -69q51 -64 32 -173zM166 172l205 297q-19 13 -50 13q-109 0 -134 -144l-19 -107q-6 -36 -2 -59z
M386 231l19 108q6 33 0 57l-204 -296q17 -12 50 -12q110 0 135 143z" />
    <glyph glyph-name="oe.smcp" horiz-adv-x="783" 
d="M686 0h-366q-44 -13 -85 -13q-98 0 -150.5 61t-33.5 175l22 123q20 115 92 176t174 61q40 0 79 -13h360l-18 -101h-244q20 -56 8 -113l-4 -21h181l-22 -96h-176l-5 -28q-12 -64 -45 -110h249zM386 231l19 108q25 143 -84 143t-134 -144l-19 -107q-25 -143 83 -143
q110 0 135 143z" />
    <glyph glyph-name="thorn.smcp" horiz-adv-x="491" 
d="M245 100h-85l-17 -100h-116l101 570h115l-20 -111h86q73 0 114.5 -42t41.5 -106q0 -83 -64 -147t-156 -64zM178 198h80q37 0 63.5 28t26.5 71q0 29 -16 45.5t-44 16.5h-81z" />
    <glyph glyph-name="racute.smcp" horiz-adv-x="501" 
d="M432 702l-219 -73l-17 72l218 85zM420 0h-120l-60 215h-60l-38 -215h-115l101 570h202q73 0 115 -42t42 -106q0 -56 -34.5 -111t-101.5 -80zM196 308h82q37 0 64.5 28t27.5 70q0 29 -17 46.5t-45 17.5h-83z" />
    <glyph glyph-name="rcaron.smcp" horiz-adv-x="501" 
d="M462 716l-157 -83l-125 83l55 71l84 -63l108 63zM420 0h-120l-60 215h-60l-38 -215h-115l101 570h202q73 0 115 -42t42 -106q0 -56 -34.5 -111t-101.5 -80zM196 308h82q37 0 64.5 28t27.5 70q0 29 -17 46.5t-45 17.5h-83z" />
    <glyph glyph-name="rcommaaccent.smcp" horiz-adv-x="501" 
d="M420 0h-120l-60 215h-60l-38 -215h-115l101 570h202q73 0 115 -42t42 -106q0 -56 -34.5 -111t-101.5 -80zM196 308h82q37 0 64.5 28t27.5 70q0 29 -17 46.5t-45 17.5h-83zM174 -224h-76l56 161h102z" />
    <glyph glyph-name="scircumflex.smcp" horiz-adv-x="443" 
d="M383 633l-83 63l-109 -63l-34 71l157 83l125 -83zM0 22l31 99q83 -33 154 -33q39 0 66 22.5t27 57.5q0 23 -21 41.5t-51 32.5t-60 31.5t-51 47t-21 69.5q0 86 62 139.5t153 53.5q62 0 154 -35l-38 -95q-73 29 -126 29q-42 0 -64.5 -19t-22.5 -48q0 -23 21 -42t51 -35
t60.5 -34.5t51.5 -49t21 -69.5q0 -96 -65 -147t-156 -51q-88 0 -176 35z" />
    <glyph glyph-name="scaron.smcp" horiz-adv-x="443" 
d="M444 716l-157 -83l-125 83l55 71l84 -63l108 63zM0 22l31 99q83 -33 154 -33q39 0 66 22.5t27 57.5q0 23 -21 41.5t-51 32.5t-60 31.5t-51 47t-21 69.5q0 86 62 139.5t153 53.5q62 0 154 -35l-38 -95q-73 29 -126 29q-42 0 -64.5 -19t-22.5 -48q0 -23 21 -42t51 -35
t60.5 -34.5t51.5 -49t21 -69.5q0 -96 -65 -147t-156 -51q-88 0 -176 35z" />
    <glyph glyph-name="scedilla.smcp" horiz-adv-x="443" 
d="M125 -83l13 72q-73 6 -138 33l31 99q83 -33 154 -33q39 0 66 22.5t27 57.5q0 23 -21 41.5t-51 32.5t-60 31.5t-51 47t-21 69.5q0 86 62 139.5t153 53.5q62 0 154 -35l-38 -95q-73 29 -126 29q-42 0 -64.5 -19t-22.5 -48q0 -23 21 -42t51 -35t60.5 -34.5t51.5 -49
t21 -69.5q0 -82 -47 -130.5t-121 -62.5l-15 -86q-10 -61 -49 -89t-89 -28q-36 0 -72 11l20 83q29 -8 53 -8q40 0 48 42z" />
    <glyph glyph-name="germandbls.smcp" horiz-adv-x="887" 
d="M443 22l32 99q81 -33 153 -33q40 0 67 22.5t27 57.5q0 23 -21 41.5t-51 32.5t-60.5 31.5t-51.5 47t-21 69.5q0 86 62 139.5t153 53.5q63 0 154 -35l-38 -95q-73 29 -125 29q-42 0 -64.5 -19t-22.5 -48q0 -23 21 -42t51 -35t60.5 -34.5t51.5 -49t21 -69.5
q0 -96 -65.5 -147t-156.5 -51q-86 0 -176 35zM0 22l31 99q83 -33 154 -33q39 0 66 22.5t27 57.5q0 23 -21 41.5t-51 32.5t-60 31.5t-51 47t-21 69.5q0 86 62 139.5t153 53.5q62 0 154 -35l-38 -95q-73 29 -126 29q-42 0 -64.5 -19t-22.5 -48q0 -23 21 -42t51 -35t60.5 -34.5
t51.5 -49t21 -69.5q0 -96 -65 -147t-156 -51q-88 0 -176 35z" />
    <glyph glyph-name="tcaron.smcp" horiz-adv-x="461" 
d="M446 716l-157 -83l-125 83l55 71l84 -63l108 63zM244 0h-115l83 470h-143l18 100h400l-18 -100h-142z" />
    <glyph glyph-name="tcommaaccent.smcp" horiz-adv-x="461" 
d="M244 0h-115l83 470h-143l18 100h400l-18 -100h-142zM147 -224h-76l56 161h102z" />
    <glyph glyph-name="ecircumflex.smcp" horiz-adv-x="470" 
d="M404 633l-83 63l-109 -63l-34 71l157 83l125 -83zM373 0h-346l101 570h338l-18 -101h-223l-24 -134h187l-21 -96h-182l-25 -138h229z" />
    <glyph glyph-name="uacute.smcp" horiz-adv-x="560" 
d="M467 702l-218 -73l-17 72l217 85zM369 198l66 372h115l-67 -382q-15 -88 -87.5 -144.5t-161.5 -56.5q-90 0 -142 56.5t-36 144.5l67 382h115l-66 -372q-9 -50 12.5 -80t66.5 -30q44 0 76.5 30t41.5 80z" />
    <glyph glyph-name="ebreve.smcp" horiz-adv-x="470" 
d="M376 778h77q-12 -60 -51.5 -97.5t-98.5 -37.5q-53 0 -82 39t-19 96h77q-4 -25 6.5 -42.5t30.5 -17.5q21 0 38.5 17.5t21.5 42.5zM373 0h-346l101 570h338l-18 -101h-223l-24 -134h187l-21 -96h-182l-25 -138h229z" />
    <glyph glyph-name="ugrave.smcp" horiz-adv-x="560" 
d="M437 629l-194 79l43 77l188 -91zM369 198l66 372h115l-67 -382q-15 -88 -87.5 -144.5t-161.5 -56.5q-90 0 -142 56.5t-36 144.5l67 382h115l-66 -372q-9 -50 12.5 -80t66.5 -30q44 0 76.5 30t41.5 80z" />
    <glyph glyph-name="ucircumflex.smcp" horiz-adv-x="560" 
d="M445 633l-84 63l-108 -63l-34 71l156 83l125 -83zM369 198l66 372h115l-67 -382q-15 -88 -87.5 -144.5t-161.5 -56.5q-90 0 -142 56.5t-36 144.5l67 382h115l-66 -372q-9 -50 12.5 -80t66.5 -30q44 0 76.5 30t41.5 80z" />
    <glyph glyph-name="udieresis.smcp" horiz-adv-x="560" 
d="M508 712q0 -24 -17.5 -40.5t-41.5 -16.5t-41 16.5t-17 40.5q0 25 17 42.5t41 17.5t41.5 -17.5t17.5 -42.5zM320 712q0 -24 -17 -40.5t-42 -16.5q-24 0 -41 16.5t-17 40.5q0 25 17.5 42.5t40.5 17.5q25 0 42 -17.5t17 -42.5zM369 198l66 372h115l-67 -382
q-15 -88 -87.5 -144.5t-161.5 -56.5q-90 0 -142 56.5t-36 144.5l67 382h115l-66 -372q-9 -50 12.5 -80t66.5 -30q44 0 76.5 30t41.5 80z" />
    <glyph glyph-name="utilde.smcp" horiz-adv-x="560" 
d="M468 759l36 -53q-13 -24 -40 -42.5t-61 -18.5q-26 0 -56 23t-46 23q-27 0 -52 -29l-36 52q15 25 42 43.5t61 18.5q26 0 56 -23t46 -23q27 0 50 29zM369 198l66 372h115l-67 -382q-15 -88 -87.5 -144.5t-161.5 -56.5q-90 0 -142 56.5t-36 144.5l67 382h115l-66 -372
q-9 -50 12.5 -80t66.5 -30q44 0 76.5 30t41.5 80z" />
    <glyph glyph-name="uring.smcp" horiz-adv-x="560" 
d="M356 629q-40 0 -68.5 28.5t-28.5 68.5q0 39 28.5 67.5t68.5 28.5q39 0 67.5 -28.5t28.5 -67.5q0 -40 -28.5 -68.5t-67.5 -28.5zM356 694q13 0 22.5 9.5t9.5 22.5q0 14 -9 23t-23 9t-23 -9t-9 -23q0 -13 9.5 -22.5t22.5 -9.5zM369 198l66 372h115l-67 -382
q-15 -88 -87.5 -144.5t-161.5 -56.5q-90 0 -142 56.5t-36 144.5l67 382h115l-66 -372q-9 -50 12.5 -80t66.5 -30q44 0 76.5 30t41.5 80z" />
    <glyph glyph-name="ubreve.smcp" horiz-adv-x="560" 
d="M419 778h77q-12 -60 -51.5 -97.5t-98.5 -37.5q-53 0 -82 39t-19 96h77q-4 -25 6.5 -42.5t30.5 -17.5q21 0 38 17.5t22 42.5zM369 198l66 372h115l-67 -382q-15 -88 -87.5 -144.5t-161.5 -56.5q-90 0 -142 56.5t-36 144.5l67 382h115l-66 -372q-9 -50 12.5 -80t66.5 -30
q44 0 76.5 30t41.5 80z" />
    <glyph glyph-name="gbreve.smcp" horiz-adv-x="520" 
d="M398 778h77q-12 -60 -51.5 -97.5t-98.5 -37.5q-53 0 -82 39t-19 96h77q-4 -25 6.5 -42.5t30.5 -17.5q21 0 38.5 17.5t21.5 42.5zM348 100l23 130h-60l14 84h168l-52 -296q-98 -31 -198 -31q-105 0 -158.5 60t-33.5 175l22 126q21 116 93 175.5t181 59.5q76 0 154 -26
l-33 -97q-66 22 -137 22q-119 0 -144 -143l-19 -107q-26 -144 92 -144q37 0 88 12z" />
    <glyph glyph-name="uhungarumlaut.smcp" horiz-adv-x="560" 
d="M604 722l-184 -98l-29 69l180 108zM381 722l-184 -99l-30 70l181 107zM369 198l66 372h115l-67 -382q-15 -88 -87.5 -144.5t-161.5 -56.5q-90 0 -142 56.5t-36 144.5l67 382h115l-66 -372q-9 -50 12.5 -80t66.5 -30q44 0 76.5 30t41.5 80z" />
    <glyph glyph-name="uogonek.smcp" horiz-adv-x="560" 
d="M251 -140l-1 -73q-25 -11 -59 -11q-46 0 -70 20.5t-24 56.5q0 78 87 140q-69 15 -105 67.5t-23 127.5l67 382h115l-66 -372q-9 -50 12.5 -80t66.5 -30q44 0 76.5 30t41.5 80l66 372h115l-67 -382q-14 -77 -72.5 -131t-136.5 -66q-86 -63 -86 -114q0 -23 28 -23q17 0 35 6
z" />
    <glyph glyph-name="wacute.smcp" horiz-adv-x="734" 
d="M552 702l-219 -73l-17 72l218 85zM91 0l4 570h117l-11 -306q-1 -24 -12 -121q25 73 49 120l107 215h123l32 -215q8 -51 8 -118q29 112 31 119l96 306h117l-196 -570h-128l-34 279q-6 47 -5 89q-23 -68 -34 -89l-136 -279h-128z" />
    <glyph glyph-name="wcircumflex.smcp" horiz-adv-x="734" 
d="M535 633l-83 63l-109 -63l-34 71l156 83l126 -83zM91 0l4 570h117l-11 -306q-1 -24 -12 -121q25 73 49 120l107 215h123l32 -215q8 -51 8 -118q29 112 31 119l96 306h117l-196 -570h-128l-34 279q-6 47 -5 89q-23 -68 -34 -89l-136 -279h-128z" />
    <glyph glyph-name="wdieresis.smcp" horiz-adv-x="734" 
d="M596 712q0 -24 -17.5 -40.5t-41.5 -16.5t-41 16.5t-17 40.5q0 25 17 42.5t41 17.5t41.5 -17.5t17.5 -42.5zM408 712q0 -24 -17 -40.5t-42 -16.5q-24 0 -41 16.5t-17 40.5q0 25 17.5 42.5t40.5 17.5q25 0 42 -17.5t17 -42.5zM91 0l4 570h117l-11 -306q-1 -24 -12 -121
q25 73 49 120l107 215h123l32 -215q8 -51 8 -118q29 112 31 119l96 306h117l-196 -570h-128l-34 279q-6 47 -5 89q-23 -68 -34 -89l-136 -279h-128z" />
    <glyph glyph-name="yacute.smcp" horiz-adv-x="505" 
d="M434 702l-218 -73l-17 72l217 85zM267 0h-115l38 217l-110 353h122l64 -235l147 235h127l-235 -353z" />
    <glyph glyph-name="idieresis.smcp" horiz-adv-x="256" 
d="M360 712q0 -24 -17.5 -40.5t-41.5 -16.5q-23 0 -40.5 16.5t-17.5 40.5q0 25 17.5 42.5t40.5 17.5q25 0 42 -17.5t17 -42.5zM173 712q0 -24 -17.5 -40.5t-41.5 -16.5t-41.5 16.5t-17.5 40.5t17.5 42t41.5 18t41.5 -17.5t17.5 -42.5zM143 0h-116l101 570h115z" />
    <glyph glyph-name="ycircumflex.smcp" horiz-adv-x="505" 
d="M411 633l-84 63l-108 -63l-34 71l156 83l125 -83zM267 0h-115l38 217l-110 353h122l64 -235l147 235h127l-235 -353z" />
    <glyph glyph-name="iogonek.smcp" horiz-adv-x="256" 
d="M105 -140v-73q-26 -11 -59 -11q-46 0 -70 20.5t-24 56.5q0 82 97 147h-22l101 570h115l-100 -570q-101 -66 -101 -123q0 -23 28 -23q17 0 35 6z" />
    <glyph glyph-name="ydieresis.smcp" horiz-adv-x="505" 
d="M479 712q0 -24 -17.5 -40.5t-41.5 -16.5t-41 16.5t-17 40.5q0 25 17 42.5t41 17.5t41.5 -17.5t17.5 -42.5zM291 712q0 -24 -17 -40.5t-42 -16.5q-24 0 -41 16.5t-17 40.5q0 25 17.5 42.5t40.5 17.5q25 0 42 -17.5t17 -42.5zM267 0h-115l38 217l-110 353h122l64 -235
l147 235h127l-235 -353z" />
    <glyph glyph-name="zacute.smcp" horiz-adv-x="495" 
d="M420 702l-218 -73l-17 72l217 85zM397 0h-397l14 78l309 391h-234l17 101h383l-14 -78l-312 -391h261z" />
    <glyph glyph-name="zcaron.smcp" horiz-adv-x="495" 
d="M457 716l-157 -83l-125 83l55 71l83 -63l109 63zM397 0h-397l14 78l309 391h-234l17 101h383l-14 -78l-312 -391h261z" />
    <glyph glyph-name="zdotaccent.smcp" horiz-adv-x="495" 
d="M376 711q0 -24 -17.5 -41t-41.5 -17q-23 0 -40.5 17t-17.5 41q0 25 17 42.5t41 17.5t41.5 -17.5t17.5 -42.5zM397 0h-397l14 78l309 391h-234l17 101h383l-14 -78l-312 -391h261z" />
    <glyph glyph-name="cdotaccent.smcp" horiz-adv-x="493" 
d="M396 711q0 -24 -17.5 -41t-41.5 -17q-23 0 -40.5 17t-17.5 41q0 25 17.5 42.5t40.5 17.5q25 0 42 -17.5t17 -42.5zM407 111l6 -98q-94 -26 -170 -26q-105 0 -158.5 60t-33.5 175l22 126q21 116 90.5 175.5t177.5 59.5q80 0 161 -27l-34 -95q-64 21 -137 21
q-119 0 -144 -144l-19 -106q-25 -144 92 -144q66 0 147 23z" />
    <glyph glyph-name="cyrbreve" horiz-adv-x="413" 
d="M351 671q44 0 62 56l76 -10q-13 -56 -51 -88.5t-91 -32.5q-48 0 -81.5 27.5t-35.5 73.5q0 13 1 20l79 10q0 -56 41 -56z" />
    <glyph glyph-name="cyrBreve" horiz-adv-x="413" 
d="M357 809q46 0 64 58l79 -11q-16 -58 -54.5 -90t-92.5 -32q-52 0 -84.5 27t-35.5 75v20l80 11q0 -58 44 -58z" />
    <glyph glyph-name="lacute.smcp" horiz-adv-x="451" 
d="M326 702l-218 -73l-17 72l217 85zM372 0h-345l101 570h115l-83 -469h233z" />
    <glyph glyph-name="commaaccent" horiz-adv-x="224" 
d="M38 -224h-76l56 161h102z" />
    <glyph glyph-name="ncommaaccent.smcp" horiz-adv-x="556" 
d="M443 0h-95l-147 349q-3 -32 -12 -89l-47 -260h-115l101 570h93l146 -349q1 14 3.5 29.5t6 32.5t4.5 25l47 262h115zM201 -224h-76l56 161h102z" />
    <glyph glyph-name="zero.onum" horiz-adv-x="576" 
d="M537 327l-15 -85q-21 -122 -96.5 -188.5t-182.5 -66.5q-96 0 -153 68.5t-37 186.5l14 85q21 122 96.5 188.5t182.5 66.5q95 0 153 -68.5t38 -186.5zM407 242l15 85q12 75 -13.5 114.5t-80.5 39.5q-54 0 -93.5 -39.5t-51.5 -114.5l-14 -85q-13 -75 11.5 -114.5t79.5 -39.5
t94.5 39.5t52.5 114.5z" />
    <glyph glyph-name="one.onum" horiz-adv-x="393" 
d="M270 0h-115l82 464l-157 -26l18 102l275 42z" />
    <glyph glyph-name="two.onum" horiz-adv-x="484" 
d="M384 0h-385l9 54q11 67 49.5 117.5t85 79.5t91.5 53t75.5 52.5t30.5 63.5q0 27 -19 44t-56 17q-62 0 -146 -38l-25 88q99 51 190 51q77 0 126 -39t49 -105q0 -46 -21.5 -85t-54.5 -64.5t-72 -51t-73.5 -44.5t-60 -44t-30.5 -51h263z" />
    <glyph glyph-name="three.onum" horiz-adv-x="474" 
d="M-40 -86l32 95q84 -28 138 -28q65 0 111.5 39.5t46.5 103.5q0 36 -25 58t-78 22h-79v93l201 174h-242v98h381l-8 -98l-200 -174q73 -2 120.5 -45.5t47.5 -114.5q0 -115 -81.5 -186t-192.5 -71q-82 0 -172 34z" />
    <glyph glyph-name="ocircumflex.smcp" horiz-adv-x="558" 
d="M443 633l-84 63l-108 -63l-34 71l156 83l125 -83zM522 346l-22 -123q-20 -115 -91.5 -175.5t-173.5 -60.5q-98 0 -150.5 61t-33.5 175l22 123q20 115 92 176t174 61q97 0 149.5 -61.5t33.5 -175.5zM386 231l19 108q25 143 -84 143t-134 -144l-19 -107q-25 -143 83 -143
q110 0 135 143z" />
    <glyph glyph-name="four.onum" horiz-adv-x="548" 
d="M355 -106l-113 -10l27 151h-248v93l210 441h108l-200 -431h148l37 209l114 18l-40 -227h93l-19 -103h-92z" />
    <glyph glyph-name="five.onum" horiz-adv-x="501" 
d="M-30 -88l34 98q89 -29 158 -29q62 0 108.5 39.5t46.5 117.5q0 86 -121 86h-140l73 345h363l-37 -97h-240l-33 -152h42q99 0 155.5 -42.5t56.5 -122.5q0 -125 -84.5 -200t-196.5 -75q-91 0 -185 32z" />
    <glyph glyph-name="six.onum" horiz-adv-x="550" 
d="M48 214l39 223q19 108 94 180t187 72q68 0 152 -28l-40 -97q-66 24 -129 24q-55 0 -94 -39t-52 -101l-6 -29q63 40 131 40q80 0 128.5 -46.5t48.5 -131.5q0 -128 -80.5 -211t-192.5 -83q-96 0 -150 64t-36 163zM183 327l-20 -114q-9 -49 13.5 -87t74.5 -38q63 0 100 54.5
t37 127.5q0 97 -89 97q-61 0 -116 -40z" />
    <glyph glyph-name="seven.onum" horiz-adv-x="495" 
d="M226 -107h-118q62 355 268 575h-308l9 101h444l-18 -97q-117 -119 -179 -246.5t-98 -332.5z" />
    <glyph glyph-name="omacron.smcp" horiz-adv-x="558" 
d="M479 671h-249l15 81h248zM522 346l-22 -123q-20 -115 -91.5 -175.5t-173.5 -60.5q-98 0 -150.5 61t-33.5 175l22 123q20 115 92 176t174 61q97 0 149.5 -61.5t33.5 -175.5zM386 231l19 108q25 143 -84 143t-134 -144l-19 -107q-25 -143 83 -143q110 0 135 143z" />
    <glyph glyph-name="eight.onum" horiz-adv-x="561" 
d="M413 358q91 -58 91 -142q0 -69 -42 -123t-102.5 -80t-124.5 -26q-82 0 -141.5 43t-59.5 118q0 72 40.5 118t111.5 82q-74 51 -74 126q0 85 69 150t177 65q78 0 131 -42t53 -110q0 -112 -129 -179zM319 407q50 23 77.5 49.5t27.5 65.5q0 29 -23 47.5t-61 18.5
q-46 0 -78 -26.5t-32 -65.5q0 -29 22.5 -49t66.5 -40zM278 296q-61 -27 -93 -57t-32 -75q0 -33 28 -54.5t72 -21.5q52 0 92 30t40 75q0 33 -27 55.5t-80 47.5z" />
    <glyph glyph-name="nine.onum" horiz-adv-x="547" 
d="M355 121l4 29q-62 -40 -128 -40q-81 0 -129.5 47t-48.5 132q0 127 81 210t194 83q98 0 149.5 -64.5t34.5 -162.5l-39 -223q-19 -109 -91 -180.5t-183 -71.5q-69 0 -153 28l38 99q70 -25 128 -25q55 0 94 38.5t49 100.5zM377 242l20 114q8 49 -13.5 87t-73.5 38
q-63 0 -101 -53.5t-38 -126.5q0 -46 22.5 -72.5t67.5 -26.5q61 0 116 40z" />
    <glyph glyph-name="dollar.onum" horiz-adv-x="478" 
d="M220 -124h-87l19 113q-72 4 -159 37l33 102q99 -37 177 -37q47 0 82 29.5t35 77.5q0 31 -25 52.5t-60 36t-70.5 31.5t-60.5 49.5t-25 79.5q0 90 56 149t145 70l20 114h86l-21 -115q58 -8 124 -35l-34 -98q-78 33 -141 33q-54 0 -83.5 -24.5t-29.5 -67.5q0 -29 25 -48.5
t60.5 -33.5t70.5 -31t60 -51t25 -83q0 -97 -58.5 -158t-144.5 -76z" />
    <glyph glyph-name="cent.onum" horiz-adv-x="466" 
d="M249 -124h-87l20 115q-77 13 -114.5 68.5t-19.5 154.5l16 91q34 204 213 225l20 113h87l-21 -114q38 -4 95 -21l-34 -98q-69 21 -118 21q-54 0 -85.5 -30t-42.5 -98l-14 -86q-12 -69 8 -99t74 -30q43 0 125 21l8 -98q-63 -17 -111 -22z" />
    <glyph glyph-name="sterling.onum" horiz-adv-x="484" 
d="M401 0h-383l15 86q82 86 95 181h-66l12 73h56q-6 93 -6 94q0 122 64 188.5t163 66.5q74 0 151 -36l-31 -93q-57 26 -113 26q-116 0 -116 -157q0 -17 5 -89h163l-13 -73h-153q-15 -106 -88 -172h261z" />
    <glyph glyph-name="Euro.onum" horiz-adv-x="524" 
d="M455 108l3 -101q-83 -20 -155 -20q-104 0 -161 65t-39 176h-70l11 68h71l14 84h-69l11 68h71q22 112 97 176.5t178 64.5q73 0 148 -20l-29 -101q-70 17 -126 17t-96.5 -36.5t-53.5 -100.5h188l-24 -68h-177l-15 -84h161l-25 -68h-148q-9 -64 18.5 -100.5t84.5 -36.5
q55 0 132 17z" />
    <glyph glyph-name="yen.onum" horiz-adv-x="519" 
d="M415 101h-127l-17 -101h-117l17 101h-123l13 73h123l12 70h-123l13 73h94l-107 359h120l83 -310l193 310h118l-234 -359h99l-13 -73h-126l-12 -70h126z" />
    <glyph glyph-name="numbersign.onum" horiz-adv-x="562" 
d="M362 0h-101l51 189h-115l-51 -189h-102l51 189h-69l18 102h80l35 128h-69l19 102h78l52 188h101l-52 -188h116l52 188h101l-52 -188h69l-19 -102h-78l-35 -128h68l-19 -102h-78zM340 291l35 128h-115l-35 -128h115z" />
    <glyph glyph-name="sacute.smcp" horiz-adv-x="443" 
d="M409 702l-218 -73l-17 72l217 85zM0 22l31 99q83 -33 154 -33q39 0 66 22.5t27 57.5q0 23 -21 41.5t-51 32.5t-60 31.5t-51 47t-21 69.5q0 86 62 139.5t153 53.5q62 0 154 -35l-38 -95q-73 29 -126 29q-42 0 -64.5 -19t-22.5 -48q0 -23 21 -42t51 -35t60.5 -34.5
t51.5 -49t21 -69.5q0 -96 -65 -147t-156 -51q-88 0 -176 35z" />
    <glyph glyph-name="scommaaccent.smcp" horiz-adv-x="443" 
d="M0 22l31 99q83 -33 154 -33q39 0 66 22.5t27 57.5q0 23 -21 41.5t-51 32.5t-60 31.5t-51 47t-21 69.5q0 86 62 139.5t153 53.5q62 0 154 -35l-38 -95q-73 29 -126 29q-42 0 -64.5 -19t-22.5 -48q0 -23 21 -42t51 -35t60.5 -34.5t51.5 -49t21 -69.5q0 -96 -65 -147
t-156 -51q-88 0 -176 35zM149 -224h-76l56 161h102z" />
    <glyph glyph-name="zero.tnum" 
d="M549 415l-27 -153q-24 -136 -102 -205.5t-181 -69.5t-157.5 69.5t-30.5 205.5l26 153q24 136 102.5 205t182.5 69t157.5 -69t29.5 -205zM407 262l27 153q30 173 -90 173q-121 0 -151 -173l-27 -153q-30 -174 91 -174q120 0 150 174z" />
    <glyph glyph-name="one.tnum" 
d="M373 0h-115l99 570l-154 -26l18 102l272 42z" />
    <glyph glyph-name="CR" horiz-adv-x="226" 
 />
    <glyph glyph-name="two.tnum" 
d="M445 0h-415l12 71q11 62 43.5 113.5t73.5 83t87 62.5t83.5 54t62 55t24.5 69q0 35 -22 57.5t-64 22.5q-68 0 -155 -41l-24 91q102 51 202 51q82 0 132 -43.5t50 -116.5q0 -53 -25 -99.5t-63 -78t-83 -63.5t-85 -58t-70.5 -60.5t-36.5 -71.5h290z" />
    <glyph glyph-name="three.tnum" 
d="M41 21l32 95q84 -28 138 -28q65 0 111.5 39.5t46.5 103.5q0 36 -25 58t-78 22h-79v93l201 174h-242v98h381l-8 -98l-200 -174q73 -2 120.5 -45.5t47.5 -114.5q0 -115 -81.5 -186t-192.5 -71q-82 0 -172 34z" />
    <glyph glyph-name="four.tnum" 
d="M384 1l-113 -10l27 151h-248v93l210 441h107l-200 -431h149l36 209l114 18l-39 -227h92l-18 -103h-93z" />
    <glyph glyph-name="five.tnum" 
d="M28 19l34 98q89 -29 158 -29q62 0 108.5 39.5t46.5 117.5q0 86 -121 86h-140l73 345h363l-37 -97h-241l-33 -152h43q99 0 155 -42.5t56 -122.5q0 -125 -84.5 -200t-196.5 -75q-90 0 -184 32z" />
    <glyph glyph-name="six.tnum" 
d="M57 214l39 223q19 108 94 180t187 72q70 0 152 -28l-40 -97q-66 24 -129 24q-55 0 -95 -39t-51 -101l-6 -29q63 40 131 40q81 0 129 -46.5t48 -131.5q0 -128 -80.5 -211t-192.5 -83q-96 0 -149.5 64t-36.5 163zM192 327l-20 -114q-9 -49 13.5 -87t74.5 -38
q63 0 100.5 54.5t37.5 127.5q0 45 -22.5 71t-66.5 26q-62 0 -117 -40z" />
    <glyph glyph-name="seven.tnum" 
d="M288 0h-119q61 353 268 575h-307l9 101h444l-18 -97q-117 -119 -179 -246.5t-98 -332.5z" />
    <glyph glyph-name="tbar.smcp" horiz-adv-x="461" 
d="M244 0h-115l46 260h-71l13 76h71l24 134h-143l18 100h400l-18 -100h-142l-24 -134h70l-14 -76h-69z" />
    <glyph glyph-name="eight.tnum" 
d="M424 358q91 -58 91 -142q0 -69 -42 -123t-102.5 -80t-124.5 -26q-82 0 -141.5 43t-59.5 118q0 72 40.5 118t111.5 82q-74 51 -74 126q0 85 69 150t177 65q78 0 131 -42t53 -110q0 -112 -129 -179zM330 407q50 23 77.5 49.5t27.5 65.5q0 29 -23 47.5t-61 18.5
q-46 0 -78 -26.5t-32 -65.5q0 -29 22.5 -49t66.5 -40zM289 296q-61 -27 -93 -57t-32 -75q0 -33 28 -54.5t72 -21.5q52 0 92 30t40 75q0 33 -27 55.5t-80 47.5z" />
    <glyph glyph-name="nine.tnum" 
d="M384 228l4 29q-63 -40 -129 -40q-81 0 -129.5 47t-48.5 132q0 127 81.5 210t193.5 83q98 0 150 -64.5t35 -162.5l-39 -223q-19 -109 -91 -180.5t-183 -71.5q-71 0 -153 28l37 99q70 -25 128 -25q56 0 95 38.5t49 100.5zM406 349l20 114q8 49 -13.5 87t-73.5 38
q-63 0 -101 -53.5t-38 -126.5q0 -46 22.5 -72.5t67.5 -26.5q61 0 116 40z" />
    <glyph glyph-name="umacron.smcp" horiz-adv-x="560" 
d="M476 671h-249l15 81h248zM369 198l66 372h115l-67 -382q-15 -88 -87.5 -144.5t-161.5 -56.5q-90 0 -142 56.5t-36 144.5l67 382h115l-66 -372q-9 -50 12.5 -80t66.5 -30q44 0 76.5 30t41.5 80z" />
    <glyph glyph-name="dollar.tnum" 
d="M266 -124h-86l19 113q-71 4 -159 37l33 102q97 -37 177 -37q47 0 82 29.5t35 77.5q0 31 -25 52.5t-60.5 36t-71 31.5t-60.5 49.5t-25 79.5q0 90 56 149t145 70l20 114h87l-21 -115q56 -7 124 -35l-34 -98q-78 33 -141 33q-55 0 -84.5 -24.5t-29.5 -67.5q0 -29 25 -48.5
t60.5 -33.5t71 -31t60.5 -51t25 -83q0 -97 -58.5 -158t-144.5 -76z" />
    <glyph glyph-name="cent.tnum" 
d="M296 -124h-86l19 115q-77 13 -113.5 68.5t-19.5 154.5l15 91q34 204 213 225l21 113h86l-20 -114q36 -4 95 -21l-35 -98q-69 21 -118 21q-54 0 -84.5 -30t-42.5 -98l-15 -86q-12 -69 8.5 -99t73.5 -30q44 0 126 21l7 -98q-60 -17 -111 -22z" />
    <glyph glyph-name="wgrave.smcp" horiz-adv-x="734" 
d="M520 629l-194 79l43 77l189 -91zM91 0l4 570h117l-11 -306q-1 -24 -12 -121q25 73 49 120l107 215h123l32 -215q8 -51 8 -118q29 112 31 119l96 306h117l-196 -570h-128l-34 279q-6 47 -5 89q-23 -68 -34 -89l-136 -279h-128z" />
    <glyph glyph-name="sterling.tnum" 
d="M440 0h-383l15 86q82 86 95 181h-66l12 73h56q-6 93 -6 94q0 122 64 188.5t163 66.5q74 0 151 -36l-31 -93q-57 26 -113 26q-116 0 -116 -157q0 -17 5 -89h163l-13 -73h-153q-15 -106 -88 -172h261z" />
    <glyph glyph-name="Euro.tnum" 
d="M470 108l4 -101q-85 -20 -155 -20q-104 0 -161 65t-40 176h-69l11 68h70l15 84h-70l12 68h71q22 112 97 176.5t178 64.5q72 0 147 -20l-28 -101q-70 17 -126 17t-96.5 -36.5t-53.5 -100.5h188l-24 -68h-177l-15 -84h160l-24 -68h-148q-10 -64 17.5 -100.5t84.5 -36.5
t132 17z" />
    <glyph glyph-name="yen.tnum" 
d="M444 101h-126l-18 -101h-117l18 101h-123l12 73h123l12 70h-123l13 73h94l-106 359h119l83 -310l194 310h118l-235 -359h99l-12 -73h-127l-12 -70h127z" />
    <glyph glyph-name="numbersign.tnum" 
d="M365 0h-101l51 189h-115l-51 -189h-102l51 189h-69l18 102h80l35 128h-69l19 102h78l52 188h101l-52 -188h116l52 188h101l-52 -188h69l-19 -102h-78l-35 -128h68l-19 -102h-78zM343 291l35 128h-115l-35 -128h115z" />
    <glyph glyph-name="ygrave.smcp" horiz-adv-x="505" 
d="M399 629l-194 79l43 77l189 -91zM267 0h-115l38 217l-110 353h122l64 -235l147 235h127l-235 -353z" />
    <glyph glyph-name="zeroonum.tnum" 
d="M533 327l-14 -85q-21 -121 -96.5 -188t-183.5 -67q-95 0 -152 68.5t-37 186.5l14 85q21 122 96 188.5t183 66.5q95 0 153 -68.5t37 -186.5zM404 242l14 85q13 75 -12.5 114.5t-80.5 39.5t-94 -39.5t-51 -114.5l-15 -85q-12 -75 12.5 -114.5t79.5 -39.5q54 0 93.5 39.5
t53.5 114.5z" />
    <glyph glyph-name="oneonum.tnum" 
d="M373 0h-115l82 464l-157 -26l18 102l275 42z" />
    <glyph glyph-name="twoonum.tnum" 
d="M431 0h-385l8 54q8 57 37 102.5t65.5 72t77.5 51t75 42t56 43t22 55.5q0 27 -19.5 44t-55.5 17q-62 0 -146 -38l-25 88q98 51 190 51q76 0 125 -39t49 -105q0 -54 -30 -98.5t-74 -74t-88.5 -54.5t-79 -54t-39.5 -59h263z" />
    <glyph glyph-name="threeonum.tnum" 
d="M19 -86l32 95q84 -28 138 -28q65 0 111.5 39.5t46.5 103.5q0 36 -25 58t-78 22h-79v93l201 174h-242v98h381l-8 -98l-200 -174q73 -2 120.5 -45.5t47.5 -114.5q0 -115 -81.5 -186t-192.5 -71q-82 0 -172 34z" />
    <glyph glyph-name="fouronum.tnum" 
d="M361 -106l-112 -10l26 151h-247v93l209 441h108l-200 -431h149l36 209l114 18l-40 -227h93l-18 -103h-93z" />
    <glyph glyph-name="fiveonum.tnum" 
d="M9 -88l34 98q89 -29 159 -29q61 0 107.5 39.5t46.5 117.5q0 86 -121 86h-139l72 345h363l-37 -97h-240l-33 -152h43q99 0 155 -42.5t56 -122.5q0 -125 -84.5 -200t-196.5 -75q-89 0 -185 32z" />
    <glyph glyph-name="sixonum.tnum" 
d="M51 214l39 223q19 108 94.5 180t187.5 72q68 0 152 -28l-41 -97q-66 24 -128 24q-56 0 -96 -39t-51 -101l-5 -29q62 40 131 40q80 0 128.5 -46.5t48.5 -131.5q0 -127 -80.5 -210.5t-192.5 -83.5q-96 0 -150 64t-37 163zM186 327l-20 -114q-8 -50 14 -87.5t74 -37.5
q63 0 100.5 54.5t37.5 127.5q0 97 -89 97q-62 0 -117 -40z" />
    <glyph glyph-name="sevenonum.tnum" 
d="M269 -107h-118q62 355 268 575h-308l9 101h444l-18 -97q-117 -119 -179 -246.5t-98 -332.5z" />
    <glyph glyph-name="eightonum.tnum" 
d="M419 358q91 -58 91 -142q0 -69 -42 -123t-102.5 -80t-124.5 -26q-82 0 -141.5 43t-59.5 118q0 72 40.5 118t111.5 82q-74 51 -74 126q0 85 69 150t177 65q78 0 131 -42t53 -110q0 -112 -129 -179zM325 407q50 23 77.5 49.5t27.5 65.5q0 29 -23 47.5t-61 18.5
q-46 0 -78 -26.5t-32 -65.5q0 -29 22.5 -49t66.5 -40zM284 296q-61 -27 -93 -57t-32 -75q0 -33 28 -54.5t72 -21.5q52 0 92 30t40 75q0 33 -27 55.5t-80 47.5z" />
    <glyph glyph-name="nineonum.tnum" 
d="M365 121l4 29q-62 -40 -128 -40q-81 0 -129.5 47t-48.5 132q0 127 81 210t194 83q98 0 149.5 -64.5t34.5 -162.5l-39 -223q-19 -109 -91 -180.5t-183 -71.5q-69 0 -153 28l38 99q70 -25 128 -25q55 0 94 38.5t49 100.5zM387 242l20 114q8 49 -13.5 87t-73.5 38
q-63 0 -101 -53.5t-38 -126.5q0 -46 22.5 -72.5t67.5 -26.5q61 0 116 40z" />
    <glyph glyph-name="dollaronum.tnum" 
d="M260 -124h-87l19 113q-72 4 -159 37l33 102q99 -37 177 -37q47 0 82 29.5t35 77.5q0 31 -25 52.5t-60 36t-70.5 31.5t-60.5 49.5t-25 79.5q0 90 56 149t145 70l20 114h86l-21 -115q58 -8 124 -35l-34 -98q-78 33 -141 33q-54 0 -83.5 -24.5t-29.5 -67.5q0 -29 25 -48.5
t60 -33.5t70.5 -31t60.5 -51t25 -83q0 -97 -58.5 -158t-144.5 -76z" />
    <glyph glyph-name="centonum.tnum" 
d="M296 -124h-87l20 115q-77 13 -114.5 68.5t-19.5 154.5l16 91q34 204 213 225l20 113h87l-21 -114q38 -4 95 -21l-34 -98q-69 21 -118 21q-54 0 -85.5 -30t-42.5 -98l-14 -86q-12 -69 8.5 -99t73.5 -30q43 0 125 21l8 -98q-63 -17 -111 -22z" />
    <glyph glyph-name="sterlingonum.tnum" 
d="M446 0h-382l15 86q82 89 95 181h-67l13 73h55q-5 78 -5 94q0 122 63.5 188.5t162.5 66.5q73 0 152 -36l-31 -93q-57 26 -114 26q-115 0 -115 -157q0 -17 5 -89h162l-12 -73h-153q-7 -51 -32 -97t-56 -75h260z" />
    <glyph glyph-name="Euroonum.tnum" 
d="M477 108l3 -101q-83 -20 -154 -20q-105 0 -161.5 64.5t-39.5 176.5h-70l12 68h70l15 84h-70l11 68h72q22 113 97 177t178 64q72 0 147 -20l-29 -101q-68 17 -126 17q-56 0 -96.5 -36.5t-53.5 -100.5h189l-25 -68h-177l-14 -84h160l-25 -68h-147q-10 -64 17.5 -100.5
t84.5 -36.5q55 0 132 17z" />
    <glyph glyph-name="yenonum.tnum" 
d="M444 101h-126l-18 -101h-117l18 101h-123l12 73h123l12 70h-123l13 73h94l-106 359h119l83 -310l194 310h118l-235 -359h99l-12 -73h-127l-12 -70h127z" />
    <glyph glyph-name="numbersignonum.tnum" 
d="M365 0h-101l51 189h-115l-51 -189h-102l51 189h-69l18 102h80l35 128h-69l19 102h78l52 188h101l-52 -188h116l52 188h101l-52 -188h69l-19 -102h-78l-35 -128h68l-19 -102h-78zM343 291l35 128h-115l-35 -128h115z" />
    <glyph glyph-name="a.smcp" horiz-adv-x="537" 
d="M259 570h133l75 -570h-114l-16 140h-170l-64 -140h-119zM266 354l-57 -119h118l-14 119q-3 27 -5 108q-28 -77 -42 -108z" />
    <glyph glyph-name="b.smcp" horiz-adv-x="508" 
d="M215 0h-188l101 570h185q79 0 123.5 -35.5t44.5 -94.5q0 -104 -97 -141q76 -28 76 -101q0 -86 -66 -142t-179 -56zM202 340h61q45 0 72 22t27 56q0 51 -69 51h-68zM160 100h71q49 0 80 22.5t31 64.5q0 58 -78 58h-78z" />
    <glyph glyph-name="c.smcp" horiz-adv-x="493" 
d="M407 111l6 -98q-94 -26 -170 -26q-105 0 -158.5 60t-33.5 175l22 126q21 116 90.5 175.5t177.5 59.5q80 0 161 -27l-34 -95q-64 21 -137 21q-119 0 -144 -144l-19 -106q-25 -144 92 -144q66 0 147 23z" />
    <glyph glyph-name="d.smcp" horiz-adv-x="555" 
d="M243 0h-216l94 534q141 49 224 49q91 0 142 -58t34 -159l-27 -156q-18 -102 -83.5 -156t-167.5 -54zM380 218l24 139q11 62 -10 93.5t-67 31.5q-49 0 -103 -17l-64 -364h99q53 0 81 26.5t40 90.5z" />
    <glyph glyph-name="e.smcp" horiz-adv-x="470" 
d="M373 0h-346l101 570h338l-18 -101h-223l-24 -134h187l-21 -96h-182l-25 -138h229z" />
    <glyph glyph-name="f.smcp" horiz-adv-x="460" 
d="M142 0h-115l101 570h337l-18 -101h-222l-24 -134h181l-23 -96h-174z" />
    <glyph glyph-name="g.smcp" horiz-adv-x="520" 
d="M348 100l23 130h-60l14 84h168l-52 -296q-98 -31 -198 -31q-105 0 -158.5 60t-33.5 175l22 126q21 116 93 175.5t181 59.5q76 0 154 -26l-33 -97q-66 22 -137 22q-119 0 -144 -143l-19 -107q-26 -144 92 -144q37 0 88 12z" />
    <glyph glyph-name="h.smcp" horiz-adv-x="562" 
d="M448 0h-115l43 241h-190l-43 -241h-116l101 570h115l-41 -231h190l42 231h115z" />
    <glyph glyph-name="i.smcp" horiz-adv-x="256" 
d="M143 0h-116l101 570h115z" />
    <glyph glyph-name="j.smcp" horiz-adv-x="415" 
d="M229 193l66 377l114 -6l-65 -373q-17 -96 -71.5 -150t-144.5 -54q-67 0 -145 30l32 95q69 -24 115 -24q80 0 99 105z" />
    <glyph glyph-name="k.smcp" horiz-adv-x="532" 
d="M460 0h-127l-107 226l-54 -56l-29 -170h-116l101 570h115l-40 -221l201 221h135l-233 -254z" />
    <glyph glyph-name="l.smcp" horiz-adv-x="451" 
d="M372 0h-345l101 570h115l-83 -469h233z" />
    <glyph glyph-name="m.smcp" horiz-adv-x="720" 
d="M-2 0l163 570h131l54 -283q5 -25 9 -73q22 53 33 73l154 283h131l-37 -570h-114l25 308q4 51 12 104q-38 -85 -48 -103l-116 -211h-122l-41 211q-10 55 -14 103q-19 -89 -23 -104l-83 -308h-114z" />
    <glyph glyph-name="n.smcp" horiz-adv-x="556" 
d="M443 0h-95l-147 349q-3 -32 -12 -89l-47 -260h-115l101 570h93l146 -349q1 14 3.5 29.5t6 32.5t4.5 25l47 262h115z" />
    <glyph glyph-name="o.smcp" horiz-adv-x="558" 
d="M522 346l-22 -123q-20 -115 -91.5 -175.5t-173.5 -60.5q-98 0 -150.5 61t-33.5 175l22 123q20 115 92 176t174 61q97 0 149.5 -61.5t33.5 -175.5zM386 231l19 108q25 143 -84 143t-134 -144l-19 -107q-25 -143 83 -143q110 0 135 143z" />
    <glyph glyph-name="p.smcp" horiz-adv-x="490" 
d="M142 0h-115l101 570h201q73 0 115.5 -42.5t42.5 -105.5q0 -84 -64 -147.5t-157 -63.5h-86zM196 308h83q37 0 63.5 28t26.5 71q0 29 -16 45.5t-44 16.5h-84z" />
    <glyph glyph-name="q.smcp" horiz-adv-x="559" 
d="M372 -108l-92 -51l-28 147q-6 -1 -17 -1q-98 0 -150.5 61t-33.5 175l22 123q20 115 92 176t174 61q97 0 149.5 -61.5t33.5 -175.5l-22 -123q-29 -158 -151 -212zM386 231l19 108q25 143 -84 143t-134 -144l-19 -107q-25 -143 83 -143q110 0 135 143z" />
    <glyph glyph-name="r.smcp" horiz-adv-x="501" 
d="M420 0h-120l-60 215h-60l-38 -215h-115l101 570h202q73 0 115 -42t42 -106q0 -56 -34.5 -111t-101.5 -80zM196 308h82q37 0 64.5 28t27.5 70q0 29 -17 46.5t-45 17.5h-83z" />
    <glyph glyph-name="s.smcp" horiz-adv-x="443" 
d="M0 22l31 99q83 -33 154 -33q39 0 66 22.5t27 57.5q0 23 -21 41.5t-51 32.5t-60 31.5t-51 47t-21 69.5q0 86 62 139.5t153 53.5q62 0 154 -35l-38 -95q-73 29 -126 29q-42 0 -64.5 -19t-22.5 -48q0 -23 21 -42t51 -35t60.5 -34.5t51.5 -49t21 -69.5q0 -96 -65 -147
t-156 -51q-88 0 -176 35z" />
    <glyph glyph-name="t.smcp" horiz-adv-x="461" 
d="M244 0h-115l83 470h-143l18 100h400l-18 -100h-142z" />
    <glyph glyph-name="u.smcp" horiz-adv-x="560" 
d="M369 198l66 372h115l-67 -382q-15 -88 -87.5 -144.5t-161.5 -56.5q-90 0 -142 56.5t-36 144.5l67 382h115l-66 -372q-9 -50 12.5 -80t66.5 -30q44 0 76.5 30t41.5 80z" />
    <glyph glyph-name="v.smcp" horiz-adv-x="537" 
d="M292 0h-133l-75 570h117l39 -354q4 -36 4 -103q27 72 41 103l164 354h118z" />
    <glyph glyph-name="w.smcp" horiz-adv-x="734" 
d="M91 0l4 570h117l-11 -306q-1 -24 -12 -121q25 73 49 120l107 215h123l32 -215q8 -51 8 -118q29 112 31 119l96 306h117l-196 -570h-128l-34 279q-6 47 -5 89q-23 -68 -34 -89l-136 -279h-128z" />
    <glyph glyph-name="x.smcp" horiz-adv-x="519" 
d="M99 570h126l60 -165l118 165h126l-192 -267l116 -303h-131l-71 195l-141 -195h-130l220 298z" />
    <glyph glyph-name="y.smcp" horiz-adv-x="505" 
d="M267 0h-115l38 217l-110 353h122l64 -235l147 235h127l-235 -353z" />
    <glyph glyph-name="z.smcp" horiz-adv-x="495" 
d="M396 0h-396l14 78l311 391h-238l18 101h384l-14 -78l-314 -391h264z" />
    <glyph glyph-name="ampersand.smcp" horiz-adv-x="499" 
d="M473 253h-42l-16 -91q-13 -76 -70.5 -125.5t-147.5 -49.5q-78 0 -123 40t-45 103q0 36 22 84.5t74 79.5q-43 33 -43 93q0 84 61 140t154 56q61 0 127 -30l-40 -89q-52 20 -93 20q-45 0 -69.5 -25t-24.5 -60q0 -25 15.5 -42t46.5 -17h39l-16 -88h-41q-40 0 -68 -31
t-28 -74q0 -28 18.5 -44.5t50.5 -16.5q42 0 68 21t32 55l31 178h144z" />
    <glyph glyph-name="question.smcp" horiz-adv-x="397" 
d="M234 176l-102 17l7 38q6 33 29 65.5t47 53.5t43 46.5t19 47.5q0 19 -13.5 30.5t-36.5 11.5q-43 0 -102 -37l-33 79q80 53 153 53q61 0 101 -32.5t40 -87.5q0 -31 -13.5 -59t-33.5 -49.5t-40 -41t-36 -40t-19 -38.5zM160 -11q-28 0 -48 20t-20 48t20 46.5t48 18.5
q27 0 47 -19t20 -47t-20 -47.5t-47 -19.5z" />
    <glyph glyph-name="exclam.smcp" horiz-adv-x="243" 
d="M161 181h-104l61 380l119 17zM89 -7q-27 0 -47.5 20t-20.5 48t20 47t47 19q28 0 48.5 -19t20.5 -47t-20 -48t-48 -20z" />
    <glyph glyph-name="questiondown.smcp" horiz-adv-x="397" 
d="M297 424q0 -28 -20 -46.5t-48 -18.5q-27 0 -47 19t-20 47t20 47.5t47 19.5q29 0 48.5 -20t19.5 -48zM265 32l32 -79q-79 -53 -153 -53q-61 0 -101 32t-40 88q0 37 20.5 72t46 57t48.5 49t27 49l10 58l102 -17l-7 -39q-6 -33 -29 -65.5t-46.5 -53t-43 -46t-19.5 -48.5
q0 -19 13.5 -30t36.5 -11q44 0 103 37z" />
    <glyph glyph-name="exclamdown.smcp" horiz-adv-x="243" 
d="M220 426q0 -28 -20.5 -46.5t-46.5 -18.5q-28 0 -48.5 19t-20.5 47t20 47.5t48 19.5q27 0 47.5 -20t20.5 -48zM122 -74l-119 -17l77 397h103z" />
    <glyph glyph-name="at.smcp" horiz-adv-x="759" 
d="M548 -8l34 -68q-106 -73 -235 -73q-143 0 -228.5 89.5t-85.5 221.5q0 160 103 273t272 113q135 0 216.5 -86.5t81.5 -225.5q0 -36 -3 -55h-181l-6 -51q-7 -56 -54 -93t-112 -37q-61 0 -99 32.5t-38 84.5q0 63 45.5 96t119.5 33h56l3 15q5 24 -7.5 40t-42.5 16
q-49 0 -109 -20l-12 78q74 24 131 24q65 0 104.5 -36t31.5 -97l-2 -20h91q0 101 -62.5 162.5t-164.5 61.5q-124 0 -202 -86t-78 -215q0 -109 64.5 -174.5t173.5 -65.5q96 0 195 63zM421 133l5 48h-57q-60 0 -60 -54q0 -20 13.5 -32t37.5 -12q27 0 42.5 14t18.5 36z" />
    <glyph glyph-name="zerosmcp.tnum" horiz-adv-x="496" 
d="M479 349l-23 -127q-21 -116 -90 -175.5t-160 -59.5q-92 0 -141.5 59.5t-28.5 175.5l23 127q20 115 89.5 174.5t161.5 59.5t140.5 -59.5t28.5 -174.5zM341 222l23 127q23 133 -71 133q-96 0 -119 -133l-23 -127q-23 -135 72 -135t118 135z" />
    <glyph glyph-name="onesmcp.tnum" horiz-adv-x="496" 
d="M328 0h-114l81 464l-132 -20l18 101l249 36z" />
    <glyph glyph-name="twosmcp.tnum" horiz-adv-x="496" 
d="M391 0h-371l10 65q9 61 45.5 109t81.5 77.5t88.5 55t73 54t29.5 61.5q0 25 -17.5 42.5t-50.5 17.5q-57 0 -134 -35l-24 90q94 46 181 46q74 0 118.5 -38.5t44.5 -102.5q0 -52 -29.5 -97t-72.5 -76.5t-86.5 -59.5t-76.5 -57t-38 -56h244z" />
    <glyph glyph-name="threesmcp.tnum" horiz-adv-x="496" 
d="M28 18l32 94q72 -25 121 -25q52 0 88.5 29.5t36.5 74.5q0 59 -79 59h-72v90l166 133h-207v97h345l-9 -97l-167 -133q67 -4 104.5 -42.5t37.5 -94.5q0 -96 -72 -156t-168 -60q-71 0 -157 31z" />
    <glyph glyph-name="foursmcp.tnum" horiz-adv-x="496" 
d="M335 1l-109 -9l22 121h-215v91l177 366h108l-169 -355h116l30 170l110 19l-33 -189h79l-17 -102h-80z" />
    <glyph glyph-name="fivesmcp.tnum" horiz-adv-x="496" 
d="M18 15l33 98q78 -26 139 -26q49 0 85 30t36 86q0 67 -99 67h-123l63 300h325l-34 -95h-205l-26 -110h27q88 0 139.5 -37.5t51.5 -107.5q0 -111 -76 -172t-170 -61q-79 0 -166 28z" />
    <glyph glyph-name="sixsmcp.tnum" horiz-adv-x="496" 
d="M457 558l-36 -96q-57 20 -114 20q-46 0 -76.5 -27t-38.5 -73l-4 -25q48 34 108 34q71 0 113 -40t42 -113q0 -115 -71.5 -183t-169.5 -68q-84 0 -133.5 54.5t-34.5 141.5l32 184q17 91 83 153.5t163 62.5q60 0 137 -25zM172 268l-15 -86q-7 -37 11 -66t58 -29
q50 0 79.5 41t29.5 100q0 74 -72 74q-49 0 -91 -34z" />
    <glyph glyph-name="sevensmcp.tnum" horiz-adv-x="496" 
d="M255 0h-118q50 295 219 470h-257l8 100h393l-16 -96q-99 -97 -149 -203t-80 -271z" />
    <glyph glyph-name="eightsmcp.tnum" horiz-adv-x="496" 
d="M371 300q82 -50 82 -116q0 -90 -73.5 -143.5t-164.5 -53.5q-76 0 -128 37t-52 104q0 99 126 162q-61 45 -61 106q0 73 61.5 130t157.5 57q68 0 116.5 -37t48.5 -97q0 -93 -113 -149zM283 345q84 40 84 90q0 21 -18.5 34.5t-46.5 13.5q-35 0 -59.5 -18.5t-24.5 -47.5
q0 -37 65 -72zM245 243q-92 -43 -92 -99q0 -26 22 -41.5t57 -15.5q43 0 73 21.5t30 54.5q0 24 -22 41t-68 39z" />
    <glyph glyph-name="ninesmcp.tnum" horiz-adv-x="496" 
d="M318 191l4 25q-55 -37 -108 -37q-72 0 -114 40.5t-42 113.5q0 113 73 181.5t171 68.5q86 0 133.5 -55.5t32.5 -140.5l-32 -184q-17 -93 -80 -154.5t-162 -61.5q-60 0 -138 25l36 98q60 -22 113 -22q41 0 73 29t40 74zM337 301l16 87q6 37 -10.5 66t-57.5 29
q-51 0 -80.5 -41.5t-29.5 -98.5q0 -75 72 -75q47 0 90 33z" />
    <glyph glyph-name="dollarsmcp.tnum" horiz-adv-x="496" 
d="M234 -104h-81l15 95q-66 4 -139 32l31 99q84 -33 157 -33q37 0 64 22.5t27 56.5q0 21 -21.5 37.5t-52 30.5t-61 31t-52 48t-21.5 73q0 64 47 114t128 59l17 96h81l-18 -96q50 -7 107 -32l-31 -94q-65 28 -122 28q-90 0 -90 -66q0 -22 21.5 -40t52 -32t61 -30.5t52 -44
t21.5 -63.5q0 -74 -48 -127.5t-129 -66.5z" />
    <glyph glyph-name="centsmcp.tnum" horiz-adv-x="496" 
d="M262 -104h-81l16 97q-66 12 -99 59t-18 130l13 76q30 172 185 190l17 96h81l-18 -97q33 -4 82 -17l-33 -93q-54 17 -102 17q-43 0 -67 -22t-33 -74l-13 -76q-9 -53 7.5 -74.5t59.5 -21.5q45 0 107 17l8 -93q-49 -14 -96 -19z" />
    <glyph glyph-name="sterlingsmcp.tnum" horiz-adv-x="496" 
d="M384 0h-340l14 81q70 77 79 142h-56l12 67h45q-5 60 -5 77q0 102 56.5 159t143.5 57q66 0 135 -33l-30 -91q-51 23 -98 23q-92 0 -92 -119q0 -14 2 -39.5t2 -33.5h137l-11 -67h-128q-10 -75 -73 -133h222z" />
    <glyph glyph-name="Eurosmcp.tnum" horiz-adv-x="496" 
d="M412 102l4 -97q-75 -18 -139 -18q-91 0 -142.5 55t-37.5 150h-58l11 59h58l11 68h-57l10 59h59q19 95 85 150t156 55q66 0 132 -18l-27 -97q-62 15 -111 15q-45 0 -77.5 -28t-42.5 -77h159l-22 -59h-149l-12 -68h134l-21 -59h-124q-7 -49 16 -77.5t69 -28.5q45 0 116 16z
" />
    <glyph glyph-name="yensmcp.tnum" horiz-adv-x="496" 
d="M381 82h-103l-15 -82h-114l13 82h-103l12 66h103l9 56h-102l11 67h77l-91 299h116l67 -251l158 251h115l-199 -299h79l-11 -67h-105l-9 -56h105z" />
    <glyph glyph-name="numbersignsmcp.tnum" horiz-adv-x="496" 
d="M323 0h-98l42 154h-89l-42 -154h-99l43 154h-60l17 99h71l26 92h-60l17 99h70l43 153h97l-42 -153h89l43 153h97l-42 -153h60l-18 -99h-70l-26 -92h59l-17 -99h-69zM294 253l27 92h-90l-26 -92h89z" />
    <glyph glyph-name="zero.smcp" horiz-adv-x="524" 
d="M490 349l-23 -127q-21 -116 -90 -175.5t-160 -59.5q-92 0 -141.5 59.5t-28.5 175.5l23 127q20 115 89.5 174.5t161.5 59.5t140.5 -59.5t28.5 -174.5zM352 222l23 127q23 133 -71 133q-96 0 -119 -133l-23 -127q-23 -135 72 -135t118 135z" />
    <glyph glyph-name="one.smcp" horiz-adv-x="357" 
d="M242 0h-114l81 464l-132 -20l18 101l249 36z" />
    <glyph glyph-name="two.smcp" horiz-adv-x="462" 
d="M369 0h-372l11 65q10 61 46.5 109t81 77.5t88 55t72.5 54t29 61.5q0 25 -17.5 42.5t-49.5 17.5q-57 0 -134 -35l-24 90q94 46 180 46q74 0 119 -38.5t45 -102.5q0 -52 -29.5 -97t-72.5 -76.5t-86.5 -59t-77 -57t-38.5 -56.5h245z" />
    <glyph glyph-name="three.smcp" horiz-adv-x="439" 
d="M-16 18l32 94q73 -25 121 -25q52 0 89 29.5t37 74.5q0 59 -80 59h-72v90l166 133h-207v97h345l-9 -97l-166 -133q66 -4 103.5 -42.5t37.5 -94.5q0 -97 -71.5 -156.5t-168.5 -59.5q-71 0 -157 31z" />
    <glyph glyph-name="four.smcp" horiz-adv-x="496" 
d="M337 1l-109 -9l22 121h-215v91l177 366h108l-169 -355h116l30 170l110 19l-33 -189h79l-17 -102h-80z" />
    <glyph glyph-name="five.smcp" horiz-adv-x="453" 
d="M-10 15l33 98q78 -26 139 -26q50 0 86 30t36 86q0 67 -99 67h-124l63 300h325l-33 -95h-206l-26 -110h28q88 0 139 -37t51 -108q0 -111 -75.5 -172t-169.5 -61q-80 0 -167 28z" />
    <glyph glyph-name="six.smcp" horiz-adv-x="500" 
d="M456 558l-36 -96q-57 20 -114 20q-46 0 -76 -27t-39 -73l-5 -25q50 34 108 34q72 0 114 -40t42 -113q0 -114 -72 -182.5t-169 -68.5q-85 0 -134 54.5t-34 141.5l32 184q17 91 83 153.5t163 62.5q60 0 137 -25zM171 268l-15 -86q-7 -37 10.5 -66t57.5 -29q50 0 80 41.5
t30 99.5q0 74 -72 74q-49 0 -91 -34z" />
    <glyph glyph-name="seven.smcp" horiz-adv-x="453" 
d="M229 0h-119q52 297 220 470h-258l8 100h394l-17 -96q-98 -98 -148.5 -204t-79.5 -270z" />
    <glyph glyph-name="eight.smcp" horiz-adv-x="508" 
d="M364 300q82 -49 82 -116q0 -90 -73 -143.5t-165 -53.5q-76 0 -127.5 37t-51.5 104q0 99 126 162q-61 44 -61 106q0 73 61.5 130t157.5 57q67 0 116 -37t49 -97q0 -92 -114 -149zM276 345q84 40 84 90q0 22 -18 35t-47 13q-34 0 -58.5 -18.5t-24.5 -47.5q0 -22 16 -38.5
t48 -33.5zM239 243q-92 -42 -92 -99q0 -26 21.5 -41.5t57.5 -15.5q43 0 72.5 21.5t29.5 54.5q0 24 -22 41t-67 39z" />
    <glyph glyph-name="nine.smcp" horiz-adv-x="490" 
d="M314 191l4 25q-55 -37 -108 -37q-72 0 -114.5 40.5t-42.5 113.5q0 113 73.5 181.5t170.5 68.5q86 0 133.5 -55.5t32.5 -140.5l-32 -184q-17 -94 -79.5 -155t-161.5 -61q-61 0 -138 25l36 98q60 -22 113 -22q41 0 73.5 29t39.5 74zM332 301l16 87q7 36 -10 65.5t-58 29.5
q-50 0 -79.5 -41.5t-29.5 -98.5q0 -75 71 -75q47 0 90 33z" />
    <glyph glyph-name="dollar.smcp" horiz-adv-x="433" 
d="M197 -104h-81l16 95q-66 4 -139 32l31 99q84 -33 156 -33q38 0 65 22.5t27 56.5q0 21 -21.5 37.5t-52 30.5t-61 31t-52 48t-21.5 73q0 64 47 114t128 59l17 96h81l-18 -96q50 -7 107 -32l-32 -94q-63 28 -121 28q-90 0 -90 -66q0 -22 21.5 -40t51.5 -32t60.5 -30.5
t52 -44t21.5 -63.5q0 -74 -47.5 -127.5t-128.5 -66.5z" />
    <glyph glyph-name="cent.smcp" horiz-adv-x="423" 
d="M223 -104h-81l16 97q-66 12 -99 59t-18 130l13 76q30 172 185 190l17 96h81l-18 -97q33 -4 82 -17l-33 -93q-54 17 -102 17q-43 0 -67 -22t-33 -74l-13 -76q-9 -53 7.5 -74.5t59.5 -21.5q45 0 107 17l8 -93q-49 -14 -96 -19z" />
    <glyph glyph-name="sterling.smcp" horiz-adv-x="427" 
d="M357 0h-340l14 81q70 77 79 142h-56l12 67h45q-5 60 -5 77q0 102 56.5 159t143.5 57q66 0 135 -33l-30 -91q-51 23 -98 23q-92 0 -92 -119q0 -14 2 -39.5t2 -33.5h137l-11 -67h-128q-10 -75 -73 -133h222z" />
    <glyph glyph-name="Euro.smcp" horiz-adv-x="466" 
d="M402 102l4 -97q-74 -18 -138 -18q-92 0 -143.5 55t-37.5 150h-57l10 59h58l12 68h-58l10 59h59q19 95 85 150t157 55q65 0 131 -18l-27 -97q-60 15 -111 15q-45 0 -77.5 -28t-42.5 -77h159l-22 -59h-149l-11 -68h134l-22 -59h-123q-7 -49 15.5 -77.5t68.5 -28.5
q45 0 116 16z" />
    <glyph glyph-name="yen.smcp" horiz-adv-x="475" 
d="M370 82h-104l-14 -82h-115l14 82h-104l12 66h103l10 56h-103l11 67h77l-91 299h116l67 -251l158 251h115l-198 -299h79l-11 -67h-105l-10 -56h105z" />
    <glyph glyph-name="numbersign.smcp" horiz-adv-x="513" 
d="M326 0h-98l42 154h-89l-42 -154h-99l43 154h-60l17 99h71l26 92h-60l17 99h70l43 153h97l-42 -153h89l43 153h97l-42 -153h60l-18 -99h-70l-26 -92h59l-17 -99h-69zM297 253l27 92h-90l-26 -92h89z" />
    <glyph glyph-name="grave.smcp" horiz-adv-x="391" 
d="M336 629l-194 79l42 77l189 -91z" />
    <glyph glyph-name="acute.smcp" horiz-adv-x="387" 
d="M393 702l-218 -73l-17 72l217 85z" />
    <glyph glyph-name="dieresis.smcp" horiz-adv-x="444" 
d="M457 712q0 -24 -17.5 -40.5t-41.5 -16.5t-41 16.5t-17 40.5q0 25 17 42.5t41 17.5t41.5 -17.5t17.5 -42.5zM269 712q0 -24 -17 -40.5t-42 -16.5q-24 0 -41 16.5t-17 40.5q0 25 17.5 42.5t40.5 17.5q25 0 42 -17.5t17 -42.5z" />
    <glyph glyph-name="circumflex.smcp" horiz-adv-x="464" 
d="M397 633l-84 63l-108 -63l-34 71l156 83l125 -83z" />
    <glyph glyph-name="tilde.smcp" horiz-adv-x="445" 
d="M417 759l36 -53q-14 -24 -41 -42.5t-61 -18.5q-26 0 -56 23t-46 23q-28 0 -51 -29l-36 52q14 24 41 43t61 19q26 0 56 -23t46 -23q26 0 51 29z" />
    <glyph glyph-name="macron.smcp" horiz-adv-x="413" 
d="M413 671h-248l14 81h249z" />
    <glyph glyph-name="breve.smcp" horiz-adv-x="406" 
d="M351 778h78q-13 -60 -52.5 -97.5t-98.5 -37.5q-52 0 -81.5 39t-19.5 96h77q-4 -26 7 -43t31 -17t37.5 17.5t21.5 42.5z" />
    <glyph glyph-name="dotaccent.smcp" horiz-adv-x="266" 
d="M275 711q0 -24 -17.5 -41t-41.5 -17q-23 0 -40.5 17t-17.5 41q0 25 17.5 42.5t40.5 17.5q25 0 42 -17.5t17 -42.5z" />
    <glyph glyph-name="ring.smcp" horiz-adv-x="342" 
d="M254 629q-40 0 -69 28.5t-29 68.5q0 39 29 67.5t69 28.5q39 0 67.5 -28.5t28.5 -67.5q0 -40 -28.5 -68.5t-67.5 -28.5zM254 694q13 0 22.5 9.5t9.5 22.5q0 14 -9 23t-23 9t-23 -9t-9 -23q0 -13 9.5 -22.5t22.5 -9.5z" />
    <glyph glyph-name="cedilla.smcp" horiz-adv-x="338" 
d="M78 -83l16 83h91l-17 -94q-11 -60 -50 -88.5t-88 -28.5q-37 0 -72 11l20 83q29 -8 53 -8q41 0 47 42z" />
    <glyph glyph-name="hungarumlaut.smcp" horiz-adv-x="586" 
d="M613 722l-184 -98l-29 69l180 108zM390 722l-184 -99l-30 70l180 107z" />
    <glyph glyph-name="ogonek.smcp" horiz-adv-x="300" 
d="M163 -140v-73q-26 -11 -59 -11q-46 0 -70 20.5t-24 56.5q0 82 97 147h94q-101 -66 -101 -123q0 -23 28 -23q17 0 35 6z" />
    <glyph glyph-name="caron.smcp" horiz-adv-x="464" 
d="M457 716l-157 -83l-125 83l55 71l83 -63l109 63z" />
    <glyph glyph-name="commaaccent.smcp" horiz-adv-x="224" 
d="M38 -224h-76l56 161h102z" />
    <glyph glyph-name="aacute.smcp" horiz-adv-x="537" 
d="M455 702l-219 -73l-17 72l218 85zM259 570h133l75 -570h-114l-16 140h-170l-64 -140h-119zM266 354l-57 -119h118l-14 119q-3 27 -5 108q-28 -77 -42 -108z" />
    <glyph glyph-name="agrave.smcp" horiz-adv-x="537" 
d="M428 629l-194 79l42 77l189 -91zM259 570h133l75 -570h-114l-16 140h-170l-64 -140h-119zM266 354l-57 -119h118l-14 119q-3 27 -5 108q-28 -77 -42 -108z" />
    <glyph glyph-name="acircumflex.smcp" horiz-adv-x="537" 
d="M433 633l-83 63l-109 -63l-34 71l156 83l126 -83zM259 570h133l75 -570h-114l-16 140h-170l-64 -140h-119zM266 354l-57 -119h118l-14 119q-3 27 -5 108q-28 -77 -42 -108z" />
    <glyph glyph-name="adieresis.smcp" horiz-adv-x="537" 
d="M501 712q0 -24 -17.5 -40.5t-41.5 -16.5t-41 16.5t-17 40.5q0 25 17 42.5t41 17.5t41.5 -17.5t17.5 -42.5zM313 712q0 -24 -17 -40.5t-42 -16.5q-24 0 -41 16.5t-17 40.5q0 25 17.5 42.5t40.5 17.5q25 0 42 -17.5t17 -42.5zM259 570h133l75 -570h-114l-16 140h-170
l-64 -140h-119zM266 354l-57 -119h118l-14 119q-3 27 -5 108q-28 -77 -42 -108z" />
    <glyph glyph-name="atilde.smcp" horiz-adv-x="537" 
d="M458 759l36 -53q-14 -24 -41 -42.5t-61 -18.5q-26 0 -56 23t-46 23q-28 0 -51 -29l-36 52q14 24 41 43t61 19q26 0 56 -23t46 -23q26 0 51 29zM259 570h133l75 -570h-114l-16 140h-170l-64 -140h-119zM266 354l-57 -119h118l-14 119q-3 27 -5 108q-28 -77 -42 -108z" />
    <glyph glyph-name="aring.smcp" horiz-adv-x="537" 
d="M344 629q-40 0 -69 28.5t-29 68.5q0 39 29 67.5t69 28.5q39 0 67 -28.5t28 -67.5q0 -40 -28 -68.5t-67 -28.5zM344 694q13 0 22 9.5t9 22.5t-9 22.5t-22 9.5q-14 0 -23.5 -9.5t-9.5 -22.5t10 -22.5t23 -9.5zM259 570h133l75 -570h-114l-16 140h-170l-64 -140h-119z
M266 354l-57 -119h118l-14 119q-3 27 -5 108q-28 -77 -42 -108z" />
    <glyph glyph-name="amacron.smcp" horiz-adv-x="537" 
d="M465 671h-249l14 81h249zM259 570h133l75 -570h-114l-16 140h-170l-64 -140h-119zM266 354l-57 -119h118l-14 119q-3 27 -5 108q-28 -77 -42 -108z" />
    <glyph glyph-name="abreve.smcp" horiz-adv-x="537" 
d="M412 778h77q-12 -60 -51.5 -97.5t-98.5 -37.5q-53 0 -82 39t-19 96h77q-4 -25 6.5 -42.5t30.5 -17.5q21 0 38.5 17.5t21.5 42.5zM259 570h133l75 -570h-114l-16 140h-170l-64 -140h-119zM266 354l-57 -119h118l-14 119q-3 27 -5 108q-28 -77 -42 -108z" />
    <glyph glyph-name="aogonek.smcp" horiz-adv-x="537" 
d="M259 570h133l75 -570q-100 -67 -100 -123q0 -23 27 -23q18 0 35 6v-73q-25 -11 -59 -11q-46 0 -70 20.5t-24 56.5q0 82 97 147h-20l-16 140h-170l-64 -140h-119zM266 354l-57 -119h118l-14 119q-3 27 -5 108q-28 -77 -42 -108z" />
    <glyph glyph-name="ae.smcp" horiz-adv-x="768" 
d="M370 0l13 140h-177l-103 -140h-132l433 570h352l-11 -101h-221l-10 -134h198l-29 -96h-179l-15 -138h224l-10 -101h-333zM409 415l-133 -180h116z" />
    <glyph glyph-name="cacute.smcp" horiz-adv-x="493" 
d="M452 702l-219 -73l-17 72l218 85zM407 111l6 -98q-94 -26 -170 -26q-105 0 -158.5 60t-33.5 175l22 126q21 116 90.5 175.5t177.5 59.5q80 0 161 -27l-34 -95q-64 21 -137 21q-119 0 -144 -144l-19 -106q-25 -144 92 -144q66 0 147 23z" />
    <glyph glyph-name="ccircumflex.smcp" horiz-adv-x="493" 
d="M431 633l-84 63l-108 -63l-34 71l156 83l125 -83zM407 111l6 -98q-94 -26 -170 -26q-105 0 -158.5 60t-33.5 175l22 126q21 116 90.5 175.5t177.5 59.5q80 0 161 -27l-34 -95q-64 21 -137 21q-119 0 -144 -144l-19 -106q-25 -144 92 -144q66 0 147 23z" />
    <glyph glyph-name="ccaron.smcp" horiz-adv-x="493" 
d="M489 716l-157 -83l-124 83l55 71l83 -63l109 63zM407 111l6 -98q-94 -26 -170 -26q-105 0 -158.5 60t-33.5 175l22 126q21 116 90.5 175.5t177.5 59.5q80 0 161 -27l-34 -95q-64 21 -137 21q-119 0 -144 -144l-19 -106q-25 -144 92 -144q66 0 147 23z" />
    <glyph glyph-name="ccedilla.smcp" horiz-adv-x="493" 
d="M187 -83l14 73q-85 12 -126 71t-24 161l22 126q21 116 90.5 175.5t177.5 59.5q80 0 161 -27l-34 -95q-64 21 -137 21q-119 0 -144 -144l-19 -106q-25 -144 92 -144q66 0 147 23l6 -98q-77 -20 -121 -24l-15 -83q-11 -60 -50 -88.5t-88 -28.5q-37 0 -72 11l20 83
q29 -8 53 -8q41 0 47 42z" />
    <glyph glyph-name="dcaron.smcp" horiz-adv-x="555" 
d="M479 716l-157 -83l-125 83l55 71l84 -63l108 63zM243 0h-216l94 534q141 49 224 49q91 0 142 -58t34 -159l-27 -156q-18 -102 -83.5 -156t-167.5 -54zM380 218l24 139q11 62 -10 93.5t-67 31.5q-49 0 -103 -17l-64 -364h99q53 0 81 26.5t40 90.5z" />
    <glyph glyph-name="dcroat.smcp" horiz-adv-x="554" 
d="M242 0h-216l44 245h-55l14 76h54l37 213q141 49 224 49q91 0 142 -58t34 -159l-27 -156q-18 -102 -83.5 -156t-167.5 -54zM379 218l24 139q11 62 -10 93.5t-67 31.5q-49 0 -103 -17l-25 -144h101l-14 -76h-100l-26 -144h99q53 0 81 26.5t40 90.5z" />
    <glyph glyph-name="eth.smcp" horiz-adv-x="554" 
d="M242 0h-216l44 245h-55l14 76h54l37 213q141 49 224 49q91 0 142 -58t34 -159l-27 -156q-18 -102 -83.5 -156t-167.5 -54zM379 218l24 139q11 62 -10 93.5t-67 31.5q-49 0 -103 -17l-25 -144h101l-14 -76h-100l-26 -144h99q53 0 81 26.5t40 90.5z" />
    <glyph glyph-name="eacute.smcp" horiz-adv-x="470" 
d="M430 702l-219 -73l-17 72l218 85zM373 0h-346l101 570h338l-18 -101h-223l-24 -134h187l-21 -96h-182l-25 -138h229z" />
    <glyph glyph-name="egrave.smcp" horiz-adv-x="470" 
d="M404 629l-194 79l42 77l189 -91zM373 0h-346l101 570h338l-18 -101h-223l-24 -134h187l-21 -96h-182l-25 -138h229z" />
    </font>
</defs>
</svg>
