<?xml version="1.0" standalone="no"?>
<!DOCTYPE svg PUBLIC "-//W3C//DTD SVG 1.1//EN" "http://www.w3.org/Graphics/SVG/1.1/DTD/svg11.dtd" >
<svg xmlns="http://www.w3.org/2000/svg" xmlns:xlink="http://www.w3.org/1999/xlink" version="1.1">
<metadata>
Created by FontForge 20150824 at Thu Nov 10 00:46:56 2016
 By Everything Fonts
Copyright (c) 2009 by DA. All rights reserved.
</metadata>
<defs>
<font id="RussiaBoldItalic" horiz-adv-x="572" >
  <font-face 
    font-family="RussiaBoldItalic"
    font-weight="700"
    font-style="italic"
    font-stretch="normal"
    units-per-em="1000"
    panose-1="2 11 8 3 0 0 0 9 0 4"
    ascent="760"
    descent="-240"
    x-height="523"
    cap-height="676"
    bbox="-85 -236 1205.41 916"
    underline-thickness="20"
    underline-position="-153"
    slope="-10"
    unicode-range="U+0020-FB04"
  />
<missing-glyph horiz-adv-x="500" 
d="M17 0v764h418v-764h-418zM83 63h286v638h-286v-638z" />
    <glyph glyph-name="f_f" unicode="ff" horiz-adv-x="679" 
d="M480 -211h-140l113 639h-200l-113 -639h-140l113 639h-68l17 95h67l10 57q13 78 72.5 121.5t130.5 43.5q45 0 94 -18l-37 -116q-30 11 -63 11q-49 0 -58 -52l-9 -47h200l10 57q13 78 72.5 121.5t130.5 43.5q45 0 94 -18l-37 -116q-30 11 -63 11q-49 0 -58 -52l-9 -47h116
l-38 -95h-94z" />
    <glyph glyph-name="fi" unicode="fi" horiz-adv-x="608" 
d="M140 -211h-140l113 639h-68l17 95h67l10 57q13 78 72.5 121.5t130.5 43.5q45 0 94 -18l-37 -116q-30 11 -63 11q-49 0 -58 -52l-9 -47h116l-38 -95h-94zM625 660q0 -32 -23.5 -55.5t-56.5 -23.5t-57.5 23t-24.5 56t24.5 55.5t57.5 22.5t56.5 -22.5t23.5 -55.5zM499 0
h-140l92 523h140z" />
    <glyph glyph-name="fl" unicode="fl" horiz-adv-x="611" 
d="M499 0h-140l127 725l144 20zM140 -211h-140l113 639h-68l17 95h67l10 57q13 78 72.5 121.5t130.5 43.5q45 0 94 -18l-37 -116q-30 11 -63 11q-49 0 -58 -52l-9 -47h116l-38 -95h-94z" />
    <glyph glyph-name="f_f_i" unicode="ffi" horiz-adv-x="948" 
d="M480 -211h-140l113 639h-200l-113 -639h-140l113 639h-68l17 95h67l10 57q13 78 72.5 121.5t130.5 43.5q45 0 94 -18l-37 -116q-30 11 -63 11q-49 0 -58 -52l-9 -47h200l10 57q13 78 72.5 121.5t130.5 43.5q45 0 94 -18l-37 -116q-30 11 -63 11q-49 0 -58 -52l-9 -47h116
l-38 -95h-94zM965 660q0 -32 -23.5 -55.5t-56.5 -23.5t-57.5 23t-24.5 56t24.5 55.5t57.5 22.5t56.5 -22.5t23.5 -55.5zM839 0h-140l92 523h140z" />
    <glyph glyph-name="f_f_l" unicode="ffl" horiz-adv-x="951" 
d="M839 0h-140l127 725l144 20zM480 -211h-140l113 639h-200l-113 -639h-140l113 639h-68l17 95h67l10 57q13 78 72.5 121.5t130.5 43.5q45 0 94 -18l-37 -116q-30 11 -63 11q-49 0 -58 -52l-9 -47h200l10 57q13 78 72.5 121.5t130.5 43.5q45 0 94 -18l-37 -116
q-30 11 -63 11q-49 0 -58 -52l-9 -47h116l-38 -95h-94z" />
    <glyph glyph-name="f_t" unicode="ft" horiz-adv-x="674" 
d="M527 0h-140l75 428h-209l-113 -639h-140l113 639h-68l17 95h67l10 57q13 78 72.5 121.5t130.5 43.5q45 0 94 -18l-37 -116q-30 11 -63 11q-49 0 -58 -52l-9 -47h210l25 141l143 19l-28 -160h83l-17 -95h-83z" />
    <glyph glyph-name="t_t" unicode="tt" horiz-adv-x="661" 
d="M514 0h-140l75 428h-188l-75 -428h-140l75 428h-66v95h83l25 141l143 19l-28 -160h188l25 141l143 19l-28 -160h83l-17 -95h-83z" />
    <glyph glyph-name="f_y" unicode="fy" horiz-adv-x="838" 
d="M390 188l8 240h-145l-113 -639h-140l113 639h-68l17 95h67l10 57q13 78 72.5 121.5t130.5 43.5q45 0 94 -18l-37 -116q-30 11 -63 11q-49 0 -58 -52l-9 -47h272l-12 -325q-3 -77 45 -77h23l120 402h140l-227 -734h-137l67 211h-12q-165 0 -158 188z" />
    <glyph glyph-name="t_y" unicode="ty" horiz-adv-x="833" 
d="M385 188l8 240h-133l-75 -428h-140l75 428h-66v95h83l25 141l143 19l-28 -160h259l-12 -325q-3 -77 45 -77h23l120 402h140l-227 -734h-137l67 211h-12q-165 0 -158 188z" />
    <glyph glyph-name=".notdef" horiz-adv-x="500" 
d="M17 0v764h418v-764h-418zM83 63h286v638h-286v-638z" />
    <glyph glyph-name=".null" horiz-adv-x="0" 
 />
    <glyph glyph-name="nonmarkingreturn" horiz-adv-x="333" 
 />
    <glyph glyph-name="space" unicode=" " horiz-adv-x="220" 
 />
    <glyph glyph-name="exclam" unicode="!" horiz-adv-x="256" 
d="M187 215h-130l73 451l147 20zM98 -8q-33 0 -58 24.5t-25 59.5t25 58.5t58 23.5q34 0 59 -23.5t25 -58.5q0 -34 -25 -59t-59 -25z" />
    <glyph glyph-name="quotedbl" unicode="&#x22;" horiz-adv-x="439" 
d="M400 474h-117l36 258h136zM210 474h-115l35 258h135z" />
    <glyph glyph-name="numbersign" unicode="#" horiz-adv-x="614" 
d="M397 0h-122l49 181h-92l-49 -181h-122l49 181h-69l22 123h82l28 102h-69l22 123h81l50 180h121l-49 -180h92l50 180h121l-50 -180h69l-22 -123h-81l-28 -102h68l-22 -123h-81zM358 304l28 102h-92l-28 -102h92z" />
    <glyph glyph-name="dollar" unicode="$" horiz-adv-x="486" 
d="M227 -124h-99l19 113q-74 5 -160 40l38 122q97 -39 182 -39q40 0 68 25t28 63q0 27 -24 46t-58.5 33t-69 31t-58.5 50t-24 80q0 93 56.5 154t146.5 72l20 114h99l-21 -116q50 -8 121 -37l-38 -117q-79 34 -140 34q-96 0 -96 -74q0 -25 24 -42.5t58.5 -30.5t69 -30
t58.5 -51.5t24 -83.5q0 -99 -58 -161t-146 -78z" />
    <glyph glyph-name="percent" unicode="%" horiz-adv-x="884" 
d="M409 524l-12 -66q-13 -74 -65.5 -119.5t-121.5 -45.5q-70 0 -106 45.5t-23 119.5l12 66q13 75 65 120t122 45q69 0 105.5 -45t23.5 -120zM295 0h-110l430 676h107zM297 460l11 62q6 37 -6 56t-38 19t-45 -19t-25 -56l-11 -62q-13 -73 44 -73t70 73zM827 218l-12 -66
q-13 -74 -65.5 -119.5t-121.5 -45.5q-70 0 -106 45.5t-23 119.5l12 66q13 75 65 120t122 45q69 0 105.5 -45t23.5 -120zM715 154l11 62q6 37 -6 56t-38 19t-45 -19t-25 -56l-11 -62q-13 -73 44 -73t70 73z" />
    <glyph glyph-name="ampersand" unicode="&#x26;" horiz-adv-x="556" 
d="M551 294h-46l-17 -99q-16 -91 -83.5 -149.5t-173.5 -58.5q-90 0 -142 47.5t-52 122.5q0 60 28 110t78 82q-44 39 -44 104q0 101 71 168.5t180 67.5q63 0 151 -36l-51 -114q-59 27 -108 27q-50 0 -75 -28.5t-25 -66.5q0 -28 15.5 -46t48.5 -18h52l-20 -113h-55
q-44 0 -73.5 -37.5t-29.5 -79.5q0 -30 19.5 -48.5t53.5 -18.5q41 0 68 24t34 61l37 212h179z" />
    <glyph glyph-name="quotesingle" unicode="'" horiz-adv-x="249" 
d="M234 475h-115l35 257h135z" />
    <glyph glyph-name="parenleft" unicode="(" horiz-adv-x="334" 
d="M263 -116l-21 -120q-128 0 -176.5 57t-29.5 168l104 593q39 225 286 225l-21 -120q-65 0 -93 -25t-38 -82l-104 -589q-10 -57 9 -82t84 -25z" />
    <glyph glyph-name="parenright" unicode=")" horiz-adv-x="334" 
d="M-57 -236l21 120q63 0 91.5 25t38.5 82l104 589q10 57 -9.5 82t-83.5 25l21 120q128 0 176.5 -57t29.5 -168l-104 -593q-39 -225 -285 -225z" />
    <glyph glyph-name="asterisk" unicode="*" horiz-adv-x="488" 
d="M404 391l-74 55l-12 -102h-114l23 102l-94 -55l-39 100l98 47l-81 47l74 100l74 -55l14 102h114l-24 -102l93 55l41 -100l-99 -47l82 -47z" />
    <glyph glyph-name="plus" unicode="+" horiz-adv-x="581" 
d="M517 218h-172v-172h-118v172h-173v118h173v172h118v-172h172v-118z" />
    <glyph glyph-name="comma" unicode="," horiz-adv-x="277" 
d="M72 -139l-92 17l95 273h129z" />
    <glyph glyph-name="hyphen" unicode="-" horiz-adv-x="504" 
d="M429 211h-351l21 118h351z" />
    <glyph glyph-name="period" unicode="." horiz-adv-x="274" 
d="M111 -11q-34 0 -58.5 25t-24.5 60t24.5 58.5t58.5 23.5t58.5 -23.5t24.5 -58.5t-24.5 -60t-58.5 -25z" />
    <glyph glyph-name="slash" unicode="/" horiz-adv-x="379" 
d="M113 -63h-122l323 795h123z" />
    <glyph glyph-name="zero" unicode="0" horiz-adv-x="586" 
d="M566 413l-26 -149q-24 -136 -105 -206.5t-187 -70.5t-163 70.5t-33 206.5l26 149q24 135 105 205.5t188 70.5t163 -70.5t32 -205.5zM399 264l26 149q27 155 -76 155q-104 0 -131 -155l-26 -149q-27 -156 77 -156q103 0 130 156z" />
    <glyph glyph-name="one" unicode="1" horiz-adv-x="396" 
d="M282 0h-141l95 548l-148 -23l21 122l293 42z" />
    <glyph glyph-name="two" unicode="2" horiz-adv-x="513" 
d="M424 0h-432l13 78q11 60 43 110.5t71.5 82t84 61.5t81 52.5t60.5 52t24 62.5q0 29 -19 49t-55 20q-65 0 -154 -42l-29 108q110 55 211 55q86 0 138 -45.5t52 -120.5q0 -61 -34 -114.5t-83 -91.5t-99 -70.5t-88 -65.5t-43 -64h278z" />
    <glyph glyph-name="three" unicode="3" horiz-adv-x="488" 
d="M-22 25l38 112q92 -29 141 -29q58 0 98.5 34t40.5 87q0 67 -86 67h-84v109l187 154h-234v117h402l-12 -117l-186 -154q66 -2 111.5 -46.5t45.5 -114.5q0 -115 -83.5 -186t-195.5 -71q-85 0 -183 38z" />
    <glyph glyph-name="four" unicode="4" horiz-adv-x="554" 
d="M389 1l-135 -10l25 142h-241v110l205 433h130l-194 -419h122l35 200l137 23l-39 -223h91l-22 -124h-91z" />
    <glyph glyph-name="five" unicode="5" horiz-adv-x="505" 
d="M-15 21l40 118q97 -31 161 -31q56 0 95.5 35t39.5 100q0 77 -111 77h-143l75 356h379l-40 -115h-236l-28 -126h26q102 0 162 -44t60 -127q0 -69 -27 -124t-70 -87t-91.5 -49t-96.5 -17q-93 0 -195 34z" />
    <glyph glyph-name="six" unicode="6" horiz-adv-x="558" 
d="M43 218l38 216q19 109 97 182t193 73q73 0 160 -30l-50 -117q-68 26 -130 26q-45 0 -80.5 -32.5t-45.5 -84.5l-5 -23q56 40 121 40q82 0 130 -47t48 -133q0 -137 -84.5 -219t-197.5 -82q-97 0 -154.5 64.5t-39.5 166.5zM201 320l-18 -103q-7 -42 12 -75.5t62 -33.5
q55 0 86.5 49.5t31.5 118.5q0 84 -74 84q-53 0 -100 -40z" />
    <glyph glyph-name="seven" unicode="7" horiz-adv-x="509" 
d="M269 0h-144q61 352 250 554h-291l10 122h457l-21 -116q-113 -114 -170 -239t-91 -321z" />
    <glyph glyph-name="eight" unicode="8" horiz-adv-x="568" 
d="M437 358q79 -54 79 -137q0 -54 -26.5 -100t-68 -74.5t-89.5 -44t-93 -15.5q-83 0 -145.5 44.5t-62.5 121.5q0 121 136 193q-61 47 -61 120q0 86 72.5 154.5t183.5 68.5q78 0 134.5 -43.5t56.5 -114.5q0 -107 -116 -173zM326 417q83 41 83 95q0 23 -19.5 39.5t-49.5 16.5
q-37 0 -63.5 -22.5t-26.5 -52.5q0 -23 19.5 -40.5t56.5 -35.5zM277 284q-50 -24 -76 -49.5t-26 -61.5q0 -27 24 -46t61 -19q44 0 78 26t34 61q0 28 -23.5 47t-71.5 42z" />
    <glyph glyph-name="nine" unicode="9" horiz-adv-x="553" 
d="M358 225l3 23q-56 -40 -117 -40q-83 0 -131.5 48t-48.5 134q0 69 24.5 127t65.5 95t91.5 57t103.5 20q100 0 155 -65.5t37 -165.5l-38 -216q-19 -110 -92.5 -182.5t-187.5 -72.5q-74 0 -161 30l44 119q69 -26 130 -26q45 0 80 31.5t42 83.5zM383 356l18 103q7 41 -11 75
t-62 34q-56 0 -88 -49t-32 -117q0 -86 76 -86q51 0 99 40z" />
    <glyph glyph-name="colon" unicode=":" horiz-adv-x="269" 
d="M169 298q-34 0 -58.5 25t-24.5 59q0 35 24.5 59t58.5 24t58.5 -24t24.5 -59q0 -34 -24.5 -59t-58.5 -25zM115 -11q-34 0 -58.5 25t-24.5 60t24.5 58.5t58.5 23.5t58.5 -23.5t24.5 -58.5t-24.5 -60t-58.5 -25z" />
    <glyph glyph-name="semicolon" unicode=";" horiz-adv-x="273" 
d="M161 298q-34 0 -59 25t-25 59q0 35 25 59t59 24t58.5 -24t24.5 -59q0 -34 -24.5 -59t-58.5 -25zM60 -163l-92 17l95 273h129z" />
    <glyph glyph-name="less" unicode="&#x3c;" horiz-adv-x="541" 
d="M394 -19l-357 300l357 300l76 -90l-249 -210l249 -210z" />
    <glyph glyph-name="equal" unicode="=" horiz-adv-x="571" 
d="M523 324h-463v119h463v-119zM523 116h-463v118h463v-118z" />
    <glyph glyph-name="greater" unicode="&#x3e;" horiz-adv-x="541" 
d="M522 281l-356 -300l-77 90l250 210l-250 210l77 90z" />
    <glyph glyph-name="question" unicode="?" horiz-adv-x="443" 
d="M286 216l-128 20l8 43q7 39 33.5 77t53 62t48.5 53t22 54q0 21 -14 33.5t-38 12.5q-49 0 -117 -44l-40 98q94 64 180 64q71 0 118 -38.5t47 -104.5q0 -36 -15.5 -69t-38 -58t-45.5 -47.5t-41 -46t-22 -44.5zM194 -11q-35 0 -59.5 24.5t-24.5 59.5t25 58.5t59 23.5
q33 0 58 -24t25 -58t-24.5 -59t-58.5 -25z" />
    <glyph glyph-name="at" unicode="@" horiz-adv-x="875" 
d="M644 -4l41 -86q-124 -86 -274 -86q-165 0 -264 105t-99 261q0 122 51 225t152 167.5t232 64.5q155 0 249 -102t94 -266q0 -44 -3 -68h-207l-7 -57q-8 -67 -63.5 -110.5t-130.5 -43.5q-71 0 -115.5 38.5t-44.5 100.5q0 74 53.5 113t139.5 39h56l2 13q4 25 -7.5 44
t-40.5 19q-56 0 -127 -22l-15 97q87 29 154 29q73 0 120 -47t38 -120l-2 -13h99q0 117 -71.5 188.5t-186.5 71.5q-140 0 -229 -100.5t-89 -251.5q0 -126 73 -202.5t196 -76.5q106 0 226 76zM487 154l7 57h-57q-27 0 -42 -16t-15 -44q0 -21 12 -34t35 -13q25 0 41 15.5
t19 34.5z" />
    <glyph glyph-name="A" unicode="A" horiz-adv-x="604" 
d="M-28 0l318 676h166l80 -676h-144l-16 163h-185l-72 -163h-147zM244 282h121l-12 128q-5 53 -5 119q-29 -77 -47 -119z" />
    <glyph glyph-name="B" unicode="B" horiz-adv-x="570" 
d="M246 0h-221l119 676h216q92 0 144.5 -42.5t52.5 -112.5q0 -117 -110 -166q85 -35 85 -117q0 -106 -78 -172t-208 -66zM241 406h61q49 0 77.5 25t28.5 63q0 57 -73 57h-69zM191 124h75q51 0 84.5 25.5t33.5 73.5q0 64 -81 64h-83z" />
    <glyph glyph-name="C" unicode="C" horiz-adv-x="550" 
d="M466 138l7 -120q-109 -31 -196 -31q-121 0 -183.5 71.5t-38.5 206.5l25 146q24 138 105 208t207 70q93 0 185 -31l-41 -120q-83 26 -157 26q-62 0 -101.5 -38.5t-54.5 -126.5l-22 -122q-29 -166 98 -166q71 0 167 27z" />
    <glyph glyph-name="D" unicode="D" horiz-adv-x="626" 
d="M276 0h-251l111 630q162 59 261 59q106 0 166 -68.5t39 -188.5l-32 -182q-21 -122 -98 -186t-196 -64zM428 260l28 160q13 72 -9.5 108t-71.5 36q-56 0 -110 -19l-74 -421h106q58 0 88 30.5t43 105.5z" />
    <glyph glyph-name="E" unicode="E" horiz-adv-x="522" 
d="M25 0l119 676h396l-23 -125h-251l-26 -150h211l-27 -120h-205l-28 -157h260l-21 -124h-405z" />
    <glyph glyph-name="F" unicode="F" horiz-adv-x="513" 
d="M25 0l119 676h395l-23 -125h-250l-26 -150h203l-27 -120h-197l-50 -281h-144z" />
    <glyph glyph-name="G" unicode="G" horiz-adv-x="599" 
d="M55 265l25 146q24 137 108.5 207.5t211.5 70.5q90 0 177 -31l-41 -120q-72 25 -157 25q-62 0 -101.5 -38t-54.5 -125l-22 -123q-16 -88 9.5 -126t88.5 -38q48 0 94 10l26 148h-68l18 103h202l-62 -350q-116 -37 -232 -37q-121 0 -183.5 71.5t-38.5 206.5z" />
    <glyph glyph-name="H" unicode="H" horiz-adv-x="629" 
d="M25 0l119 676h144l-48 -271h204l48 271h144l-119 -676h-144l50 283h-204l-50 -283h-144z" />
    <glyph glyph-name="I" unicode="I" horiz-adv-x="281" 
d="M25 0l119 676h144l-119 -676h-144z" />
    <glyph glyph-name="J" unicode="J" horiz-adv-x="460" 
d="M-25 23l40 117q79 -29 133 -29q84 0 106 122l78 443l143 -7l-78 -439q-20 -115 -83 -179t-169 -64q-79 0 -170 36z" />
    <glyph glyph-name="K" unicode="K" horiz-adv-x="598" 
d="M25 0l119 676h144l-44 -249l215 249h169l-270 -301l174 -375h-159l-115 263l-53 -59l-36 -204h-144z" />
    <glyph glyph-name="L" unicode="L" horiz-adv-x="503" 
d="M25 0l119 676h144l-97 -552h264l-27 -124h-403z" />
    <glyph glyph-name="M" unicode="M" horiz-adv-x="810" 
d="M-10 0l190 676h164l55 -327q2 -11 9 -87q19 50 38 87l172 327h164l-49 -676h-143l33 346q3 35 15 129q-35 -86 -57 -128l-123 -233h-153l-40 233q-11 64 -14 129q-15 -78 -28 -130l-90 -346h-143z" />
    <glyph glyph-name="N" unicode="N" horiz-adv-x="622" 
d="M25 0l119 676h117l158 -387q2 22 16 104l50 283h144l-119 -676h-118l-159 385q-9 -74 -15 -107l-49 -278h-144z" />
    <glyph glyph-name="O" unicode="O" horiz-adv-x="628" 
d="M268 -13q-114 0 -175.5 72.5t-37.5 206.5l25 143q23 136 107.5 208t203.5 72q113 0 174 -73t38 -207l-25 -143q-24 -136 -107.5 -207.5t-202.5 -71.5zM289 111q118 0 147 166l21 122q28 165 -88 165q-119 0 -147 -165l-21 -122q-28 -166 88 -166z" />
    <glyph glyph-name="P" unicode="P" horiz-adv-x="547" 
d="M25 0l119 676h236q85 0 134 -50t49 -126q0 -100 -75.5 -176.5t-183.5 -76.5h-91l-44 -247h-144zM234 369h86q39 0 67.5 32t28.5 80q0 32 -17 51t-46 19h-87z" />
    <glyph glyph-name="Q" unicode="Q" horiz-adv-x="627" 
d="M268 -13q-114 0 -175.5 72.5t-37.5 206.5l25 143q23 136 107.5 208t203.5 72q113 0 174 -73t38 -207l-25 -143q-32 -181 -166 -247l27 -144l-117 -62l-33 175q-7 -1 -21 -1zM289 111q118 0 147 166l21 122q28 165 -88 165q-119 0 -147 -165l-21 -122q-28 -166 88 -166z
" />
    <glyph glyph-name="R" unicode="R" horiz-adv-x="560" 
d="M25 0l119 676h236q85 0 134 -50t49 -126q0 -74 -42 -136t-112 -91l77 -273h-150l-64 252h-59l-44 -252h-144zM234 369h84q39 0 69 31.5t30 78.5q0 33 -18 52.5t-48 19.5h-85z" />
    <glyph glyph-name="S" unicode="S" horiz-adv-x="495" 
d="M-5 29l39 122q94 -40 178 -40q41 0 68.5 25.5t27.5 64.5q0 27 -23.5 47.5t-57 37t-67 36t-57 54.5t-23.5 82q0 103 73 167t179 64q74 0 180 -42l-48 -117q-87 34 -144 34q-43 0 -65.5 -21.5t-22.5 -52.5q0 -21 17 -39.5t42 -31.5t55 -31t55 -38t42 -53t17 -75
q0 -115 -76 -175t-183 -60q-99 0 -206 42z" />
    <glyph glyph-name="T" unicode="T" horiz-adv-x="515" 
d="M141 0l97 551h-160l22 125h464l-22 -125h-161l-96 -551h-144z" />
    <glyph glyph-name="U" unicode="U" horiz-adv-x="626" 
d="M60 226l79 450h144l-77 -438q-10 -59 12 -93t70 -34t83.5 34t45.5 93l77 438h144l-79 -450q-18 -104 -103 -171.5t-189 -67.5q-105 0 -165.5 67t-41.5 172z" />
    <glyph glyph-name="V" unicode="V" horiz-adv-x="604" 
d="M171 0l-80 676h145l37 -410q4 -43 4 -120q36 96 47 120l184 410h147l-318 -676h-166z" />
    <glyph glyph-name="W" unicode="W" horiz-adv-x="833" 
d="M95 0l11 676h147l-20 -343q-1 -27 -15 -150q31 87 60 149l112 235h154l32 -235q8 -62 8 -146q32 130 37 147l102 343h147l-227 -676h-160l-35 318q-7 64 -6 102q-22 -69 -37 -102l-150 -318h-160z" />
    <glyph glyph-name="X" unicode="X" horiz-adv-x="582" 
d="M-33 0l254 352l-115 324h155l64 -190l130 190h156l-222 -320l131 -356h-160l-75 221l-157 -221h-161z" />
    <glyph glyph-name="Y" unicode="Y" horiz-adv-x="567" 
d="M164 0l45 257l-123 419h149l66 -272l168 272h155l-271 -419l-45 -257h-144z" />
    <glyph glyph-name="Z" unicode="Z" horiz-adv-x="555" 
d="M-7 0l17 97l349 454h-263l22 125h446l-17 -97l-351 -454h294l-35 -125h-462z" />
    <glyph glyph-name="bracketleft" unicode="[" horiz-adv-x="294" 
d="M213 -235h-203l184 1042h203l-20 -113h-70l-144 -815h70z" />
    <glyph glyph-name="backslash" unicode="\" horiz-adv-x="380" 
d="M294 -63h-123l-42 795h122z" />
    <glyph glyph-name="bracketright" unicode="]" horiz-adv-x="294" 
d="M159 -235h-203l20 114h70l144 815h-71l20 113h204z" />
    <glyph glyph-name="asciicircum" unicode="^" horiz-adv-x="622" 
d="M602 418l-128 -54l-81 251l-170 -251l-108 54l237 314h124z" />
    <glyph glyph-name="underscore" unicode="_" horiz-adv-x="500" 
d="M465 -191h-500v118h500v-118z" />
    <glyph glyph-name="grave" unicode="`" horiz-adv-x="401" 
d="M342 574l-203 84l48 88l199 -96z" />
    <glyph glyph-name="a" unicode="a" horiz-adv-x="520" 
d="M185 -13q-74 0 -120.5 58t-28.5 162l19 110q18 104 84.5 161.5t167.5 57.5q86 0 140.5 -60t37.5 -159l-56 -317h-125l3 45q-45 -58 -122 -58zM228 108q49 0 90 58l26 146q9 50 -7.5 76.5t-50.5 26.5q-33 0 -58 -26.5t-34 -76.5l-17 -100q-18 -104 51 -104z" />
    <glyph glyph-name="b" unicode="b" horiz-adv-x="525" 
d="M35 206l92 520l144 19l-45 -253q46 44 109 44q74 0 120.5 -58t28.5 -162l-20 -110q-18 -104 -84 -161.5t-167 -57.5q-86 0 -140.5 60t-37.5 159zM234 108q33 0 57.5 26.5t33.5 76.5l18 100q18 104 -51 104q-22 0 -47.5 -17t-42.5 -41l-26 -146q-9 -50 7.5 -76.5
t50.5 -26.5z" />
    <glyph glyph-name="c" unicode="c" horiz-adv-x="456" 
d="M37 216l16 91q20 117 87 173t170 56q67 0 146 -25l-41 -116q-65 20 -116 20q-46 0 -71 -24t-35 -84l-16 -91q-10 -60 6.5 -84t62.5 -24q44 0 122 20l11 -116q-88 -25 -155 -25q-47 0 -84.5 13t-65.5 40.5t-37 71t0 104.5z" />
    <glyph glyph-name="d" unicode="d" horiz-adv-x="519" 
d="M212 -13q-90 0 -140.5 61.5t-33.5 165.5l17 97q40 225 244 225q40 0 82 -21l38 217h140l-91 -518q-18 -106 -88.5 -166.5t-167.5 -60.5zM231 108q34 0 61 28t36 78l32 182q-38 19 -73 19q-74 0 -92 -104l-17 -97q-9 -51 6 -78.5t47 -27.5z" />
    <glyph glyph-name="e" unicode="e" horiz-adv-x="499" 
d="M36 219l17 96q18 106 86 163.5t164 57.5q71 0 119.5 -43t48.5 -109q0 -43 -19.5 -74.5t-47 -49.5t-71 -29t-78 -15t-81.5 -6l-2 -14q-7 -40 11 -64t64 -24q56 0 149 29l6 -117q-93 -33 -177 -33q-105 0 -156 63t-33 169zM190 302q141 9 141 68q0 21 -13.5 33t-35.5 12
q-69 0 -89 -98z" />
    <glyph glyph-name="f" unicode="f" horiz-adv-x="339" 
d="M0 -211l113 639h-68l17 95h67l10 57q13 78 72.5 121.5t130.5 43.5q45 0 94 -18l-37 -116q-30 11 -63 11q-49 0 -58 -52l-9 -47h116l-38 -95h-94l-113 -639h-140z" />
    <glyph glyph-name="g" unicode="g" horiz-adv-x="526" 
d="M63 -78q67 -26 119 -26q95 0 116 127l4 25q-43 -48 -115 -48q-74 0 -120.5 58t-28.5 162l17 97q18 104 84.5 161.5t167.5 57.5q86 0 140.5 -60t37.5 -159l-56 -318q-18 -104 -83 -163.5t-177 -59.5q-65 0 -143 33zM230 121q50 0 90 56l24 135q9 50 -7.5 76.5t-50.5 26.5
q-33 0 -58 -26.5t-34 -76.5l-15 -87q-18 -104 51 -104z" />
    <glyph glyph-name="h" unicode="h" horiz-adv-x="543" 
d="M16 0l129 732h140l-42 -240q46 44 109 44q75 0 117.5 -54.5t22.5 -165.5l-55 -316h-140l54 311q10 56 0 80t-42 24q-45 0 -90 -58l-63 -357h-140z" />
    <glyph glyph-name="i" unicode="i" horiz-adv-x="264" 
d="M200 592q-33 0 -57 23t-24 56t24 55.5t57 22.5t57 -22.5t24 -55.5q0 -32 -24 -55.5t-57 -23.5zM15 0l92 523h140l-92 -523h-140z" />
    <glyph glyph-name="j" unicode="j" horiz-adv-x="263" 
d="M199 592q-33 0 -57 23t-24 56t24 55.5t57 22.5t57 -22.5t24 -55.5q0 -32 -24 -55.5t-57 -23.5zM-24 -219l131 742h140l-128 -722z" />
    <glyph glyph-name="k" unicode="k" horiz-adv-x="490" 
d="M16 0l129 732h140l-72 -404l50 16q27 9 46 54l53 125h136l-68 -158q-37 -85 -83 -110l85 -255h-147l-60 209l-35 -11l-34 -198h-140z" />
    <glyph glyph-name="l" unicode="l" horiz-adv-x="268" 
d="M16 0l127 725l144 20l-131 -745h-140z" />
    <glyph glyph-name="m" unicode="m" horiz-adv-x="777" 
d="M11 0l57 321q18 103 84.5 159t152.5 56q84 0 118 -67q61 67 142 67q86 0 132.5 -55.5t28.5 -159.5l-56 -321h-140l54 311q18 104 -41 104q-60 0 -81 -121l-51 -294h-140l51 294q21 121 -39 121q-59 0 -77 -104l-55 -311h-140z" />
    <glyph glyph-name="n" unicode="n" horiz-adv-x="538" 
d="M11 0l55 316q18 106 85.5 163t164.5 57q84 0 136 -59t34 -161l-56 -316h-140l55 311q18 104 -51 104q-70 0 -88 -104l-55 -311h-140z" />
    <glyph glyph-name="o" unicode="o" horiz-adv-x="529" 
d="M215 -13q-91 0 -144 62.5t-35 166.5l16 91q19 109 85 169t174 60q91 0 143 -62.5t34 -166.5l-16 -91q-19 -109 -84 -169t-173 -60zM236 108q42 0 64.5 29t32.5 84l14 81q20 113 -58 113q-80 0 -98 -113l-14 -81q-20 -113 59 -113z" />
    <glyph glyph-name="p" unicode="p" horiz-adv-x="523" 
d="M139 4l-38 -215h-140l92 520q19 108 85.5 167.5t169.5 59.5q90 0 140.5 -61.5t33.5 -165.5l-17 -97q-40 -225 -247 -225q-28 0 -79 17zM161 127q41 -19 72 -19q74 0 92 104l17 97q9 51 -6 78.5t-47 27.5q-34 0 -60.5 -28t-35.5 -78z" />
    <glyph glyph-name="q" unicode="q" horiz-adv-x="524" 
d="M185 -13q-74 0 -120.5 58t-28.5 162l19 110q18 104 84.5 161.5t167.5 57.5q86 0 140.5 -60t37.5 -159l-90 -509l-143 -19l43 242q-46 -44 -110 -44zM228 108q25 0 50 17.5t41 40.5l25 146q9 50 -7.5 76.5t-50.5 26.5q-33 0 -58 -26.5t-34 -76.5l-17 -100
q-18 -104 51 -104z" />
    <glyph glyph-name="r" unicode="r" horiz-adv-x="356" 
d="M11 0l59 334q16 93 76.5 147.5t153.5 54.5q49 0 93 -13l-34 -119q-36 11 -67 11q-32 0 -54 -22.5t-28 -58.5l-59 -334h-140z" />
    <glyph glyph-name="s" unicode="s" horiz-adv-x="402" 
d="M-18 19l38 114q64 -25 130 -25q29 0 49.5 13.5t20.5 33.5q0 17 -18 30t-43 24.5t-50.5 26t-43.5 42.5t-18 66q0 84 57 138t153 54q69 0 134 -25l-39 -117q-61 21 -107 21q-28 0 -41 -12t-13 -30q0 -20 27 -37.5t59 -31.5t59 -47.5t27 -80.5q0 -78 -56.5 -133.5
t-167.5 -55.5q-75 0 -157 32z" />
    <glyph glyph-name="t" unicode="t" horiz-adv-x="333" 
d="M46 0l75 428h-66v95h83l25 141l143 19l-28 -160h83l-17 -95h-83l-75 -428h-140z" />
    <glyph glyph-name="u" unicode="u" horiz-adv-x="537" 
d="M47 207l55 316h140l-54 -311q-18 -104 51 -104q70 0 88 104l55 311h140l-55 -316q-18 -105 -85.5 -162.5t-163.5 -57.5q-91 0 -140.5 58t-30.5 162z" />
    <glyph glyph-name="v" unicode="v" horiz-adv-x="492" 
d="M119 0l-66 523h144l18 -198q5 -61 9 -173q41 108 69 173l88 198h145l-251 -523h-156z" />
    <glyph glyph-name="w" unicode="w" horiz-adv-x="779" 
d="M47 180l36 343h139l-35 -333q-9 -80 47 -80q27 0 46 23t25 58l53 298h137l-53 -298q-6 -35 5 -58t39 -23q55 0 75 80l84 333h139l-88 -343q-23 -90 -85 -141.5t-146 -51.5t-116 69q-53 -69 -140 -69q-83 0 -127 52t-35 141z" />
    <glyph glyph-name="x" unicode="x" horiz-adv-x="492" 
d="M-37 0l202 268l-97 255h148l49 -134l96 134h150l-184 -249l109 -274h-153l-55 152l-111 -152h-154z" />
    <glyph glyph-name="y" unicode="y" horiz-adv-x="500" 
d="M52 188l12 335h139l-12 -325q-3 -77 45 -77h23l120 402h140l-227 -734h-137l67 211h-12q-165 0 -158 188z" />
    <glyph glyph-name="z" unicode="z" horiz-adv-x="479" 
d="M-4 0l17 97l262 309h-200l21 117h368l-17 -96l-254 -310h213l-30 -117h-380z" />
    <glyph glyph-name="braceleft" unicode="{" horiz-adv-x="418" 
d="M371 -112l-21 -120q-121 0 -175 50t-36 155l28 160q10 53 -9.5 77.5t-83.5 24.5l18 100q64 0 91.5 24.5t37.5 77.5l29 166q36 205 283 205l-21 -120q-66 0 -94 -19.5t-36 -67.5l-28 -164q-10 -55 -34 -90.5t-75 -61.5q73 -48 55 -152l-28 -158q-8 -48 12.5 -67.5
t86.5 -19.5z" />
    <glyph glyph-name="bar" unicode="|" horiz-adv-x="268" 
d="M226 -200h-136v932h136v-932z" />
    <glyph glyph-name="braceright" unicode="}" horiz-adv-x="418" 
d="M-42 -232l21 120q65 0 92.5 19.5t35.5 67.5l28 158q18 103 109 152q-42 26 -53.5 61.5t-1.5 90.5l28 164q8 49 -12 68t-86 19l21 120q121 0 175 -50t36 -155l-29 -166q-10 -53 9.5 -77.5t83.5 -24.5l-18 -100q-64 0 -91.5 -24.5t-37.5 -77.5l-28 -160q-36 -205 -282 -205
z" />
    <glyph glyph-name="asciitilde" unicode="~" horiz-adv-x="601" 
d="M463 365l69 -77q-91 -111 -169 -111q-34 0 -61 19.5t-47 39t-37 19.5q-36 0 -76 -53l-69 77q42 52 82.5 81.5t87.5 29.5q33 0 59.5 -19.5t47 -39t37.5 -19.5q32 0 76 53z" />
    <glyph glyph-name="uni00A0" unicode="&#xa0;" horiz-adv-x="220" 
 />
    <glyph glyph-name="exclamdown" unicode="&#xa1;" horiz-adv-x="256" 
d="M268 502q0 -35 -25 -58.5t-58 -23.5q-34 0 -59 23.5t-25 58.5q0 34 24.5 59t59.5 25q33 0 58 -24.5t25 -59.5zM153 -88l-147 -20l90 471h130z" />
    <glyph glyph-name="cent" unicode="&#xa2;" horiz-adv-x="465" 
d="M256 -124h-99l20 116q-75 14 -112 70t-21 154l15 91q34 203 213 226l21 114h99l-21 -115q39 -5 92 -21l-41 -116q-65 20 -116 20q-46 0 -71.5 -24t-35.5 -84l-15 -91q-10 -60 6.5 -84t62.5 -24q44 0 122 20l11 -116q-59 -17 -111 -23z" />
    <glyph glyph-name="sterling" unicode="&#xa3;" horiz-adv-x="491" 
d="M414 0h-398l17 100q76 79 90 163h-63l14 81h51q-5 70 -5 87q0 123 65.5 190.5t167.5 67.5q76 0 159 -40l-37 -110q-60 27 -114 27q-98 0 -98 -138q0 -14 5 -84h152l-14 -81h-142q-8 -45 -30.5 -86t-52.5 -65h252z" />
    <glyph glyph-name="currency" unicode="&#xa4;" horiz-adv-x="597" 
d="M452 42l-64 64q-38 -16 -76 -16q-44 0 -77 16l-64 -64l-99 97l65 65q-16 37 -16 76q0 41 16 76l-65 64l99 98l64 -64q37 16 77 16q38 0 75 -16l65 64l97 -98l-63 -63q16 -38 16 -77t-16 -77l63 -64zM382 280q0 29 -20.5 49.5t-49.5 20.5t-49.5 -20.5t-20.5 -49.5
t20.5 -49.5t49.5 -20.5t49.5 20.5t20.5 49.5z" />
    <glyph glyph-name="yen" unicode="&#xa5;" horiz-adv-x="556" 
d="M434 92h-116l-16 -92h-143l16 92h-116l14 80h116l12 69h-116l14 81h85l-102 354h145l70 -291l175 291h144l-228 -354h86l-14 -81h-116l-12 -69h116z" />
    <glyph glyph-name="brokenbar" unicode="&#xa6;" horiz-adv-x="268" 
d="M226 380h-136v352h136v-352zM226 -200h-136v350h136v-350z" />
    <glyph glyph-name="section" unicode="&#xa7;" horiz-adv-x="571" 
d="M20 -101l29 120q83 -33 149 -33q39 0 64 17.5t25 53.5q0 24 -20 41.5t-49 31.5t-58 31.5t-49 48.5t-20 74q0 97 75 159q-3 15 -3 33q0 96 61.5 154.5t157.5 58.5q80 0 173 -38l-35 -117q-68 30 -129 30q-75 0 -75 -56q0 -20 20 -37.5t49 -33.5t57.5 -35.5t48.5 -52
t20 -74.5q0 -96 -76 -160q3 -15 3 -32q0 -105 -72 -163.5t-167 -58.5q-73 0 -179 38zM250 343q-7 -10 -7 -27q0 -14 11 -28t23 -22t38.5 -23t38.5 -23q6 16 6 29t-5.5 24.5t-18.5 21t-24 15.5t-31 16.5t-31 16.5z" />
    <glyph glyph-name="dieresis" unicode="&#xa8;" horiz-adv-x="444" 
d="M469 665q0 -27 -19 -45.5t-46 -18.5q-26 0 -45 18.5t-19 45.5t19 46.5t45 19.5q27 0 46 -19.5t19 -46.5zM279 665q0 -27 -19 -45.5t-46 -18.5q-26 0 -45.5 18.5t-19.5 45.5t19.5 46.5t45.5 19.5q27 0 46 -19.5t19 -46.5z" />
    <glyph glyph-name="copyright" unicode="&#xa9;" horiz-adv-x="742" 
d="M381 -13q-145 0 -231.5 95.5t-86.5 239.5t86.5 239.5t231.5 95.5t231.5 -95.5t86.5 -239.5t-86.5 -239.5t-231.5 -95.5zM381 63q108 0 171 72.5t63 186.5t-63 186.5t-171 72.5t-171 -72.5t-63 -186.5t63 -186.5t171 -72.5zM466 227l18 -69q-57 -18 -106 -18
q-66 0 -108.5 40t-42.5 109v66q0 69 42.5 109t108.5 40q49 0 106 -18l-18 -69q-46 13 -88 13q-33 0 -48 -20t-15 -63v-50q0 -83 63 -83q42 0 88 13z" />
    <glyph glyph-name="ordfeminine" unicode="&#xaa;" horiz-adv-x="386" 
d="M359 298h-95v31q-29 -40 -82 -40q-52 0 -84.5 41t-19.5 114l13 77q13 73 60 114t120 41q61 0 100 -43t27 -112zM272 421l18 97q6 31 -4.5 48t-30.5 17t-35 -17t-20 -48l-12 -70q-11 -66 28 -66q32 0 56 39z" />
    <glyph glyph-name="guillemotleft" unicode="&#xab;" horiz-adv-x="543" 
d="M471 139l-91 -60l-111 202l183 202l78 -68l-130 -139zM268 139l-91 -60l-111 202l183 202l78 -68l-130 -139z" />
    <glyph glyph-name="logicalnot" unicode="&#xac;" horiz-adv-x="571" 
d="M523 50h-117v160h-346v118h463v-278z" />
    <glyph glyph-name="uni00AD" unicode="&#xad;" horiz-adv-x="504" 
d="M429 211h-351l21 118h351z" />
    <glyph glyph-name="registered" unicode="&#xae;" horiz-adv-x="742" 
d="M381 -13q-145 0 -231.5 95.5t-86.5 239.5t86.5 239.5t231.5 95.5t231.5 -95.5t86.5 -239.5t-86.5 -239.5t-231.5 -95.5zM381 63q108 0 171 72.5t63 186.5t-63 186.5t-171 72.5t-171 -72.5t-63 -186.5t63 -186.5t171 -72.5zM524 148h-95l-51 117h-30v-117h-88v350h130
q54 0 86.5 -33t32.5 -84q0 -72 -51 -100zM348 339h36q18 0 28.5 11.5t10.5 30.5t-10.5 31t-30.5 12h-34v-85z" />
    <glyph glyph-name="macron" unicode="&#xaf;" horiz-adv-x="406" 
d="M409 618h-249l16 90h249z" />
    <glyph glyph-name="degree" unicode="&#xb0;" horiz-adv-x="364" 
d="M252 485q-53 0 -90.5 37.5t-37.5 92.5q0 51 38 88.5t90 37.5t90 -38t38 -90q0 -53 -38 -90.5t-90 -37.5zM252 570q18 0 30.5 12.5t12.5 30.5t-12.5 30.5t-31.5 12.5q-17 0 -29.5 -12.5t-12.5 -30.5t12.5 -30.5t30.5 -12.5z" />
    <glyph glyph-name="plusminus" unicode="&#xb1;" horiz-adv-x="571" 
d="M510 210h-172v-157h-118v157h-173v118h173v157h118v-157h172v-118zM510 -93h-463v117h463v-117z" />
    <glyph glyph-name="acute" unicode="&#xb4;" horiz-adv-x="391" 
d="M412 651l-230 -77l-20 83l230 89z" />
    <glyph glyph-name="mu" unicode="&#xb5;" horiz-adv-x="526" 
d="M100 -211h-139l130 734h139l-55 -311q-9 -51 5 -77.5t47 -26.5q34 0 57 26.5t32 77.5l55 311h140l-56 -316q-19 -106 -86.5 -163t-162.5 -57q-34 0 -69 10z" />
    <glyph glyph-name="paragraph" unicode="&#xb6;" horiz-adv-x="630" 
d="M512 -119h-133l117 665h-63l-117 -665h-133l68 387h-16q-66 0 -108.5 48t-42.5 118q0 95 70 168.5t165 73.5h333z" />
    <glyph glyph-name="periodcentered" unicode="&#xb7;" horiz-adv-x="284" 
d="M234 281q0 -30 -21 -50t-51 -20q-29 0 -50 20t-21 50t21 51t50 21q30 0 51 -21t21 -51z" />
    <glyph glyph-name="cedilla" unicode="&#xb8;" horiz-adv-x="337" 
d="M71 -75l14 75h106l-16 -88q-11 -63 -50.5 -93t-90.5 -30q-44 0 -83 13l23 96q31 -9 58 -9q32 0 39 36z" />
    <glyph glyph-name="ordmasculine" unicode="&#xba;" horiz-adv-x="388" 
d="M397 514l-9 -63q-11 -76 -57.5 -119t-124.5 -43q-65 0 -103 45t-25 117l11 63q12 76 59 119t125 43q63 0 98.5 -45t25.5 -117zM281 454l9 57q5 35 -1 53.5t-33 18.5q-28 0 -41 -19t-19 -53l-10 -57q-13 -72 36 -72q48 0 59 72z" />
    <glyph glyph-name="guillemotright" unicode="&#xbb;" horiz-adv-x="542" 
d="M334 79l-78 68l130 139l-71 137l91 60l111 -202zM131 79l-78 68l130 139l-71 137l91 60l111 -202z" />
    <glyph glyph-name="questiondown" unicode="&#xbf;" horiz-adv-x="445" 
d="M386 500q0 -35 -25 -58.5t-59 -23.5q-33 0 -58 24t-25 58t24.5 59t58.5 25q35 0 59.5 -24.5t24.5 -59.5zM342 46l40 -98q-94 -64 -180 -64q-71 0 -118 38.5t-47 104.5q0 36 15.5 69t38 58t45.5 47.5t41 46t22 44.5l11 65l128 -20l-8 -43q-7 -39 -33.5 -77t-53 -62
t-48.5 -53t-22 -54q0 -21 14 -33.5t38 -12.5q49 0 117 44z" />
    <glyph glyph-name="Agrave" unicode="&#xc0;" horiz-adv-x="604" 
d="M472 712l-203 84l48 88l199 -96zM-28 0l318 676h166l80 -676h-144l-16 163h-185l-72 -163h-147zM244 282h121l-12 128q-5 53 -5 119q-29 -77 -47 -119z" />
    <glyph glyph-name="Aacute" unicode="&#xc1;" horiz-adv-x="604" 
d="M504 789l-230 -77l-20 83l230 89zM-28 0l318 676h166l80 -676h-144l-16 163h-185l-72 -163h-147zM244 282h121l-12 128q-5 53 -5 119q-29 -77 -47 -119z" />
    <glyph glyph-name="Acircumflex" unicode="&#xc2;" horiz-adv-x="604" 
d="M476 718l-83 61l-108 -61l-41 81l164 85l131 -85zM-28 0l318 676h166l80 -676h-144l-16 163h-185l-72 -163h-147zM244 282h121l-12 128q-5 53 -5 119q-29 -77 -47 -119z" />
    <glyph glyph-name="Atilde" unicode="&#xc3;" horiz-adv-x="604" 
d="M488 856l41 -62q-15 -27 -44 -46t-65 -19q-24 0 -53 22.5t-46 22.5q-29 0 -52 -29l-41 62q16 27 45 46t65 19q24 0 53 -22.5t46 -22.5q28 0 51 29zM-28 0l318 676h166l80 -676h-144l-16 163h-185l-72 -163h-147zM244 282h121l-12 128q-5 53 -5 119q-29 -77 -47 -119z" />
    <glyph glyph-name="Adieresis" unicode="&#xc4;" horiz-adv-x="604" 
d="M546 803q0 -27 -19 -45.5t-46 -18.5q-26 0 -45 18.5t-19 45.5t19 46.5t45 19.5q27 0 46 -19.5t19 -46.5zM356 803q0 -27 -19 -45.5t-46 -18.5q-26 0 -45.5 18.5t-19.5 45.5t19.5 46.5t45.5 19.5q27 0 46 -19.5t19 -46.5zM-28 0l318 676h166l80 -676h-144l-16 163h-185
l-72 -163h-147zM244 282h121l-12 128q-5 53 -5 119q-29 -77 -47 -119z" />
    <glyph glyph-name="Aring" unicode="&#xc5;" horiz-adv-x="604" 
d="M385 712q-43 0 -73 30.5t-30 72.5q0 41 30 71t73 30q41 0 71 -30t30 -71q0 -42 -30 -72.5t-71 -30.5zM385 784q13 0 21.5 9t8.5 22t-8.5 21.5t-21.5 8.5t-22 -8.5t-9 -21.5t9 -22t22 -9zM-28 0l318 676h166l80 -676h-144l-16 163h-185l-72 -163h-147zM244 282h121
l-12 128q-5 53 -5 119q-29 -77 -47 -119z" />
    <glyph glyph-name="AE" unicode="&#xc6;" horiz-adv-x="893" 
d="M429 0l16 163h-192l-116 -163h-165l499 675h415l-15 -125h-251l-13 -149h226l-33 -120h-205l-16 -156h255l-14 -125h-391zM476 475l-138 -193h119z" />
    <glyph glyph-name="Ccedilla" unicode="&#xc7;" horiz-adv-x="550" 
d="M208 -75l12 67q-95 16 -140.5 85.5t-24.5 187.5l25 146q24 138 105 208t207 70q93 0 185 -31l-41 -120q-83 26 -157 26q-62 0 -101.5 -38.5t-54.5 -126.5l-22 -122q-29 -166 98 -166q71 0 167 27l7 -120q-84 -25 -147 -29l-14 -77q-11 -63 -50.5 -93t-90.5 -30
q-44 0 -83 13l23 96q31 -9 58 -9q32 0 39 36z" />
    <glyph glyph-name="Egrave" unicode="&#xc8;" horiz-adv-x="522" 
d="M440 712l-203 84l48 88l199 -96zM25 0l119 676h396l-23 -125h-251l-26 -150h211l-27 -120h-205l-28 -157h260l-21 -124h-405z" />
    <glyph glyph-name="Eacute" unicode="&#xc9;" horiz-adv-x="522" 
d="M471 789l-230 -77l-20 83l230 89zM25 0l119 676h396l-23 -125h-251l-26 -150h211l-27 -120h-205l-28 -157h260l-21 -124h-405z" />
    <glyph glyph-name="Ecircumflex" unicode="&#xca;" horiz-adv-x="522" 
d="M431 718l-83 61l-108 -61l-41 81l164 85l131 -85zM25 0l119 676h396l-23 -125h-251l-26 -150h211l-27 -120h-205l-28 -157h260l-21 -124h-405z" />
    <glyph glyph-name="Edieresis" unicode="&#xcb;" horiz-adv-x="522" 
d="M515 803q0 -27 -19 -45.5t-46 -18.5q-26 0 -45 18.5t-19 45.5t19 46.5t45 19.5q27 0 46 -19.5t19 -46.5zM325 803q0 -27 -19 -45.5t-46 -18.5q-26 0 -45.5 18.5t-19.5 45.5t19.5 46.5t45.5 19.5q27 0 46 -19.5t19 -46.5zM25 0l119 676h396l-23 -125h-251l-26 -150h211
l-27 -120h-205l-28 -157h260l-21 -124h-405z" />
    <glyph glyph-name="Igrave" unicode="&#xcc;" horiz-adv-x="281" 
d="M319 712l-203 84l48 88l199 -96zM25 0l119 676h144l-119 -676h-144z" />
    <glyph glyph-name="Iacute" unicode="&#xcd;" horiz-adv-x="281" 
d="M346 789l-230 -77l-20 83l230 89zM25 0l119 676h144l-119 -676h-144z" />
    <glyph glyph-name="Icircumflex" unicode="&#xce;" horiz-adv-x="281" 
d="M316 718l-83 61l-108 -61l-41 81l164 85l131 -85zM25 0l119 676h144l-119 -676h-144z" />
    <glyph glyph-name="Idieresis" unicode="&#xcf;" horiz-adv-x="281" 
d="M390 803q0 -27 -19 -45.5t-46 -18.5q-26 0 -45 18.5t-19 45.5t19 46.5t45 19.5q27 0 46 -19.5t19 -46.5zM200 803q0 -27 -19 -45.5t-46 -18.5q-26 0 -45.5 18.5t-19.5 45.5t19.5 46.5t45.5 19.5q27 0 46 -19.5t19 -46.5zM25 0l119 676h144l-119 -676h-144z" />
    <glyph glyph-name="Eth" unicode="&#xd0;" horiz-adv-x="626" 
d="M276 0h-251l51 289h-63l17 95h62l44 246q162 59 261 59q106 0 166 -68.5t39 -188.5l-32 -182q-21 -122 -98 -186t-196 -64zM428 260l28 160q13 72 -9.5 108t-71.5 36q-56 0 -110 -19l-29 -161h109l-17 -95h-108l-29 -165h106q58 0 88 30.5t43 105.5z" />
    <glyph glyph-name="Ntilde" unicode="&#xd1;" horiz-adv-x="622" 
d="M494 856l41 -62q-15 -27 -44 -46t-65 -19q-24 0 -53 22.5t-46 22.5q-29 0 -52 -29l-41 62q16 27 45 46t65 19q24 0 53 -22.5t46 -22.5q28 0 51 29zM25 0l119 676h117l158 -387q2 22 16 104l50 283h144l-119 -676h-118l-159 385q-9 -74 -15 -107l-49 -278h-144z" />
    <glyph glyph-name="Ograve" unicode="&#xd2;" horiz-adv-x="628" 
d="M498 712l-203 84l48 88l199 -96zM268 -13q-114 0 -175.5 72.5t-37.5 206.5l25 143q23 136 107.5 208t203.5 72q113 0 174 -73t38 -207l-25 -143q-24 -136 -107.5 -207.5t-202.5 -71.5zM289 111q118 0 147 166l21 122q28 165 -88 165q-119 0 -147 -165l-21 -122
q-28 -166 88 -166z" />
    <glyph glyph-name="Oacute" unicode="&#xd3;" horiz-adv-x="628" 
d="M512 789l-230 -77l-20 83l230 89zM268 -13q-114 0 -175.5 72.5t-37.5 206.5l25 143q23 136 107.5 208t203.5 72q113 0 174 -73t38 -207l-25 -143q-24 -136 -107.5 -207.5t-202.5 -71.5zM289 111q118 0 147 166l21 122q28 165 -88 165q-119 0 -147 -165l-21 -122
q-28 -166 88 -166z" />
    <glyph glyph-name="Ocircumflex" unicode="&#xd4;" horiz-adv-x="628" 
d="M498 718l-83 61l-108 -61l-41 81l164 85l131 -85zM268 -13q-114 0 -175.5 72.5t-37.5 206.5l25 143q23 136 107.5 208t203.5 72q113 0 174 -73t38 -207l-25 -143q-24 -136 -107.5 -207.5t-202.5 -71.5zM289 111q118 0 147 166l21 122q28 165 -88 165q-119 0 -147 -165
l-21 -122q-28 -166 88 -166z" />
    <glyph glyph-name="Otilde" unicode="&#xd5;" horiz-adv-x="628" 
d="M523 856l41 -62q-15 -27 -44 -46t-65 -19q-24 0 -53 22.5t-46 22.5q-29 0 -52 -29l-41 62q16 27 45 46t65 19q24 0 53 -22.5t46 -22.5q28 0 51 29zM268 -13q-114 0 -175.5 72.5t-37.5 206.5l25 143q23 136 107.5 208t203.5 72q113 0 174 -73t38 -207l-25 -143
q-24 -136 -107.5 -207.5t-202.5 -71.5zM289 111q118 0 147 166l21 122q28 165 -88 165q-119 0 -147 -165l-21 -122q-28 -166 88 -166z" />
    <glyph glyph-name="Odieresis" unicode="&#xd6;" horiz-adv-x="628" 
d="M566 803q0 -27 -19 -45.5t-46 -18.5q-26 0 -45 18.5t-19 45.5t19 46.5t45 19.5q27 0 46 -19.5t19 -46.5zM376 803q0 -27 -19 -45.5t-46 -18.5q-26 0 -45.5 18.5t-19.5 45.5t19.5 46.5t45.5 19.5q27 0 46 -19.5t19 -46.5zM268 -13q-114 0 -175.5 72.5t-37.5 206.5l25 143
q23 136 107.5 208t203.5 72q113 0 174 -73t38 -207l-25 -143q-24 -136 -107.5 -207.5t-202.5 -71.5zM289 111q118 0 147 166l21 122q28 165 -88 165q-119 0 -147 -165l-21 -122q-28 -166 88 -166z" />
    <glyph glyph-name="multiply" unicode="&#xd7;" horiz-adv-x="519" 
d="M392 65l-122 121l-122 -122l-84 85l122 122l-121 122l83 83l122 -122l122 121l82 -82l-121 -122l122 -122z" />
    <glyph glyph-name="Oslash" unicode="&#xd8;" horiz-adv-x="628" 
d="M603 409l-25 -143q-24 -136 -107.5 -207.5t-202.5 -71.5q-62 0 -109 21l-45 -66l-75 40l53 78q-60 76 -37 206l25 143q23 136 107.5 208t203.5 72q61 0 110 -23l46 68l75 -40l-55 -81q58 -75 36 -204zM195 213l228 337q-23 14 -54 14q-119 0 -147 -165l-21 -122
q-6 -38 -6 -64zM436 277l21 122q5 28 5 59l-226 -336q19 -11 53 -11q118 0 147 166z" />
    <glyph glyph-name="Ugrave" unicode="&#xd9;" horiz-adv-x="626" 
d="M486 712l-203 84l48 88l199 -96zM60 226l79 450h144l-77 -438q-10 -59 12 -93t70 -34t83.5 34t45.5 93l77 438h144l-79 -450q-18 -104 -103 -171.5t-189 -67.5q-105 0 -165.5 67t-41.5 172z" />
    <glyph glyph-name="Uacute" unicode="&#xda;" horiz-adv-x="626" 
d="M508 789l-230 -77l-20 83l230 89zM60 226l79 450h144l-77 -438q-10 -59 12 -93t70 -34t83.5 34t45.5 93l77 438h144l-79 -450q-18 -104 -103 -171.5t-189 -67.5q-105 0 -165.5 67t-41.5 172z" />
    <glyph glyph-name="Ucircumflex" unicode="&#xdb;" horiz-adv-x="626" 
d="M487 718l-83 61l-108 -61l-41 81l164 85l131 -85zM60 226l79 450h144l-77 -438q-10 -59 12 -93t70 -34t83.5 34t45.5 93l77 438h144l-79 -450q-18 -104 -103 -171.5t-189 -67.5q-105 0 -165.5 67t-41.5 172z" />
    <glyph glyph-name="Udieresis" unicode="&#xdc;" horiz-adv-x="626" 
d="M562 803q0 -27 -19 -45.5t-46 -18.5q-26 0 -45 18.5t-19 45.5t19 46.5t45 19.5q27 0 46 -19.5t19 -46.5zM372 803q0 -27 -19 -45.5t-46 -18.5q-26 0 -45.5 18.5t-19.5 45.5t19.5 46.5t45.5 19.5q27 0 46 -19.5t19 -46.5zM60 226l79 450h144l-77 -438q-10 -59 12 -93
t70 -34t83.5 34t45.5 93l77 438h144l-79 -450q-18 -104 -103 -171.5t-189 -67.5q-105 0 -165.5 67t-41.5 172z" />
    <glyph glyph-name="Yacute" unicode="&#xdd;" horiz-adv-x="567" 
d="M477 789l-230 -77l-20 83l230 89zM164 0l45 257l-123 419h149l66 -272l168 272h155l-271 -419l-45 -257h-144z" />
    <glyph glyph-name="Thorn" unicode="&#xde;" horiz-adv-x="547" 
d="M279 116h-90l-20 -116h-144l119 676h144l-23 -131h90q85 0 134 -50t49 -126q0 -100 -75.5 -176.5t-183.5 -76.5zM211 238h84q39 0 67.5 32t28.5 80q0 32 -17 51t-46 19h-85z" />
    <glyph glyph-name="germandbls" unicode="&#xdf;" horiz-adv-x="617" 
d="M141 -211h-141l113 639h-68l17 95h68l9 55q13 76 69.5 121t133.5 45q80 0 129 -34.5t49 -100.5q0 -47 -16.5 -86t-36 -60t-36 -46t-16.5 -47q0 -20 25.5 -37t56.5 -31t56.5 -47t25.5 -80q0 -78 -57 -133t-167 -55q-75 0 -152 32l38 112q59 -23 128 -23q30 0 51 15t21 35
q0 17 -16.5 29.5t-39.5 23t-46.5 24.5t-40 41t-16.5 64q0 41 16 79.5t35 62.5t35 51t16 48q0 40 -49 40q-28 0 -40.5 -12.5t-17.5 -39.5z" />
    <glyph glyph-name="agrave" unicode="&#xe0;" horiz-adv-x="520" 
d="M405 574l-203 84l48 88l199 -96zM185 -13q-74 0 -120.5 58t-28.5 162l19 110q18 104 84.5 161.5t167.5 57.5q86 0 140.5 -60t37.5 -159l-56 -317h-125l3 45q-45 -58 -122 -58zM228 108q49 0 90 58l26 146q9 50 -7.5 76.5t-50.5 26.5q-33 0 -58 -26.5t-34 -76.5l-17 -100
q-18 -104 51 -104z" />
    <glyph glyph-name="aacute" unicode="&#xe1;" horiz-adv-x="520" 
d="M440 651l-230 -77l-20 83l230 89zM185 -13q-74 0 -120.5 58t-28.5 162l19 110q18 104 84.5 161.5t167.5 57.5q86 0 140.5 -60t37.5 -159l-56 -317h-125l3 45q-45 -58 -122 -58zM228 108q49 0 90 58l26 146q9 50 -7.5 76.5t-50.5 26.5q-33 0 -58 -26.5t-34 -76.5l-17 -100
q-18 -104 51 -104z" />
    <glyph glyph-name="acircumflex" unicode="&#xe2;" horiz-adv-x="520" 
d="M406 580l-83 61l-108 -61l-41 81l164 85l131 -85zM185 -13q-74 0 -120.5 58t-28.5 162l19 110q18 104 84.5 161.5t167.5 57.5q86 0 140.5 -60t37.5 -159l-56 -317h-125l3 45q-45 -58 -122 -58zM228 108q49 0 90 58l26 146q9 50 -7.5 76.5t-50.5 26.5q-33 0 -58 -26.5
t-34 -76.5l-17 -100q-18 -104 51 -104z" />
    <glyph glyph-name="atilde" unicode="&#xe3;" horiz-adv-x="520" 
d="M429 718l41 -62q-15 -27 -44 -46t-65 -19q-24 0 -53 22.5t-46 22.5q-29 0 -52 -29l-41 62q16 27 45 46t65 19q24 0 53 -22.5t46 -22.5q28 0 51 29zM185 -13q-74 0 -120.5 58t-28.5 162l19 110q18 104 84.5 161.5t167.5 57.5q86 0 140.5 -60t37.5 -159l-56 -317h-125l3 45
q-45 -58 -122 -58zM228 108q49 0 90 58l26 146q9 50 -7.5 76.5t-50.5 26.5q-33 0 -58 -26.5t-34 -76.5l-17 -100q-18 -104 51 -104z" />
    <glyph glyph-name="adieresis" unicode="&#xe4;" horiz-adv-x="520" 
d="M485 665q0 -27 -19 -45.5t-46 -18.5q-26 0 -45 18.5t-19 45.5t19 46.5t45 19.5q27 0 46 -19.5t19 -46.5zM295 665q0 -27 -19 -45.5t-46 -18.5q-26 0 -45.5 18.5t-19.5 45.5t19.5 46.5t45.5 19.5q27 0 46 -19.5t19 -46.5zM185 -13q-74 0 -120.5 58t-28.5 162l19 110
q18 104 84.5 161.5t167.5 57.5q86 0 140.5 -60t37.5 -159l-56 -317h-125l3 45q-45 -58 -122 -58zM228 108q49 0 90 58l26 146q9 50 -7.5 76.5t-50.5 26.5q-33 0 -58 -26.5t-34 -76.5l-17 -100q-18 -104 51 -104z" />
    <glyph glyph-name="aring" unicode="&#xe5;" horiz-adv-x="520" 
d="M329 574q-43 0 -73 30.5t-30 72.5q0 41 30 71t73 30q41 0 71 -30t30 -71q0 -42 -30 -72.5t-71 -30.5zM329 646q13 0 21.5 9t8.5 22t-8.5 21.5t-21.5 8.5t-22 -8.5t-9 -21.5t9 -22t22 -9zM185 -13q-74 0 -120.5 58t-28.5 162l19 110q18 104 84.5 161.5t167.5 57.5
q86 0 140.5 -60t37.5 -159l-56 -317h-125l3 45q-45 -58 -122 -58zM228 108q49 0 90 58l26 146q9 50 -7.5 76.5t-50.5 26.5q-33 0 -58 -26.5t-34 -76.5l-17 -100q-18 -104 51 -104z" />
    <glyph glyph-name="ae" unicode="&#xe6;" horiz-adv-x="753" 
d="M650 137l6 -117q-93 -33 -177 -33q-97 0 -147 52q-65 -52 -145 -52q-78 0 -125.5 41.5t-47.5 112.5q0 93 66 141t165 48h64l2 11q10 74 -51 74q-59 0 -146 -26l-11 113q109 34 178 34q81 0 127 -46q64 46 149 46q71 0 119.5 -43t48.5 -109q0 -43 -19.5 -74.5t-47 -49.5
t-71 -29t-78 -15t-81.5 -6l-2 -14q-7 -40 11 -64t64 -24q56 0 149 29zM447 317l-3 -15q141 9 141 68q0 21 -13.5 33t-35.5 12q-72 0 -89 -98zM290 219l2 10h-66q-31 0 -49 -20.5t-18 -47.5q0 -53 53 -53q48 0 75 33q-5 36 3 78z" />
    <glyph glyph-name="ccedilla" unicode="&#xe7;" horiz-adv-x="456" 
d="M155 -75l12 68q-74 14 -111 70t-19 153l16 91q20 117 87 173t170 56q67 0 146 -25l-41 -116q-65 20 -116 20q-46 0 -71 -24t-35 -84l-16 -91q-10 -60 6.5 -84t62.5 -24q44 0 122 20l11 -116q-58 -18 -106 -22l-14 -78q-11 -63 -50.5 -93t-90.5 -30q-44 0 -83 13l23 96
q32 -9 58 -9q32 0 39 36z" />
    <glyph glyph-name="egrave" unicode="&#xe8;" horiz-adv-x="499" 
d="M391 574l-203 84l48 88l199 -96zM36 219l17 96q18 106 86 163.5t164 57.5q71 0 119.5 -43t48.5 -109q0 -43 -19.5 -74.5t-47 -49.5t-71 -29t-78 -15t-81.5 -6l-2 -14q-7 -40 11 -64t64 -24q56 0 149 29l6 -117q-93 -33 -177 -33q-105 0 -156 63t-33 169zM190 302
q141 9 141 68q0 21 -13.5 33t-35.5 12q-69 0 -89 -98z" />
    <glyph glyph-name="eacute" unicode="&#xe9;" horiz-adv-x="499" 
d="M427 651l-230 -77l-20 83l230 89zM36 219l17 96q18 106 86 163.5t164 57.5q71 0 119.5 -43t48.5 -109q0 -43 -19.5 -74.5t-47 -49.5t-71 -29t-78 -15t-81.5 -6l-2 -14q-7 -40 11 -64t64 -24q56 0 149 29l6 -117q-93 -33 -177 -33q-105 0 -156 63t-33 169zM190 302
q141 9 141 68q0 21 -13.5 33t-35.5 12q-69 0 -89 -98z" />
    <glyph glyph-name="ecircumflex" unicode="&#xea;" horiz-adv-x="499" 
d="M392 580l-83 61l-108 -61l-41 81l164 85l131 -85zM36 219l17 96q18 106 86 163.5t164 57.5q71 0 119.5 -43t48.5 -109q0 -43 -19.5 -74.5t-47 -49.5t-71 -29t-78 -15t-81.5 -6l-2 -14q-7 -40 11 -64t64 -24q56 0 149 29l6 -117q-93 -33 -177 -33q-105 0 -156 63t-33 169z
M190 302q141 9 141 68q0 21 -13.5 33t-35.5 12q-69 0 -89 -98z" />
    <glyph glyph-name="edieresis" unicode="&#xeb;" horiz-adv-x="499" 
d="M469 665q0 -27 -19 -45.5t-46 -18.5q-26 0 -45 18.5t-19 45.5t19 46.5t45 19.5q27 0 46 -19.5t19 -46.5zM279 665q0 -27 -19 -45.5t-46 -18.5q-26 0 -45.5 18.5t-19.5 45.5t19.5 46.5t45.5 19.5q27 0 46 -19.5t19 -46.5zM36 219l17 96q18 106 86 163.5t164 57.5
q71 0 119.5 -43t48.5 -109q0 -43 -19.5 -74.5t-47 -49.5t-71 -29t-78 -15t-81.5 -6l-2 -14q-7 -40 11 -64t64 -24q56 0 149 29l6 -117q-93 -33 -177 -33q-105 0 -156 63t-33 169zM190 302q141 9 141 68q0 21 -13.5 33t-35.5 12q-69 0 -89 -98z" />
    <glyph glyph-name="igrave" unicode="&#xec;" horiz-adv-x="264" 
d="M283 574l-203 84l48 88l199 -96zM155 0h-140l92 523h140z" />
    <glyph glyph-name="iacute" unicode="&#xed;" horiz-adv-x="264" 
d="M321 651l-230 -77l-20 83l230 89zM155 0h-140l92 523h140z" />
    <glyph glyph-name="icircumflex" unicode="&#xee;" horiz-adv-x="264" 
d="M287 580l-83 61l-108 -61l-41 81l164 85l131 -85zM155 0h-140l92 523h140z" />
    <glyph glyph-name="idieresis" unicode="&#xef;" horiz-adv-x="264" 
d="M358 665q0 -27 -19 -45.5t-46 -18.5q-26 0 -45 18.5t-19 45.5t19 46.5t45 19.5q27 0 46 -19.5t19 -46.5zM168 665q0 -27 -19 -45.5t-46 -18.5q-26 0 -45.5 18.5t-19.5 45.5t19.5 46.5t45.5 19.5q27 0 46 -19.5t19 -46.5zM155 0h-140l92 523h140z" />
    <glyph glyph-name="eth" unicode="&#xf0;" horiz-adv-x="524" 
d="M526 511l-54 -305q-17 -100 -89.5 -159.5t-162.5 -59.5q-91 0 -146.5 60t-38.5 159l13 73q18 105 86.5 162.5t152.5 57.5q67 0 100 -22l6 36q15 87 -33 105l-42 -85l-79 28l30 61q-48 -6 -90 -19l-6 106q98 29 155 31l40 80l79 -28l-31 -62q66 -18 96 -73t14 -146z
M333 211l27 151q-34 16 -76 16q-35 0 -61.5 -25t-35.5 -79l-11 -63q-9 -50 8.5 -76.5t51.5 -26.5t61 26.5t36 76.5z" />
    <glyph glyph-name="ntilde" unicode="&#xf1;" horiz-adv-x="538" 
d="M428 718l41 -62q-15 -27 -44 -46t-65 -19q-24 0 -53 22.5t-46 22.5q-29 0 -52 -29l-41 62q16 27 45 46t65 19q24 0 53 -22.5t46 -22.5q28 0 51 29zM11 0l55 316q18 106 85.5 163t164.5 57q84 0 136 -59t34 -161l-56 -316h-140l55 311q18 104 -51 104q-70 0 -88 -104
l-55 -311h-140z" />
    <glyph glyph-name="ograve" unicode="&#xf2;" horiz-adv-x="529" 
d="M411 574l-203 84l48 88l199 -96zM215 -13q-91 0 -144 62.5t-35 166.5l16 91q19 109 85 169t174 60q91 0 143 -62.5t34 -166.5l-16 -91q-19 -109 -84 -169t-173 -60zM236 108q42 0 64.5 29t32.5 84l14 81q20 113 -58 113q-80 0 -98 -113l-14 -81q-20 -113 59 -113z" />
    <glyph glyph-name="oacute" unicode="&#xf3;" horiz-adv-x="529" 
d="M434 651l-230 -77l-20 83l230 89zM215 -13q-91 0 -144 62.5t-35 166.5l16 91q19 109 85 169t174 60q91 0 143 -62.5t34 -166.5l-16 -91q-19 -109 -84 -169t-173 -60zM236 108q42 0 64.5 29t32.5 84l14 81q20 113 -58 113q-80 0 -98 -113l-14 -81q-20 -113 59 -113z" />
    <glyph glyph-name="ocircumflex" unicode="&#xf4;" horiz-adv-x="529" 
d="M410 580l-83 61l-108 -61l-41 81l164 85l131 -85zM215 -13q-91 0 -144 62.5t-35 166.5l16 91q19 109 85 169t174 60q91 0 143 -62.5t34 -166.5l-16 -91q-19 -109 -84 -169t-173 -60zM236 108q42 0 64.5 29t32.5 84l14 81q20 113 -58 113q-80 0 -98 -113l-14 -81
q-20 -113 59 -113z" />
    <glyph glyph-name="otilde" unicode="&#xf5;" horiz-adv-x="529" 
d="M438 718l41 -62q-15 -27 -44 -46t-65 -19q-24 0 -53 22.5t-46 22.5q-29 0 -52 -29l-41 62q16 27 45 46t65 19q24 0 53 -22.5t46 -22.5q28 0 51 29zM215 -13q-91 0 -144 62.5t-35 166.5l16 91q19 109 85 169t174 60q91 0 143 -62.5t34 -166.5l-16 -91q-19 -109 -84 -169
t-173 -60zM236 108q42 0 64.5 29t32.5 84l14 81q20 113 -58 113q-80 0 -98 -113l-14 -81q-20 -113 59 -113z" />
    <glyph glyph-name="odieresis" unicode="&#xf6;" horiz-adv-x="529" 
d="M484 665q0 -27 -19 -45.5t-46 -18.5q-26 0 -45 18.5t-19 45.5t19 46.5t45 19.5q27 0 46 -19.5t19 -46.5zM294 665q0 -27 -19 -45.5t-46 -18.5q-26 0 -45.5 18.5t-19.5 45.5t19.5 46.5t45.5 19.5q27 0 46 -19.5t19 -46.5zM215 -13q-91 0 -144 62.5t-35 166.5l16 91
q19 109 85 169t174 60q91 0 143 -62.5t34 -166.5l-16 -91q-19 -109 -84 -169t-173 -60zM236 108q42 0 64.5 29t32.5 84l14 81q20 113 -58 113q-80 0 -98 -113l-14 -81q-20 -113 59 -113z" />
    <glyph glyph-name="oslash" unicode="&#xf8;" horiz-adv-x="530" 
d="M489 307l-16 -91q-19 -109 -84 -169t-173 -60q-44 0 -80 15l-44 -66l-70 38l50 75q-54 65 -35 167l16 91q19 109 85 169t174 60q43 0 79 -15l48 71l71 -38l-55 -81q51 -66 34 -166zM175 201l142 210q-16 4 -27 4q-80 0 -98 -113l-14 -81q0 -1 -1.5 -8.5t-1.5 -11.5z
M334 221l14 81q2 10 2 16l-139 -206q9 -4 26 -4q42 0 64.5 29t32.5 84z" />
    <glyph glyph-name="ugrave" unicode="&#xf9;" horiz-adv-x="537" 
d="M406 574l-203 84l48 88l199 -96zM47 207l55 316h140l-54 -311q-18 -104 51 -104q70 0 88 104l55 311h140l-55 -316q-18 -105 -85.5 -162.5t-163.5 -57.5q-91 0 -140.5 58t-30.5 162z" />
    <glyph glyph-name="uacute" unicode="&#xfa;" horiz-adv-x="537" 
d="M448 651l-230 -77l-20 83l230 89zM47 207l55 316h140l-54 -311q-18 -104 51 -104q70 0 88 104l55 311h140l-55 -316q-18 -105 -85.5 -162.5t-163.5 -57.5q-91 0 -140.5 58t-30.5 162z" />
    <glyph glyph-name="ucircumflex" unicode="&#xfb;" horiz-adv-x="537" 
d="M412 580l-83 61l-108 -61l-41 81l164 85l131 -85zM47 207l55 316h140l-54 -311q-18 -104 51 -104q70 0 88 104l55 311h140l-55 -316q-18 -105 -85.5 -162.5t-163.5 -57.5q-91 0 -140.5 58t-30.5 162z" />
    <glyph glyph-name="udieresis" unicode="&#xfc;" horiz-adv-x="537" 
d="M492 665q0 -27 -19 -45.5t-46 -18.5q-26 0 -45 18.5t-19 45.5t19 46.5t45 19.5q27 0 46 -19.5t19 -46.5zM302 665q0 -27 -19 -45.5t-46 -18.5q-26 0 -45.5 18.5t-19.5 45.5t19.5 46.5t45.5 19.5q27 0 46 -19.5t19 -46.5zM47 207l55 316h140l-54 -311q-18 -104 51 -104
q70 0 88 104l55 311h140l-55 -316q-18 -105 -85.5 -162.5t-163.5 -57.5q-91 0 -140.5 58t-30.5 162z" />
    <glyph glyph-name="yacute" unicode="&#xfd;" horiz-adv-x="500" 
d="M431 651l-230 -77l-20 83l230 89zM52 188l12 335h139l-12 -325q-3 -77 45 -77h23l120 402h140l-227 -734h-137l67 211h-12q-165 0 -158 188z" />
    <glyph glyph-name="thorn" unicode="&#xfe;" horiz-adv-x="521" 
d="M102 -211h-140l166 943h140l-36 -208q38 12 77 12q90 0 140.5 -61.5t33.5 -165.5l-17 -97q-20 -112 -85 -168.5t-162 -56.5q-28 0 -79 17zM326 212l17 97q9 51 -6 78.5t-47 27.5q-34 0 -61 -28t-36 -78l-32 -182q46 -19 73 -19q74 0 92 104z" />
    <glyph glyph-name="ydieresis" unicode="&#xff;" horiz-adv-x="500" 
d="M469 665q0 -27 -19 -45.5t-46 -18.5q-26 0 -45 18.5t-19 45.5t19 46.5t45 19.5q27 0 46 -19.5t19 -46.5zM279 665q0 -27 -19 -45.5t-46 -18.5q-26 0 -45.5 18.5t-19.5 45.5t19.5 46.5t45.5 19.5q27 0 46 -19.5t19 -46.5zM52 188l12 335h139l-12 -325q-3 -77 45 -77h23
l120 402h140l-227 -734h-137l67 211h-12q-165 0 -158 188z" />
    <glyph glyph-name="Amacron" unicode="&#x100;" horiz-adv-x="604" 
d="M508 756h-249l16 90h249zM-28 0l318 676h166l80 -676h-144l-16 163h-185l-72 -163h-147zM244 282h121l-12 128q-5 53 -5 119q-29 -77 -47 -119z" />
    <glyph glyph-name="amacron" unicode="&#x101;" horiz-adv-x="520" 
d="M442 618h-249l16 90h249zM185 -13q-74 0 -120.5 58t-28.5 162l19 110q18 104 84.5 161.5t167.5 57.5q86 0 140.5 -60t37.5 -159l-56 -317h-125l3 45q-45 -58 -122 -58zM228 108q49 0 90 58l26 146q9 50 -7.5 76.5t-50.5 26.5q-33 0 -58 -26.5t-34 -76.5l-17 -100
q-18 -104 51 -104z" />
    <glyph glyph-name="Abreve" unicode="&#x102;" horiz-adv-x="604" 
d="M447 874h88q-13 -65 -54.5 -105t-106.5 -40q-55 0 -86 42t-21 103h87q-4 -26 6 -43t29 -17q20 0 36.5 17t21.5 43zM-28 0l318 676h166l80 -676h-144l-16 163h-185l-72 -163h-147zM244 282h121l-12 128q-5 53 -5 119q-29 -77 -47 -119z" />
    <glyph glyph-name="abreve" unicode="&#x103;" horiz-adv-x="520" 
d="M368 736h88q-13 -65 -54.5 -105t-106.5 -40q-55 0 -86 42t-21 103h87q-4 -26 6 -43t29 -17q20 0 36.5 17t21.5 43zM185 -13q-74 0 -120.5 58t-28.5 162l19 110q18 104 84.5 161.5t167.5 57.5q86 0 140.5 -60t37.5 -159l-56 -317h-125l3 45q-45 -58 -122 -58zM228 108
q49 0 90 58l26 146q9 50 -7.5 76.5t-50.5 26.5q-33 0 -58 -26.5t-34 -76.5l-17 -100q-18 -104 51 -104z" />
    <glyph glyph-name="Aogonek" unicode="&#x104;" horiz-adv-x="604" 
d="M-28 0l318 676h166l80 -676q-39 -25 -66.5 -57.5t-27.5 -57.5q0 -19 24 -19q18 0 32 6v-85q-26 -11 -64 -11q-100 0 -100 78q0 83 93 146h-35l-16 163h-185l-72 -163h-147zM244 282h121l-12 128q-5 53 -5 119q-29 -77 -47 -119z" />
    <glyph glyph-name="aogonek" unicode="&#x105;" horiz-adv-x="520" 
d="M393 -128l-2 -85q-26 -11 -64 -11q-100 0 -100 78q0 83 93 146h-16l3 45q-45 -58 -122 -58q-74 0 -120.5 58t-28.5 162l19 110q18 104 84.5 161.5t167.5 57.5q86 0 140.5 -60t37.5 -159l-56 -317q-39 -25 -66.5 -57.5t-27.5 -57.5q0 -19 24 -19q17 0 34 6zM228 108
q49 0 90 58l26 146q9 50 -7.5 76.5t-50.5 26.5q-33 0 -58 -26.5t-34 -76.5l-17 -100q-18 -104 51 -104z" />
    <glyph glyph-name="Cacute" unicode="&#x106;" horiz-adv-x="550" 
d="M506 789l-230 -77l-20 83l230 89zM466 138l7 -120q-109 -31 -196 -31q-121 0 -183.5 71.5t-38.5 206.5l25 146q24 138 105 208t207 70q93 0 185 -31l-41 -120q-83 26 -157 26q-62 0 -101.5 -38.5t-54.5 -126.5l-22 -122q-29 -166 98 -166q71 0 167 27z" />
    <glyph glyph-name="cacute" unicode="&#x107;" horiz-adv-x="456" 
d="M430 658l-230 -77l-20 83l230 89zM37 216l16 91q20 117 87 173t170 56q67 0 146 -25l-41 -116q-65 20 -116 20q-46 0 -71 -24t-35 -84l-16 -91q-10 -60 6.5 -84t62.5 -24q44 0 122 20l11 -116q-88 -25 -155 -25q-47 0 -84.5 13t-65.5 40.5t-37 71t0 104.5z" />
    <glyph glyph-name="Ccircumflex" unicode="&#x108;" horiz-adv-x="550" 
d="M475 718l-83 61l-108 -61l-41 81l164 85l131 -85zM466 138l7 -120q-109 -31 -196 -31q-121 0 -183.5 71.5t-38.5 206.5l25 146q24 138 105 208t207 70q93 0 185 -31l-41 -120q-83 26 -157 26q-62 0 -101.5 -38.5t-54.5 -126.5l-22 -122q-29 -166 98 -166q71 0 167 27z
" />
    <glyph glyph-name="ccircumflex" unicode="&#x109;" horiz-adv-x="456" 
d="M390 580l-83 61l-108 -61l-41 81l164 85l131 -85zM37 216l16 91q20 117 87 173t170 56q67 0 146 -25l-41 -116q-65 20 -116 20q-46 0 -71 -24t-35 -84l-16 -91q-10 -60 6.5 -84t62.5 -24q44 0 122 20l11 -116q-88 -25 -155 -25q-47 0 -84.5 13t-65.5 40.5t-37 71t0 104.5
z" />
    <glyph glyph-name="Cdotaccent" unicode="&#x10a;" horiz-adv-x="550" 
d="M456 786q0 -27 -19 -45.5t-46 -18.5q-26 0 -45 18.5t-19 45.5t19 46.5t45 19.5q27 0 46 -19.5t19 -46.5zM466 138l7 -120q-109 -31 -196 -31q-121 0 -183.5 71.5t-38.5 206.5l25 146q24 138 105 208t207 70q93 0 185 -31l-41 -120q-83 26 -157 26q-62 0 -101.5 -38.5
t-54.5 -126.5l-22 -122q-29 -166 98 -166q71 0 167 27z" />
    <glyph glyph-name="cdotaccent" unicode="&#x10b;" horiz-adv-x="456" 
d="M370 663q0 -27 -19 -45.5t-46 -18.5q-26 0 -45 18.5t-19 45.5t19 46.5t45 19.5q27 0 46 -19.5t19 -46.5zM37 216l16 91q20 117 87 173t170 56q67 0 146 -25l-41 -116q-65 20 -116 20q-46 0 -71 -24t-35 -84l-16 -91q-10 -60 6.5 -84t62.5 -24q44 0 122 20l11 -116
q-88 -25 -155 -25q-47 0 -84.5 13t-65.5 40.5t-37 71t0 104.5z" />
    <glyph glyph-name="Ccaron" unicode="&#x10c;" horiz-adv-x="550" 
d="M532 803l-164 -85l-131 85l63 81l83 -61l108 61zM466 138l7 -120q-109 -31 -196 -31q-121 0 -183.5 71.5t-38.5 206.5l25 146q24 138 105 208t207 70q93 0 185 -31l-41 -120q-83 26 -157 26q-62 0 -101.5 -38.5t-54.5 -126.5l-22 -122q-29 -166 98 -166q71 0 167 27z" />
    <glyph glyph-name="ccaron" unicode="&#x10d;" horiz-adv-x="456" 
d="M450 665l-164 -85l-131 85l63 81l83 -61l108 61zM37 216l16 91q20 117 87 173t170 56q67 0 146 -25l-41 -116q-65 20 -116 20q-46 0 -71 -24t-35 -84l-16 -91q-10 -60 6.5 -84t62.5 -24q44 0 122 20l11 -116q-88 -25 -155 -25q-47 0 -84.5 13t-65.5 40.5t-37 71t0 104.5z
" />
    <glyph glyph-name="Dcaron" unicode="&#x10e;" horiz-adv-x="626" 
d="M529 803l-164 -85l-131 85l63 81l83 -61l108 61zM276 0h-251l111 630q162 59 261 59q106 0 166 -68.5t39 -188.5l-32 -182q-21 -122 -98 -186t-196 -64zM428 260l28 160q13 72 -9.5 108t-71.5 36q-56 0 -110 -19l-74 -421h106q58 0 88 30.5t43 105.5z" />
    <glyph glyph-name="dcaron" unicode="&#x10f;" horiz-adv-x="519" 
d="M674 551h-87l32 181l117 13zM38 214l17 97q40 225 244 225q40 0 82 -21l38 217h140l-91 -518q-18 -106 -88.5 -166.5t-167.5 -60.5q-90 0 -140.5 61.5t-33.5 165.5zM195 311l-17 -97q-9 -51 6 -78.5t47 -27.5q34 0 61 28t36 78l32 182q-38 19 -73 19q-74 0 -92 -104z" />
    <glyph glyph-name="Dcroat" unicode="&#x110;" horiz-adv-x="626" 
d="M276 0h-251l51 289h-63l17 95h62l44 246q162 59 261 59q106 0 166 -68.5t39 -188.5l-32 -182q-21 -122 -98 -186t-196 -64zM428 260l28 160q13 72 -9.5 108t-71.5 36q-56 0 -110 -19l-29 -161h109l-17 -95h-108l-29 -165h106q58 0 88 30.5t43 105.5z" />
    <glyph glyph-name="dcroat" unicode="&#x111;" horiz-adv-x="519" 
d="M38 214l17 97q40 225 244 225q40 0 82 -21l12 72h-79l17 95h79l9 50h140l-9 -50h38l-17 -95h-38l-65 -373q-18 -106 -88.5 -166.5t-167.5 -60.5q-90 0 -140.5 61.5t-33.5 165.5zM195 311l-17 -97q-9 -51 6 -78.5t47 -27.5q34 0 61 28t36 78l32 182q-38 19 -73 19
q-74 0 -92 -104z" />
    <glyph glyph-name="Emacron" unicode="&#x112;" horiz-adv-x="522" 
d="M478 756h-249l16 90h249zM25 0l119 676h396l-23 -125h-251l-26 -150h211l-27 -120h-205l-28 -157h260l-21 -124h-405z" />
    <glyph glyph-name="emacron" unicode="&#x113;" horiz-adv-x="499" 
d="M424 618h-249l16 90h249zM36 219l17 96q18 106 86 163.5t164 57.5q71 0 119.5 -43t48.5 -109q0 -43 -19.5 -74.5t-47 -49.5t-71 -29t-78 -15t-81.5 -6l-2 -14q-7 -40 11 -64t64 -24q56 0 149 29l6 -117q-93 -33 -177 -33q-105 0 -156 63t-33 169zM190 302q141 9 141 68
q0 21 -13.5 33t-35.5 12q-69 0 -89 -98z" />
    <glyph glyph-name="Ebreve" unicode="&#x114;" horiz-adv-x="522" 
d="M413 874h88q-13 -65 -54.5 -105t-106.5 -40q-55 0 -86 42t-21 103h87q-4 -26 6 -43t29 -17q20 0 36.5 17t21.5 43zM25 0l119 676h396l-23 -125h-251l-26 -150h211l-27 -120h-205l-28 -157h260l-21 -124h-405z" />
    <glyph glyph-name="ebreve" unicode="&#x115;" horiz-adv-x="499" 
d="M357 736h88q-13 -65 -54.5 -105t-106.5 -40q-55 0 -86 42t-21 103h87q-4 -26 6 -43t29 -17q20 0 36.5 17t21.5 43zM36 219l17 96q18 106 86 163.5t164 57.5q71 0 119.5 -43t48.5 -109q0 -43 -19.5 -74.5t-47 -49.5t-71 -29t-78 -15t-81.5 -6l-2 -14q-7 -40 11 -64t64 -24
q56 0 149 29l6 -117q-93 -33 -177 -33q-105 0 -156 63t-33 169zM190 302q141 9 141 68q0 21 -13.5 33t-35.5 12q-69 0 -89 -98z" />
    <glyph glyph-name="Edotaccent" unicode="&#x116;" horiz-adv-x="522" 
d="M414 801q0 -27 -19 -45.5t-46 -18.5q-26 0 -45 18.5t-19 45.5t19 46.5t45 19.5q27 0 46 -19.5t19 -46.5zM25 0l119 676h396l-23 -125h-251l-26 -150h211l-27 -120h-205l-28 -157h260l-21 -124h-405z" />
    <glyph glyph-name="edotaccent" unicode="&#x117;" horiz-adv-x="499" 
d="M372 663q0 -27 -19 -45.5t-46 -18.5q-26 0 -45 18.5t-19 45.5t19 46.5t45 19.5q27 0 46 -19.5t19 -46.5zM36 219l17 96q18 106 86 163.5t164 57.5q71 0 119.5 -43t48.5 -109q0 -43 -19.5 -74.5t-47 -49.5t-71 -29t-78 -15t-81.5 -6l-2 -14q-7 -40 11 -64t64 -24
q56 0 149 29l6 -117q-93 -33 -177 -33q-105 0 -156 63t-33 169zM190 302q141 9 141 68q0 21 -13.5 33t-35.5 12q-69 0 -89 -98z" />
    <glyph glyph-name="Eogonek" unicode="&#x118;" horiz-adv-x="522" 
d="M25 0l119 676h396l-23 -125h-251l-26 -150h211l-27 -120h-205l-28 -157h260l-21 -124q-39 -25 -66.5 -57.5t-27.5 -57.5q0 -19 24 -19q18 0 34 6l-2 -85q-26 -11 -64 -11q-100 0 -100 78q0 83 93 146h-296z" />
    <glyph glyph-name="eogonek" unicode="&#x119;" horiz-adv-x="499" 
d="M364 -128v-85q-26 -11 -64 -11q-50 0 -75 23t-25 60q0 68 56 129q-5 0 -15 -0.5t-16 -0.5q-105 0 -156 63t-33 169l17 96q18 106 86 163.5t164 57.5q71 0 119.5 -43t48.5 -109q0 -43 -19.5 -74.5t-47 -49.5t-71 -29t-78 -15t-81.5 -6l-2 -14q-7 -40 11 -64t64 -24
q56 0 149 29l6 -117q-37 -24 -65.5 -63.5t-28.5 -66.5q0 -10 6.5 -17t17.5 -7q18 0 32 6zM193 317l-3 -15q141 9 141 68q0 21 -13.5 33t-35.5 12q-72 0 -89 -98z" />
    <glyph glyph-name="Ecaron" unicode="&#x11a;" horiz-adv-x="522" 
d="M498 803l-164 -85l-131 85l63 81l83 -61l108 61zM25 0l119 676h396l-23 -125h-251l-26 -150h211l-27 -120h-205l-28 -157h260l-21 -124h-405z" />
    <glyph glyph-name="ecaron" unicode="&#x11b;" horiz-adv-x="499" 
d="M454 665l-164 -85l-131 85l63 81l83 -61l108 61zM36 219l17 96q18 106 86 163.5t164 57.5q71 0 119.5 -43t48.5 -109q0 -43 -19.5 -74.5t-47 -49.5t-71 -29t-78 -15t-81.5 -6l-2 -14q-7 -40 11 -64t64 -24q56 0 149 29l6 -117q-93 -33 -177 -33q-105 0 -156 63t-33 169z
M190 302q141 9 141 68q0 21 -13.5 33t-35.5 12q-69 0 -89 -98z" />
    <glyph glyph-name="Gcircumflex" unicode="&#x11c;" horiz-adv-x="599" 
d="M487 718l-83 61l-108 -61l-41 81l164 85l131 -85zM55 265l25 146q24 137 108.5 207.5t211.5 70.5q90 0 177 -31l-41 -120q-72 25 -157 25q-62 0 -101.5 -38t-54.5 -125l-22 -123q-16 -88 9.5 -126t88.5 -38q48 0 94 10l26 148h-68l18 103h202l-62 -350q-116 -37 -232 -37
q-121 0 -183.5 71.5t-38.5 206.5z" />
    <glyph glyph-name="gcircumflex" unicode="&#x11d;" horiz-adv-x="526" 
d="M404 580l-83 61l-108 -61l-41 81l164 85l131 -85zM63 -78q67 -26 119 -26q95 0 116 127l4 25q-43 -48 -115 -48q-74 0 -120.5 58t-28.5 162l17 97q18 104 84.5 161.5t167.5 57.5q86 0 140.5 -60t37.5 -159l-56 -318q-18 -104 -83 -163.5t-177 -59.5q-65 0 -143 33z
M230 121q50 0 90 56l24 135q9 50 -7.5 76.5t-50.5 26.5q-33 0 -58 -26.5t-34 -76.5l-15 -87q-18 -104 51 -104z" />
    <glyph glyph-name="Gbreve" unicode="&#x11e;" horiz-adv-x="599" 
d="M443 874h88q-13 -65 -54.5 -105t-106.5 -40q-55 0 -86 42t-21 103h87q-4 -26 6 -43t29 -17q20 0 36.5 17t21.5 43zM55 265l25 146q24 137 108.5 207.5t211.5 70.5q90 0 177 -31l-41 -120q-72 25 -157 25q-62 0 -101.5 -38t-54.5 -125l-22 -123q-16 -88 9.5 -126t88.5 -38
q48 0 94 10l26 148h-68l18 103h202l-62 -350q-116 -37 -232 -37q-121 0 -183.5 71.5t-38.5 206.5z" />
    <glyph glyph-name="gbreve" unicode="&#x11f;" horiz-adv-x="526" 
d="M381 736h88q-13 -65 -54.5 -105t-106.5 -40q-55 0 -86 42t-21 103h87q-4 -26 6 -43t29 -17q20 0 36.5 17t21.5 43zM63 -78q67 -26 119 -26q95 0 116 127l4 25q-43 -48 -115 -48q-74 0 -120.5 58t-28.5 162l17 97q18 104 84.5 161.5t167.5 57.5q86 0 140.5 -60t37.5 -159
l-56 -318q-18 -104 -83 -163.5t-177 -59.5q-65 0 -143 33zM230 121q50 0 90 56l24 135q9 50 -7.5 76.5t-50.5 26.5q-33 0 -58 -26.5t-34 -76.5l-15 -87q-18 -104 51 -104z" />
    <glyph glyph-name="Gdotaccent" unicode="&#x120;" horiz-adv-x="599" 
d="M460 801q0 -27 -19 -45.5t-46 -18.5q-26 0 -45 18.5t-19 45.5t19 46.5t45 19.5q27 0 46 -19.5t19 -46.5zM55 265l25 146q24 137 108.5 207.5t211.5 70.5q90 0 177 -31l-41 -120q-72 25 -157 25q-62 0 -101.5 -38t-54.5 -125l-22 -123q-16 -88 9.5 -126t88.5 -38
q48 0 94 10l26 148h-68l18 103h202l-62 -350q-116 -37 -232 -37q-121 0 -183.5 71.5t-38.5 206.5z" />
    <glyph glyph-name="gdotaccent" unicode="&#x121;" horiz-adv-x="526" 
d="M384 663q0 -27 -19 -45.5t-46 -18.5q-26 0 -45 18.5t-19 45.5t19 46.5t45 19.5q27 0 46 -19.5t19 -46.5zM63 -78q67 -26 119 -26q95 0 116 127l4 25q-43 -48 -115 -48q-74 0 -120.5 58t-28.5 162l17 97q18 104 84.5 161.5t167.5 57.5q86 0 140.5 -60t37.5 -159l-56 -318
q-18 -104 -83 -163.5t-177 -59.5q-65 0 -143 33zM230 121q50 0 90 56l24 135q9 50 -7.5 76.5t-50.5 26.5q-33 0 -58 -26.5t-34 -76.5l-15 -87q-18 -104 51 -104z" />
    <glyph glyph-name="Gcommaaccent" unicode="&#x122;" horiz-adv-x="599" 
d="M55 265l25 146q24 137 108.5 207.5t211.5 70.5q90 0 177 -31l-41 -120q-72 25 -157 25q-62 0 -101.5 -38t-54.5 -125l-22 -123q-16 -88 9.5 -126t88.5 -38q48 0 94 10l26 148h-68l18 103h202l-62 -350q-116 -37 -232 -37q-121 0 -183.5 71.5t-38.5 206.5zM255 -224h-91
l55 162h120z" />
    <glyph glyph-name="gcommaaccent" unicode="&#x123;" horiz-adv-x="526" 
d="M365 581h-91l55 162h120zM63 -78q67 -26 119 -26q95 0 116 127l4 25q-43 -48 -115 -48q-74 0 -120.5 58t-28.5 162l17 97q18 104 84.5 161.5t167.5 57.5q86 0 140.5 -60t37.5 -159l-56 -318q-18 -104 -83 -163.5t-177 -59.5q-65 0 -143 33zM230 121q50 0 90 56l24 135
q9 50 -7.5 76.5t-50.5 26.5q-33 0 -58 -26.5t-34 -76.5l-15 -87q-18 -104 51 -104z" />
    <glyph glyph-name="Hcircumflex" unicode="&#x124;" horiz-adv-x="629" 
d="M488 718l-83 61l-108 -61l-41 81l164 85l131 -85zM25 0l119 676h144l-48 -271h204l48 271h144l-119 -676h-144l50 283h-204l-50 -283h-144z" />
    <glyph glyph-name="hcircumflex" unicode="&#x125;" horiz-adv-x="543" 
d="M313 753l-83 57l-108 -57l-41 81l164 81l131 -81zM437 0h-140l54 311q10 56 0 80t-42 24q-45 0 -90 -58l-63 -357h-140l129 732h140l-42 -240q46 44 109 44q75 0 117.5 -54.5t22.5 -165.5z" />
    <glyph glyph-name="Hbar" unicode="&#x126;" horiz-adv-x="629" 
d="M518 0h-144l50 283h-204l-50 -283h-144l83 474h-37l17 95h37l19 107h144l-19 -107h204l19 107h144l-19 -107h39l-17 -95h-39zM445 405l12 69h-204l-12 -69h204z" />
    <glyph glyph-name="hbar" unicode="&#x127;" horiz-adv-x="543" 
d="M437 0h-140l54 311q10 56 0 80t-42 24q-45 0 -90 -58l-63 -357h-140l103 587h-39l17 95h39l9 50h140l-9 -50h78l-17 -95h-78l-16 -95q46 44 109 44q75 0 117.5 -54.5t22.5 -165.5z" />
    <glyph glyph-name="Itilde" unicode="&#x128;" horiz-adv-x="281" 
d="M346 856l41 -62q-15 -27 -44 -46t-65 -19q-24 0 -53 22.5t-46 22.5q-29 0 -52 -29l-41 62q16 27 45 46t65 19q24 0 53 -22.5t46 -22.5q28 0 51 29zM25 0l119 676h144l-119 -676h-144z" />
    <glyph glyph-name="itilde" unicode="&#x129;" horiz-adv-x="264" 
d="M304 718l41 -62q-15 -27 -44 -46t-65 -19q-24 0 -53 22.5t-46 22.5q-29 0 -52 -29l-41 62q16 27 45 46t65 19q24 0 53 -22.5t46 -22.5q28 0 51 29zM155 0h-140l92 523h140z" />
    <glyph glyph-name="Imacron" unicode="&#x12a;" horiz-adv-x="281" 
d="M346 756h-249l16 90h249zM25 0l119 676h144l-119 -676h-144z" />
    <glyph glyph-name="imacron" unicode="&#x12b;" horiz-adv-x="264" 
d="M317 618h-249l16 90h249zM155 0h-140l92 523h140z" />
    <glyph glyph-name="Ibreve" unicode="&#x12c;" horiz-adv-x="281" 
d="M293 889h88q-13 -65 -54.5 -105t-106.5 -40q-55 0 -86 42t-21 103h87q-4 -26 6 -43t29 -17q20 0 36.5 17t21.5 43zM25 0l119 676h144l-119 -676h-144z" />
    <glyph glyph-name="ibreve" unicode="&#x12d;" horiz-adv-x="264" 
d="M270 736h88q-13 -65 -54.5 -105t-106.5 -40q-55 0 -86 42t-21 103h87q-4 -26 6 -43t29 -17q20 0 36.5 17t21.5 43zM155 0h-140l92 523h140z" />
    <glyph glyph-name="Iogonek" unicode="&#x12e;" horiz-adv-x="281" 
d="M25 0l119 676h144l-119 -676q-39 -25 -66.5 -57.5t-27.5 -57.5q0 -19 24 -19q19 0 32 6v-85q-26 -11 -64 -11q-100 0 -100 78q0 83 93 146h-35z" />
    <glyph glyph-name="iogonek" unicode="&#x12f;" horiz-adv-x="264" 
d="M200 592q-33 0 -57 23t-24 56t24 55.5t57 22.5t57 -22.5t24 -55.5q0 -32 -24 -55.5t-57 -23.5zM15 0l92 523h140l-92 -523q-39 -25 -66.5 -57.5t-27.5 -57.5q0 -19 24 -19q19 0 32 6v-85q-26 -11 -64 -11q-100 0 -100 78q0 83 93 146h-31z" />
    <glyph glyph-name="Idotaccent" unicode="&#x130;" horiz-adv-x="281" 
d="M299 786q0 -27 -19 -45.5t-46 -18.5q-26 0 -45 18.5t-19 45.5t19 46.5t45 19.5q27 0 46 -19.5t19 -46.5zM25 0l119 676h144l-119 -676h-144z" />
    <glyph glyph-name="dotlessi" unicode="&#x131;" horiz-adv-x="264" 
d="M155 0h-140l92 523h140z" />
    <glyph glyph-name="IJ" unicode="&#x132;" horiz-adv-x="741" 
d="M535 233l78 443l143 -7l-78 -439q-20 -115 -83 -179t-169 -64q-78 0 -170 36l40 117q79 -29 133 -29q84 0 106 122zM169 0h-144l119 676h144z" />
    <glyph glyph-name="ij" unicode="&#x133;" horiz-adv-x="529" 
d="M544 671q0 -32 -24 -55.5t-57 -23.5t-57 23t-24 56t24 55.5t57 22.5t57 -22.5t24 -55.5zM281 671q0 -32 -24 -55.5t-57 -23.5t-57 23t-24 56t24 55.5t57 22.5t57 -22.5t24 -55.5zM383 -199l-143 -20l131 742h140zM155 0h-140l92 523h140z" />
    <glyph glyph-name="Jcircumflex" unicode="&#x134;" horiz-adv-x="460" 
d="M505 718l-83 61l-108 -61l-41 81l164 85l131 -85zM-25 23l40 117q79 -29 133 -29q84 0 106 122l78 443l143 -7l-78 -439q-20 -115 -83 -179t-169 -64q-79 0 -170 36z" />
    <glyph glyph-name="jcircumflex" unicode="&#x135;" horiz-adv-x="263" 
d="M270 574l-82 72l-109 -71l-37 81l163 95l132 -95zM119 -199l-143 -20l131 742h140z" />
    <glyph glyph-name="Kcommaaccent" unicode="&#x136;" horiz-adv-x="598" 
d="M25 0l119 676h144l-44 -249l215 249h169l-270 -301l174 -375h-159l-115 263l-53 -59l-36 -204h-144zM223 -224h-91l55 162h120z" />
    <glyph glyph-name="kcommaaccent" unicode="&#x137;" horiz-adv-x="490" 
d="M16 0l129 732h140l-71 -404l49 16q27 9 46 54l53 125h136l-68 -158q-36 -84 -82 -109l84 -256h-149l-60 210l-32 -12l-35 -198h-140zM189 -224h-91l55 162h120z" />
    <glyph glyph-name="Lacute" unicode="&#x139;" horiz-adv-x="503" 
d="M354 789l-230 -77l-20 83l230 89zM25 0l119 676h144l-97 -552h264l-27 -124h-403z" />
    <glyph glyph-name="lacute" unicode="&#x13a;" horiz-adv-x="268" 
d="M339 821l-233 -84l-20 83l233 96zM156 0h-140l127 725l144 20z" />
    <glyph glyph-name="Lcommaaccent" unicode="&#x13b;" horiz-adv-x="503" 
d="M25 0l119 676h144l-97 -552h264l-27 -124h-403zM199 -224h-91l55 162h120z" />
    <glyph glyph-name="lcommaaccent" unicode="&#x13c;" horiz-adv-x="268" 
d="M16 0l127 725l144 20l-131 -745h-140zM55 -224h-91l55 162h120z" />
    <glyph glyph-name="Lcaron" unicode="&#x13d;" horiz-adv-x="503" 
d="M446 495h-87l32 181l118 13zM428 0h-403l119 676h144l-97 -552h264z" />
    <glyph glyph-name="lcaron" unicode="&#x13e;" horiz-adv-x="268" 
d="M411 551h-87l32 181l118 13zM16 0l127 725l144 20l-131 -745h-140z" />
    <glyph glyph-name="Ldot" unicode="&#x13f;" horiz-adv-x="503" 
d="M428 0h-403l119 676h144l-97 -552h264zM422 281q0 -30 -21 -50t-51 -20q-29 0 -50 20t-21 50t21 51t50 21q30 0 51 -21t21 -51z" />
    <glyph glyph-name="ldot" unicode="&#x140;" horiz-adv-x="397" 
d="M156 0h-140l127 725l144 20zM400 281q0 -30 -21 -50t-51 -20q-29 0 -50 20t-21 50t21 51t50 21q30 0 51 -21t21 -51z" />
    <glyph glyph-name="Lslash" unicode="&#x141;" horiz-adv-x="503" 
d="M428 0h-403l46 263l-41 -14l-14 75l70 24l58 328h144l-48 -275l73 26l14 -75l-102 -36l-34 -192h264z" />
    <glyph glyph-name="lslash" unicode="&#x142;" horiz-adv-x="268" 
d="M156 0h-140l47 269l-39 -13l-15 75l69 24l65 370l144 20l-60 -339l39 14l14 -75l-68 -24z" />
    <glyph glyph-name="Nacute" unicode="&#x143;" horiz-adv-x="622" 
d="M511 789l-230 -77l-20 83l230 89zM25 0l119 676h117l158 -387q2 22 16 104l50 283h144l-119 -676h-118l-159 385q-9 -74 -15 -107l-49 -278h-144z" />
    <glyph glyph-name="nacute" unicode="&#x144;" horiz-adv-x="538" 
d="M434 651l-230 -77l-20 83l230 89zM11 0l55 316q18 106 85.5 163t164.5 57q84 0 136 -59t34 -161l-56 -316h-140l55 311q18 104 -51 104q-70 0 -88 -104l-55 -311h-140z" />
    <glyph glyph-name="Ncommaaccent" unicode="&#x145;" horiz-adv-x="622" 
d="M25 0l119 676h117l158 -387q2 22 16 104l50 283h144l-119 -676h-118l-159 385q-9 -74 -15 -107l-49 -278h-144zM251 -224h-91l55 162h120z" />
    <glyph glyph-name="ncommaaccent" unicode="&#x146;" horiz-adv-x="538" 
d="M11 0l55 316q18 106 85.5 163t164.5 57q84 0 136 -59t34 -161l-56 -316h-140l55 311q18 104 -51 104q-70 0 -88 -104l-55 -311h-140zM186 -224h-91l55 162h120z" />
    <glyph glyph-name="Ncaron" unicode="&#x147;" horiz-adv-x="622" 
d="M532 803l-164 -85l-131 85l63 81l83 -61l108 61zM25 0l119 676h117l158 -387q2 22 16 104l50 283h144l-119 -676h-118l-159 385q-9 -74 -15 -107l-49 -278h-144z" />
    <glyph glyph-name="ncaron" unicode="&#x148;" horiz-adv-x="538" 
d="M477 665l-164 -85l-131 85l63 81l83 -61l108 61zM11 0l55 316q18 106 85.5 163t164.5 57q84 0 136 -59t34 -161l-56 -316h-140l55 311q18 104 -51 104q-70 0 -88 -104l-55 -311h-140z" />
    <glyph glyph-name="Eng" unicode="&#x14a;" horiz-adv-x="622" 
d="M474 -199l-145 -20l46 260l-142 344q-9 -74 -15 -107l-49 -278h-144l119 676h117l158 -387q2 22 16 104l50 283h144z" />
    <glyph glyph-name="eng" unicode="&#x14b;" horiz-adv-x="538" 
d="M394 -199l-143 -20l94 530q18 104 -51 104q-70 0 -88 -104l-55 -311h-140l55 316q18 106 85.5 163t164.5 57q84 0 136 -59t34 -161z" />
    <glyph glyph-name="Omacron" unicode="&#x14c;" horiz-adv-x="628" 
d="M527 756h-249l16 90h249zM268 -13q-114 0 -175.5 72.5t-37.5 206.5l25 143q23 136 107.5 208t203.5 72q113 0 174 -73t38 -207l-25 -143q-24 -136 -107.5 -207.5t-202.5 -71.5zM289 111q118 0 147 166l21 122q28 165 -88 165q-119 0 -147 -165l-21 -122q-28 -166 88 -166
z" />
    <glyph glyph-name="omacron" unicode="&#x14d;" horiz-adv-x="529" 
d="M448 618h-249l16 90h249zM215 -13q-91 0 -144 62.5t-35 166.5l16 91q19 109 85 169t174 60q91 0 143 -62.5t34 -166.5l-16 -91q-19 -109 -84 -169t-173 -60zM236 108q42 0 64.5 29t32.5 84l14 81q20 113 -58 113q-80 0 -98 -113l-14 -81q-20 -113 59 -113z" />
    <glyph glyph-name="Obreve" unicode="&#x14e;" horiz-adv-x="628" 
d="M463 874h88q-13 -65 -54.5 -105t-106.5 -40q-55 0 -86 42t-21 103h87q-4 -26 6 -43t29 -17q20 0 36.5 17t21.5 43zM268 -13q-114 0 -175.5 72.5t-37.5 206.5l25 143q23 136 107.5 208t203.5 72q113 0 174 -73t38 -207l-25 -143q-24 -136 -107.5 -207.5t-202.5 -71.5z
M289 111q118 0 147 166l21 122q28 165 -88 165q-119 0 -147 -165l-21 -122q-28 -166 88 -166z" />
    <glyph glyph-name="obreve" unicode="&#x14f;" horiz-adv-x="529" 
d="M378 736h88q-13 -65 -54.5 -105t-106.5 -40q-55 0 -86 42t-21 103h87q-4 -26 6 -43t29 -17q20 0 36.5 17t21.5 43zM215 -13q-91 0 -144 62.5t-35 166.5l16 91q19 109 85 169t174 60q91 0 143 -62.5t34 -166.5l-16 -91q-19 -109 -84 -169t-173 -60zM236 108q42 0 64.5 29
t32.5 84l14 81q20 113 -58 113q-80 0 -98 -113l-14 -81q-20 -113 59 -113z" />
    <glyph glyph-name="Ohungarumlaut" unicode="&#x150;" horiz-adv-x="628" 
d="M695 809l-188 -102l-34 81l184 110zM462 809l-188 -102l-35 81l185 110zM268 -13q-114 0 -175.5 72.5t-37.5 206.5l25 143q23 136 107.5 208t203.5 72q113 0 174 -73t38 -207l-25 -143q-24 -136 -107.5 -207.5t-202.5 -71.5zM289 111q118 0 147 166l21 122
q28 165 -88 165q-119 0 -147 -165l-21 -122q-28 -166 88 -166z" />
    <glyph glyph-name="ohungarumlaut" unicode="&#x151;" horiz-adv-x="529" 
d="M611 671l-188 -102l-34 81l184 110zM378 671l-188 -102l-35 81l185 110zM215 -13q-91 0 -144 62.5t-35 166.5l16 91q19 109 85 169t174 60q91 0 143 -62.5t34 -166.5l-16 -91q-19 -109 -84 -169t-173 -60zM236 108q42 0 64.5 29t32.5 84l14 81q20 113 -58 113
q-80 0 -98 -113l-14 -81q-20 -113 59 -113z" />
    <glyph glyph-name="OE" unicode="&#x152;" horiz-adv-x="882" 
d="M790 0h-427q-49 -13 -95 -13q-114 0 -175.5 72.5t-37.5 206.5l25 143q23 136 107.5 208t203.5 72q43 0 85 -13h424l-23 -125h-279q18 -60 5 -142l-2 -8h210l-27 -120h-204l-2 -15q-14 -81 -52 -142h285zM436 277l21 122q28 165 -88 165q-119 0 -147 -165l-21 -122
q-28 -166 88 -166q118 0 147 166z" />
    <glyph glyph-name="oe" unicode="&#x153;" horiz-adv-x="798" 
d="M695 137l6 -117q-93 -33 -177 -33q-95 0 -146 51q-65 -51 -163 -51q-91 0 -144 62.5t-35 166.5l16 91q19 109 85 169t174 60q83 0 133 -52q66 52 158 52q71 0 119.5 -43t48.5 -109q0 -43 -19.5 -74.5t-47 -49.5t-71 -29t-78 -15t-81.5 -6l-2 -14q-7 -40 11 -64t64 -24
q56 0 149 29zM492 317l-3 -15q141 9 141 68q0 21 -13.5 33t-35.5 12q-72 0 -89 -98zM333 221l14 81q20 113 -58 113q-80 0 -98 -113l-14 -81q-20 -113 59 -113q42 0 64.5 29t32.5 84z" />
    <glyph glyph-name="Racute" unicode="&#x154;" horiz-adv-x="560" 
d="M486 789l-230 -77l-20 83l230 89zM25 0l119 676h236q85 0 134 -50t49 -126q0 -74 -42 -136t-112 -91l77 -273h-150l-64 252h-59l-44 -252h-144zM234 369h84q39 0 69 31.5t30 78.5q0 33 -18 52.5t-48 19.5h-85z" />
    <glyph glyph-name="racute" unicode="&#x155;" horiz-adv-x="356" 
d="M376 651l-230 -77l-20 83l230 89zM11 0l59 334q16 93 76.5 147.5t153.5 54.5q49 0 93 -13l-34 -119q-36 11 -67 11q-32 0 -54 -22.5t-28 -58.5l-59 -334h-140z" />
    <glyph glyph-name="Rcommaaccent" unicode="&#x156;" horiz-adv-x="560" 
d="M25 0l119 676h236q85 0 134 -50t49 -126q0 -74 -42 -136t-112 -91l77 -273h-150l-64 252h-59l-44 -252h-144zM234 369h84q39 0 69 31.5t30 78.5q0 33 -18 52.5t-48 19.5h-85zM218 -224h-91l55 162h120z" />
    <glyph glyph-name="rcommaaccent" unicode="&#x157;" horiz-adv-x="356" 
d="M11 0l59 334q16 93 76.5 147.5t153.5 54.5q49 0 93 -13l-34 -119q-36 11 -67 11q-32 0 -54 -22.5t-28 -58.5l-59 -334h-140zM50 -224h-91l55 162h120z" />
    <glyph glyph-name="Rcaron" unicode="&#x158;" horiz-adv-x="560" 
d="M510 803l-164 -85l-131 85l63 81l83 -61l108 61zM25 0l119 676h236q85 0 134 -50t49 -126q0 -74 -42 -136t-112 -91l77 -273h-150l-64 252h-59l-44 -252h-144zM234 369h84q39 0 69 31.5t30 78.5q0 33 -18 52.5t-48 19.5h-85z" />
    <glyph glyph-name="rcaron" unicode="&#x159;" horiz-adv-x="356" 
d="M406 665l-164 -85l-131 85l63 81l83 -61l108 61zM11 0l59 334q16 93 76.5 147.5t153.5 54.5q49 0 93 -13l-34 -119q-36 11 -67 11q-32 0 -54 -22.5t-28 -58.5l-59 -334h-140z" />
    <glyph glyph-name="Sacute" unicode="&#x15a;" horiz-adv-x="495" 
d="M452 789l-230 -77l-20 83l230 89zM-5 29l39 122q94 -40 178 -40q41 0 68.5 25.5t27.5 64.5q0 27 -23.5 47.5t-57 37t-67 36t-57 54.5t-23.5 82q0 103 73 167t179 64q74 0 180 -42l-48 -117q-87 34 -144 34q-43 0 -65.5 -21.5t-22.5 -52.5q0 -21 17 -39.5t42 -31.5t55 -31
t55 -38t42 -53t17 -75q0 -115 -76 -175t-183 -60q-99 0 -206 42z" />
    <glyph glyph-name="sacute" unicode="&#x15b;" horiz-adv-x="402" 
d="M371 651l-230 -77l-20 83l230 89zM-18 19l38 114q64 -25 130 -25q29 0 49.5 13.5t20.5 33.5q0 17 -18 30t-43 24.5t-50.5 26t-43.5 42.5t-18 66q0 84 57 138t153 54q69 0 134 -25l-39 -117q-61 21 -107 21q-28 0 -41 -12t-13 -30q0 -20 27 -37.5t59 -31.5t59 -47.5
t27 -80.5q0 -78 -56.5 -133.5t-167.5 -55.5q-75 0 -157 32z" />
    <glyph glyph-name="Scircumflex" unicode="&#x15c;" horiz-adv-x="495" 
d="M429 718l-83 61l-108 -61l-41 81l164 85l131 -85zM-5 29l39 122q94 -40 178 -40q41 0 68.5 25.5t27.5 64.5q0 27 -23.5 47.5t-57 37t-67 36t-57 54.5t-23.5 82q0 103 73 167t179 64q74 0 180 -42l-48 -117q-87 34 -144 34q-43 0 -65.5 -21.5t-22.5 -52.5q0 -21 17 -39.5
t42 -31.5t55 -31t55 -38t42 -53t17 -75q0 -115 -76 -175t-183 -60q-99 0 -206 42z" />
    <glyph glyph-name="scircumflex" unicode="&#x15d;" horiz-adv-x="402" 
d="M345 580l-83 61l-108 -61l-41 81l164 85l131 -85zM-18 19l38 114q64 -25 130 -25q29 0 49.5 13.5t20.5 33.5q0 17 -18 30t-43 24.5t-50.5 26t-43.5 42.5t-18 66q0 84 57 138t153 54q69 0 134 -25l-39 -117q-61 21 -107 21q-28 0 -41 -12t-13 -30q0 -20 27 -37.5t59 -31.5
t59 -47.5t27 -80.5q0 -78 -56.5 -133.5t-167.5 -55.5q-75 0 -157 32z" />
    <glyph glyph-name="Scedilla" unicode="&#x15e;" horiz-adv-x="495" 
d="M143 -75l12 64q-78 7 -160 40l39 122q94 -40 178 -40q41 0 68.5 25.5t27.5 64.5q0 27 -23.5 47.5t-57 37t-67 36t-57 54.5t-23.5 82q0 103 73 167t179 64q74 0 180 -42l-48 -117q-87 34 -144 34q-43 0 -65.5 -21.5t-22.5 -52.5q0 -21 17 -39.5t42 -31.5t55 -31t55 -38
t42 -53t17 -75q0 -98 -56 -156t-143 -73l-14 -81q-11 -63 -50.5 -93t-90.5 -30q-44 0 -83 13l23 96q31 -9 58 -9q32 0 39 36z" />
    <glyph glyph-name="scedilla" unicode="&#x15f;" horiz-adv-x="406" 
d="M102 -75l12 63q-66 6 -128 31l38 114q64 -25 130 -25q29 0 49.5 13.5t20.5 33.5q0 17 -18 30t-43 24.5t-50.5 26t-43.5 42.5t-18 66q0 84 57 138t153 54q69 0 134 -25l-39 -117q-61 21 -107 21q-28 0 -41 -12t-13 -30q0 -20 27 -37.5t59 -31.5t59 -47.5t27 -80.5
q0 -62 -36.5 -112t-109.5 -68l-15 -84q-11 -63 -50.5 -93t-90.5 -30q-44 0 -83 13l23 96q32 -9 58 -9q32 0 39 36z" />
    <glyph glyph-name="Scaron" unicode="&#x160;" horiz-adv-x="495" 
d="M475 803l-164 -85l-131 85l63 81l83 -61l108 61zM-5 29l39 122q94 -40 178 -40q41 0 68.5 25.5t27.5 64.5q0 27 -23.5 47.5t-57 37t-67 36t-57 54.5t-23.5 82q0 103 73 167t179 64q74 0 180 -42l-48 -117q-87 34 -144 34q-43 0 -65.5 -21.5t-22.5 -52.5q0 -21 17 -39.5
t42 -31.5t55 -31t55 -38t42 -53t17 -75q0 -115 -76 -175t-183 -60q-99 0 -206 42z" />
    <glyph glyph-name="scaron" unicode="&#x161;" horiz-adv-x="402" 
d="M397 665l-164 -85l-131 85l63 81l83 -61l108 61zM-18 19l38 114q64 -25 130 -25q29 0 49.5 13.5t20.5 33.5q0 17 -18 30t-43 24.5t-50.5 26t-43.5 42.5t-18 66q0 84 57 138t153 54q69 0 134 -25l-39 -117q-61 21 -107 21q-28 0 -41 -12t-13 -30q0 -20 27 -37.5t59 -31.5
t59 -47.5t27 -80.5q0 -78 -56.5 -133.5t-167.5 -55.5q-75 0 -157 32z" />
    <glyph glyph-name="Tcommaaccent" unicode="&#x162;" horiz-adv-x="515" 
d="M141 0l97 551h-160l22 125h464l-22 -125h-161l-96 -551h-144zM177 -224h-91l55 162h120z" />
    <glyph glyph-name="tcommaaccent" unicode="&#x163;" horiz-adv-x="333" 
d="M46 0l75 428h-66v95h83l25 141l143 19l-28 -160h83l-17 -95h-83l-75 -428h-140zM86 -224h-91l55 162h120z" />
    <glyph glyph-name="Tcaron" unicode="&#x164;" horiz-adv-x="515" 
d="M509 803l-164 -85l-131 85l63 81l83 -61l108 61zM141 0l97 551h-160l22 125h464l-22 -125h-161l-96 -551h-144z" />
    <glyph glyph-name="tcaron" unicode="&#x165;" horiz-adv-x="333" 
d="M442 581h-87l32 181l118 13zM186 0h-140l75 428h-66v95h83l25 141l143 19l-28 -160h83l-17 -95h-83z" />
    <glyph glyph-name="Tbar" unicode="&#x166;" horiz-adv-x="515" 
d="M285 0h-144l54 306h-77l17 96h77l26 149h-160l22 125h464l-22 -125h-161l-26 -149h75l-17 -96h-75z" />
    <glyph glyph-name="tbar" unicode="&#x167;" horiz-adv-x="333" 
d="M186 0h-140l41 237h-64l17 95h64l17 96h-66v95h83l25 141l143 19l-28 -160h83l-17 -95h-83l-17 -96h84l-17 -95h-84z" />
    <glyph glyph-name="Utilde" unicode="&#x168;" horiz-adv-x="626" 
d="M509 856l41 -62q-15 -27 -44 -46t-65 -19q-24 0 -53 22.5t-46 22.5q-29 0 -52 -29l-41 62q16 27 45 46t65 19q24 0 53 -22.5t46 -22.5q28 0 51 29zM60 226l79 450h144l-77 -438q-10 -59 12 -93t70 -34t83.5 34t45.5 93l77 438h144l-79 -450q-18 -104 -103 -171.5
t-189 -67.5q-105 0 -165.5 67t-41.5 172z" />
    <glyph glyph-name="utilde" unicode="&#x169;" horiz-adv-x="537" 
d="M428 718l41 -62q-15 -27 -44 -46t-65 -19q-24 0 -53 22.5t-46 22.5q-29 0 -52 -29l-41 62q16 27 45 46t65 19q24 0 53 -22.5t46 -22.5q28 0 51 29zM47 207l55 316h140l-54 -311q-18 -104 51 -104q70 0 88 104l55 311h140l-55 -316q-18 -105 -85.5 -162.5t-163.5 -57.5
q-91 0 -140.5 58t-30.5 162z" />
    <glyph glyph-name="Umacron" unicode="&#x16a;" horiz-adv-x="626" 
d="M521 756h-249l16 90h249zM60 226l79 450h144l-77 -438q-10 -59 12 -93t70 -34t83.5 34t45.5 93l77 438h144l-79 -450q-18 -104 -103 -171.5t-189 -67.5q-105 0 -165.5 67t-41.5 172z" />
    <glyph glyph-name="umacron" unicode="&#x16b;" horiz-adv-x="537" 
d="M449 618h-249l16 90h249zM47 207l55 316h140l-54 -311q-18 -104 51 -104q70 0 88 104l55 311h140l-55 -316q-18 -105 -85.5 -162.5t-163.5 -57.5q-91 0 -140.5 58t-30.5 162z" />
    <glyph glyph-name="Ubreve" unicode="&#x16c;" horiz-adv-x="626" 
d="M456 874h88q-13 -65 -54.5 -105t-106.5 -40q-55 0 -86 42t-21 103h87q-4 -26 6 -43t29 -17q20 0 36.5 17t21.5 43zM60 226l79 450h144l-77 -438q-10 -59 12 -93t70 -34t83.5 34t45.5 93l77 438h144l-79 -450q-18 -104 -103 -171.5t-189 -67.5q-105 0 -165.5 67t-41.5 172
z" />
    <glyph glyph-name="ubreve" unicode="&#x16d;" horiz-adv-x="537" 
d="M385 736h88q-13 -65 -54.5 -105t-106.5 -40q-55 0 -86 42t-21 103h87q-4 -26 6 -43t29 -17q20 0 36.5 17t21.5 43zM47 207l55 316h140l-54 -311q-18 -104 51 -104q70 0 88 104l55 311h140l-55 -316q-18 -105 -85.5 -162.5t-163.5 -57.5q-91 0 -140.5 58t-30.5 162z" />
    <glyph glyph-name="Uring" unicode="&#x16e;" horiz-adv-x="626" 
d="M400 712q-43 0 -73 30.5t-30 72.5q0 41 30 71t73 30q41 0 71 -30t30 -71q0 -42 -30 -72.5t-71 -30.5zM400 784q13 0 21.5 9t8.5 22t-8.5 21.5t-21.5 8.5t-22 -8.5t-9 -21.5t9 -22t22 -9zM60 226l79 450h144l-77 -438q-10 -59 12 -93t70 -34t83.5 34t45.5 93l77 438h144
l-79 -450q-18 -104 -103 -171.5t-189 -67.5q-105 0 -165.5 67t-41.5 172z" />
    <glyph glyph-name="uring" unicode="&#x16f;" horiz-adv-x="537" 
d="M329 574q-43 0 -73 30.5t-30 72.5q0 41 30 71t73 30q41 0 71 -30t30 -71q0 -42 -30 -72.5t-71 -30.5zM329 646q13 0 21.5 9t8.5 22t-8.5 21.5t-21.5 8.5t-22 -8.5t-9 -21.5t9 -22t22 -9zM47 207l55 316h140l-54 -311q-18 -104 51 -104q70 0 88 104l55 311h140l-55 -316
q-18 -105 -85.5 -162.5t-163.5 -57.5q-91 0 -140.5 58t-30.5 162z" />
    <glyph glyph-name="Uhungarumlaut" unicode="&#x170;" horiz-adv-x="626" 
d="M663 809l-188 -102l-34 81l184 110zM430 809l-188 -102l-35 81l185 110zM60 226l79 450h144l-77 -438q-10 -59 12 -93t70 -34t83.5 34t45.5 93l77 438h144l-79 -450q-18 -104 -103 -171.5t-189 -67.5q-105 0 -165.5 67t-41.5 172z" />
    <glyph glyph-name="uhungarumlaut" unicode="&#x171;" horiz-adv-x="537" 
d="M597 671l-188 -102l-34 81l184 110zM364 671l-188 -102l-35 81l185 110zM47 207l55 316h140l-54 -311q-18 -104 51 -104q70 0 88 104l55 311h140l-55 -316q-18 -105 -85.5 -162.5t-163.5 -57.5q-91 0 -140.5 58t-30.5 162z" />
    <glyph glyph-name="Uogonek" unicode="&#x172;" horiz-adv-x="626" 
d="M295 -128l-2 -85q-26 -11 -64 -11q-100 0 -100 78q0 80 82 139q-81 17 -123.5 80t-27.5 153l79 450h144l-77 -438q-10 -59 12 -93t70 -34t83.5 34t45.5 93l77 438h144l-79 -450q-16 -91 -84 -155t-157 -79q-35 -25 -58 -54.5t-23 -52.5q0 -19 24 -19q17 0 34 6z" />
    <glyph glyph-name="uogonek" unicode="&#x173;" horiz-adv-x="537" 
d="M252 -128l-2 -85q-26 -11 -64 -11q-100 0 -100 78t81 138q-69 15 -102.5 71t-17.5 144l55 316h140l-54 -311q-18 -104 51 -104q70 0 88 104l55 311h140l-55 -316q-15 -88 -65.5 -143t-123.5 -70q-36 -25 -60 -55t-24 -54q0 -19 24 -19q18 0 34 6z" />
    <glyph glyph-name="Wcircumflex" unicode="&#x174;" horiz-adv-x="833" 
d="M583 718l-83 61l-108 -61l-41 81l164 85l131 -85zM95 0l11 676h147l-20 -343q-1 -27 -15 -150q31 87 60 149l112 235h154l32 -235q8 -62 8 -146q32 130 37 147l102 343h147l-227 -676h-160l-35 318q-7 64 -6 102q-22 -69 -37 -102l-150 -318h-160z" />
    <glyph glyph-name="wcircumflex" unicode="&#x175;" horiz-adv-x="779" 
d="M535 580l-83 61l-108 -61l-41 81l164 85l131 -85zM47 180l36 343h139l-35 -333q-9 -80 47 -80q27 0 46 23t25 58l53 298h137l-53 -298q-6 -35 5 -58t39 -23q55 0 75 80l84 333h139l-88 -343q-23 -90 -85 -141.5t-146 -51.5t-116 69q-53 -69 -140 -69q-83 0 -127 52
t-35 141z" />
    <glyph glyph-name="Ycircumflex" unicode="&#x176;" horiz-adv-x="567" 
d="M444 718l-83 61l-108 -61l-41 81l164 85l131 -85zM164 0l45 257l-123 419h149l66 -272l168 272h155l-271 -419l-45 -257h-144z" />
    <glyph glyph-name="ycircumflex" unicode="&#x177;" horiz-adv-x="500" 
d="M393 580l-83 61l-108 -61l-41 81l164 85l131 -85zM52 188l12 335h139l-12 -325q-3 -77 45 -77h23l120 402h140l-227 -734h-137l67 211h-12q-165 0 -158 188z" />
    <glyph glyph-name="Ydieresis" unicode="&#x178;" horiz-adv-x="567" 
d="M523 803q0 -27 -19 -45.5t-46 -18.5q-26 0 -45 18.5t-19 45.5t19 46.5t45 19.5q27 0 46 -19.5t19 -46.5zM333 803q0 -27 -19 -45.5t-46 -18.5q-26 0 -45.5 18.5t-19.5 45.5t19.5 46.5t45.5 19.5q27 0 46 -19.5t19 -46.5zM164 0l45 257l-123 419h149l66 -272l168 272h155
l-271 -419l-45 -257h-144z" />
    <glyph glyph-name="Zacute" unicode="&#x179;" horiz-adv-x="555" 
d="M479 789l-230 -77l-20 83l230 89zM-7 0l17 97l353 460h-266l21 119h446l-17 -97l-355 -458h297l-34 -121h-462z" />
    <glyph glyph-name="zacute" unicode="&#x17a;" horiz-adv-x="479" 
d="M427 651l-230 -77l-20 83l230 89zM377 0h-381l17 97l262 309h-200l21 117h369l-17 -96l-254 -310h212z" />
    <glyph glyph-name="Zdotaccent" unicode="&#x17b;" horiz-adv-x="555" 
d="M413 801q0 -27 -19 -45.5t-46 -18.5q-26 0 -45 18.5t-19 45.5t19 46.5t45 19.5q27 0 46 -19.5t19 -46.5zM-7 0l17 97l353 460h-266l21 119h446l-17 -97l-355 -458h297l-34 -121h-462z" />
    <glyph glyph-name="zdotaccent" unicode="&#x17c;" horiz-adv-x="479" 
d="M370 663q0 -27 -19 -45.5t-46 -18.5q-26 0 -45 18.5t-19 45.5t19 46.5t45 19.5q27 0 46 -19.5t19 -46.5zM377 0h-381l17 97l262 309h-200l21 117h369l-17 -96l-254 -310h212z" />
    <glyph glyph-name="Zcaron" unicode="&#x17d;" horiz-adv-x="555" 
d="M501 803l-164 -85l-131 85l63 81l83 -61l108 61zM-7 0l17 97l353 460h-266l21 119h446l-17 -97l-355 -458h297l-34 -121h-462z" />
    <glyph glyph-name="zcaron" unicode="&#x17e;" horiz-adv-x="479" 
d="M454 665l-164 -85l-131 85l63 81l83 -61l108 61zM377 0h-381l17 97l262 309h-200l21 117h369l-17 -96l-254 -310h212z" />
    <glyph glyph-name="florin" unicode="&#x192;" horiz-adv-x="518" 
d="M86 -38l128 407h-83l16 95h97l35 112q25 81 77.5 122.5t119.5 41.5q54 0 98 -21l-34 -115q-35 13 -66 13q-53 0 -71 -58l-30 -95h121l-37 -95h-114l-133 -424q-25 -81 -77.5 -122.5t-119.5 -41.5q-53 0 -98 21l35 115q33 -13 65 -13q52 0 71 58z" />
    <glyph glyph-name="Scommaaccent" unicode="&#x218;" horiz-adv-x="495" 
d="M-5 29l39 122q94 -40 178 -40q41 0 68.5 25.5t27.5 64.5q0 27 -23.5 47.5t-57 37t-67 36t-57 54.5t-23.5 82q0 103 73 167t179 64q74 0 180 -42l-48 -117q-87 34 -144 34q-43 0 -65.5 -21.5t-22.5 -52.5q0 -21 17 -39.5t42 -31.5t55 -31t55 -38t42 -53t17 -75
q0 -115 -76 -175t-183 -60q-99 0 -206 42zM172 -224h-91l55 162h120z" />
    <glyph glyph-name="scommaaccent" unicode="&#x219;" horiz-adv-x="402" 
d="M-18 19l38 114q64 -25 130 -25q29 0 49.5 13.5t20.5 33.5q0 17 -18 30t-43 24.5t-50.5 26t-43.5 42.5t-18 66q0 84 57 138t153 54q69 0 134 -25l-39 -117q-61 21 -107 21q-28 0 -41 -12t-13 -30q0 -20 27 -37.5t59 -31.5t59 -47.5t27 -80.5q0 -78 -56.5 -133.5
t-167.5 -55.5q-75 0 -157 32zM139 -224h-91l55 162h120z" />
    <glyph glyph-name="circumflex" unicode="&#x2c6;" horiz-adv-x="469" 
d="M398 580l-83 61l-108 -61l-41 81l164 85l131 -85z" />
    <glyph glyph-name="caron" unicode="&#x2c7;" horiz-adv-x="469" 
d="M471 665l-164 -85l-131 85l63 81l83 -61l108 61z" />
    <glyph glyph-name="breve" unicode="&#x2d8;" horiz-adv-x="411" 
d="M351 736h88q-13 -65 -54.5 -105t-106.5 -40q-55 0 -86 42t-21 103h87q-4 -26 6 -43t29 -17q20 0 36.5 17t21.5 43z" />
    <glyph glyph-name="dotaccent" unicode="&#x2d9;" horiz-adv-x="267" 
d="M287 663q0 -27 -19 -45.5t-46 -18.5q-26 0 -45 18.5t-19 45.5t19 46.5t45 19.5q27 0 46 -19.5t19 -46.5z" />
    <glyph glyph-name="ring" unicode="&#x2da;" horiz-adv-x="342" 
d="M254 574q-43 0 -73 30.5t-30 72.5q0 41 30 71t73 30q41 0 71 -30t30 -71q0 -42 -30 -72.5t-71 -30.5zM254 646q13 0 21.5 9t8.5 22t-8.5 21.5t-21.5 8.5t-22 -8.5t-9 -21.5t9 -22t22 -9z" />
    <glyph glyph-name="ogonek" unicode="&#x2db;" horiz-adv-x="295" 
d="M168 -128l-2 -85q-26 -11 -64 -11q-100 0 -100 78q0 83 93 146h109q-39 -25 -66.5 -57.5t-27.5 -57.5q0 -19 24 -19q18 0 34 6z" />
    <glyph glyph-name="tilde" unicode="&#x2dc;" horiz-adv-x="447" 
d="M418 718l41 -62q-15 -27 -44 -46t-65 -19q-24 0 -53 22.5t-46 22.5q-29 0 -52 -29l-41 62q16 27 45 46t65 19q24 0 53 -22.5t46 -22.5q28 0 51 29z" />
    <glyph glyph-name="hungarumlaut" unicode="&#x2dd;" horiz-adv-x="599" 
d="M629 671l-188 -102l-34 81l184 110zM396 671l-188 -102l-35 81l185 110z" />
    <glyph glyph-name="Omega" unicode="&#x3a9;" horiz-adv-x="677" 
d="M588 0h-233l42 239q49 24 83.5 67.5t42.5 87.5l6 32q11 66 -22.5 120t-108.5 54q-77 0 -127.5 -52.5t-62.5 -121.5l-6 -32q-8 -46 10.5 -89.5t60.5 -66.5l-41 -238h-234l17 100h112l11 61q-47 39 -65.5 97.5t-7.5 124.5l10 54q21 120 115.5 201.5t228.5 81.5
q133 0 200 -84t46 -199l-10 -54q-26 -143 -151 -224l-11 -59h112z" />
    <glyph glyph-name="pi" unicode="&#x3c0;" horiz-adv-x="711" 
d="M549 0h-133l72 409h-192l-72 -409h-134l72 409h-79l20 118h618l-20 -118h-80z" />
    <glyph glyph-name="afii10023" unicode="&#x401;" horiz-adv-x="522" 
d="M25 0l119 676h396l-23 -125h-251l-26 -150h211l-27 -120h-205l-28 -157h260l-21 -124h-405zM515 803q0 -27 -19 -45.5t-46 -18.5q-26 0 -45 18.5t-19 45.5t19 46.5t45 19.5q27 0 46 -19.5t19 -46.5zM325 803q0 -27 -19 -45.5t-46 -18.5q-26 0 -45.5 18.5t-19.5 45.5
t19.5 46.5t45.5 19.5q27 0 46 -19.5t19 -46.5z" />
    <glyph glyph-name="afii10051" unicode="&#x402;" horiz-adv-x="718" 
d="M432 -14q-47 0 -99 8l22 123q1 0 3 -0.5t3 -0.5q28 -5 42 -5q90 0 104 77l5 26q7 42 -13 67.5t-61 25.5q-19 0 -54 -6t-49 -11l-51 -290h-143l97 551h-160l22 125h463l-22 -125h-160l-24 -137q4 1 22.5 4.5t33 6t37.5 5t43 2.5q88 0 133.5 -56.5t30.5 -142.5l-15 -86
q-14 -81 -71.5 -121t-138.5 -40z" />
    <glyph glyph-name="afii10052" unicode="&#x403;" horiz-adv-x="478" 
d="M25 0l119 676h383l-22 -125h-239l-97 -551h-144zM476 789l-230 -77l-20 83l230 89z" />
    <glyph glyph-name="afii10053" unicode="&#x404;" horiz-adv-x="569" 
d="M276 -13q-122 0 -183.5 76.5t-37.5 213.5l26 146q24 134 107 200t199 66q105 0 197 -31l-43 -118q-80 26 -162 26q-62 0 -102 -38t-56 -124h214l-32 -120h-203l-1 -3q-31 -171 100 -171q87 0 171 27l7 -119q-102 -31 -201 -31z" />
    <glyph glyph-name="afii10054" unicode="&#x405;" horiz-adv-x="495" 
d="M-5 29l39 122q94 -40 178 -40q41 0 68.5 25.5t27.5 64.5q0 27 -23.5 47.5t-57 37t-67 36t-57 54.5t-23.5 82q0 103 73 167t179 64q74 0 180 -42l-48 -117q-87 34 -144 34q-43 0 -65.5 -21.5t-22.5 -52.5q0 -21 17 -39.5t42 -31.5t55 -31t55 -38t42 -53t17 -75
q0 -115 -76 -175t-183 -60q-99 0 -206 42z" />
    <glyph glyph-name="afii10055" unicode="&#x406;" horiz-adv-x="281" 
d="M25 0l119 676h144l-119 -676h-144z" />
    <glyph glyph-name="afii10056" unicode="&#x407;" horiz-adv-x="281" 
d="M25 0l119 676h144l-119 -676h-144zM391 803q0 -27 -19 -45.5t-46 -18.5q-26 0 -45 18.5t-19 45.5t19 46.5t45 19.5q27 0 46 -19.5t19 -46.5zM201 803q0 -27 -19 -45.5t-46 -18.5q-26 0 -45.5 18.5t-19.5 45.5t19.5 46.5t45.5 19.5q27 0 46 -19.5t19 -46.5z" />
    <glyph glyph-name="afii10057" unicode="&#x408;" horiz-adv-x="460" 
d="M145 -13q-79 0 -170 36l40 117q79 -29 133 -29q84 0 106 122l78 443h144l-79 -446q-20 -115 -83 -179t-169 -64z" />
    <glyph glyph-name="afii10058" unicode="&#x409;" horiz-adv-x="943" 
d="M-36 -10l15 122q33 6 55 15.5t46 32t41.5 59.5t37.5 98.5t38.5 148.5t40.5 210h431l-44 -250h97q89 0 138.5 -55t49.5 -134q0 -102 -72.5 -169.5t-185.5 -67.5h-246l98 554h-150q-26 -150 -57.5 -252t-63 -162t-77 -93t-86.5 -43.5t-106 -13.5zM571 122h100q41 0 66.5 29
t25.5 80q0 33 -16 53t-44 20h-100z" />
    <glyph glyph-name="afii10059" unicode="&#x40a;" horiz-adv-x="910" 
d="M25 0l119 676h144l-46 -260h204l46 260h144l-44 -260h97q90 0 139 -52.5t49 -131.5q0 -102 -72 -167t-186 -65h-246l52 294h-204l-52 -294h-144zM538 122h100q41 0 66.5 26.5t25.5 77.5q0 32 -15.5 50t-44.5 18h-100z" />
    <glyph glyph-name="afii10060" unicode="&#x40b;" horiz-adv-x="718" 
d="M141 0l97 551h-160l22 125h463l-22 -125h-160l-25 -137q2 0 22 4t34.5 6.5t41.5 5t53 2.5q76 0 119 -55t28 -139l-42 -238h-142l39 222q7 41 -13 63t-62 22q-18 0 -51 -6t-48 -11l-51 -290h-143z" />
    <glyph glyph-name="afii10061" unicode="&#x40c;" horiz-adv-x="590" 
d="M25 0l119 676h144l-49 -275l77 24q32 10 49.5 25.5t30.5 43.5l82 182h146l-100 -228q-35 -79 -100 -109l114 -339h-163l-87 289l-73 -26l-46 -263h-144zM516 789l-230 -77l-20 83l230 89z" />
    <glyph glyph-name="afii10062" unicode="&#x40e;" horiz-adv-x="563" 
d="M75 0v122h141q29 0 45.5 18t31.5 59l8 24h-40q-161 0 -161 188v265h139v-255q0 -77 52 -77h53l118 332h146l-186 -522q-29 -83 -75.5 -118.5t-136.5 -35.5h-135zM429 869l89 -10q-35 -130 -154 -130q-61 0 -97 35t-29 95l90 10q-1 -25 10.5 -40t30.5 -15q42 0 60 55z" />
    <glyph glyph-name="afii10145" unicode="&#x40f;" horiz-adv-x="642" 
d="M181 -131l24 131h-180l119 676h143l-98 -554h206l98 554h143l-119 -676h-180l-20 -111z" />
    <glyph glyph-name="afii10017" unicode="&#x410;" horiz-adv-x="604" 
d="M-28 0l318 676h166l80 -676h-144l-16 163h-185l-72 -163h-147zM244 282h121l-12 128q-5 53 -5 119q-29 -77 -47 -119z" />
    <glyph glyph-name="afii10018" unicode="&#x411;" horiz-adv-x="570" 
d="M25 0l119 676h409l-22 -122h-265l-23 -131h106q86 0 134 -55.5t48 -135.5q0 -103 -71 -167.5t-185 -64.5h-250zM190 122h104q42 0 68.5 27.5t26.5 78.5q0 33 -17 53t-46 20h-104z" />
    <glyph glyph-name="afii10019" unicode="&#x412;" horiz-adv-x="570" 
d="M25 0l119 676h216q92 0 144.5 -42.5t52.5 -112.5q0 -117 -110 -166q85 -35 85 -117q0 -106 -78 -172t-208 -66h-221zM191 124h75q51 0 84.5 25.5t33.5 73.5q0 64 -81 64h-83zM241 406h61q49 0 77.5 25t28.5 63q0 57 -73 57h-69z" />
    <glyph glyph-name="afii10020" unicode="&#x413;" horiz-adv-x="478" 
d="M25 0l119 676h383l-22 -125h-239l-97 -551h-144z" />
    <glyph glyph-name="afii10021" unicode="&#x414;" horiz-adv-x="677" 
d="M-55 -131l44 253h60q56 57 116 224t92 330h417l-98 -554h70l-41 -233l-135 -20l24 131h-395l-20 -111zM205 122h227l76 432h-144q-30 -130 -77 -257.5t-82 -174.5z" />
    <glyph glyph-name="afii10022" unicode="&#x415;" horiz-adv-x="522" 
d="M25 0l119 676h396l-23 -125h-251l-26 -150h211l-27 -120h-205l-28 -157h260l-21 -124h-405z" />
    <glyph glyph-name="afii10024" unicode="&#x416;" horiz-adv-x="868" 
d="M-30 0l213 338q-52 29 -58 107l-19 231h141l17 -185q4 -49 61 -69l58 -21l49 275h144l-49 -275l66 21q33 10 50.5 25.5t29.5 43.5l83 185h146l-101 -231q-21 -47 -46 -72t-58 -39l94 -334h-163l-67 284l-58 -21l-46 -263h-144l46 263l-51 21l-162 -284h-176z" />
    <glyph glyph-name="afii10025" unicode="&#x417;" horiz-adv-x="528" 
d="M211 -13q-50 0 -112.5 10t-93.5 25l39 121q89 -33 158 -33q61 0 94 29t33 82q0 65 -83 65h-93l14 119h77q54 0 82 26.5t28 70.5q0 27 -17 45.5t-56 18.5q-67 0 -157 -34l-15 115q111 42 214 42q90 0 135 -44t45 -121q0 -55 -29.5 -101t-79.5 -64q84 -34 84 -139
q0 -104 -74.5 -166t-192.5 -67z" />
    <glyph glyph-name="afii10026" unicode="&#x418;" horiz-adv-x="639" 
d="M25 0l119 676h144l-52 -293q-9 -53 -21 -103l315 396h116l-119 -676h-144l50 288q15 74 23 106l-314 -394h-117z" />
    <glyph glyph-name="afii10027" unicode="&#x419;" horiz-adv-x="639" 
d="M25 0l119 676h144l-52 -293q-9 -53 -21 -103l315 396h116l-119 -676h-144l50 288q15 74 23 106l-314 -394h-117zM473 869l89 -10q-35 -130 -154 -130q-61 0 -97 35t-29 95l90 10q-1 -25 10.5 -40t30.5 -15q42 0 60 55z" />
    <glyph glyph-name="afii10028" unicode="&#x41a;" horiz-adv-x="590" 
d="M25 0l119 676h144l-49 -275l77 24q32 10 49.5 25.5t30.5 43.5l82 182h146l-100 -228q-35 -79 -100 -109l114 -339h-163l-87 289l-73 -26l-46 -263h-144z" />
    <glyph glyph-name="afii10029" unicode="&#x41b;" horiz-adv-x="662" 
d="M-36 -10l15 122q33 6 55 15.5t46 32t41.5 59.5t37.5 98.5t38.5 148.5t40.5 210h431l-119 -676h-144l98 554h-150q-26 -150 -57.5 -252t-63 -162t-77 -93t-86.5 -43.5t-106 -13.5z" />
    <glyph glyph-name="afii10030" unicode="&#x41c;" horiz-adv-x="810" 
d="M-10 0l190 676h164l55 -327q2 -11 9 -87q19 50 38 87l172 327h164l-49 -676h-143l33 346q3 35 15 129q-35 -86 -57 -128l-123 -233h-153l-40 233q-11 64 -14 129q-15 -78 -28 -130l-90 -346h-143z" />
    <glyph glyph-name="afii10031" unicode="&#x41d;" horiz-adv-x="629" 
d="M25 0l119 676h144l-48 -271h204l48 271h144l-119 -676h-144l50 283h-204l-50 -283h-144z" />
    <glyph glyph-name="afii10032" unicode="&#x41e;" horiz-adv-x="628" 
d="M268 -13q-114 0 -175.5 72.5t-37.5 206.5l25 143q23 136 107.5 208t203.5 72q113 0 174 -73t38 -207l-25 -143q-24 -136 -107.5 -207.5t-202.5 -71.5zM289 111q118 0 147 166l21 122q28 165 -88 165q-119 0 -147 -165l-21 -122q-28 -166 88 -166z" />
    <glyph glyph-name="afii10033" unicode="&#x41f;" horiz-adv-x="629" 
d="M25 0l119 676h492l-119 -676h-144l97 554h-204l-97 -554h-144z" />
    <glyph glyph-name="afii10034" unicode="&#x420;" horiz-adv-x="547" 
d="M25 0l119 676h236q85 0 134 -50t49 -126q0 -100 -75.5 -176.5t-183.5 -76.5h-91l-44 -247h-144zM234 369h86q39 0 67.5 32t28.5 80q0 32 -17 51t-46 19h-87z" />
    <glyph glyph-name="afii10035" unicode="&#x421;" horiz-adv-x="550" 
d="M277 -13q-121 0 -183.5 71.5t-38.5 206.5l25 146q24 138 105 208t207 70q93 0 185 -31l-41 -120q-83 26 -157 26q-62 0 -101.5 -38.5t-54.5 -126.5l-22 -122q-29 -166 98 -166q71 0 167 27l7 -120q-109 -31 -196 -31z" />
    <glyph glyph-name="afii10036" unicode="&#x422;" horiz-adv-x="515" 
d="M141 0l97 551h-160l22 125h464l-22 -125h-161l-96 -551h-144z" />
    <glyph glyph-name="afii10037" unicode="&#x423;" horiz-adv-x="563" 
d="M75 0v122h141q29 0 45.5 18t31.5 59l8 24h-40q-161 0 -161 188v265h139v-255q0 -77 52 -77h53l118 332h146l-186 -522q-29 -83 -75.5 -118.5t-136.5 -35.5h-135z" />
    <glyph glyph-name="afii10038" unicode="&#x424;" horiz-adv-x="807" 
d="M286 -10l17 97q-115 2 -187.5 57.5t-72.5 161.5q0 66 20.5 119t54 87t80 56.5t95 32.5t102.5 11l14 77h144l-14 -77q115 -2 187 -57.5t72 -161.5q0 -66 -20.5 -119t-54 -87t-80 -56.5t-94.5 -32.5t-102 -11l-17 -97h-144zM324 209l50 281q-89 -2 -135.5 -49.5
t-46.5 -124.5q0 -104 132 -107zM468 209q89 2 135.5 50t46.5 125q0 106 -132 106z" />
    <glyph glyph-name="afii10039" unicode="&#x425;" horiz-adv-x="582" 
d="M-33 0l254 352l-115 324h155l64 -190l130 190h156l-222 -320l131 -356h-160l-75 221l-157 -221h-161z" />
    <glyph glyph-name="afii10040" unicode="&#x426;" horiz-adv-x="639" 
d="M432 -131l24 131h-431l119 676h144l-98 -554h204l98 554h144l-98 -554h70l-41 -233z" />
    <glyph glyph-name="afii10041" unicode="&#x427;" horiz-adv-x="585" 
d="M329 0l46 262q-2 0 -21.5 -4t-34.5 -6.5t-41.5 -5t-52.5 -2.5q-76 0 -120 57.5t-28 142.5l42 232h143l-39 -222q-15 -85 71 -85q18 0 53.5 6t49.5 11l51 290h144l-119 -676h-144z" />
    <glyph glyph-name="afii10042" unicode="&#x428;" horiz-adv-x="889" 
d="M25 0l119 676h144l-98 -554h160l98 554h144l-98 -554h160l98 554h144l-119 -676h-752z" />
    <glyph glyph-name="afii10043" unicode="&#x429;" horiz-adv-x="899" 
d="M692 -131l24 131h-691l119 676h144l-98 -554h160l98 554h144l-98 -554h160l98 554h144l-98 -554h70l-41 -233z" />
    <glyph glyph-name="afii10044" unicode="&#x42a;" horiz-adv-x="652" 
d="M115 0l97 551h-134l22 125h278l-44 -250h97q89 0 138.5 -55t49.5 -134q0 -102 -72.5 -169.5t-185.5 -67.5h-246zM280 122h100q41 0 66.5 29t25.5 80q0 33 -16 53t-44 20h-100z" />
    <glyph glyph-name="afii10045" unicode="&#x42b;" horiz-adv-x="811" 
d="M25 0l119 676h144l-44 -250h97q89 0 138.5 -55t49.5 -134q0 -102 -72.5 -169.5t-185.5 -67.5h-246zM190 122h100q41 0 66.5 29t25.5 80q0 33 -16 53t-44 20h-100zM555 0l119 676h144l-119 -676h-144z" />
    <glyph glyph-name="afii10046" unicode="&#x42c;" horiz-adv-x="562" 
d="M25 0l119 676h144l-44 -250h97q89 0 138.5 -55t49.5 -134q0 -102 -72.5 -169.5t-185.5 -67.5h-246zM190 122h100q41 0 66.5 29t25.5 80q0 33 -16 53t-44 20h-100z" />
    <glyph glyph-name="afii10047" unicode="&#x42d;" horiz-adv-x="556" 
d="M191 -13q-97 0 -187 31l39 121q74 -27 161 -27q132 0 160 166v3h-213l15 120h219q6 30 6 55q0 108 -107 108q-81 0 -170 -26l-7 120q100 31 200 31q104 0 167 -61t63 -168q0 -33 -6 -69l-26 -146q-46 -258 -314 -258z" />
    <glyph glyph-name="afii10048" unicode="&#x42e;" horiz-adv-x="855" 
d="M525 -13q-119 0 -178.5 71.5t-35.5 207.5l3 17h-96l-49 -283h-144l119 676h144l-48 -271h96l1 4q23 134 102.5 207t180.5 73q119 0 176 -79.5t33 -217.5l-26 -143q-24 -134 -98.5 -198t-179.5 -64zM533 112q51 0 83.5 37.5t48.5 127.5l22 122q15 88 -4 126.5t-70 38.5
q-106 0 -134 -165l-22 -122q-16 -90 4 -127.5t72 -37.5z" />
    <glyph glyph-name="afii10049" unicode="&#x42f;" horiz-adv-x="569" 
d="M-12 0l176 273q-43 21 -66 62.5t-23 93.5q0 103 74 175t188 72h239l-119 -676h-144l43 247h-53l-151 -247h-164zM287 369h91l32 182h-91q-42 0 -69.5 -27.5t-27.5 -77.5q0 -34 18 -55.5t47 -21.5z" />
    <glyph glyph-name="afii10065" unicode="&#x430;" horiz-adv-x="520" 
d="M185 -13q-74 0 -120.5 58t-28.5 162l19 110q18 104 84.5 161.5t167.5 57.5q86 0 140.5 -60t37.5 -159l-56 -317h-125l3 45q-45 -58 -122 -58zM228 108q49 0 90 58l26 146q9 50 -7.5 76.5t-50.5 26.5q-33 0 -58 -26.5t-34 -76.5l-17 -100q-18 -104 51 -104z" />
    <glyph glyph-name="afii10066" unicode="&#x431;" horiz-adv-x="539" 
d="M238 -13q-87 0 -141 53.5t-54 140.5q0 25 4 48l41 232q12 68 37.5 115t64.5 73.5t79.5 40.5t97.5 23l202 32l-21 -117l-192 -32q-113 -20 -131 -113q53 33 114 33q71 0 116.5 -45.5t45.5 -126.5q0 -22 -5 -52l-16 -88q-19 -104 -85 -160.5t-157 -56.5zM247 108
q43 0 65.5 28.5t32.5 84.5l11 61q4 21 4 44q0 69 -62 69q-81 0 -101 -113l-11 -61q-4 -20 -4 -42q0 -71 65 -71z" />
    <glyph glyph-name="afii10067" unicode="&#x432;" horiz-adv-x="527" 
d="M15 0l61 341l32 182h218q77 0 119 -30.5t42 -88.5q0 -51 -22 -81t-66 -48q66 -26 66 -107q0 -47 -20 -81.5t-56 -52.5t-77 -26t-90 -8h-207zM175 113h66q36 0 56.5 19.5t20.5 44.5q0 22 -14 37t-42 15h-66zM213 326h51q85 0 85 59q0 43 -62 43h-56z" />
    <glyph glyph-name="afii10068" unicode="&#x433;" horiz-adv-x="423" 
d="M192 -13q-88 0 -131.5 38.5t-43.5 97.5q0 49 18.5 80t58.5 60l125 91q29 22 29 42q0 22 -38 22q-51 0 -121 -21l-9 114q75 25 146 25q76 0 121.5 -35.5t45.5 -85.5q0 -83 -67 -135l-109 -84q-32 -24 -39.5 -34.5t-7.5 -24.5q0 -29 50 -29q60 0 135 25l8 -114
q-94 -32 -171 -32z" />
    <glyph glyph-name="afii10069" unicode="&#x434;" horiz-adv-x="534" 
d="M224 -13q-99 0 -153 66t-35 168l16 93q18 103 82 154t139 51q78 0 113 -22l3 16q11 64 -11 88t-77 24q-47 0 -124 -22l-7 106q108 31 161 31q104 0 155.5 -64t31.5 -182l-54 -305q-18 -98 -86 -150t-154 -52zM234 108q34 0 60 26.5t35 76.5l30 171q-35 16 -77 16
q-79 0 -97 -104l-14 -83q-9 -50 9.5 -76.5t53.5 -26.5z" />
    <glyph glyph-name="afii10070" unicode="&#x435;" horiz-adv-x="499" 
d="M225 -13q-105 0 -156 63t-33 169l17 96q18 106 86 163.5t164 57.5q71 0 119.5 -43t48.5 -109q0 -43 -19.5 -74.5t-47 -49.5t-71 -29t-78 -15t-81.5 -6l-2 -14q-7 -40 11 -64t64 -24q56 0 149 29l6 -117q-93 -33 -177 -33zM190 302q141 9 141 68q0 21 -13.5 33t-35.5 12
q-69 0 -89 -98z" />
    <glyph glyph-name="afii10072" unicode="&#x436;" horiz-adv-x="743" 
d="M-36 0l174 253q-36 32 -42 112l-13 158h134l9 -125q3 -45 27 -54l59 -16l35 195h140l-35 -195l60 16q28 9 47 54l53 125h139l-69 -158q-37 -84 -87 -115l86 -250h-150l-63 208l-39 -10l-34 -198h-140l34 198l-32 9l-132 -207h-161z" />
    <glyph glyph-name="afii10073" unicode="&#x437;" horiz-adv-x="462" 
d="M176 -13q-40 0 -98 8.5t-85 21.5l36 114q68 -26 131 -26q43 0 70 18t27 52q0 41 -56 41h-75l10 103h67q33 0 53.5 17.5t20.5 41.5q0 40 -56 40t-131 -27l-11 109q98 36 183 36q84 0 122.5 -35.5t38.5 -88.5q0 -50 -27.5 -85t-62.5 -47q28 -10 46.5 -40t18.5 -66
q0 -85 -60.5 -136t-161.5 -51z" />
    <glyph glyph-name="afii10074" unicode="&#x438;" horiz-adv-x="537" 
d="M194 -13q-88 0 -127 56.5t-20 163.5l55 316h140l-54 -311q-18 -104 51 -104q70 0 88 104l55 311h140l-92 -523h-125l3 45q-45 -58 -114 -58z" />
    <glyph glyph-name="afii10075" unicode="&#x439;" horiz-adv-x="537" 
d="M194 -13q-88 0 -127 56.5t-20 163.5l55 316h140l-54 -311q-18 -104 51 -104q70 0 88 104l55 311h140l-92 -523h-125l3 45q-45 -58 -114 -58zM379 736l88 -10q-13 -61 -53.5 -95.5t-97.5 -34.5q-59 0 -96 35.5t-27 94.5l91 10q-2 -26 8 -40.5t29 -14.5q40 0 58 55z" />
    <glyph glyph-name="afii10076" unicode="&#x43a;" horiz-adv-x="490" 
d="M16 0l91 523h140l-34 -195l50 16q27 9 46 54l53 125h136l-68 -158q-37 -85 -83 -110l85 -255h-147l-60 209l-35 -11l-34 -198h-140z" />
    <glyph glyph-name="afii10077" unicode="&#x43b;" horiz-adv-x="530" 
d="M-26 0l127 335q70 188 228 188h186l-93 -523h-140l72 405h-26q-52 0 -83 -80l-125 -325h-146z" />
    <glyph glyph-name="afii10078" unicode="&#x43c;" horiz-adv-x="686" 
d="M-20 0l146 523h172l38 -279l139 279h178l-41 -523h-140l31 327l-119 -239h-141l-36 240l-85 -328h-142z" />
    <glyph glyph-name="afii10079" unicode="&#x43d;" horiz-adv-x="544" 
d="M16 0l93 523h140l-34 -192h140l34 192h140l-93 -523h-140l38 213h-140l-38 -213h-140z" />
    <glyph glyph-name="afii10080" unicode="&#x43e;" horiz-adv-x="529" 
d="M215 -13q-91 0 -144 62.5t-35 166.5l16 91q19 109 85 169t174 60q91 0 143 -62.5t34 -166.5l-16 -91q-19 -109 -84 -169t-173 -60zM236 108q42 0 64.5 29t32.5 84l14 81q20 113 -58 113q-80 0 -98 -113l-14 -81q-20 -113 59 -113z" />
    <glyph glyph-name="afii10081" unicode="&#x43f;" horiz-adv-x="539" 
d="M16 0l93 523h119v-42q51 55 124 55q75 0 117.5 -54.5t22.5 -165.5l-55 -316h-140l54 311q10 56 0 80t-42 24q-45 0 -90 -58l-63 -357h-140z" />
    <glyph glyph-name="afii10082" unicode="&#x440;" horiz-adv-x="541" 
d="M-22 -211l130 734h114l7 -45q56 58 121 58q87 0 127 -60t22 -167l-17 -97q-40 -225 -247 -225q-28 0 -79 17l-38 -215h-140zM250 108q74 0 92 104l17 97q9 51 -6 78.5t-47 27.5q-34 0 -60.5 -28t-35.5 -78l-32 -182q41 -19 72 -19z" />
    <glyph glyph-name="afii10083" unicode="&#x441;" horiz-adv-x="456" 
d="M224 -13q-98 0 -152.5 57t-34.5 172l16 91q20 117 87 173t170 56q67 0 146 -25l-41 -116q-65 20 -116 20q-46 0 -71 -24t-35 -84l-16 -91q-10 -60 6.5 -84t62.5 -24q44 0 122 20l11 -116q-88 -25 -155 -25z" />
    <glyph glyph-name="afii10084" unicode="&#x442;" horiz-adv-x="777" 
d="M16 0l93 523h119v-42q15 20 47 37.5t62 17.5q67 0 101 -67q31 34 64 50.5t85 16.5q75 0 118.5 -56.5t25.5 -158.5l-56 -321h-140l54 311q18 104 -41 104q-60 0 -81 -121l-51 -294h-140l51 294q21 121 -39 121q-59 0 -77 -104l-55 -311h-140z" />
    <glyph glyph-name="afii10085" unicode="&#x443;" horiz-adv-x="500" 
d="M155 -211l67 211h-12q-165 0 -158 188l12 335h139l-12 -325q-3 -77 45 -77h23l120 402h140l-227 -734h-137z" />
    <glyph glyph-name="afii10086" unicode="&#x444;" horiz-adv-x="775" 
d="M231 -211l39 222q-46 -24 -83 -24q-81 0 -125 68t-25 177l19 109q18 101 79.5 148t127.5 47q58 0 96 -24l37 213l144 20l-41 -233q46 24 83 24q82 0 126 -64t25 -172l-19 -109q-18 -103 -78 -153.5t-134 -50.5q-54 0 -92 24l-39 -222h-140zM222 108q20 0 69 18l48 271
q-43 18 -63 18q-33 0 -54 -24t-31 -79l-18 -100q-19 -104 49 -104zM494 108q33 0 54 24t31 80l18 100q18 103 -49 103q-22 0 -69 -18l-48 -271q41 -18 63 -18z" />
    <glyph glyph-name="afii10087" unicode="&#x445;" horiz-adv-x="492" 
d="M-37 0l202 268l-97 255h148l49 -134l96 134h150l-184 -249l109 -274h-153l-55 152l-111 -152h-154z" />
    <glyph glyph-name="afii10088" unicode="&#x446;" horiz-adv-x="556" 
d="M372 -120l21 118q-53 13 -61 60q-16 -28 -61.5 -49.5t-88.5 -21.5q-83 0 -118 60.5t-14 179.5l53 296h139l-55 -311q-9 -51 5.5 -77.5t47.5 -26.5q69 0 87 104l55 311h140l-57 -319q-10 -59 7 -82.5t54 -31.5l-34 -193z" />
    <glyph glyph-name="afii10089" unicode="&#x447;" horiz-adv-x="511" 
d="M264 0l33 190q-84 -14 -122 -14q-62 0 -96 40t-21 118l33 189h136l-29 -165q-13 -66 53 -66q31 0 66 14l39 217h140l-92 -523h-140z" />
    <glyph glyph-name="afii10090" unicode="&#x448;" horiz-adv-x="776" 
d="M190 -13q-75 0 -118.5 56.5t-25.5 158.5l56 321h140l-54 -311q-18 -104 41 -104q60 0 81 121l51 294h140l-51 -294q-21 -121 39 -121q59 0 77 104l55 311h140l-93 -523h-119v42q-15 -20 -47 -37.5t-62 -17.5q-67 0 -101 67q-31 -34 -64 -50.5t-85 -16.5z" />
    <glyph glyph-name="afii10091" unicode="&#x449;" horiz-adv-x="795" 
d="M611 -120l21 118q-53 13 -61 60q-18 -28 -53.5 -49.5t-77.5 -21.5q-67 0 -101 67q-31 -34 -64 -50.5t-85 -16.5q-75 0 -118.5 56.5t-25.5 158.5l56 321h140l-54 -311q-18 -104 41 -104q60 0 81 121l51 294h140l-51 -294q-21 -121 39 -121q59 0 77 104l55 311h140
l-57 -319q-10 -59 7 -82.5t54 -31.5l-34 -193z" />
    <glyph glyph-name="afii10092" unicode="&#x44a;" horiz-adv-x="542" 
d="M58 0l72 413h-96l20 110h236l-33 -185h75q79 0 123.5 -37t44.5 -104q0 -102 -63.5 -149.5t-165.5 -47.5h-213zM217 113h73q36 0 54.5 21t18.5 52q0 44 -49 44h-76z" />
    <glyph glyph-name="afii10093" unicode="&#x44b;" horiz-adv-x="724" 
d="M16 0l92 523h140l-33 -185h75q79 0 123.5 -37t44.5 -104q0 -102 -63.5 -149.5t-165.5 -47.5h-213zM175 113h73q36 0 54.5 21t18.5 52q0 44 -49 44h-76zM477 0l92 523h140l-92 -523h-140z" />
    <glyph glyph-name="afii10094" unicode="&#x44c;" horiz-adv-x="500" 
d="M16 0l92 523h140l-33 -185h75q79 0 123.5 -37t44.5 -104q0 -102 -63.5 -149.5t-165.5 -47.5h-213zM175 113h73q36 0 54.5 21t18.5 52q0 44 -49 44h-76z" />
    <glyph glyph-name="afii10095" unicode="&#x44d;" horiz-adv-x="462" 
d="M154 -13q-80 0 -161 25l41 113q65 -20 117 -20q95 0 115 107h-136l11 116h144q1 5 1 14q0 76 -80 76q-51 0 -124 -20l-10 113q83 25 163 25q89 0 140 -46.5t51 -135.5q0 -34 -5 -60l-16 -91q-39 -216 -251 -216z" />
    <glyph glyph-name="afii10096" unicode="&#x44e;" horiz-adv-x="755" 
d="M460 -13q-89 0 -139 51t-50 137q0 25 2 38h-80l-37 -213h-140l92 523h140l-34 -192h80q20 100 83.5 152.5t152.5 52.5q90 0 139.5 -50t49.5 -135q0 -24 -5 -56l-16 -91q-18 -104 -83 -160.5t-155 -56.5zM470 108q42 0 61.5 27.5t30.5 85.5l15 81q5 28 5 47q0 66 -61 66
q-43 0 -62.5 -27.5t-30.5 -85.5l-15 -81q-5 -28 -5 -46q0 -67 62 -67z" />
    <glyph glyph-name="afii10097" unicode="&#x44f;" horiz-adv-x="504" 
d="M-20 0l135 210q-62 31 -62 127q0 94 66.5 140t169.5 46h200l-93 -523h-140l34 188h-42l-106 -188h-162zM246 288h61l23 127h-63q-72 0 -72 -75q0 -22 13 -37t38 -15z" />
    <glyph glyph-name="afii10071" unicode="&#x451;" horiz-adv-x="499" 
d="M225 -13q-105 0 -156 63t-33 169l17 96q18 106 86 163.5t164 57.5q71 0 119.5 -43t48.5 -109q0 -43 -19.5 -74.5t-47 -49.5t-71 -29t-78 -15t-81.5 -6l-2 -14q-7 -40 11 -64t64 -24q56 0 149 29l6 -117q-93 -33 -177 -33zM190 302q141 9 141 68q0 21 -13.5 33t-35.5 12
q-69 0 -89 -98zM490 665q0 -27 -19 -45.5t-46 -18.5q-26 0 -45 18.5t-19 45.5t19 46.5t45 19.5q27 0 46 -19.5t19 -46.5zM300 665q0 -27 -19 -45.5t-46 -18.5q-26 0 -45.5 18.5t-19.5 45.5t19.5 46.5t45.5 19.5q27 0 46 -19.5t19 -46.5z" />
    <glyph glyph-name="afii10099" unicode="&#x452;" horiz-adv-x="543" 
d="M258 -219l93 530q10 56 0 80t-42 24q-45 0 -90 -58l-63 -357h-140l103 587h-39l17 95h39l9 50h140l-9 -50h78l-17 -95h-78l-16 -95q46 44 109 44q75 0 117.5 -54.5t22.5 -165.5l-91 -515z" />
    <glyph glyph-name="afii10100" unicode="&#x453;" horiz-adv-x="423" 
d="M192 -13q-88 0 -131.5 38.5t-43.5 97.5q0 49 18.5 80t58.5 60l125 91q29 22 29 42q0 22 -38 22q-51 0 -121 -21l-9 114q75 25 146 25q76 0 121.5 -35.5t45.5 -85.5q0 -83 -67 -135l-109 -84q-32 -24 -39.5 -34.5t-7.5 -24.5q0 -29 50 -29q60 0 135 25l8 -114
q-94 -32 -171 -32zM424 651l-230 -77l-20 83l230 89z" />
    <glyph glyph-name="afii10101" unicode="&#x454;" horiz-adv-x="466" 
d="M224 -13q-102 0 -153 66.5t-30 185.5l16 91q36 206 256 206q70 0 147 -25l-40 -113q-65 20 -112 20q-85 0 -110 -88h145l-31 -116h-136q-9 -58 11 -83.5t66 -25.5t119 20l11 -113q-90 -25 -159 -25z" />
    <glyph glyph-name="afii10102" unicode="&#x455;" horiz-adv-x="402" 
d="M139 -13q-75 0 -157 32l38 114q64 -25 130 -25q29 0 49.5 13.5t20.5 33.5q0 17 -18 30t-43 24.5t-50.5 26t-43.5 42.5t-18 66q0 84 57 138t153 54q69 0 134 -25l-39 -117q-61 21 -107 21q-28 0 -41 -12t-13 -30q0 -20 27 -37.5t59 -31.5t59 -47.5t27 -80.5
q0 -78 -56.5 -133.5t-167.5 -55.5z" />
    <glyph glyph-name="afii10103" unicode="&#x456;" horiz-adv-x="264" 
d="M200 592q-33 0 -57 23t-24 56t24 55.5t57 22.5t57 -22.5t24 -55.5q0 -32 -24 -55.5t-57 -23.5zM15 0l92 523h140l-92 -523h-140z" />
    <glyph glyph-name="afii10104" unicode="&#x457;" horiz-adv-x="264" 
d="M358 665q0 -27 -19 -45.5t-46 -18.5q-26 0 -45 18.5t-19 45.5t19 46.5t45 19.5q27 0 46 -19.5t19 -46.5zM168 665q0 -27 -19 -45.5t-46 -18.5q-26 0 -45.5 18.5t-19.5 45.5t19.5 46.5t45.5 19.5q27 0 46 -19.5t19 -46.5zM155 0h-140l92 523h140z" />
    <glyph glyph-name="afii10105" unicode="&#x458;" horiz-adv-x="263" 
d="M199 592q-33 0 -57 23t-24 56t24 55.5t57 22.5t57 -22.5t24 -55.5q0 -32 -24 -55.5t-57 -23.5zM-24 -219l131 742h140l-128 -722z" />
    <glyph glyph-name="afii10106" unicode="&#x459;" horiz-adv-x="767" 
d="M-26 0l127 335q70 188 228 188h186l-33 -185h75q79 0 123.5 -37t44.5 -104q0 -102 -63.5 -149.5t-165.5 -47.5h-214l72 405h-26q-52 0 -83 -80l-125 -325h-146zM442 113h73q36 0 54.5 21t18.5 52q0 44 -49 44h-76z" />
    <glyph glyph-name="afii10107" unicode="&#x45a;" horiz-adv-x="781" 
d="M16 0l93 523h140l-33 -185h140l33 185h140l-33 -185h75q79 0 123.5 -37t44.5 -104q0 -102 -63.5 -149.5t-165.5 -47.5h-214l39 220h-140l-39 -220h-140zM456 113h73q36 0 54.5 21t18.5 52q0 44 -49 44h-76z" />
    <glyph glyph-name="afii10108" unicode="&#x45b;" horiz-adv-x="543" 
d="M16 0l103 587h-39l17 95h39l9 50h140l-9 -50h78l-17 -95h-78l-16 -95q46 44 109 44q75 0 117.5 -54.5t22.5 -165.5l-55 -316h-140l54 311q10 56 0 80t-42 24q-45 0 -90 -58l-63 -357h-140z" />
    <glyph glyph-name="afii10109" unicode="&#x45c;" horiz-adv-x="490" 
d="M16 0l91 523h140l-34 -195l50 16q27 9 46 54l53 125h136l-68 -158q-37 -85 -83 -110l85 -255h-147l-60 209l-35 -11l-34 -198h-140zM458 651l-230 -77l-20 83l230 89z" />
    <glyph glyph-name="afii10110" unicode="&#x45e;" horiz-adv-x="500" 
d="M155 -211l67 211h-12q-165 0 -158 188l12 335h139l-12 -325q-3 -77 45 -77h23l120 402h140l-227 -734h-137zM370 736l88 -10q-13 -61 -53.5 -95.5t-97.5 -34.5q-59 0 -96 35.5t-27 94.5l91 10q-2 -26 8 -40.5t29 -14.5q40 0 58 55z" />
    <glyph glyph-name="afii10193" unicode="&#x45f;" horiz-adv-x="558" 
d="M147 -110l20 110h-151l92 523h140l-72 -405h141l72 405h140l-92 -523h-151l-17 -93z" />
    <glyph glyph-name="afii10050" unicode="&#x490;" horiz-adv-x="478" 
d="M25 0l119 676h253l15 84l134 20l-41 -229h-239l-97 -551h-144z" />
    <glyph glyph-name="afii10098" unicode="&#x491;" horiz-adv-x="390" 
d="M16 0l92 523h197l14 79l120 17l-38 -214h-176l-71 -405h-138z" />
    <glyph glyph-name="Wgrave" unicode="&#x1e80;" horiz-adv-x="833" 
d="M578 712l-203 84l48 88l199 -96zM95 0l11 676h147l-20 -343q-1 -27 -15 -150q31 87 60 149l112 235h154l32 -235q8 -62 8 -146q32 130 37 147l102 343h147l-227 -676h-160l-35 318q-7 64 -6 102q-22 -69 -37 -102l-150 -318h-160z" />
    <glyph glyph-name="wgrave" unicode="&#x1e81;" horiz-adv-x="779" 
d="M532 574l-203 84l48 88l199 -96zM47 180l36 343h139l-35 -333q-9 -80 47 -80q27 0 46 23t25 58l53 298h137l-53 -298q-6 -35 5 -58t39 -23q55 0 75 80l84 333h139l-88 -343q-23 -90 -85 -141.5t-146 -51.5t-116 69q-53 -69 -140 -69q-83 0 -127 52t-35 141z" />
    <glyph glyph-name="Wacute" unicode="&#x1e82;" horiz-adv-x="833" 
d="M622 789l-230 -77l-20 83l230 89zM95 0l11 676h147l-20 -343q-1 -27 -15 -150q31 87 60 149l112 235h154l32 -235q8 -62 8 -146q32 130 37 147l102 343h147l-227 -676h-160l-35 318q-7 64 -6 102q-22 -69 -37 -102l-150 -318h-160z" />
    <glyph glyph-name="wacute" unicode="&#x1e83;" horiz-adv-x="779" 
d="M565 651l-230 -77l-20 83l230 89zM47 180l36 343h139l-35 -333q-9 -80 47 -80q27 0 46 23t25 58l53 298h137l-53 -298q-6 -35 5 -58t39 -23q55 0 75 80l84 333h139l-88 -343q-23 -90 -85 -141.5t-146 -51.5t-116 69q-53 -69 -140 -69q-83 0 -127 52t-35 141z" />
    <glyph glyph-name="Wdieresis" unicode="&#x1e84;" horiz-adv-x="833" 
d="M658 803q0 -27 -19 -45.5t-46 -18.5q-26 0 -45 18.5t-19 45.5t19 46.5t45 19.5q27 0 46 -19.5t19 -46.5zM468 803q0 -27 -19 -45.5t-46 -18.5q-26 0 -45.5 18.5t-19.5 45.5t19.5 46.5t45.5 19.5q27 0 46 -19.5t19 -46.5zM95 0l11 676h147l-20 -343q-1 -27 -15 -150
q31 87 60 149l112 235h154l32 -235q8 -62 8 -146q32 130 37 147l102 343h147l-227 -676h-160l-35 318q-7 64 -6 102q-22 -69 -37 -102l-150 -318h-160z" />
    <glyph glyph-name="wdieresis" unicode="&#x1e85;" horiz-adv-x="779" 
d="M617 665q0 -27 -19 -45.5t-46 -18.5q-26 0 -45 18.5t-19 45.5t19 46.5t45 19.5q27 0 46 -19.5t19 -46.5zM427 665q0 -27 -19 -45.5t-46 -18.5q-26 0 -45.5 18.5t-19.5 45.5t19.5 46.5t45.5 19.5q27 0 46 -19.5t19 -46.5zM47 180l36 343h139l-35 -333q-9 -80 47 -80
q27 0 46 23t25 58l53 298h137l-53 -298q-6 -35 5 -58t39 -23q55 0 75 80l84 333h139l-88 -343q-23 -90 -85 -141.5t-146 -51.5t-116 69q-53 -69 -140 -69q-83 0 -127 52t-35 141z" />
    <glyph glyph-name="Ygrave" unicode="&#x1ef2;" horiz-adv-x="567" 
d="M445 712l-203 84l48 88l199 -96zM164 0l45 257l-123 419h149l66 -272l168 272h155l-271 -419l-45 -257h-144z" />
    <glyph glyph-name="ygrave" unicode="&#x1ef3;" horiz-adv-x="500" 
d="M395 574l-203 84l48 88l199 -96zM52 188l12 335h139l-12 -325q-3 -77 45 -77h23l120 402h140l-227 -734h-137l67 211h-12q-165 0 -158 188z" />
    <glyph glyph-name="endash" unicode="&#x2013;" horiz-adv-x="500" 
d="M500 211h-500v118h500v-118z" />
    <glyph glyph-name="emdash" unicode="&#x2014;" horiz-adv-x="1000" 
d="M1000 211h-1000v118h1000v-118z" />
    <glyph glyph-name="quoteleft" unicode="&#x2018;" horiz-adv-x="244" 
d="M211 481h-121l115 252l87 -15z" />
    <glyph glyph-name="quoteright" unicode="&#x2019;" horiz-adv-x="243" 
d="M181 481l-87 15l81 237h121z" />
    <glyph glyph-name="quotesinglbase" unicode="&#x201a;" horiz-adv-x="243" 
d="M69 -101l-88 15l81 237h122z" />
    <glyph glyph-name="quotedblleft" unicode="&#x201c;" horiz-adv-x="428" 
d="M399 481h-122l116 252l87 -15zM217 481h-121l115 252l88 -15z" />
    <glyph glyph-name="quotedblright" unicode="&#x201d;" horiz-adv-x="427" 
d="M382 481l-87 15l81 237h122zM201 481l-87 15l81 237h122z" />
    <glyph glyph-name="quotedblbase" unicode="&#x201e;" horiz-adv-x="415" 
d="M240 -101l-89 15l82 237h121zM67 -101l-88 15l81 237h122z" />
    <glyph glyph-name="dagger" unicode="&#x2020;" horiz-adv-x="436" 
d="M248 0h-133l70 400h-93l19 110h93l26 146h133l-26 -146h93l-19 -110h-93z" />
    <glyph glyph-name="daggerdbl" unicode="&#x2021;" horiz-adv-x="436" 
d="M252 0h-133l27 158h-93l20 110h93l21 120h-93l19 110h93l28 158h133l-28 -158h93l-19 -110h-93l-21 -120h93l-20 -110h-93z" />
    <glyph glyph-name="bullet" unicode="&#x2022;" horiz-adv-x="460" 
d="M388 281q0 -65 -46 -110.5t-110 -45.5t-110 45.5t-46 110.5t46 110.5t110 45.5t110 -45.5t46 -110.5z" />
    <glyph glyph-name="ellipsis" unicode="&#x2026;" horiz-adv-x="863" 
d="M671 -11q-34 0 -59 25t-25 60t25 58.5t59 23.5t58.5 -23.5t24.5 -58.5t-24.5 -60t-58.5 -25zM400 -11q-34 0 -58.5 25t-24.5 60t24.5 58.5t58.5 23.5t58.5 -23.5t24.5 -58.5t-24.5 -60t-58.5 -25zM130 -11q-34 0 -59 25t-25 60t25 58.5t59 23.5t58.5 -23.5t24.5 -58.5
t-24.5 -60t-58.5 -25z" />
    <glyph glyph-name="perthousand" unicode="&#x2030;" horiz-adv-x="1259" 
d="M409 524l-12 -66q-13 -74 -65.5 -119.5t-121.5 -45.5q-70 0 -106 45.5t-23 119.5l12 66q13 75 65 120t122 45q69 0 105.5 -45t23.5 -120zM295 0h-110l430 676h107zM297 460l11 62q6 37 -6 56t-38 19t-45 -19t-25 -56l-11 -62q-13 -73 44 -73t70 73zM1202 218l-12 -66
q-13 -74 -65.5 -119.5t-121.5 -45.5q-70 0 -106 45.5t-23 119.5l12 66q13 75 65 120t122 45q69 0 105.5 -45t23.5 -120zM827 218l-12 -66q-13 -74 -65.5 -119.5t-121.5 -45.5q-70 0 -106 45.5t-23 119.5l12 66q13 75 65 120t122 45q69 0 105.5 -45t23.5 -120zM1090 154
l11 62q6 37 -6 56t-38 19t-45 -19t-25 -56l-11 -62q-13 -73 44 -73t70 73zM715 154l11 62q6 37 -6 56t-38 19t-45 -19t-25 -56l-11 -62q-13 -73 44 -73t70 73z" />
    <glyph glyph-name="guilsinglleft" unicode="&#x2039;" horiz-adv-x="336" 
d="M264 139l-91 -60l-111 202l183 202l78 -68l-130 -139z" />
    <glyph glyph-name="guilsinglright" unicode="&#x203a;" horiz-adv-x="335" 
d="M117 79l-78 68l130 139l-71 137l91 60l111 -202z" />
    <glyph glyph-name="Euro" unicode="&#x20ac;" horiz-adv-x="550" 
d="M471 130l5 -121q-87 -22 -163 -22q-107 0 -167 65t-44 176h-63l12 72h64l13 76h-63l12 72h65q23 112 100 176.5t182 64.5q77 0 155 -22l-34 -121q-74 19 -129 19q-49 0 -84 -31.5t-47 -85.5h179l-26 -72h-167l-13 -76h150l-26 -72h-137q-7 -54 17.5 -85.5t73.5 -31.5
q54 0 135 19z" />
    <glyph glyph-name="afii61352" unicode="&#x2116;" horiz-adv-x="971" 
d="M25 0l119 676h116l160 -386q4 41 15 103l50 283h144l-119 -676h-117l-161 384q-6 -57 -14 -106l-49 -278h-144zM634 107l16 87h241l-16 -87h-241zM784 226q-67 0 -99.5 46t-20.5 114l10 59q11 63 53.5 95.5t98.5 32.5q68 0 101 -46t21 -114l-10 -59q-23 -128 -154 -128z
M796 306q20 0 36 16.5t22 48.5l10 55q11 64 -48 64q-19 0 -34 -16t-21 -48l-10 -55q-11 -65 45 -65z" />
    <glyph glyph-name="trademark" unicode="&#x2122;" horiz-adv-x="761" 
d="M716 371h-93l9 127l-48 -89h-80l-17 89l-35 -127h-93l94 305h89l23 -149l75 149h89zM264 371h-92l39 223h-80l15 82h254l-22 -82h-75z" />
    <glyph glyph-name="Delta" unicode="&#x2206;" horiz-adv-x="762" 
d="M701 0h-714l410 702h141zM533 118l-95 417l-243 -417h338z" />
    <glyph glyph-name="product" unicode="&#x220f;" horiz-adv-x="753" 
d="M569 -131h-133l122 689h-245l-122 -689h-135l122 689h-78l21 118h671l-21 -118h-80z" />
    <glyph glyph-name="summation" unicode="&#x2211;" horiz-adv-x="633" 
d="M527 -126h-526l20 109l309 292l-207 291l20 110h526l-21 -118h-343l200 -283l-299 -283h342z" />
    <glyph glyph-name="radical" unicode="&#x221a;" horiz-adv-x="656" 
d="M378 0h-155l-54 428h-92v95h227l15 -198q7 -105 9 -163q55 134 69 163l188 407h146z" />
    <glyph glyph-name="integral" unicode="&#x222b;" horiz-adv-x="388" 
d="M79 -40l109 613q14 80 67.5 123.5t122.5 43.5q43 0 100 -20l-36 -118q-43 15 -68 15q-46 0 -56 -56l-108 -613q-14 -80 -67.5 -123.5t-121.5 -43.5q-44 0 -102 20l38 118q37 -15 67 -15q45 0 55 56z" />
    <glyph glyph-name="approxequal" unicode="&#x2248;" horiz-adv-x="598" 
d="M490 485l69 -77q-91 -111 -169 -111q-27 0 -50 12t-36 27t-28.5 27t-29.5 12q-37 0 -77 -53l-69 77q42 52 82.5 81.5t87.5 29.5q33 0 59.5 -19.5t47 -39t37.5 -19.5q32 0 76 53zM448 245l69 -77q-43 -52 -82.5 -81.5t-86.5 -29.5q-34 0 -61 19.5t-47 39t-37 19.5
q-36 0 -76 -53l-69 77q89 111 170 111q26 0 48.5 -12t35.5 -27t29 -27t30 -12q33 0 77 53z" />
    <glyph glyph-name="notequal" unicode="&#x2260;" horiz-adv-x="571" 
d="M528 119h-228l-52 -143l-109 39l38 104h-112v118h155l30 84h-185v119h229l51 141l109 -38l-38 -103h112v-119h-155l-30 -84h185v-118z" />
    <glyph glyph-name="lessequal" unicode="&#x2264;" horiz-adv-x="533" 
d="M430 16l-365 208v93l365 209l60 -118l-256 -137l256 -137zM475 -122h-410v117h410v-117z" />
    <glyph glyph-name="greaterequal" unicode="&#x2265;" horiz-adv-x="533" 
d="M489 224l-365 -208l-60 118l256 137l-256 137l60 118l365 -209v-93zM489 -122h-410v117h410v-117z" />
    <glyph glyph-name="lozenge" unicode="&#x25ca;" horiz-adv-x="667" 
d="M656 333l-365 -340l-246 341l366 340zM470 333l-95 134l-143 -132l96 -135z" />
    <glyph glyph-name="apple" unicode="&#xf8ff;" horiz-adv-x="0" 
 />
    <glyph glyph-name="c.smcp" horiz-adv-x="494" 
d="M408 131l8 -117q-95 -27 -171 -27q-108 0 -163 61t-35 178l21 122q42 239 273 239q84 0 162 -26l-39 -114q-58 19 -134 19q-50 0 -81 -30t-43 -101l-17 -96q-12 -70 7.5 -100.5t68.5 -30.5q63 0 143 23z" />
    <glyph glyph-name="eight.onum" horiz-adv-x="568" 
d="M437 358q79 -54 79 -137q0 -54 -26.5 -100t-68 -74.5t-89.5 -44t-93 -15.5q-83 0 -145.5 44.5t-62.5 121.5q0 121 136 193q-61 47 -61 120q0 86 72.5 154.5t183.5 68.5q78 0 134.5 -43.5t56.5 -114.5q0 -107 -116 -173zM326 417q83 41 83 95q0 23 -19.5 39.5t-49.5 16.5
q-37 0 -63.5 -22.5t-26.5 -52.5q0 -23 19.5 -40.5t56.5 -35.5zM277 284q-50 -24 -76 -49.5t-26 -61.5q0 -27 24 -46t61 -19q44 0 78 26t34 61q0 28 -23.5 47t-71.5 42z" />
    <glyph glyph-name="d.smcp" horiz-adv-x="559" 
d="M244 0h-223l94 535q145 52 232 52q94 0 147.5 -59t35.5 -163l-26 -149q-18 -105 -86.5 -160.5t-173.5 -55.5zM365 226l23 127q21 113 -62 113q-47 0 -85 -13l-59 -332h81q46 0 69 23t33 82z" />
    <glyph glyph-name="f.smcp" horiz-adv-x="466" 
d="M161 0h-140l101 574h353l-22 -121h-212l-19 -106h171l-25 -115h-166z" />
    <glyph glyph-name="h.smcp" horiz-adv-x="564" 
d="M458 0h-140l41 234h-156l-42 -234h-140l101 574h140l-40 -224h157l40 224h140z" />
    <glyph glyph-name="i.smcp" horiz-adv-x="268" 
d="M161 0h-140l101 574h140z" />
    <glyph glyph-name="numbersign.onum" horiz-adv-x="577" 
d="M378 0h-122l49 181h-92l-49 -181h-122l49 181h-69l22 123h82l28 102h-69l22 123h81l50 180h121l-49 -180h92l50 180h121l-50 -180h69l-22 -123h-81l-28 -102h68l-22 -123h-81zM339 304l28 102h-92l-28 -102h92z" />
    <glyph glyph-name="l.smcp" horiz-adv-x="453" 
d="M381 0h-360l101 574h140l-80 -453h223z" />
    <glyph glyph-name="CR" horiz-adv-x="219" 
 />
    <glyph glyph-name="m.smcp" horiz-adv-x="726" 
d="M-9 0l160 574h158l41 -263q6 -40 9 -80q17 46 34 80l139 263h158l-42 -574h-138l25 259q0 5 16 119q-31 -77 -54 -118l-89 -168h-146l-31 168q-6 31 -12 119q-11 -59 -26 -120l-64 -259h-138z" />
    <glyph glyph-name="n.smcp" horiz-adv-x="559" 
d="M452 0h-115l-124 309q-7 -63 -13 -93l-39 -216h-140l101 574h114l124 -306q3 33 14 90l39 216h140z" />
    <glyph glyph-name="o.smcp" horiz-adv-x="562" 
d="M532 346l-21 -118q-21 -118 -94 -179.5t-180 -61.5q-101 0 -155.5 62.5t-34.5 178.5l21 118q20 117 94 179t180 62q101 0 155 -63t35 -178zM373 239l17 96q22 131 -69 131q-93 0 -115 -131l-17 -96q-12 -72 6 -101.5t62 -29.5q93 0 116 131z" />
    <glyph glyph-name="p.smcp" horiz-adv-x="494" 
d="M161 0h-140l101 574h209q77 0 121 -44t44 -110q0 -86 -66.5 -151.5t-163.5 -65.5h-69zM217 320h63q28 0 50.5 23t22.5 58q0 24 -13 38t-35 14h-64z" />
    <glyph glyph-name="r.smcp" horiz-adv-x="507" 
d="M433 0h-146l-55 207h-35l-36 -207h-140l101 574h209q77 0 121 -44t44 -110q0 -54 -32 -109t-98 -83zM217 320h61q29 0 52.5 22.5t23.5 56.5q0 25 -14 40t-37 15h-62z" />
    <glyph glyph-name="five.tnum" 
d="M22 21l40 118q97 -31 161 -31q56 0 95.5 35t39.5 100q0 77 -111 77h-143l75 356h379l-40 -115h-236l-28 -126h26q102 0 162 -44t60 -127q0 -69 -27 -124t-70 -87t-91.5 -49t-96.5 -17q-93 0 -195 34z" />
    <glyph glyph-name="t.smcp" horiz-adv-x="462" 
d="M257 0h-140l80 454h-134l21 120h408l-21 -120h-134z" />
    <glyph glyph-name="v.smcp" horiz-adv-x="545" 
d="M311 0h-163l-68 574h143l28 -328q4 -61 3 -110q25 76 40 110l144 328h143z" />
    <glyph glyph-name="x.smcp" horiz-adv-x="523" 
d="M310 0l-57 176l-125 -176h-155l216 296l-97 278h148l50 -150l103 150h149l-187 -267l110 -307h-155z" />
    <glyph glyph-name="y.smcp" horiz-adv-x="514" 
d="M284 0h-140l38 218l-106 356h150l48 -212l124 212h156l-232 -356z" />
    <glyph glyph-name="cent.tnum" 
d="M304 -124h-99l20 116q-75 14 -112 70t-21 154l15 91q34 203 213 226l21 114h99l-21 -115q39 -5 92 -21l-41 -116q-65 20 -116 20q-46 0 -71.5 -24t-35.5 -84l-15 -91q-10 -60 6.5 -84t62.5 -24q44 0 122 20l11 -116q-59 -17 -111 -23z" />
    <glyph glyph-name="question.smcp" horiz-adv-x="398" 
d="M249 193l-124 17l6 31q6 33 28 64.5t44 51t40.5 42t18.5 41.5q0 14 -10.5 23t-27.5 9q-42 0 -100 -38l-39 93q82 58 161 58q64 0 106 -34t42 -91q0 -36 -20 -70.5t-44 -56t-46.5 -46.5t-25.5 -44zM162 -11q-33 0 -56.5 23t-23.5 57q0 33 24 55.5t56 22.5q31 0 55 -23
t24 -56q0 -32 -23.5 -55.5t-55.5 -23.5z" />
    <glyph glyph-name="yen.tnum" 
d="M447 92h-116l-16 -92h-143l16 92h-116l14 80h116l12 69h-116l14 81h85l-102 354h145l70 -291l175 291h144l-228 -354h86l-14 -81h-116l-12 -69h116z" />
    <glyph glyph-name="exclam.smcp" horiz-adv-x="254" 
d="M178 183h-127l62 383l141 17zM96 -7q-32 0 -56 23.5t-24 56.5q0 34 23.5 56t55.5 22q33 0 57 -22.5t24 -55.5t-23.5 -56.5t-56.5 -23.5z" />
    <glyph glyph-name="questiondown.smcp" horiz-adv-x="398" 
d="M309 415q0 -33 -24 -55t-56 -22t-55.5 22.5t-23.5 55.5t23.5 56.5t55.5 23.5q33 0 56.5 -23.5t23.5 -57.5zM267 50l39 -93q-84 -58 -161 -58q-64 0 -106 34.5t-42 91.5q0 36 20 70t44 55.5t46.5 46.5t25.5 44l9 50l124 -17l-6 -31q-6 -33 -28 -64.5t-44 -51t-40.5 -42
t-18.5 -41.5q0 -14 10.5 -23t27.5 -9q44 0 100 38z" />
    <glyph glyph-name="exclamdown.smcp" horiz-adv-x="254" 
d="M236 417q0 -33 -24 -55t-55 -22q-33 0 -57 22.5t-24 55.5t23.5 56.5t56.5 23.5q32 0 56 -24t24 -57zM139 -75l-141 -17l76 400h127z" />
    <glyph glyph-name="at.smcp" horiz-adv-x="762" 
d="M556 3l39 -81q-108 -75 -245 -75q-146 0 -234.5 91.5t-88.5 225.5q0 105 45 193.5t134 144.5t206 56q136 0 218.5 -87t82.5 -230q0 -34 -2 -60h-178l-5 -44q-7 -60 -57 -98.5t-118 -38.5q-64 0 -103.5 33.5t-39.5 89.5q0 65 48 98.5t125 33.5h44l2 12q6 41 -39 41
q-53 0 -114 -21l-15 92q79 27 140 27q66 0 109 -35.5t35 -96.5l-2 -19h72q0 99 -60.5 155t-159.5 56q-118 0 -194.5 -81.5t-76.5 -210.5q0 -109 63 -172t170 -63q93 0 199 64zM413 141l4 40h-45q-46 0 -46 -46q0 -36 39 -36q43 0 48 42z" />
    <glyph glyph-name="onesmcp.tnum" horiz-adv-x="500" 
d="M344 0h-139l78 447l-128 -18l22 121l270 36z" />
    <glyph glyph-name="sacute.smcp" horiz-adv-x="445" 
d="M419 701l-230 -77l-20 83l230 89zM-4 25l37 119q83 -36 156 -36q34 0 54.5 18.5t20.5 44.5q0 24 -31 44.5t-67.5 36t-67.5 50t-31 83.5q0 91 64 146.5t158 55.5q63 0 161 -38l-46 -114q-79 31 -125 31q-35 0 -51.5 -15.5t-16.5 -35.5q0 -19 20.5 -36t49.5 -32.5
t57.5 -34.5t49 -50.5t20.5 -72.5q0 -100 -66.5 -151t-161.5 -51q-90 0 -184 38z" />
    <glyph glyph-name="threesmcp.tnum" horiz-adv-x="500" 
d="M24 22l38 111q80 -26 124 -26q45 0 76 24t31 60q0 47 -63 47h-77v106l152 114h-198v116h365l-13 -116l-152 -115q62 -5 96 -44.5t34 -93.5q0 -98 -73.5 -158t-171.5 -60q-73 0 -168 35z" />
    <glyph glyph-name="fivesmcp.tnum" horiz-adv-x="500" 
d="M15 17l39 118q86 -28 142 -28q43 0 72.5 26t29.5 70q0 59 -89 59h-127l66 312h341l-37 -113h-201l-21 -86h11q91 0 146 -39t55 -112q0 -63 -25 -111t-64.5 -74.5t-80.5 -39t-80 -12.5q-82 0 -177 30z" />
    <glyph glyph-name="sevensmcp.tnum" horiz-adv-x="500" 
d="M282 0h-144q51 295 202 454h-241l9 120h407l-20 -115q-96 -93 -140.5 -196.5t-72.5 -262.5z" />
    <glyph glyph-name="eightsmcp.tnum" horiz-adv-x="500" 
d="M392 301q75 -48 75 -110q0 -94 -77.5 -149t-169.5 -55q-78 0 -132 38.5t-54 108.5q0 96 113 156q-50 41 -50 101q0 75 64.5 135.5t163.5 60.5q68 0 120 -38.5t52 -102.5q0 -89 -105 -145zM289 356q66 34 66 73q0 16 -15 27t-36 11q-27 0 -45.5 -14.5t-18.5 -35.5
q0 -31 49 -61zM245 234q-68 -36 -68 -81q0 -21 17.5 -33.5t46.5 -12.5q36 0 59.5 17.5t23.5 41.5q0 20 -20 35t-59 33z" />
    <glyph glyph-name="tbar.smcp" horiz-adv-x="462" 
d="M257 0h-140l45 255h-61l15 91h62l19 108h-134l21 120h408l-21 -120h-134l-19 -108h56l-16 -91h-56z" />
    <glyph glyph-name="centsmcp.tnum" horiz-adv-x="500" 
d="M269 -105h-93l17 99q-65 14 -98 61.5t-18 129.5l13 77q28 171 184 193l18 97h93l-18 -98q40 -7 78 -18l-39 -111q-54 17 -99 17q-36 0 -55 -16.5t-26 -61.5l-13 -81q-7 -45 5.5 -61.5t47.5 -16.5q40 0 104 16l12 -110q-50 -15 -97 -20z" />
    <glyph glyph-name="centonum.tnum" 
d="M304 -124h-99l20 116q-75 14 -112 70t-21 154l15 91q34 203 213 226l21 114h99l-21 -115q39 -5 92 -21l-41 -116q-65 20 -116 20q-46 0 -71.5 -24t-35.5 -84l-15 -91q-10 -60 6.5 -84t62.5 -24q44 0 122 20l11 -116q-59 -17 -111 -23z" />
    <glyph glyph-name="sterlingsmcp.tnum" horiz-adv-x="500" 
d="M397 0h-355l16 94q64 71 75 127h-53l13 75h41q-4 42 -4 70q0 105 58 163t148 58q68 0 142 -37l-35 -108q-52 24 -99 24q-75 0 -75 -101q0 -23 4 -69h127l-13 -75h-117q-12 -63 -69 -115h214z" />
    <glyph glyph-name="Eurosmcp.tnum" horiz-adv-x="500" 
d="M418 123l6 -116q-77 -20 -147 -20q-94 0 -148.5 55.5t-41.5 150.5h-51l11 64h52l10 60h-51l11 64h53q20 95 88 150.5t160 55.5q70 0 139 -20l-32 -116q-66 17 -114 17q-37 0 -64.5 -23.5t-37.5 -63.5h150l-24 -64h-139l-10 -60h124l-23 -64h-113q-5 -40 15 -63.5
t58 -23.5q48 0 119 17z" />
    <glyph glyph-name="yensmcp.tnum" horiz-adv-x="500" 
d="M389 74h-93l-13 -74h-140l12 74h-97l14 74h96l9 56h-95l12 75h68l-86 295h141l54 -235l140 235h140l-192 -295h66l-12 -75h-95l-10 -56h95z" />
    <glyph glyph-name="numbersignsmcp.tnum" horiz-adv-x="500" 
d="M333 0h-118l41 148h-67l-40 -148h-119l41 148h-60l21 119h73l20 69h-60l20 119h72l42 147h117l-40 -147h66l41 147h117l-41 -147h60l-21 -119h-72l-20 -69h59l-21 -119h-71zM288 267l20 69h-66l-20 -69h66z" />
    <glyph glyph-name="one.smcp" horiz-adv-x="367" 
d="M259 0h-139l78 447l-128 -18l22 121l270 36z" />
    <glyph glyph-name="numbersignonum.tnum" 
d="M376 0h-122l49 181h-92l-49 -181h-122l49 181h-69l22 123h82l28 102h-69l22 123h81l50 180h121l-49 -180h92l50 180h121l-50 -180h69l-22 -123h-81l-28 -102h68l-22 -123h-81zM337 304l28 102h-92l-28 -102h92z" />
    <glyph glyph-name="three.smcp" horiz-adv-x="444" 
d="M-23 22l38 111q80 -26 124 -26q45 0 76 24t31 60q0 47 -63 47h-77v106l152 114h-198v116h365l-13 -116l-152 -115q62 -5 96 -44.5t34 -93.5q0 -98 -73.5 -158t-171.5 -60q-73 0 -168 35z" />
    <glyph glyph-name="five.smcp" horiz-adv-x="456" 
d="M-14 17l39 118q86 -28 142 -28q43 0 72.5 26t29.5 70q0 59 -89 59h-127l66 312h341l-37 -113h-201l-21 -86h11q91 0 146 -39t55 -112q0 -63 -25 -111t-64.5 -74.5t-80.5 -39t-80 -12.5q-82 0 -177 30z" />
    <glyph glyph-name="seven.smcp" horiz-adv-x="467" 
d="M253 0h-144q51 295 202 454h-241l9 120h407l-20 -115q-96 -93 -140.5 -196.5t-72.5 -262.5z" />
    <glyph glyph-name="eight.smcp" horiz-adv-x="515" 
d="M384 301q75 -48 75 -110q0 -94 -77.5 -149t-169.5 -55q-78 0 -132 38.5t-54 108.5q0 96 113 156q-50 41 -50 101q0 75 64.5 135.5t163.5 60.5q68 0 120 -38.5t52 -102.5q0 -89 -105 -145zM281 356q66 34 66 73q0 16 -15 27t-36 11q-27 0 -45.5 -14.5t-18.5 -35.5
q0 -31 49 -61zM237 234q-68 -36 -68 -81q0 -21 17.5 -33.5t46.5 -12.5q36 0 59.5 17.5t23.5 41.5q0 20 -20 35t-59 33z" />
    <glyph glyph-name="b.smcp" horiz-adv-x="514" 
d="M219 0h-198l101 574h192q82 0 129 -37t47 -99q0 -103 -95 -137q76 -27 76 -97q0 -96 -69.5 -150t-182.5 -54zM223 351h42q37 0 59 18t22 44q0 41 -56 41h-49zM182 119h56q37 0 63 17.5t26 53.5q0 47 -60 47h-64z" />
    <glyph glyph-name="ygrave.smcp" horiz-adv-x="514" 
d="M401 624l-203 84l48 88l199 -96zM284 0h-140l38 218l-106 356h150l48 -212l124 212h156l-232 -356z" />
    <glyph glyph-name="e.smcp" horiz-adv-x="473" 
d="M383 0h-362l101 574h354l-22 -121h-213l-19 -106h178l-25 -115h-173l-20 -111h220z" />
    <glyph glyph-name="cent.smcp" horiz-adv-x="423" 
d="M229 -105h-93l17 99q-65 14 -98 61.5t-18 129.5l13 77q28 171 184 193l18 97h93l-18 -98q40 -7 78 -18l-39 -111q-54 17 -99 17q-36 0 -55 -16.5t-26 -61.5l-13 -81q-7 -45 5.5 -61.5t47.5 -16.5q40 0 104 16l12 -110q-50 -15 -97 -20z" />
    <glyph glyph-name="sterling.smcp" horiz-adv-x="432" 
d="M370 0h-355l16 94q64 71 75 127h-53l13 75h41q-4 42 -4 70q0 105 58 163t148 58q68 0 142 -37l-35 -108q-52 24 -99 24q-75 0 -75 -101q0 -23 4 -69h127l-13 -75h-117q-12 -63 -69 -115h214z" />
    <glyph glyph-name="Euro.smcp" horiz-adv-x="470" 
d="M412 123l6 -116q-77 -20 -147 -20q-94 0 -148.5 55.5t-41.5 150.5h-51l11 64h52l10 60h-51l11 64h53q20 95 88 150.5t160 55.5q70 0 139 -20l-32 -116q-66 17 -114 17q-37 0 -64.5 -23.5t-37.5 -63.5h150l-24 -64h-139l-10 -60h124l-23 -64h-113q-5 -40 15 -63.5
t58 -23.5q48 0 119 17z" />
    <glyph glyph-name="yen.smcp" horiz-adv-x="488" 
d="M377 74h-93l-13 -74h-140l12 74h-97l14 74h96l9 56h-95l12 75h68l-86 295h141l54 -235l140 235h140l-192 -295h66l-12 -75h-95l-10 -56h95z" />
    <glyph glyph-name="numbersign.smcp" horiz-adv-x="527" 
d="M341 0h-118l41 148h-67l-40 -148h-119l41 148h-60l21 119h73l20 69h-60l20 119h72l42 147h117l-40 -147h66l41 147h117l-41 -147h60l-21 -119h-72l-20 -69h59l-21 -119h-71zM296 267l20 69h-66l-20 -69h66z" />
    <glyph glyph-name="grave.smcp" horiz-adv-x="401" 
d="M342 624l-203 84l48 88l199 -96z" />
    <glyph glyph-name="j.smcp" horiz-adv-x="416" 
d="M213 200l66 374l139 -6l-65 -370q-18 -100 -73.5 -155.5t-149.5 -55.5q-66 0 -153 32l39 114q72 -25 116 -25q64 0 81 92z" />
    <glyph glyph-name="g.smcp" horiz-adv-x="517" 
d="M339 117l19 107h-57l16 98h188l-54 -303q-102 -32 -206 -32q-108 0 -163 61t-35 178l21 122q21 118 94.5 178.5t187.5 60.5q79 0 153 -26l-38 -116q-63 21 -135 21q-50 0 -81 -29.5t-43 -100.5l-17 -97q-13 -73 6.5 -102t69.5 -29q35 0 74 9z" />
    <glyph glyph-name="k.smcp" horiz-adv-x="541" 
d="M474 0h-155l-93 212l-34 -35l-31 -177h-140l101 574h140l-33 -182l162 182h166l-234 -254z" />
    <glyph glyph-name="circumflex.smcp" horiz-adv-x="469" 
d="M398 630l-83 61l-108 -61l-41 81l164 85l131 -85z" />
    <glyph glyph-name="macron.smcp" horiz-adv-x="406" 
d="M409 668h-249l16 90h249z" />
    <glyph glyph-name="dotaccent.smcp" horiz-adv-x="267" 
d="M287 713q0 -27 -19 -45.5t-46 -18.5q-26 0 -45 18.5t-19 45.5t19 46.5t45 19.5q27 0 46 -19.5t19 -46.5z" />
    <glyph glyph-name="ring.smcp" horiz-adv-x="342" 
d="M254 624q-43 0 -73 30.5t-30 72.5q0 41 30 71t73 30q41 0 71 -30t30 -71q0 -42 -30 -72.5t-71 -30.5zM254 696q13 0 21.5 9t8.5 22t-8.5 21.5t-21.5 8.5t-22 -8.5t-9 -21.5t9 -22t22 -9z" />
    <glyph glyph-name="q.smcp" horiz-adv-x="563" 
d="M391 -109l-108 -58l-29 155q-6 -1 -17 -1q-101 0 -155.5 62.5t-34.5 178.5l21 118q20 117 94 179t180 62q101 0 155.5 -63t34.5 -178l-21 -118q-28 -155 -144 -212zM373 239l17 96q22 131 -69 131q-93 0 -115 -131l-17 -96q-12 -72 6 -101.5t62 -29.5q93 0 116 131z" />
    <glyph glyph-name="s.smcp" horiz-adv-x="445" 
d="M-4 25l37 119q83 -36 156 -36q34 0 54.5 18.5t20.5 44.5q0 24 -31 44.5t-67.5 36t-67.5 50t-31 83.5q0 91 64 146.5t158 55.5q63 0 161 -38l-46 -114q-79 31 -125 31q-35 0 -51.5 -15.5t-16.5 -35.5q0 -19 20.5 -36t49.5 -32.5t57.5 -34.5t49 -50.5t20.5 -72.5
q0 -100 -66.5 -151t-161.5 -51q-90 0 -184 38z" />
    <glyph glyph-name="u.smcp" horiz-adv-x="564" 
d="M357 206l65 368h140l-67 -381q-16 -90 -91 -148t-168 -58t-147 58t-38 148l67 381h140l-65 -368q-8 -46 8.5 -72t54.5 -26t65 26t36 72z" />
    <glyph glyph-name="ogonek.smcp" horiz-adv-x="295" 
d="M168 -128l-2 -85q-26 -11 -64 -11q-100 0 -100 78q0 83 93 146h109q-39 -25 -66.5 -57.5t-27.5 -57.5q0 -19 24 -19q18 0 34 6z" />
    <glyph glyph-name="w.smcp" horiz-adv-x="745" 
d="M83 0l10 574h142l-17 -256q-4 -57 -16 -139q26 76 56 138l80 163h147l24 -163q9 -57 11 -135q26 116 32 136l72 256h144l-194 -574h-153l-27 248q-6 43 -4 92q-15 -50 -35 -92l-119 -248h-153z" />
    <glyph glyph-name="caron.smcp" horiz-adv-x="469" 
d="M471 715l-164 -85l-131 85l63 81l83 -61l108 61z" />
    <glyph glyph-name="commaaccent.smcp" horiz-adv-x="232" 
d="M47 -224h-91l55 162h120z" />
    <glyph glyph-name="aacute.smcp" horiz-adv-x="545" 
d="M462 701l-230 -77l-20 83l230 89zM249 574h163l68 -574h-139l-12 132h-149l-57 -132h-144zM266 328l-36 -82h89l-7 82q-3 31 -3 117q-28 -83 -43 -117z" />
    <glyph glyph-name="agrave.smcp" horiz-adv-x="545" 
d="M434 624l-203 84l48 88l199 -96zM249 574h163l68 -574h-139l-12 132h-149l-57 -132h-144zM266 328l-36 -82h89l-7 82q-3 31 -3 117q-28 -83 -43 -117z" />
    <glyph glyph-name="z.smcp" horiz-adv-x="502" 
d="M405 0h-408l16 91l286 362h-218l22 121h396l-17 -92l-289 -361h246z" />
    <glyph glyph-name="adieresis.smcp" horiz-adv-x="545" 
d="M512 715q0 -27 -19 -45.5t-46 -18.5q-26 0 -45 18.5t-19 45.5t19 46.5t45 19.5q27 0 46 -19.5t19 -46.5zM322 715q0 -27 -19 -45.5t-46 -18.5q-26 0 -45.5 18.5t-19.5 45.5t19.5 46.5t45.5 19.5q27 0 46 -19.5t19 -46.5zM249 574h163l68 -574h-139l-12 132h-149l-57 -132
h-144zM266 328l-36 -82h89l-7 82q-3 31 -3 117q-28 -83 -43 -117z" />
    <glyph glyph-name="ampersand.smcp" horiz-adv-x="494" 
d="M474 245h-37l-14 -77q-14 -80 -73 -130.5t-153 -50.5q-79 0 -126.5 42t-47.5 107q0 16 3.5 36.5t25 59.5t59.5 62q-36 33 -36 89q0 88 63.5 146t159.5 58q59 0 132 -33l-49 -106q-50 21 -91 21q-40 0 -58 -21.5t-18 -48.5q0 -51 47 -51h37l-18 -103h-40q-32 0 -55 -26
t-23 -63q0 -22 15 -36.5t41 -14.5q72 0 83 63l32 180h159z" />
    <glyph glyph-name="aring.smcp" horiz-adv-x="545" 
d="M349 624q-43 0 -73 30.5t-30 72.5q0 41 30 71t73 30q41 0 71 -30t30 -71q0 -42 -30 -72.5t-71 -30.5zM349 696q13 0 21.5 9t8.5 22t-8.5 21.5t-21.5 8.5t-22 -8.5t-9 -21.5t9 -22t22 -9zM249 574h163l68 -574h-139l-12 132h-149l-57 -132h-144zM266 328l-36 -82h89l-7 82
q-3 31 -3 117q-28 -83 -43 -117z" />
    <glyph glyph-name="abreve.smcp" horiz-adv-x="545" 
d="M414 786h88q-13 -65 -54.5 -105t-106.5 -40q-55 0 -86 42t-21 103h87q-4 -26 6 -43t29 -17q20 0 36.5 17t21.5 43zM249 574h163l68 -574h-139l-12 132h-149l-57 -132h-144zM266 328l-36 -82h89l-7 82q-3 31 -3 117q-28 -83 -43 -117z" />
    <glyph glyph-name="ae.smcp" horiz-adv-x="769" 
d="M711 0h-349l12 132h-154l-93 -132h-163l428 574h373l-14 -121h-216l-6 -106h193l-31 -115h-175l-11 -111h218zM396 380l-95 -134h83z" />
    <glyph glyph-name="cacute.smcp" horiz-adv-x="494" 
d="M460 701l-230 -77l-20 83l230 89zM408 131l8 -117q-95 -27 -171 -27q-108 0 -163 61t-35 178l21 122q42 239 273 239q84 0 162 -26l-39 -114q-58 19 -134 19q-50 0 -81 -30t-43 -101l-17 -96q-12 -70 7.5 -100.5t68.5 -30.5q63 0 143 23z" />
    <glyph glyph-name="zerosmcp.tnum" horiz-adv-x="500" 
d="M492 349l-22 -123q-20 -116 -92.5 -177.5t-166.5 -61.5q-95 0 -146 61t-31 178l22 123q20 116 92 177t168 61q95 0 145.5 -61t30.5 -177zM330 226l22 123q21 118 -57 118t-99 -118l-22 -123q-21 -119 57 -119t99 119z" />
    <glyph glyph-name="twosmcp.tnum" horiz-adv-x="500" 
d="M401 0h-388l12 73q10 58 45 105.5t78.5 77t85.5 54.5t70 51.5t28 55.5q0 20 -14.5 35t-40.5 15q-54 0 -133 -37l-29 107q102 50 190 50q77 0 124 -40t47 -107q0 -51 -28.5 -97.5t-70 -79t-83 -60t-72.5 -50.5t-34 -39h233z" />
    <glyph glyph-name="foursmcp.tnum" horiz-adv-x="500" 
d="M347 1l-129 -9l20 113h-210v108l173 361h130l-163 -346h91l29 163l131 23l-33 -186h78l-21 -123h-78z" />
    <glyph glyph-name="ccaron.smcp" horiz-adv-x="494" 
d="M491 715l-164 -85l-131 85l63 81l83 -61l108 61zM408 131l8 -117q-95 -27 -171 -27q-108 0 -163 61t-35 178l21 122q42 239 273 239q84 0 162 -26l-39 -114q-58 19 -134 19q-50 0 -81 -30t-43 -101l-17 -96q-12 -70 7.5 -100.5t68.5 -30.5q63 0 143 23z" />
    <glyph glyph-name="ccedilla.smcp" horiz-adv-x="494" 
d="M183 -75l12 66q-85 13 -125.5 73t-22.5 162l21 122q42 239 273 239q84 0 162 -26l-39 -114q-58 19 -134 19q-50 0 -81 -30t-43 -101l-17 -96q-12 -70 7.5 -100.5t68.5 -30.5q63 0 143 23l8 -117q-70 -20 -115 -24l-14 -78q-11 -63 -50.5 -93t-90.5 -30q-44 0 -83 13
l23 96q32 -9 58 -9q32 0 39 36z" />
    <glyph glyph-name="dcaron.smcp" horiz-adv-x="559" 
d="M482 715l-164 -85l-131 85l63 81l83 -61l108 61zM244 0h-223l94 535q145 52 232 52q94 0 147.5 -59t35.5 -163l-26 -149q-18 -105 -86.5 -160.5t-173.5 -55.5zM365 226l23 127q21 113 -62 113q-47 0 -85 -13l-59 -332h81q46 0 69 23t33 82z" />
    <glyph glyph-name="dcroat.smcp" horiz-adv-x="559" 
d="M244 0h-223l42 238h-55l16 90h55l36 207q145 52 232 52q94 0 147.5 -59t35.5 -163l-26 -149q-18 -105 -86.5 -160.5t-173.5 -55.5zM365 226l23 127q21 113 -62 113q-47 0 -85 -13l-22 -125h85l-16 -90h-85l-21 -117h81q46 0 69 23t33 82z" />
    <glyph glyph-name="eth.smcp" horiz-adv-x="559" 
d="M244 0h-223l42 238h-55l16 90h55l36 207q145 52 232 52q94 0 147.5 -59t35.5 -163l-26 -149q-18 -105 -86.5 -160.5t-173.5 -55.5zM365 226l23 127q21 113 -62 113q-47 0 -85 -13l-22 -125h85l-16 -90h-85l-21 -117h81q46 0 69 23t33 82z" />
    <glyph glyph-name="eacute.smcp" horiz-adv-x="473" 
d="M440 701l-230 -77l-20 83l230 89zM383 0h-362l101 574h354l-22 -121h-213l-19 -106h178l-25 -115h-173l-20 -111h220z" />
    <glyph glyph-name="ninesmcp.tnum" horiz-adv-x="500" 
d="M306 191l3 22q-49 -40 -98 -40q-73 0 -115.5 41.5t-42.5 115.5q0 63 23 114t60.5 81t81.5 46t89 16q89 0 138.5 -56.5t34.5 -144.5l-31 -179q-17 -95 -81.5 -157.5t-166.5 -62.5q-65 0 -146 27l43 117q60 -23 115 -23q31 0 59 23t34 60zM326 312l14 75q5 30 -7.5 55.5
t-46.5 25.5q-43 0 -67 -37t-24 -90q0 -63 58 -63q38 0 73 34z" />
    <glyph glyph-name="sixsmcp.tnum" horiz-adv-x="500" 
d="M467 560l-43 -115q-59 22 -116 22q-38 0 -63 -20.5t-32 -58.5l-4 -21q43 34 98 34q73 0 114.5 -40.5t41.5 -115.5q0 -64 -22 -115t-59 -81.5t-80 -46t-89 -15.5q-86 0 -138 56t-37 145l31 179q17 93 85.5 156.5t167.5 63.5q65 0 145 -27zM191 262l-13 -75q-5 -30 9 -55
t45 -25q43 0 67 36.5t24 90.5q0 62 -58 62q-40 0 -74 -34z" />
    <glyph glyph-name="dollarsmcp.tnum" horiz-adv-x="500" 
d="M247 -105h-93l16 96q-67 5 -140 35l36 118q88 -35 161 -35q31 0 51 18.5t20 43.5q0 17 -20.5 31.5t-50 28t-59 31.5t-50 51t-20.5 78q0 64 47 113.5t130 60.5l17 97h93l-18 -98q45 -8 104 -34l-35 -112q-68 30 -121 30q-73 0 -73 -51q0 -19 20.5 -35t50 -30t59 -30
t50 -44.5t20.5 -66.5q0 -75 -47.5 -128.5t-130.5 -68.5z" />
    <glyph glyph-name="edieresis.smcp" horiz-adv-x="473" 
d="M477 715q0 -27 -19 -45.5t-46 -18.5q-26 0 -45 18.5t-19 45.5t19 46.5t45 19.5q27 0 46 -19.5t19 -46.5zM287 715q0 -27 -19 -45.5t-46 -18.5q-26 0 -45.5 18.5t-19.5 45.5t19.5 46.5t45.5 19.5q27 0 46 -19.5t19 -46.5zM383 0h-362l101 574h354l-22 -121h-213l-19 -106
h178l-25 -115h-173l-20 -111h220z" />
    <glyph glyph-name="emacron.smcp" horiz-adv-x="473" 
d="M440 668h-249l16 90h249zM383 0h-362l101 574h354l-22 -121h-213l-19 -106h178l-25 -115h-173l-20 -111h220z" />
    <glyph glyph-name="eogonek.smcp" horiz-adv-x="473" 
d="M347 -128l-2 -85q-26 -11 -64 -11q-100 0 -100 78q0 83 93 146h-253l101 574h354l-22 -121h-213l-19 -106h178l-25 -115h-173l-20 -111h220l-19 -121q-39 -25 -66.5 -57.5t-27.5 -57.5q0 -19 24 -19q17 0 34 6z" />
    <glyph glyph-name="edotaccent.smcp" horiz-adv-x="473" 
d="M381 713q0 -27 -19 -45.5t-46 -18.5q-26 0 -45 18.5t-19 45.5t19 46.5t45 19.5q27 0 46 -19.5t19 -46.5zM383 0h-362l101 574h354l-22 -121h-213l-19 -106h178l-25 -115h-173l-20 -111h220z" />
    <glyph glyph-name="zero.smcp" horiz-adv-x="530" 
d="M501 349l-22 -123q-20 -116 -92.5 -177.5t-166.5 -61.5q-95 0 -146 61t-31 178l22 123q20 116 92 177t168 61q95 0 145.5 -61t30.5 -177zM339 226l22 123q21 118 -57 118t-99 -118l-22 -123q-21 -119 57 -119t99 119z" />
    <glyph glyph-name="gcircumflex.smcp" horiz-adv-x="517" 
d="M427 630l-83 61l-108 -61l-41 81l164 85l131 -85zM339 117l19 107h-57l16 98h188l-54 -303q-102 -32 -206 -32q-108 0 -163 61t-35 178l21 122q21 118 94.5 178.5t187.5 60.5q79 0 153 -26l-38 -116q-63 21 -135 21q-50 0 -81 -29.5t-43 -100.5l-17 -97q-13 -73 6.5 -102
t69.5 -29q35 0 74 9z" />
    <glyph glyph-name="four.smcp" horiz-adv-x="503" 
d="M352 1l-129 -9l20 113h-210v108l173 361h130l-163 -346h91l29 163l131 23l-33 -186h78l-21 -123h-78z" />
    <glyph glyph-name="gdotaccent.smcp" horiz-adv-x="517" 
d="M397 713q0 -27 -19 -45.5t-46 -18.5q-26 0 -45 18.5t-19 45.5t19 46.5t45 19.5q27 0 46 -19.5t19 -46.5zM339 117l19 107h-57l16 98h188l-54 -303q-102 -32 -206 -32q-108 0 -163 61t-35 178l21 122q21 118 94.5 178.5t187.5 60.5q79 0 153 -26l-38 -116q-63 21 -135 21
q-50 0 -81 -29.5t-43 -100.5l-17 -97q-13 -73 6.5 -102t69.5 -29q35 0 74 9z" />
    <glyph glyph-name="gcommaaccent.smcp" horiz-adv-x="517" 
d="M339 117l19 107h-57l16 98h188l-54 -303q-102 -32 -206 -32q-108 0 -163 61t-35 178l21 122q21 118 94.5 178.5t187.5 60.5q79 0 153 -26l-38 -116q-63 21 -135 21q-50 0 -81 -29.5t-43 -100.5l-17 -97q-13 -73 6.5 -102t69.5 -29q35 0 74 9zM216 -224h-91l55 162h120z
" />
    <glyph glyph-name="hcircumflex.smcp" horiz-adv-x="564" 
d="M447 630l-83 61l-108 -61l-41 81l164 85l131 -85zM458 0h-140l41 234h-156l-42 -234h-140l101 574h140l-40 -224h157l40 224h140z" />
    <glyph glyph-name="hbar.smcp" horiz-adv-x="564" 
d="M458 0h-140l41 234h-157l-41 -234h-140l70 398h-32l16 90h31l16 86h140l-16 -86h158l15 86h140l-15 -86h33l-15 -90h-34zM379 350l9 48h-157l-9 -48h157z" />
    <glyph glyph-name="iacute.smcp" horiz-adv-x="268" 
d="M332 701l-230 -77l-20 83l230 89zM161 0h-140l101 574h140z" />
    <glyph glyph-name="six.smcp" horiz-adv-x="508" 
d="M466 560l-43 -115q-59 22 -116 22q-38 0 -63 -20.5t-32 -58.5l-4 -21q43 34 98 34q73 0 114.5 -40.5t41.5 -115.5q0 -64 -22 -115t-59 -81.5t-80 -46t-89 -15.5q-86 0 -138 56t-37 145l31 179q17 93 85.5 156.5t167.5 63.5q66 0 145 -27zM190 262l-13 -75q-5 -30 9 -55
t45 -25q43 0 67 36.5t24 90.5q0 62 -58 62q-40 0 -74 -34z" />
    <glyph glyph-name="nine.smcp" horiz-adv-x="497" 
d="M301 191l3 22q-49 -40 -98 -40q-73 0 -115.5 41.5t-42.5 115.5q0 63 23 114t60.5 81t81.5 46t89 16q89 0 138.5 -56.5t34.5 -144.5l-31 -179q-17 -95 -81.5 -157.5t-166.5 -62.5q-65 0 -146 27l43 117q60 -23 115 -23q31 0 59.5 23.5t33.5 59.5zM321 312l14 75
q5 30 -7.5 55.5t-46.5 25.5q-43 0 -67 -37t-24 -90q0 -63 58 -63q38 0 73 34z" />
    <glyph glyph-name="igrave.smcp" horiz-adv-x="268" 
d="M295 624l-203 84l48 88l199 -96zM161 0h-140l101 574h140z" />
    <glyph glyph-name="icircumflex.smcp" horiz-adv-x="268" 
d="M298 630l-83 61l-108 -61l-41 81l164 85l131 -85zM161 0h-140l101 574h140z" />
    <glyph glyph-name="itilde.smcp" horiz-adv-x="268" 
d="M320 768l41 -62q-15 -27 -44 -46t-65 -19q-24 0 -53 22.5t-46 22.5q-29 0 -52 -29l-41 62q16 27 45 46t65 19q24 0 53 -22.5t46 -22.5q28 0 51 29zM161 0h-140l101 574h140z" />
    <glyph glyph-name="ibreve.smcp" horiz-adv-x="268" 
d="M279 786h88q-13 -65 -54.5 -105t-106.5 -40q-55 0 -86 42t-21 103h87q-4 -26 6 -43t29 -17q20 0 36.5 17t21.5 43zM161 0h-140l101 574h140z" />
    <glyph glyph-name="ij.smcp" horiz-adv-x="668" 
d="M465 202l65 372l140 -6l-66 -369q-18 -99 -73.5 -154.5t-149.5 -55.5q-67 0 -152 32l39 112q71 -25 116 -25q35 0 53.5 24t27.5 70zM161 0h-140l101 574h140z" />
    <glyph glyph-name="jcircumflex.smcp" horiz-adv-x="416" 
d="M454 630l-83 61l-108 -61l-41 81l164 85l131 -85zM213 200l66 374l139 -6l-65 -370q-18 -100 -73.5 -155.5t-149.5 -55.5q-66 0 -153 32l39 114q72 -25 116 -25q64 0 81 92z" />
    <glyph glyph-name="acute.smcp" horiz-adv-x="391" 
d="M412 701l-230 -77l-20 83l230 89z" />
    <glyph glyph-name="dieresis.smcp" horiz-adv-x="444" 
d="M469 715q0 -27 -19 -45.5t-46 -18.5q-26 0 -45 18.5t-19 45.5t19 46.5t45 19.5q27 0 46 -19.5t19 -46.5zM279 715q0 -27 -19 -45.5t-46 -18.5q-26 0 -45.5 18.5t-19.5 45.5t19.5 46.5t45.5 19.5q27 0 46 -19.5t19 -46.5z" />
    <glyph glyph-name="lcaron.smcp" horiz-adv-x="453" 
d="M396 393h-87l32 181l117 13zM381 0h-360l101 574h140l-80 -453h223z" />
    <glyph glyph-name="lcommaaccent.smcp" horiz-adv-x="453" 
d="M381 0h-360l101 574h140l-80 -453h223zM173 -224h-91l55 162h120z" />
    <glyph glyph-name="breve.smcp" horiz-adv-x="411" 
d="M351 786h88q-13 -65 -54.5 -105t-106.5 -40q-55 0 -86 42t-21 103h87q-4 -26 6 -43t29 -17q20 0 36.5 17t21.5 43z" />
    <glyph glyph-name="ldot.smcp" horiz-adv-x="453" 
d="M381 0h-360l101 574h140l-80 -455h223zM425 281q0 -30 -21 -50t-51 -20q-29 0 -50 20t-21 50t21 51t50 21q30 0 51 -21t21 -51z" />
    <glyph glyph-name="lslash.smcp" horiz-adv-x="453" 
d="M381 0h-360l38 218l-32 -11l-13 70l59 20l49 277h140l-40 -227l57 20l13 -70l-84 -29l-26 -147h223z" />
    <glyph glyph-name="nacute.smcp" horiz-adv-x="559" 
d="M474 701l-230 -77l-20 83l230 89zM452 0h-115l-124 309q-7 -63 -13 -93l-39 -216h-140l101 574h114l124 -306q3 33 14 90l39 216h140z" />
    <glyph glyph-name="tilde.smcp" horiz-adv-x="447" 
d="M418 768l41 -62q-15 -27 -44 -46t-65 -19q-24 0 -53 22.5t-46 22.5q-29 0 -52 -29l-41 62q16 27 45 46t65 19q24 0 53 -22.5t46 -22.5q28 0 51 29z" />
    <glyph glyph-name="cedilla.smcp" horiz-adv-x="337" 
d="M71 -75l14 75h106l-16 -88q-11 -63 -50.5 -93t-90.5 -30q-44 0 -83 13l23 96q31 -9 58 -9q32 0 39 36z" />
    <glyph glyph-name="ncaron.smcp" horiz-adv-x="559" 
d="M503 715l-164 -85l-131 85l63 81l83 -61l108 61zM452 0h-115l-124 309q-7 -63 -13 -93l-39 -216h-140l101 574h114l124 -306q3 33 14 90l39 216h140z" />
    <glyph glyph-name="eng.smcp" horiz-adv-x="558" 
d="M421 -169l-141 -17l40 228l-107 268q-8 -65 -13 -93l-39 -217h-140l101 574h114l126 -307q5 54 12 91l39 216h140z" />
    <glyph glyph-name="hungarumlaut.smcp" horiz-adv-x="599" 
d="M629 721l-188 -102l-34 81l184 110zM396 721l-188 -102l-35 81l185 110z" />
    <glyph glyph-name="ograve.smcp" horiz-adv-x="562" 
d="M446 624l-203 84l48 88l199 -96zM532 346l-21 -118q-21 -118 -94 -179.5t-180 -61.5q-101 0 -155.5 62.5t-34.5 178.5l21 118q20 117 94 179t180 62q101 0 155 -63t35 -178zM373 239l17 96q22 131 -69 131q-93 0 -115 -131l-17 -96q-12 -72 6 -101.5t62 -29.5
q93 0 116 131z" />
    <glyph glyph-name="odieresis.smcp" horiz-adv-x="562" 
d="M519 715q0 -27 -19 -45.5t-46 -18.5q-26 0 -45 18.5t-19 45.5t19 46.5t45 19.5q27 0 46 -19.5t19 -46.5zM329 715q0 -27 -19 -45.5t-46 -18.5q-26 0 -45.5 18.5t-19.5 45.5t19.5 46.5t45.5 19.5q27 0 46 -19.5t19 -46.5zM532 346l-21 -118q-21 -118 -94 -179.5
t-180 -61.5q-101 0 -155.5 62.5t-34.5 178.5l21 118q20 117 94 179t180 62q101 0 155 -63t35 -178zM373 239l17 96q22 131 -69 131q-93 0 -115 -131l-17 -96q-12 -72 6 -101.5t62 -29.5q93 0 116 131z" />
    <glyph glyph-name="otilde.smcp" horiz-adv-x="562" 
d="M473 768l41 -62q-15 -27 -44 -46t-65 -19q-24 0 -53 22.5t-46 22.5q-29 0 -52 -29l-41 62q16 27 45 46t65 19q24 0 53 -22.5t46 -22.5q28 0 51 29zM532 346l-21 -118q-21 -118 -94 -179.5t-180 -61.5q-101 0 -155.5 62.5t-34.5 178.5l21 118q20 117 94 179t180 62
q101 0 155 -63t35 -178zM373 239l17 96q22 131 -69 131q-93 0 -115 -131l-17 -96q-12 -72 6 -101.5t62 -29.5q93 0 116 131z" />
    <glyph glyph-name="acircumflex.smcp" horiz-adv-x="545" 
d="M436 630l-83 61l-108 -61l-41 81l164 85l131 -85zM249 574h163l68 -574h-139l-12 132h-149l-57 -132h-144zM266 328l-36 -82h89l-7 82q-3 31 -3 117q-28 -83 -43 -117z" />
    <glyph glyph-name="obreve.smcp" horiz-adv-x="562" 
d="M416 786h88q-13 -65 -54.5 -105t-106.5 -40q-55 0 -86 42t-21 103h87q-4 -26 6 -43t29 -17q20 0 36.5 17t21.5 43zM532 346l-21 -118q-21 -118 -94 -179.5t-180 -61.5q-101 0 -155.5 62.5t-34.5 178.5l21 118q20 117 94 179t180 62q101 0 155 -63t35 -178zM373 239l17 96
q22 131 -69 131q-93 0 -115 -131l-17 -96q-12 -72 6 -101.5t62 -29.5q93 0 116 131z" />
    <glyph glyph-name="amacron.smcp" horiz-adv-x="545" 
d="M470 668h-249l16 90h249zM249 574h163l68 -574h-139l-12 132h-149l-57 -132h-144zM266 328l-36 -82h89l-7 82q-3 31 -3 117q-28 -83 -43 -117z" />
    <glyph glyph-name="ohungarumlaut.smcp" horiz-adv-x="562" 
d="M629 721l-188 -102l-34 81l184 110zM396 721l-188 -102l-35 81l185 110zM532 346l-21 -118q-21 -118 -94 -179.5t-180 -61.5q-101 0 -155.5 62.5t-34.5 178.5l21 118q20 117 94 179t180 62q101 0 155 -63t35 -178zM373 239l17 96q22 131 -69 131q-93 0 -115 -131l-17 -96
q-12 -72 6 -101.5t62 -29.5q93 0 116 131z" />
    <glyph glyph-name="oslash.smcp" horiz-adv-x="562" 
d="M532 346l-21 -118q-21 -118 -94 -179.5t-180 -61.5q-49 0 -92 16l-38 -56l-70 37l44 65q-54 66 -34 179l21 118q20 117 94 179t180 62q52 0 94 -18l40 58l71 -37l-48 -69q52 -65 33 -175zM184 200l176 257q-16 9 -39 9q-93 0 -115 -131l-17 -96q-3 -13 -5 -39zM373 239
l17 96q2 11 4 31l-173 -252q12 -6 36 -6q93 0 116 131z" />
    <glyph glyph-name="oe.smcp" horiz-adv-x="786" 
d="M696 0h-372q-44 -13 -87 -13q-101 0 -155.5 62.5t-34.5 178.5l21 118q20 117 94 179t180 62q40 0 81 -13h366l-22 -121h-234q12 -54 2 -93l-3 -13h181l-25 -115h-176l-4 -22q-9 -49 -32 -89h239zM373 239l17 96q22 131 -69 131q-93 0 -115 -131l-17 -96q-12 -72 6 -101.5
t62 -29.5q93 0 116 131z" />
    <glyph glyph-name="aogonek.smcp" horiz-adv-x="545" 
d="M249 574h163l68 -574q-39 -25 -66.5 -57.5t-27.5 -57.5q0 -19 24 -19q18 0 32 6v-85q-26 -11 -64 -11q-100 0 -100 78q0 83 93 146h-30l-12 132h-149l-57 -132h-144zM266 328l-36 -82h89l-7 82q-3 31 -3 117q-28 -83 -43 -117z" />
    <glyph glyph-name="thorn.smcp" horiz-adv-x="494" 
d="M244 93h-67l-16 -93h-140l101 574h140l-20 -111h68q76 0 120 -44t44 -110q0 -86 -66.5 -151t-163.5 -65zM198 209h61q29 0 51 23t22 59q0 24 -13 38t-35 14h-62z" />
    <glyph glyph-name="racute.smcp" horiz-adv-x="507" 
d="M441 701l-230 -77l-20 83l230 89zM433 0h-146l-55 207h-35l-36 -207h-140l101 574h209q77 0 121 -44t44 -110q0 -54 -32 -109t-98 -83zM217 320h61q29 0 52.5 22.5t23.5 56.5q0 25 -14 40t-37 15h-62z" />
    <glyph glyph-name="ccircumflex.smcp" horiz-adv-x="494" 
d="M432 630l-83 61l-108 -61l-41 81l164 85l131 -85zM408 131l8 -117q-95 -27 -171 -27q-108 0 -163 61t-35 178l21 122q42 239 273 239q84 0 162 -26l-39 -114q-58 19 -134 19q-50 0 -81 -30t-43 -101l-17 -96q-12 -70 7.5 -100.5t68.5 -30.5q63 0 143 23z" />
    <glyph glyph-name="rcommaaccent.smcp" horiz-adv-x="507" 
d="M433 0h-146l-55 207h-35l-36 -207h-140l101 574h209q77 0 121 -44t44 -110q0 -54 -32 -109t-98 -83zM217 320h61q29 0 52.5 22.5t23.5 56.5q0 25 -14 40t-37 15h-62zM180 -224h-91l55 162h120z" />
    <glyph glyph-name="scircumflex.smcp" horiz-adv-x="445" 
d="M380 630l-83 61l-108 -61l-41 81l164 85l131 -85zM-4 25l37 119q83 -36 156 -36q34 0 54.5 18.5t20.5 44.5q0 24 -31 44.5t-67.5 36t-67.5 50t-31 83.5q0 91 64 146.5t158 55.5q63 0 161 -38l-46 -114q-79 31 -125 31q-35 0 -51.5 -15.5t-16.5 -35.5q0 -19 20.5 -36
t49.5 -32.5t57.5 -34.5t49 -50.5t20.5 -72.5q0 -100 -66.5 -151t-161.5 -51q-90 0 -184 38z" />
    <glyph glyph-name="scaron.smcp" horiz-adv-x="445" 
d="M452 715l-164 -85l-131 85l63 81l83 -61l108 61zM-4 25l37 119q83 -36 156 -36q34 0 54.5 18.5t20.5 44.5q0 24 -31 44.5t-67.5 36t-67.5 50t-31 83.5q0 91 64 146.5t158 55.5q63 0 161 -38l-46 -114q-79 31 -125 31q-35 0 -51.5 -15.5t-16.5 -35.5q0 -19 20.5 -36
t49.5 -32.5t57.5 -34.5t49 -50.5t20.5 -72.5q0 -100 -66.5 -151t-161.5 -51q-90 0 -184 38z" />
    <glyph glyph-name="germandbls.smcp" horiz-adv-x="895" 
d="M446 25l37 119q83 -36 156 -36q34 0 54.5 18.5t20.5 44.5q0 24 -31 44.5t-67.5 36t-67.5 50t-31 83.5q0 91 64 146.5t158 55.5q63 0 161 -38l-46 -114q-79 31 -125 31q-35 0 -51.5 -15.5t-16.5 -35.5q0 -19 20.5 -36t49.5 -32.5t57.5 -34.5t49 -50.5t20.5 -72.5
q0 -100 -66.5 -151t-161.5 -51q-90 0 -184 38zM-4 25l37 119q83 -36 156 -36q34 0 54.5 18.5t20.5 44.5q0 24 -31 44.5t-67.5 36t-67.5 50t-31 83.5q0 91 64 146.5t158 55.5q63 0 161 -38l-46 -114q-79 31 -125 31q-35 0 -51.5 -15.5t-16.5 -35.5q0 -19 20.5 -36t49.5 -32.5
t57.5 -34.5t49 -50.5t20.5 -72.5q0 -100 -66.5 -151t-161.5 -51q-90 0 -184 38z" />
    <glyph glyph-name="tcaron.smcp" horiz-adv-x="462" 
d="M455 715l-164 -85l-131 85l63 81l83 -61l108 61zM257 0h-140l80 454h-134l21 120h408l-21 -120h-134z" />
    <glyph glyph-name="tcommaaccent.smcp" horiz-adv-x="462" 
d="M257 0h-140l80 454h-134l21 120h408l-21 -120h-134zM153 -224h-91l55 162h120z" />
    <glyph glyph-name="egrave.smcp" horiz-adv-x="473" 
d="M412 624l-203 84l48 88l199 -96zM383 0h-362l101 574h354l-22 -121h-213l-19 -106h178l-25 -115h-173l-20 -111h220z" />
    <glyph glyph-name="ugrave.smcp" horiz-adv-x="564" 
d="M440 624l-203 84l48 88l199 -96zM357 206l65 368h140l-67 -381q-16 -90 -91 -148t-168 -58t-147 58t-38 148l67 381h140l-65 -368q-8 -46 8.5 -72t54.5 -26t65 26t36 72z" />
    <glyph glyph-name="ecaron.smcp" horiz-adv-x="473" 
d="M471 715l-164 -85l-131 85l63 81l83 -61l108 61zM383 0h-362l101 574h354l-22 -121h-213l-19 -106h178l-25 -115h-173l-20 -111h220z" />
    <glyph glyph-name="ucircumflex.smcp" horiz-adv-x="564" 
d="M448 630l-83 61l-108 -61l-41 81l164 85l131 -85zM357 206l65 368h140l-67 -381q-16 -90 -91 -148t-168 -58t-147 58t-38 148l67 381h140l-65 -368q-8 -46 8.5 -72t54.5 -26t65 26t36 72z" />
    <glyph glyph-name="udieresis.smcp" horiz-adv-x="564" 
d="M519 715q0 -27 -19 -45.5t-46 -18.5q-26 0 -45 18.5t-19 45.5t19 46.5t45 19.5q27 0 46 -19.5t19 -46.5zM329 715q0 -27 -19 -45.5t-46 -18.5q-26 0 -45.5 18.5t-19.5 45.5t19.5 46.5t45.5 19.5q27 0 46 -19.5t19 -46.5zM357 206l65 368h140l-67 -381q-16 -90 -91 -148
t-168 -58t-147 58t-38 148l67 381h140l-65 -368q-8 -46 8.5 -72t54.5 -26t65 26t36 72z" />
    <glyph glyph-name="utilde.smcp" horiz-adv-x="564" 
d="M469 768l41 -62q-15 -27 -44 -46t-65 -19q-24 0 -53 22.5t-46 22.5q-29 0 -52 -29l-41 62q16 27 45 46t65 19q24 0 53 -22.5t46 -22.5q28 0 51 29zM357 206l65 368h140l-67 -381q-16 -90 -91 -148t-168 -58t-147 58t-38 148l67 381h140l-65 -368q-8 -46 8.5 -72t54.5 -26
t65 26t36 72z" />
    <glyph glyph-name="uring.smcp" horiz-adv-x="564" 
d="M358 624q-43 0 -73 30.5t-30 72.5q0 41 30 71t73 30q41 0 71 -30t30 -71q0 -42 -30 -72.5t-71 -30.5zM358 696q13 0 21.5 9t8.5 22t-8.5 21.5t-21.5 8.5t-22 -8.5t-9 -21.5t9 -22t22 -9zM357 206l65 368h140l-67 -381q-16 -90 -91 -148t-168 -58t-147 58t-38 148l67 381
h140l-65 -368q-8 -46 8.5 -72t54.5 -26t65 26t36 72z" />
    <glyph glyph-name="ubreve.smcp" horiz-adv-x="564" 
d="M420 786h88q-13 -65 -54.5 -105t-106.5 -40q-55 0 -86 42t-21 103h87q-4 -26 6 -43t29 -17q20 0 36.5 17t21.5 43zM357 206l65 368h140l-67 -381q-16 -90 -91 -148t-168 -58t-147 58t-38 148l67 381h140l-65 -368q-8 -46 8.5 -72t54.5 -26t65 26t36 72z" />
    <glyph glyph-name="uhungarumlaut.smcp" horiz-adv-x="564" 
d="M616 721l-188 -102l-34 81l184 110zM383 721l-188 -102l-35 81l185 110zM357 206l65 368h140l-67 -381q-16 -90 -91 -148t-168 -58t-147 58t-38 148l67 381h140l-65 -368q-8 -46 8.5 -72t54.5 -26t65 26t36 72z" />
    <glyph glyph-name="two.smcp" horiz-adv-x="460" 
d="M377 0h-388l12 73q10 58 45 105.5t78.5 77t85.5 54.5t70 51.5t28 55.5q0 20 -14.5 35t-40.5 15q-54 0 -133 -37l-29 107q102 50 190 50q77 0 124 -40t47 -107q0 -51 -28.5 -97.5t-70 -79t-83 -60t-72.5 -50.5t-34 -39h233z" />
    <glyph glyph-name="wacute.smcp" horiz-adv-x="745" 
d="M565 701l-230 -77l-20 83l230 89zM83 0l10 574h142l-17 -256q-4 -57 -16 -139q26 76 56 138l80 163h147l24 -163q9 -57 11 -135q26 116 32 136l72 256h144l-194 -574h-153l-27 248q-6 43 -4 92q-15 -50 -35 -92l-119 -248h-153z" />
    <glyph glyph-name="wcircumflex.smcp" horiz-adv-x="745" 
d="M540 630l-83 61l-108 -61l-41 81l164 85l131 -85zM83 0l10 574h142l-17 -256q-4 -57 -16 -139q26 76 56 138l80 163h147l24 -163q9 -57 11 -135q26 116 32 136l72 256h144l-194 -574h-153l-27 248q-6 43 -4 92q-15 -50 -35 -92l-119 -248h-153z" />
    <glyph glyph-name="wdieresis.smcp" horiz-adv-x="745" 
d="M606 715q0 -27 -19 -45.5t-46 -18.5q-26 0 -45 18.5t-19 45.5t19 46.5t45 19.5q27 0 46 -19.5t19 -46.5zM416 715q0 -27 -19 -45.5t-46 -18.5q-26 0 -45.5 18.5t-19.5 45.5t19.5 46.5t45.5 19.5q27 0 46 -19.5t19 -46.5zM83 0l10 574h142l-17 -256q-4 -57 -16 -139
q26 76 56 138l80 163h147l24 -163q9 -57 11 -135q26 116 32 136l72 256h144l-194 -574h-153l-27 248q-6 43 -4 92q-15 -50 -35 -92l-119 -248h-153z" />
    <glyph glyph-name="ycircumflex.smcp" horiz-adv-x="514" 
d="M414 630l-83 61l-108 -61l-41 81l164 85l131 -85zM284 0h-140l38 218l-106 356h150l48 -212l124 212h156l-232 -356z" />
    <glyph glyph-name="ydieresis.smcp" horiz-adv-x="514" 
d="M490 715q0 -27 -19 -45.5t-46 -18.5q-26 0 -45 18.5t-19 45.5t19 46.5t45 19.5q27 0 46 -19.5t19 -46.5zM300 715q0 -27 -19 -45.5t-46 -18.5q-26 0 -45.5 18.5t-19.5 45.5t19.5 46.5t45.5 19.5q27 0 46 -19.5t19 -46.5zM284 0h-140l38 218l-106 356h150l48 -212l124 212
h156l-232 -356z" />
    <glyph glyph-name="zacute.smcp" horiz-adv-x="502" 
d="M426 701l-230 -77l-20 83l230 89zM406 0h-409l16 91l285 362h-214l20 121h395l-16 -92l-289 -361h244z" />
    <glyph glyph-name="dollar.smcp" horiz-adv-x="429" 
d="M204 -105h-93l16 96q-67 5 -140 35l36 118q87 -35 161 -35q31 0 51 18.5t20 43.5q0 21 -31.5 39.5t-68.5 34t-68.5 53.5t-31.5 93q0 64 47 113.5t130 60.5l17 97h93l-18 -98q45 -8 104 -34l-35 -112q-68 30 -121 30q-73 0 -73 -51q0 -23 31.5 -43.5t68.5 -35.5t68.5 -48
t31.5 -79q0 -75 -47.5 -128.5t-130.5 -68.5z" />
    <glyph glyph-name="zdotaccent.smcp" horiz-adv-x="502" 
d="M387 713q0 -27 -19 -45.5t-46 -18.5q-26 0 -45 18.5t-19 45.5t19 46.5t45 19.5q27 0 46 -19.5t19 -46.5zM406 0h-409l16 91l285 362h-214l20 121h395l-16 -92l-289 -361h244z" />
    <glyph glyph-name="imacron.smcp" horiz-adv-x="268" 
d="M331 668h-249l16 90h249zM161 0h-140l101 574h140z" />
    <glyph glyph-name="cdotaccent.smcp" horiz-adv-x="494" 
d="M402 713q0 -27 -19 -45.5t-46 -18.5q-26 0 -45 18.5t-19 45.5t19 46.5t45 19.5q27 0 46 -19.5t19 -46.5zM408 131l8 -117q-95 -27 -171 -27q-108 0 -163 61t-35 178l21 122q42 239 273 239q84 0 162 -26l-39 -114q-58 19 -134 19q-50 0 -81 -30t-43 -101l-17 -96
q-12 -70 7.5 -100.5t68.5 -30.5q63 0 143 23z" />
    <glyph glyph-name="cyrbreve" horiz-adv-x="419" 
d="M408 736l88 -10q-13 -61 -53.5 -95.5t-97.5 -34.5q-59 0 -96 35.5t-27 94.5l91 10q-2 -26 8 -40.5t29 -14.5q40 0 58 55z" />
    <glyph glyph-name="cyrBreve" horiz-adv-x="419" 
d="M452 869l89 -10q-35 -130 -154 -130q-61 0 -97 35t-29 95l90 10q-1 -25 10.5 -40t30.5 -15q42 0 60 55z" />
    <glyph glyph-name="afii10068.001" horiz-adv-x="390" 
d="M15 0l93 523h315l-21 -118h-176l-72 -405h-139z" />
    <glyph glyph-name="afii10069.001" horiz-adv-x="580" 
d="M-12 118h56l89 217q37 90 89.5 139t138.5 49h188l-71 -405h56l-36 -206l-123 -17l18 105h-306l-15 -88l-122 -17zM274 325l-85 -207h149l50 287h-31q-49 0 -83 -80z" />
    <glyph glyph-name="kcommaaccent.smcp" horiz-adv-x="541" 
d="M474 0h-155l-93 212l-34 -35l-31 -177h-140l101 574h140l-33 -182l162 182h166l-234 -254zM202 -224h-91l55 162h120z" />
    <glyph glyph-name="ecircumflex.smcp" horiz-adv-x="473" 
d="M406 630l-83 61l-108 -61l-41 81l164 85l131 -85zM383 0h-362l101 574h354l-22 -121h-213l-19 -106h178l-25 -115h-173l-20 -111h220z" />
    <glyph glyph-name="commaaccent" horiz-adv-x="232" 
d="M47 -224h-91l55 162h120z" />
    <glyph glyph-name="ebreve.smcp" horiz-adv-x="473" 
d="M377 786h88q-13 -65 -54.5 -105t-106.5 -40q-55 0 -86 42t-21 103h87q-4 -26 6 -43t29 -17q20 0 36.5 17t21.5 43zM383 0h-362l101 574h354l-22 -121h-213l-19 -106h178l-25 -115h-173l-20 -111h220z" />
    <glyph glyph-name="zero.onum" horiz-adv-x="581" 
d="M547 328l-14 -83q-21 -122 -99 -190t-189 -68q-99 0 -157.5 69.5t-38.5 188.5l14 83q21 122 98.5 190t188.5 68q98 0 158 -69.5t39 -188.5zM393 245l14 83q12 67 -9.5 102t-68.5 35t-80 -35t-45 -102l-14 -83q-12 -68 8.5 -102.5t67.5 -34.5t81 35t46 102z" />
    <glyph glyph-name="one.onum" horiz-adv-x="402" 
d="M286 0h-140l79 445l-153 -23l22 122l296 42z" />
    <glyph glyph-name="afii10082.001" horiz-adv-x="523" 
d="M139 4l-38 -215h-140l92 520q19 108 85.5 167.5t169.5 59.5q90 0 140.5 -61.5t33.5 -165.5l-17 -97q-40 -225 -247 -225q-28 0 -79 17zM161 127q41 -19 72 -19q74 0 92 104l17 97q9 51 -6 78.5t-47 27.5q-34 0 -60.5 -28t-35.5 -78z" />
    <glyph glyph-name="ntilde.smcp" horiz-adv-x="559" 
d="M452 768l41 -62q-15 -27 -44 -46t-65 -19q-24 0 -53 22.5t-46 22.5q-29 0 -52 -29l-41 62q16 27 45 46t65 19q24 0 53 -22.5t46 -22.5q28 0 51 29zM452 0h-115l-124 309q-7 -63 -13 -93l-39 -216h-140l101 574h114l124 -306q3 33 14 90l39 216h140z" />
    <glyph glyph-name="two.onum" horiz-adv-x="488" 
d="M393 0h-401l10 62q11 66 48 117t82 80.5t88.5 53.5t73 49.5t29.5 54.5q0 48 -61 48q-62 0 -147 -40l-31 105q103 56 201 56q80 0 131 -40.5t51 -107.5q0 -52 -28.5 -95.5t-70.5 -73t-84 -54t-74 -49.5t-37 -49h250z" />
    <glyph glyph-name="three.onum" horiz-adv-x="488" 
d="M-40 -78l38 112q92 -29 141 -29q58 0 98.5 34t40.5 87q0 67 -86 67h-84v109l187 154h-234v117h402l-12 -117l-186 -154q66 -2 111.5 -46.5t45.5 -114.5q0 -115 -83.5 -186t-195.5 -71q-85 0 -183 38z" />
    <glyph glyph-name="four.onum" horiz-adv-x="555" 
d="M371 -102l-135 -10l25 142h-241v110l205 433h130l-194 -419h122l35 200l137 23l-39 -223h91l-22 -124h-91z" />
    <glyph glyph-name="six.onum" horiz-adv-x="558" 
d="M43 218l38 216q19 109 97 182t193 73q73 0 160 -30l-50 -117q-68 26 -130 26q-45 0 -80.5 -32.5t-45.5 -84.5l-5 -23q56 40 121 40q82 0 130 -47t48 -133q0 -137 -84.5 -219t-197.5 -82q-97 0 -154.5 64.5t-39.5 166.5zM201 320l-18 -103q-7 -42 12 -75.5t62 -33.5
q55 0 86.5 49.5t31.5 118.5q0 84 -74 84q-53 0 -100 -40z" />
    <glyph glyph-name="oacute.smcp" horiz-adv-x="562" 
d="M470 701l-230 -77l-20 83l230 89zM532 346l-21 -118q-21 -118 -94 -179.5t-180 -61.5q-101 0 -155.5 62.5t-34.5 178.5l21 118q20 117 94 179t180 62q101 0 155 -63t35 -178zM373 239l17 96q22 131 -69 131q-93 0 -115 -131l-17 -96q-12 -72 6 -101.5t62 -29.5
q93 0 116 131z" />
    <glyph glyph-name="atilde.smcp" horiz-adv-x="545" 
d="M461 768l41 -62q-15 -27 -44 -46t-65 -19q-24 0 -53 22.5t-46 22.5q-29 0 -52 -29l-41 62q16 27 45 46t65 19q24 0 53 -22.5t46 -22.5q28 0 51 29zM249 574h163l68 -574h-139l-12 132h-149l-57 -132h-144zM266 328l-36 -82h89l-7 82q-3 31 -3 117q-28 -83 -43 -117z" />
    <glyph glyph-name="seven.onum" horiz-adv-x="509" 
d="M251 -103h-144q61 352 250 554h-291l10 122h457l-21 -116q-113 -114 -170 -239t-91 -321z" />
    <glyph glyph-name="idieresis.smcp" horiz-adv-x="268" 
d="M375 715q0 -27 -19 -45.5t-46 -18.5q-26 0 -45 18.5t-19 45.5t19 46.5t45 19.5q27 0 46 -19.5t19 -46.5zM185 715q0 -27 -19 -45.5t-46 -18.5q-26 0 -45.5 18.5t-19.5 45.5t19.5 46.5t45.5 19.5q27 0 46 -19.5t19 -46.5zM161 0h-140l101 574h140z" />
    <glyph glyph-name="nine.onum" horiz-adv-x="553" 
d="M340 122l3 23q-56 -40 -117 -40q-83 0 -131.5 48t-48.5 134q0 69 24.5 127t65.5 95t91.5 57t103.5 20q100 0 155 -65.5t37 -165.5l-38 -216q-19 -110 -92.5 -182.5t-187.5 -72.5q-74 0 -161 30l44 119q69 -26 130 -26q45 0 80 31.5t42 83.5zM365 253l18 103q7 41 -11 75
t-62 34q-56 0 -88 -49t-32 -117q0 -86 76 -86q51 0 99 40z" />
    <glyph glyph-name="dollar.onum" horiz-adv-x="474" 
d="M227 -124h-99l19 113q-74 5 -160 40l38 122q97 -39 182 -39q40 0 68 25t28 63q0 27 -24 46t-58.5 33t-69 31t-58.5 50t-24 80q0 93 56.5 154t146.5 72l20 114h99l-21 -116q50 -8 121 -37l-38 -117q-79 34 -140 34q-96 0 -96 -74q0 -25 24 -42.5t58.5 -30.5t69 -30
t58.5 -51.5t24 -83.5q0 -99 -58 -161t-146 -78z" />
    <glyph glyph-name="cent.onum" horiz-adv-x="465" 
d="M256 -124h-99l20 116q-75 14 -112 70t-21 154l15 91q34 203 213 226l21 114h99l-21 -115q39 -5 92 -21l-41 -116q-65 20 -116 20q-46 0 -71.5 -24t-35.5 -84l-15 -91q-10 -60 6.5 -84t62.5 -24q44 0 122 20l11 -116q-59 -17 -111 -23z" />
    <glyph glyph-name="iogonek.smcp" horiz-adv-x="268" 
d="M125 -128l-2 -85q-26 -11 -64 -11q-100 0 -100 78q0 83 93 146h-31l101 574h140l-101 -574q-39 -25 -66.5 -57.5t-27.5 -57.5q0 -19 24 -19q17 0 34 6z" />
    <glyph glyph-name="sterling.onum" horiz-adv-x="491" 
d="M414 0h-398l17 100q76 79 90 163h-63l14 81h51q-5 70 -5 87q0 123 65.5 190.5t167.5 67.5q76 0 159 -40l-37 -110q-60 27 -114 27q-98 0 -98 -138q0 -14 5 -84h152l-14 -81h-142q-8 -45 -30.5 -86t-52.5 -65h252z" />
    <glyph glyph-name="Euro.onum" horiz-adv-x="529" 
d="M465 130l5 -121q-87 -22 -163 -22q-107 0 -167 65t-44 176h-63l12 72h64l13 76h-63l12 72h65q23 112 100 176.5t182 64.5q77 0 155 -22l-34 -121q-74 19 -129 19q-49 0 -84 -31.5t-47 -85.5h179l-26 -72h-167l-13 -76h150l-26 -72h-137q-7 -54 17.5 -85.5t73.5 -31.5
q54 0 135 19z" />
    <glyph glyph-name="rcaron.smcp" horiz-adv-x="507" 
d="M471 715l-164 -85l-131 85l63 81l83 -61l108 61zM433 0h-146l-55 207h-35l-36 -207h-140l101 574h209q77 0 121 -44t44 -110q0 -54 -32 -109t-98 -83zM217 320h61q29 0 52.5 22.5t23.5 56.5q0 25 -14 40t-37 15h-62z" />
    <glyph glyph-name="yen.onum" horiz-adv-x="529" 
d="M420 92h-116l-16 -92h-143l16 92h-116l14 80h116l12 69h-116l14 81h85l-102 354h145l70 -291l175 291h144l-228 -354h86l-14 -81h-116l-12 -69h116z" />
    <glyph glyph-name="lacute.smcp" horiz-adv-x="453" 
d="M339 701l-230 -77l-20 83l230 89zM381 0h-360l101 574h140l-80 -453h223z" />
    <glyph glyph-name="scedilla.smcp" horiz-adv-x="445" 
d="M123 -75l12 64q-72 8 -139 36l37 119q83 -36 156 -36q34 0 54.5 18.5t20.5 44.5q0 24 -31 44.5t-67.5 36t-67.5 50t-31 83.5q0 91 64 146.5t158 55.5q63 0 161 -38l-46 -114q-79 31 -125 31q-35 0 -51.5 -15.5t-16.5 -35.5q0 -19 20.5 -36t49.5 -32.5t57.5 -34.5
t49 -50.5t20.5 -72.5q0 -83 -46.5 -132t-120.5 -64l-14 -81q-11 -63 -50.5 -93t-90.5 -30q-44 0 -83 13l23 96q32 -9 58 -9q32 0 39 36z" />
    <glyph glyph-name="zero.tnum" 
d="M559 413l-26 -149q-24 -136 -105 -206.5t-187 -70.5t-163 70.5t-33 206.5l26 149q24 135 105 205.5t188 70.5t163 -70.5t32 -205.5zM392 264l26 149q27 155 -76 155q-104 0 -131 -155l-26 -149q-27 -156 77 -156q103 0 130 156z" />
    <glyph glyph-name="one.tnum" 
d="M386 0h-141l95 548l-149 -23l22 122l293 42z" />
    <glyph glyph-name="two.tnum" 
d="M454 0h-432l13 78q11 60 43 110.5t71.5 82t84 61.5t81 52.5t60.5 52t24 62.5q0 29 -19 49t-55 20q-63 0 -154 -42l-29 108q110 55 211 55q86 0 138 -45.5t52 -120.5q0 -61 -34 -114.5t-83 -91.5t-99 -70.5t-88 -65.5t-43 -64h278z" />
    <glyph glyph-name="three.tnum" 
d="M34 25l38 112q92 -29 141 -29q58 0 98.5 34t40.5 87q0 67 -86 67h-84v109l187 154h-234v117h402l-12 -117l-186 -154q66 -2 111.5 -46.5t45.5 -114.5q0 -115 -83.5 -186t-195.5 -71q-85 0 -183 38z" />
    <glyph glyph-name="four.tnum" 
d="M392 1l-135 -10l25 142h-241v110l205 433h130l-194 -419h122l35 200l137 23l-39 -223h91l-22 -124h-91z" />
    <glyph glyph-name="six.tnum" 
d="M50 218l38 216q19 109 97 182t193 73q73 0 160 -30l-50 -117q-68 26 -130 26q-45 0 -80.5 -32.5t-45.5 -84.5l-5 -23q56 40 121 40q82 0 130 -47t48 -133q0 -137 -84.5 -219t-197.5 -82q-97 0 -154.5 64.5t-39.5 166.5zM208 320l-18 -103q-7 -42 12 -75.5t62 -33.5
q55 0 86.5 49.5t31.5 118.5q0 84 -74 84q-53 0 -100 -40z" />
    <glyph glyph-name="uacute.smcp" horiz-adv-x="564" 
d="M477 701l-230 -77l-20 83l230 89zM357 206l65 368h140l-67 -381q-16 -90 -91 -148t-168 -58t-147.5 58t-37.5 148l67 381h140l-65 -368q-8 -46 8.5 -72t54.5 -26t65 26t36 72z" />
    <glyph glyph-name="seven.tnum" 
d="M310 0h-144q61 352 250 554h-291l10 122h457l-21 -116q-113 -114 -170 -239t-91 -321z" />
    <glyph glyph-name="ncommaaccent.smcp" horiz-adv-x="559" 
d="M452 0h-115l-124 309q-7 -63 -13 -93l-39 -216h-140l101 574h114l124 -306q3 33 14 90l39 216h140zM209 -224h-91l55 162h120z" />
    <glyph glyph-name="ocircumflex.smcp" horiz-adv-x="562" 
d="M442 630l-83 61l-108 -61l-41 81l164 85l131 -85zM532 346l-21 -118q-21 -118 -94 -179.5t-180 -61.5q-101 0 -155.5 62.5t-34.5 178.5l21 118q20 117 94 179t180 62q101 0 155 -63t35 -178zM373 239l17 96q22 131 -69 131q-93 0 -115 -131l-17 -96q-12 -72 6 -101.5
t62 -29.5q93 0 116 131z" />
    <glyph glyph-name="eight.tnum" 
d="M448 358q79 -54 79 -137q0 -54 -26.5 -100t-68 -74.5t-89.5 -44t-93 -15.5q-83 0 -145.5 44.5t-62.5 121.5q0 121 136 193q-61 47 -61 120q0 86 72.5 154.5t183.5 68.5q78 0 134.5 -43.5t56.5 -114.5q0 -107 -116 -173zM337 417q83 41 83 95q0 23 -19.5 39.5t-49.5 16.5
q-37 0 -63.5 -22.5t-26.5 -52.5q0 -23 19.5 -40.5t56.5 -35.5zM288 284q-50 -24 -76 -49.5t-26 -61.5q0 -27 24 -46t61 -19q44 0 78 26t34 61q0 28 -23.5 47t-71.5 42z" />
    <glyph glyph-name="uogonek.smcp" horiz-adv-x="564" 
d="M266 -128l-2 -85q-26 -11 -64 -11q-100 0 -100 78q0 80 82 139q-71 16 -107.5 70t-23.5 130l67 381h140l-65 -368q-8 -46 8.5 -72t54.5 -26t65.5 26t35.5 72l65 368h140l-67 -381q-14 -76 -71 -130t-133 -70q-36 -24 -59.5 -54t-23.5 -54q0 -19 24 -19q18 0 34 6z" />
    <glyph glyph-name="nine.tnum" 
d="M365 225l3 23q-56 -40 -117 -40q-83 0 -131.5 48t-48.5 134q0 69 24.5 127t65.5 95t91.5 57t103.5 20q100 0 155 -65.5t37 -165.5l-38 -216q-19 -110 -92.5 -182.5t-187.5 -72.5q-74 0 -161 30l44 119q69 -26 130 -26q45 0 80 31.5t42 83.5zM390 356l18 103q7 41 -11 75
t-62 34q-56 0 -88 -49t-32 -117q0 -86 76 -86q51 0 99 40z" />
    <glyph glyph-name="dollar.tnum" 
d="M277 -124h-99l19 113q-74 5 -160 40l38 122q97 -39 182 -39q40 0 68 25t28 63q0 27 -24 46t-58.5 33t-69 31t-58.5 50t-24 80q0 93 56.5 154t146.5 72l20 114h99l-21 -116q50 -8 121 -37l-38 -117q-79 34 -140 34q-96 0 -96 -74q0 -25 24 -42.5t58.5 -30.5t69 -30
t58.5 -51.5t24 -83.5q0 -99 -58 -161t-146 -78z" />
    <glyph glyph-name="omacron.smcp" horiz-adv-x="562" 
d="M479 668h-249l16 90h249zM532 346l-21 -118q-21 -118 -94 -179.5t-180 -61.5q-101 0 -155.5 62.5t-34.5 178.5l21 118q20 117 94 179t180 62q101 0 155 -63t35 -178zM373 239l17 96q22 131 -69 131q-93 0 -115 -131l-17 -96q-12 -72 6 -101.5t62 -29.5q93 0 116 131z" />
    <glyph glyph-name="sterling.tnum" 
d="M450 0h-398l17 100q76 79 90 163h-63l14 81h51q-5 70 -5 87q0 123 65.5 190.5t167.5 67.5q76 0 159 -40l-37 -110q-60 27 -114 27q-98 0 -98 -138q0 -14 5 -84h152l-14 -81h-142q-8 -45 -30.5 -86t-52.5 -65h252z" />
    <glyph glyph-name="yacute.smcp" horiz-adv-x="514" 
d="M441 701l-230 -77l-20 83l230 89zM284 0h-140l38 218l-106 356h150l48 -212l124 212h156l-232 -356z" />
    <glyph glyph-name="Euro.tnum" 
d="M477 130l5 -121q-87 -22 -163 -22q-107 0 -167 65t-44 176h-63l12 72h64l13 76h-63l12 72h65q23 112 100 176.5t182 64.5q77 0 155 -22l-34 -121q-74 19 -129 19q-49 0 -84 -31.5t-47 -85.5h179l-26 -72h-167l-13 -76h150l-26 -72h-137q-7 -54 17.5 -85.5t73.5 -31.5
q54 0 135 19z" />
    <glyph glyph-name="numbersign.tnum" 
d="M376 0h-122l49 181h-92l-49 -181h-122l49 181h-69l22 123h82l28 102h-69l22 123h81l50 180h121l-49 -180h92l50 180h121l-50 -180h69l-22 -123h-81l-28 -102h68l-22 -123h-81zM337 304l28 102h-92l-28 -102h92z" />
    <glyph glyph-name="zcaron.smcp" horiz-adv-x="502" 
d="M471 715l-164 -85l-131 85l63 81l83 -61l108 61zM406 0h-409l16 91l285 362h-214l20 121h395l-16 -92l-289 -361h244z" />
    <glyph glyph-name="zeroonum.tnum" 
d="M542 328l-14 -83q-21 -122 -99 -190t-189 -68q-99 0 -157.5 69.5t-38.5 188.5l14 83q21 122 98.5 190t188.5 68q98 0 158 -69.5t39 -188.5zM388 245l14 83q12 67 -9.5 102t-68.5 35t-80 -35t-45 -102l-14 -83q-12 -68 8.5 -102.5t67.5 -34.5t81 35t46 102z" />
    <glyph glyph-name="oneonum.tnum" 
d="M389 0h-140l79 445l-153 -23l22 122l296 42z" />
    <glyph glyph-name="twoonum.tnum" 
d="M442 0h-401l10 62q11 66 48 117t82 80.5t88.5 53.5t73 49.5t29.5 54.5q0 48 -61 48q-62 0 -147 -40l-31 105q103 56 201 56q80 0 131 -40.5t51 -107.5q0 -52 -28.5 -95.5t-70.5 -73t-84 -54t-74 -49.5t-37 -49h250z" />
    <glyph glyph-name="threeonum.tnum" 
d="M16 -78l38 112q92 -29 141 -29q58 0 98.5 34t40.5 87q0 67 -86 67h-84v109l187 154h-234v117h402l-12 -117l-186 -154q66 -2 111.5 -46.5t45.5 -114.5q0 -115 -83.5 -186t-195.5 -71q-85 0 -183 38z" />
    <glyph glyph-name="fouronum.tnum" 
d="M374 -102l-135 -10l25 142h-241v110l205 433h130l-194 -419h122l35 200l137 23l-39 -223h91l-22 -124h-91z" />
    <glyph glyph-name="fiveonum.tnum" 
d="M9 -82l40 118q97 -31 161 -31q56 0 95.5 35t39.5 100q0 77 -111 77h-143l75 356h379l-40 -115h-236l-28 -126h26q102 0 162 -44t60 -127q0 -69 -27 -124t-70 -87t-91.5 -49t-96.5 -17q-93 0 -195 34z" />
    <glyph glyph-name="sixonum.tnum" 
d="M45 218l38 216q19 109 97 182t193 73q73 0 160 -30l-50 -117q-68 26 -130 26q-45 0 -80.5 -32.5t-45.5 -84.5l-5 -23q56 40 121 40q82 0 130 -47t48 -133q0 -137 -84.5 -219t-197.5 -82q-97 0 -154.5 64.5t-39.5 166.5zM203 320l-18 -103q-7 -42 12 -75.5t62 -33.5
q55 0 86.5 49.5t31.5 118.5q0 84 -74 84q-53 0 -100 -40z" />
    <glyph glyph-name="sevenonum.tnum" 
d="M292 -103h-144q61 352 250 554h-291l10 122h457l-21 -116q-113 -114 -170 -239t-91 -321z" />
    <glyph glyph-name="scommaaccent.smcp" horiz-adv-x="445" 
d="M-4 25l37 119q83 -36 156 -36q34 0 54.5 18.5t20.5 44.5q0 24 -31 44.5t-67.5 36t-67.5 50t-31 83.5q0 91 64 146.5t158 55.5q63 0 161 -38l-46 -114q-79 31 -125 31q-35 0 -51.5 -15.5t-16.5 -35.5q0 -19 20.5 -36t49.5 -32.5t57.5 -34.5t49 -50.5t20.5 -72.5
q0 -100 -66.5 -151t-161.5 -51q-90 0 -184 38zM163 -224h-91l55 162h120z" />
    <glyph glyph-name="eightonum.tnum" 
d="M443 358q79 -54 79 -137q0 -54 -26.5 -100t-68 -74.5t-89.5 -44t-93 -15.5q-83 0 -145.5 44.5t-62.5 121.5q0 121 136 193q-61 47 -61 120q0 86 72.5 154.5t183.5 68.5q78 0 134.5 -43.5t56.5 -114.5q0 -107 -116 -173zM332 417q83 41 83 95q0 23 -19.5 39.5t-49.5 16.5
q-37 0 -63.5 -22.5t-26.5 -52.5q0 -23 19.5 -40.5t56.5 -35.5zM283 284q-50 -24 -76 -49.5t-26 -61.5q0 -27 24 -46t61 -19q44 0 78 26t34 61q0 28 -23.5 47t-71.5 42z" />
    <glyph glyph-name="nineonum.tnum" 
d="M347 122l3 23q-56 -40 -117 -40q-83 0 -131.5 48t-48.5 134q0 69 24.5 127t65.5 95t91.5 57t103.5 20q100 0 155 -65.5t37 -165.5l-38 -216q-19 -110 -92.5 -182.5t-187.5 -72.5q-74 0 -161 30l44 119q69 -26 130 -26q45 0 80 31.5t42 83.5zM372 253l18 103q7 41 -11 75
t-62 34q-56 0 -88 -49t-32 -117q0 -86 76 -86q51 0 99 40z" />
    <glyph glyph-name="dollaronum.tnum" 
d="M267 -124h-99l19 113q-74 5 -160 40l38 122q97 -39 182 -39q40 0 68 25t28 63q0 27 -24 46t-58.5 33t-69 31t-58.5 50t-24 80q0 93 56.5 154t146.5 72l20 114h99l-21 -116q50 -8 121 -37l-38 -117q-79 34 -140 34q-96 0 -96 -74q0 -25 24 -42.5t58.5 -30.5t69 -30
t58.5 -51.5t24 -83.5q0 -99 -58 -161t-146 -78z" />
    <glyph glyph-name="sterlingonum.tnum" 
d="M455 0h-398l17 100q76 79 90 163h-63l14 81h51q-5 70 -5 87q0 123 65.5 190.5t167.5 67.5q76 0 159 -40l-37 -110q-60 27 -114 27q-98 0 -98 -138q0 -14 5 -84h152l-14 -81h-142q-8 -45 -30.5 -86t-52.5 -65h252z" />
    <glyph glyph-name="Euroonum.tnum" 
d="M487 130l5 -121q-87 -22 -163 -22q-107 0 -167 65t-44 176h-63l12 72h64l13 76h-63l12 72h65q23 112 100 176.5t182 64.5q77 0 155 -22l-34 -121q-74 19 -129 19q-49 0 -84 -31.5t-47 -85.5h179l-26 -72h-167l-13 -76h150l-26 -72h-137q-7 -54 17.5 -85.5t73.5 -31.5
q54 0 135 19z" />
    <glyph glyph-name="yenonum.tnum" 
d="M447 92h-116l-16 -92h-143l16 92h-116l14 80h116l12 69h-116l14 81h85l-102 354h145l70 -291l175 291h144l-228 -354h86l-14 -81h-116l-12 -69h116z" />
    <glyph glyph-name="gbreve.smcp" horiz-adv-x="517" 
d="M397 786h88q-13 -65 -54.5 -105t-106.5 -40q-55 0 -86 42t-21 103h87q-4 -26 6 -43t29 -17q20 0 36.5 17t21.5 43zM339 117l19 107h-57l16 98h188l-54 -303q-102 -32 -206 -32q-108 0 -163 61t-35 178l21 122q21 118 94.5 178.5t187.5 60.5q79 0 153 -26l-38 -116
q-63 21 -135 21q-50 0 -81 -29.5t-43 -100.5l-17 -97q-13 -73 6.5 -102t69.5 -29q35 0 74 9z" />
    <glyph glyph-name="five.onum" horiz-adv-x="505" 
d="M-33 -82l40 118q97 -31 161 -31q56 0 95.5 35t39.5 100q0 77 -111 77h-143l75 356h379l-40 -115h-236l-28 -126h26q102 0 162 -44t60 -127q0 -69 -27 -124t-70 -87t-91.5 -49t-96.5 -17q-93 0 -195 34z" />
    <glyph glyph-name="a.smcp" horiz-adv-x="545" 
d="M249 574h163l68 -574h-139l-12 132h-149l-57 -132h-144zM266 328l-36 -82h89l-7 82q-3 31 -3 117q-28 -83 -43 -117z" />
    <glyph glyph-name="umacron.smcp" horiz-adv-x="564" 
d="M477 668h-249l16 90h249zM357 206l65 368h140l-67 -381q-16 -90 -91 -148t-168 -58t-147 58t-38 148l67 381h140l-65 -368q-8 -46 8.5 -72t54.5 -26t65 26t36 72z" />
    <glyph glyph-name="wgrave.smcp" horiz-adv-x="745" 
d="M530 624l-203 84l48 88l199 -96zM83 0l10 574h142l-17 -256q-4 -57 -16 -139q26 76 56 138l80 163h147l24 -163q9 -57 11 -135q26 116 32 136l72 256h144l-194 -574h-153l-27 248q-6 43 -4 92q-15 -50 -35 -92l-119 -248h-153z" />
    </font>
</defs>
</svg>
